<?xml version="1.0" encoding="utf-8"?>
<!-- Generator: Adobe Illustrator 27.1.1, SVG Export Plug-In . SVG Version: 6.00 Build 0)  -->
<svg version="1.1" id="Layer_1" xmlns="http://www.w3.org/2000/svg" xmlns:xlink="http://www.w3.org/1999/xlink" x="0px" y="0px"
	 viewBox="0 0 250 300" style="enable-background:new 0 0 250 300;" xml:space="preserve">
<style type="text/css">
	.st0{enable-background:new    ;}
	.st1{fill:#E25A68;}
	.st2{fill:#FF92B9;}
	.st3{fill:#FF587A;}
	.st4{fill:url(#SVGID_1_);}
	.st5{fill:url(#SVGID_00000041274248446846715270000004460005218950854283_);}
	.st6{fill:url(#SVGID_00000158736268589691677870000010711069944934014086_);}
	.st7{fill:url(#SVGID_00000042700791066942461220000014897183056268296094_);}
	.st8{fill:url(#SVGID_00000047025548308205658990000016792962427821513130_);}
	.st9{fill:url(#SVGID_00000031927154278721205000000017624863002960125606_);}
	.st10{fill:url(#SVGID_00000031208654411499606570000005216919954779540613_);}
	.st11{fill:url(#SVGID_00000048475912031741117780000015800227271677572746_);}
	.st12{fill:url(#SVGID_00000147186938313097589390000002145866128799708045_);}
	.st13{fill:url(#SVGID_00000030471839598430200520000016199573397244489863_);}
	.st14{fill:url(#SVGID_00000036218905904759777810000001243906708114559675_);}
	.st15{fill:url(#SVGID_00000044159580999518227980000016157049239602890913_);}
	.st16{fill:url(#SVGID_00000022530471924580089870000003257149194126211229_);}
	.st17{fill:url(#SVGID_00000084522893512599369580000009139208603180484252_);}
	.st18{fill:url(#SVGID_00000037678132172655814700000016702634821775391382_);}
	.st19{fill:url(#SVGID_00000013166551170188435620000001310238390647910332_);}
	.st20{fill:url(#SVGID_00000026161789915457557960000009710706121871880578_);}
	.st21{fill:url(#SVGID_00000176028249139849456780000009343258307949325990_);}
	.st22{fill:url(#SVGID_00000116919307443152119200000012392568680118317709_);}
	.st23{fill:url(#SVGID_00000131351351338912528950000002444980473703896245_);}
	.st24{fill:url(#SVGID_00000069392888093904531290000012881136517181183137_);}
	.st25{fill:url(#SVGID_00000165236099029301789110000001215450577320679094_);}
	.st26{fill:url(#SVGID_00000101795022642435452750000017198091044979922084_);}
	.st27{fill:url(#SVGID_00000111875975790607643570000006572269482415561124_);}
	.st28{fill:url(#SVGID_00000036932556039824219120000008970568930849290162_);}
</style>
<g>
	<g class="st0">
		<path class="st1" d="M16,286.3l4.2-11.1h1.5l4.5,11.1h-1.7l-1.4-3.3h-4.7l-1.2,3.3H16z M19.2,281.7H23l-1.2-3
			c-0.3-0.9-0.6-1.7-0.8-2.3c-0.2,0.8-0.3,1.4-0.6,2.1L19.2,281.7z"/>
		<path class="st1" d="M27.4,286.3v-8h1.2v1.2c0.6-0.9,1.4-1.4,2.6-1.4c0.5,0,0.9,0.2,1.4,0.3c0.5,0.2,0.8,0.5,0.9,0.8
			c0.2,0.3,0.3,0.6,0.5,1.1c0,0.3,0,0.8,0,1.4v5h-1.4v-4.8c0-0.6,0-0.9-0.2-1.2s-0.3-0.5-0.6-0.6c-0.3-0.2-0.6-0.3-0.9-0.3
			c-0.6,0-1.1,0.2-1.5,0.6c-0.5,0.5-0.6,1.1-0.6,2.1v4.4h-1.4V286.3z"/>
		<path class="st1" d="M36,276.7v-1.5h1.4v1.5H36z M36,286.3v-8h1.4v8H36z"/>
		<path class="st1" d="M38.9,283.9l1.4-0.2c0,0.6,0.3,0.9,0.6,1.2c0.3,0.3,0.8,0.5,1.5,0.5c0.6,0,1.1-0.2,1.4-0.5
			c0.3-0.3,0.5-0.6,0.5-0.9c0-0.3-0.2-0.6-0.5-0.8c-0.2-0.2-0.6-0.3-1.4-0.5c-1.1-0.3-1.7-0.5-2.1-0.6s-0.6-0.5-0.9-0.8
			c-0.2-0.3-0.3-0.8-0.3-1.1s0.2-0.8,0.3-1.1c0.2-0.3,0.5-0.6,0.6-0.8c0.2-0.2,0.5-0.3,0.9-0.5c0.5-0.2,0.8-0.2,1.2-0.2
			c0.6,0,1.2,0.2,1.7,0.3s0.8,0.5,1.1,0.8c0.3,0.3,0.5,0.8,0.5,1.2l-1.4,0.2c0-0.5-0.3-0.8-0.5-0.9c-0.3-0.3-0.8-0.3-1.2-0.3
			c-0.6,0-1.1,0.2-1.4,0.3c-0.3,0.2-0.5,0.5-0.5,0.8c0,0.2,0,0.3,0.2,0.5s0.3,0.3,0.5,0.3s0.6,0.2,1.2,0.3c0.9,0.3,1.7,0.5,2,0.6
			c0.3,0.2,0.6,0.5,0.9,0.8c0.2,0.3,0.3,0.8,0.3,1.2c0,0.5-0.2,0.9-0.5,1.2c-0.3,0.5-0.6,0.8-1.2,0.9c-0.5,0.2-1.1,0.3-1.7,0.3
			c-1.1,0-1.8-0.2-2.4-0.6C39.1,285.2,39.1,284.8,38.9,283.9z"/>
		<path class="st1" d="M47.1,286.3v-8h1.2v1.2c0.3-0.6,0.6-0.9,0.9-1.1s0.6-0.3,0.9-0.3c0.5,0,0.9,0.2,1.4,0.5l-0.5,1.2
			c-0.3-0.2-0.6-0.3-1.1-0.3c-0.3,0-0.6,0.2-0.8,0.3c-0.3,0.2-0.5,0.5-0.5,0.8c-0.2,0.5-0.2,1.1-0.2,1.5v4.2L47.1,286.3L47.1,286.3z
			"/>
		<path class="st1" d="M57.7,283.7l1.4,0.2c-0.2,0.8-0.6,1.5-1.2,2c-0.6,0.5-1.4,0.6-2.3,0.6c-1.2,0-2.1-0.3-2.7-1.1
			c-0.8-0.8-1.1-1.7-1.1-3c0-1.4,0.3-2.4,1.1-3.2c0.8-0.8,1.7-1.1,2.7-1.1s2,0.3,2.6,1.1s1.1,1.8,1.1,3c0,0.2,0,0.2,0,0.3h-5.9
			c0,0.9,0.3,1.5,0.8,2c0.5,0.5,1.1,0.8,1.7,0.8c0.5,0,0.9-0.2,1.2-0.5C57.2,284.8,57.5,284.3,57.7,283.7z M53.3,281.6h4.5
			c0-0.6-0.3-1.2-0.5-1.5c-0.5-0.5-1.1-0.8-1.7-0.8s-1.2,0.2-1.5,0.6C53.6,280.2,53.3,280.8,53.3,281.6z"/>
		<path class="st1" d="M66.3,283.7l1.4,0.2c-0.2,0.8-0.6,1.5-1.2,2c-0.6,0.5-1.4,0.6-2.3,0.6c-1.2,0-2.1-0.3-2.7-1.1
			c-0.8-0.8-1.1-1.7-1.1-3c0-1.4,0.3-2.4,1.1-3.2s1.7-1.1,2.7-1.1c1.1,0,2,0.3,2.6,1.1c0.6,0.8,1.1,1.8,1.1,3c0,0.2,0,0.2,0,0.3
			h-5.9c0,0.9,0.3,1.5,0.8,2c0.5,0.5,1.1,0.8,1.7,0.8c0.5,0,0.9-0.2,1.2-0.5C65.9,284.8,66.2,284.3,66.3,283.7z M61.9,281.6h4.5
			c0-0.6-0.3-1.2-0.5-1.5c-0.5-0.5-1.1-0.8-1.7-0.8c-0.6,0-1.2,0.2-1.5,0.6C62.2,280.2,61.9,280.8,61.9,281.6z"/>
		<path class="st1" d="M73.4,282.8l1.4-0.2c0,0.6,0.2,1.1,0.5,1.4c0.3,0.3,0.6,0.6,1.1,0.9c0.5,0.2,1.1,0.3,1.7,0.3s1.1-0.2,1.5-0.3
			c0.5-0.2,0.8-0.5,0.9-0.8c0.2-0.3,0.3-0.6,0.3-0.9c0-0.3-0.2-0.6-0.3-0.9c-0.2-0.3-0.6-0.5-1.1-0.6c-0.3-0.2-0.9-0.3-2-0.6
			c-1.1-0.3-1.7-0.5-2.1-0.8c-0.5-0.3-0.9-0.6-1.2-1.1c-0.3-0.5-0.5-0.9-0.5-1.4c0-0.6,0.2-1.1,0.5-1.5c0.3-0.5,0.8-0.9,1.4-1.1
			c0.6-0.3,1.2-0.3,2-0.3c0.8,0,1.5,0.2,2.1,0.5c0.6,0.3,1.1,0.6,1.5,1.2c0.3,0.5,0.5,1.1,0.6,1.8l-1.4,0.2c0-0.8-0.3-1.2-0.8-1.5
			c-0.5-0.3-1.1-0.6-2-0.6c-0.9,0-1.5,0.2-2,0.5c-0.5,0.3-0.6,0.8-0.6,1.2c0,0.5,0.2,0.8,0.5,0.9c0.3,0.3,1.1,0.5,2.3,0.8
			c1.2,0.3,2,0.5,2.4,0.8c0.6,0.3,1.1,0.6,1.4,1.1c0.3,0.5,0.5,0.9,0.5,1.5c0,0.6-0.2,1.2-0.5,1.7c-0.3,0.5-0.8,0.9-1.5,1.2
			c-0.6,0.3-1.4,0.5-2.1,0.5c-1.1,0-1.8-0.2-2.6-0.5c-0.6-0.3-1.2-0.8-1.7-1.4C73.1,284.2,73.4,283.4,73.4,282.8z"/>
		<path class="st1" d="M84,286.3v-8h1.2v1.2c0.3-0.6,0.6-0.9,0.9-1.1c0.3-0.2,0.6-0.3,0.9-0.3c0.5,0,0.9,0.2,1.4,0.5l-0.5,1.2
			c-0.3-0.2-0.6-0.3-1.1-0.3c-0.3,0-0.6,0.2-0.8,0.3c-0.3,0.2-0.5,0.5-0.5,0.8c-0.2,0.5-0.2,1.1-0.2,1.5v4.2L84,286.3L84,286.3z"/>
		<path class="st1" d="M94.7,283.7l1.4,0.2c-0.2,0.8-0.6,1.5-1.2,2c-0.6,0.5-1.4,0.6-2.3,0.6c-1.2,0-2.1-0.3-2.7-1.1
			c-0.8-0.8-1.1-1.7-1.1-3c0-1.4,0.3-2.4,1.1-3.2c0.8-0.8,1.7-1.1,2.7-1.1c1.1,0,2,0.3,2.6,1.1s1.1,1.8,1.1,3c0,0.2,0,0.2,0,0.3
			h-5.9c0,0.9,0.3,1.5,0.8,2c0.5,0.5,1.1,0.8,1.7,0.8c0.5,0,0.9-0.2,1.2-0.5C94.2,284.8,94.5,284.3,94.7,283.7z M90.3,281.6h4.5
			c0-0.6-0.3-1.2-0.5-1.5c-0.5-0.5-1.1-0.8-1.7-0.8c-0.6,0-1.2,0.2-1.5,0.6C90.6,280.2,90.3,280.8,90.3,281.6z"/>
		<path class="st1" d="M103.3,283.7l1.4,0.2c-0.2,0.8-0.6,1.5-1.2,2c-0.6,0.5-1.4,0.6-2.3,0.6c-1.2,0-2.1-0.3-2.7-1.1
			c-0.8-0.8-1.1-1.7-1.1-3c0-1.4,0.3-2.4,1.1-3.2c0.8-0.8,1.7-1.1,2.7-1.1c1.1,0,2,0.3,2.6,1.1s1.1,1.8,1.1,3c0,0.2,0,0.2,0,0.3
			h-5.9c0,0.9,0.3,1.5,0.8,2c0.5,0.5,1.1,0.8,1.7,0.8c0.5,0,0.9-0.2,1.2-0.5C102.8,284.8,103,284.3,103.3,283.7z M98.7,281.6h4.5
			c0-0.6-0.3-1.2-0.5-1.5c-0.5-0.5-1.1-0.8-1.7-0.8s-1.2,0.2-1.5,0.6C99,280.2,98.9,280.8,98.7,281.6z"/>
		<path class="st1" d="M106.3,286.3v-8h1.2v1.2c0.3-0.6,0.6-0.9,0.9-1.1s0.6-0.3,0.9-0.3c0.5,0,0.9,0.2,1.4,0.5l-0.5,1.2
			c-0.3-0.2-0.6-0.3-1.1-0.3c-0.3,0-0.6,0.2-0.8,0.3c-0.3,0.2-0.5,0.5-0.5,0.8c-0.2,0.5-0.2,1.1-0.2,1.5v4.2L106.3,286.3
			L106.3,286.3z"/>
		<path class="st1" d="M116.8,285.4c-0.5,0.5-1.1,0.8-1.5,0.9c-0.5,0.2-0.9,0.3-1.5,0.3c-0.9,0-1.5-0.2-2-0.6s-0.8-0.9-0.8-1.7
			c0-0.5,0.2-0.8,0.3-1.1c0.2-0.3,0.5-0.6,0.8-0.8s0.6-0.3,0.9-0.5c0.3,0,0.6-0.2,1.2-0.2c1.1-0.2,2-0.3,2.4-0.5c0-0.2,0-0.3,0-0.3
			c0-0.6-0.2-0.9-0.5-1.2c-0.3-0.3-0.9-0.5-1.5-0.5c-0.6,0-1.1,0.2-1.4,0.3c-0.3,0.2-0.5,0.6-0.6,1.2l-1.4-0.2
			c0.2-0.6,0.3-1.1,0.6-1.4c0.3-0.3,0.6-0.6,1.2-0.8c0.5-0.2,1.1-0.3,1.8-0.3c0.8,0,1.2,0.2,1.7,0.3c0.5,0.2,0.8,0.3,0.9,0.6
			c0.2,0.3,0.3,0.6,0.5,0.9c0,0.3,0,0.6,0,1.2v1.8c0,1.2,0,2.1,0.2,2.4c0.2,0.3,0.2,0.6,0.3,0.9h-1.4
			C116.9,286,116.8,285.7,116.8,285.4z M116.6,282.4c-0.5,0.2-1.2,0.3-2.3,0.5c-0.6,0.2-0.9,0.2-1.2,0.3c-0.3,0.2-0.5,0.3-0.6,0.5
			c-0.2,0.2-0.2,0.5-0.2,0.6c0,0.3,0.2,0.6,0.5,0.9c0.3,0.3,0.6,0.3,1.2,0.3c0.5,0,1.1-0.2,1.4-0.3c0.5-0.3,0.8-0.6,0.9-0.9
			c0.2-0.3,0.2-0.8,0.2-1.4v-0.5H116.6z"/>
		<path class="st1" d="M118.4,289.5l0.3-1.2c0.3,0,0.5,0.2,0.6,0.2c0.3,0,0.5-0.2,0.6-0.3c0.2-0.2,0.2-0.6,0.2-1.4v-8.5h1.4v8.5
			c0,1.1-0.2,1.7-0.5,2.1c-0.3,0.5-0.9,0.8-1.7,0.8C119,289.6,118.7,289.5,118.4,289.5z M120.1,276.7v-1.5h1.4v1.5H120.1z"/>
		<path class="st1" d="M123.4,276.7v-1.5h1.5v1.2c0,0.6-0.2,1.2-0.3,1.5c-0.2,0.5-0.6,0.8-1.1,0.9l-0.3-0.6c0.3-0.2,0.5-0.3,0.6-0.5
			c0.2-0.3,0.2-0.6,0.2-0.9h-0.6V276.7z"/>
		<path class="st1" d="M126.2,283.9l1.4-0.2c0.2,0.6,0.3,0.9,0.6,1.2c0.3,0.3,0.8,0.5,1.5,0.5c0.6,0,1.1-0.2,1.4-0.5
			c0.3-0.3,0.5-0.6,0.5-0.9c0-0.3-0.2-0.6-0.5-0.8c-0.2-0.2-0.6-0.3-1.4-0.5c-1.1-0.3-1.7-0.5-2.1-0.6s-0.6-0.5-0.9-0.8
			c-0.2-0.3-0.3-0.8-0.3-1.1s0.2-0.8,0.3-1.1c0.2-0.3,0.5-0.6,0.6-0.8c0.2-0.2,0.5-0.3,0.9-0.5c0.5-0.2,0.8-0.2,1.2-0.2
			c0.6,0,1.2,0.2,1.7,0.3c0.5,0.2,0.8,0.5,1.1,0.8c0.3,0.3,0.5,0.8,0.5,1.2l-1.4,0.2c0-0.5-0.3-0.8-0.5-0.9
			c-0.3-0.3-0.8-0.3-1.2-0.3c-0.6,0-1.1,0.2-1.4,0.3c-0.3,0.2-0.5,0.5-0.5,0.8c0,0.2,0,0.3,0.2,0.5s0.3,0.3,0.5,0.3s0.6,0.2,1.2,0.3
			c0.9,0.3,1.7,0.5,2,0.6c0.5,0.2,0.6,0.5,0.9,0.8c0.3,0.3,0.3,0.8,0.3,1.2c0,0.5-0.2,0.9-0.5,1.2c-0.3,0.5-0.6,0.8-1.2,0.9
			c-0.5,0.2-1.1,0.3-1.7,0.3c-1.1,0-1.8-0.2-2.4-0.6C126.6,285.4,126.3,284.8,126.2,283.9z"/>
		<path class="st1" d="M138.9,286.3v-11.1h3.8c0.9,0,1.5,0,2,0.2c0.6,0.2,1.2,0.5,1.7,0.8c0.6,0.5,1.1,1.1,1.4,1.8
			c0.3,0.8,0.5,1.7,0.5,2.6c0,0.9-0.2,1.5-0.3,2.3c-0.2,0.6-0.5,1.2-0.8,1.7c-0.3,0.5-0.6,0.8-1.1,1.1c-0.3,0.3-0.8,0.5-1.4,0.6
			c-0.5,0.2-1.1,0.2-1.8,0.2H138.9z M140.4,284.9h2.4c0.8,0,1.4,0,1.7-0.2c0.5-0.2,0.8-0.3,1.1-0.6c0.3-0.3,0.6-0.8,0.8-1.4
			c0.2-0.6,0.3-1.4,0.3-2.1c0-1.2-0.2-2-0.6-2.7c-0.5-0.8-0.9-1.1-1.4-1.2c-0.5-0.2-1.1-0.2-1.8-0.2h-2.3v8.3H140.4z"/>
		<path class="st1" d="M155.4,283.7l1.4,0.2c-0.2,0.8-0.6,1.5-1.2,2c-0.6,0.5-1.4,0.6-2.3,0.6c-1.2,0-2.1-0.3-2.7-1.1
			c-0.8-0.8-1.1-1.7-1.1-3c0-1.4,0.3-2.4,1.1-3.2c0.8-0.8,1.7-1.1,2.7-1.1c1.1,0,2,0.3,2.6,1.1s1.1,1.8,1.1,3c0,0.2,0,0.2,0,0.3H151
			c0,0.9,0.3,1.5,0.8,2c0.5,0.5,1.1,0.8,1.7,0.8c0.5,0,0.9-0.2,1.2-0.5C154.8,284.8,155.1,284.3,155.4,283.7z M150.9,281.6h4.5
			c0-0.6-0.3-1.2-0.5-1.5c-0.5-0.5-1.1-0.8-1.7-0.8s-1.2,0.2-1.5,0.6C151.2,280.2,151,280.8,150.9,281.6z"/>
		<path class="st1" d="M158,283.9l1.4-0.2c0,0.6,0.3,0.9,0.6,1.2c0.3,0.3,0.8,0.5,1.5,0.5c0.6,0,1.1-0.2,1.4-0.5
			c0.3-0.3,0.5-0.6,0.5-0.9c0-0.3-0.2-0.6-0.5-0.8c-0.2-0.2-0.6-0.3-1.4-0.5c-1.1-0.3-1.7-0.5-2.1-0.6s-0.6-0.5-0.9-0.8
			c-0.2-0.3-0.3-0.8-0.3-1.1s0.2-0.8,0.3-1.1c0.2-0.3,0.5-0.6,0.6-0.8c0.2-0.2,0.5-0.3,0.9-0.5c0.5-0.2,0.8-0.2,1.2-0.2
			c0.6,0,1.2,0.2,1.7,0.3c0.5,0.2,0.8,0.5,1.1,0.8c0.2,0.3,0.5,0.8,0.5,1.2l-1.4,0.2c0-0.5-0.3-0.8-0.5-0.9
			c-0.3-0.3-0.8-0.3-1.2-0.3c-0.6,0-1.1,0.2-1.4,0.3c-0.3,0.2-0.5,0.5-0.5,0.8c0,0.2,0,0.3,0.2,0.5c0.2,0.2,0.3,0.3,0.5,0.3
			c0.2,0,0.6,0.2,1.2,0.3c0.9,0.3,1.7,0.5,2,0.6s0.6,0.5,0.9,0.8c0.3,0.3,0.3,0.8,0.3,1.2c0,0.5-0.2,0.9-0.5,1.2
			c-0.3,0.5-0.6,0.8-1.2,0.9c-0.5,0.2-1.1,0.3-1.7,0.3c-1.1,0-1.8-0.2-2.4-0.6C158.4,285.4,158.1,284.8,158,283.9z"/>
		<path class="st1" d="M166.2,276.7v-1.5h1.4v1.5H166.2z M166.2,286.3v-8h1.4v8H166.2z"/>
		<path class="st1" d="M169.3,286.9l1.4,0.2c0,0.5,0.2,0.8,0.5,0.9c0.3,0.3,0.8,0.3,1.4,0.3s1.1-0.2,1.5-0.3
			c0.5-0.2,0.6-0.6,0.8-1.1c0-0.3,0.2-0.9,0.2-1.8c-0.6,0.8-1.4,1.1-2.3,1.1c-1.1,0-2-0.5-2.6-1.2c-0.6-0.8-0.9-1.8-0.9-2.9
			c0-0.8,0.2-1.5,0.5-2.1c0.3-0.6,0.6-1.2,1.2-1.5c0.6-0.3,1.2-0.5,1.8-0.5c0.9,0,1.7,0.5,2.3,1.2v-0.9h1.2v7c0,1.2-0.2,2.1-0.5,2.7
			c-0.3,0.5-0.6,0.9-1.2,1.2c-0.6,0.3-1.2,0.5-2,0.5c-0.9,0-1.7-0.2-2.3-0.6C169.6,288.4,169.3,287.8,169.3,286.9z M170.6,282.2
			c0,1.1,0.2,1.8,0.6,2.3c0.5,0.5,0.9,0.8,1.5,0.8s1.2-0.3,1.5-0.8c0.5-0.5,0.6-1.2,0.6-2.3c0-0.9-0.2-1.7-0.6-2.3
			c-0.5-0.5-0.9-0.8-1.5-0.8s-1.1,0.3-1.5,0.8C170.7,280.5,170.6,281.1,170.6,282.2z"/>
		<path class="st1" d="M178.3,286.3v-8h1.2v1.2c0.6-0.9,1.5-1.4,2.6-1.4c0.5,0,0.9,0.2,1.4,0.3c0.5,0.2,0.8,0.5,0.9,0.8
			c0.2,0.3,0.3,0.6,0.5,1.1c0,0.3,0,0.8,0,1.4v5h-1.4v-4.8c0-0.6,0-0.9-0.2-1.2c-0.2-0.3-0.3-0.5-0.6-0.6s-0.6-0.3-0.9-0.3
			c-0.6,0-1.1,0.2-1.5,0.6s-0.6,1.1-0.6,2.1v4.4h-1.4V286.3z"/>
		<path class="st1" d="M190.7,282.8l1.4-0.2c0,0.6,0.2,1.1,0.5,1.4c0.3,0.3,0.6,0.6,1.1,0.9c0.5,0.2,1.1,0.3,1.7,0.3
			c0.6,0,1.1-0.2,1.5-0.3s0.8-0.5,0.9-0.8c0.2-0.3,0.3-0.6,0.3-0.9c0-0.3-0.2-0.6-0.3-0.9c-0.2-0.3-0.6-0.5-1.1-0.6
			c-0.3-0.2-0.9-0.3-2-0.6c-1.1-0.3-1.7-0.5-2.1-0.8c-0.5-0.3-0.9-0.6-1.2-1.1c-0.3-0.5-0.5-0.9-0.5-1.4c0-0.6,0.2-1.1,0.5-1.5
			c0.3-0.5,0.8-0.9,1.4-1.1s1.2-0.3,2-0.3s1.5,0.2,2.1,0.5s1.1,0.6,1.5,1.2c0.5,0.6,0.5,1.1,0.6,1.8l-1.4,0.2c0-0.8-0.3-1.2-0.8-1.5
			s-1.1-0.6-2-0.6s-1.5,0.2-2,0.5s-0.6,0.8-0.6,1.2c0,0.5,0.2,0.8,0.5,0.9c0.3,0.3,1.1,0.5,2.3,0.8c1.2,0.3,2,0.5,2.4,0.8
			c0.6,0.3,1.1,0.6,1.4,1.1c0.3,0.5,0.5,0.9,0.5,1.5c0,0.6-0.2,1.2-0.5,1.7c-0.3,0.5-0.8,0.9-1.5,1.2c-0.6,0.3-1.4,0.5-2.1,0.5
			c-1.1,0-1.8-0.2-2.6-0.5c-0.6-0.3-1.2-0.8-1.5-1.4C190.7,284.2,190.9,283.4,190.7,282.8z"/>
		<path class="st1" d="M204.3,285.1l0.2,1.2c-0.5,0.2-0.8,0.2-1.1,0.2c-0.5,0-0.9-0.2-1.2-0.3c-0.3-0.2-0.5-0.3-0.6-0.6
			c-0.2-0.3-0.2-0.8-0.2-1.7v-4.5h-1.1v-1.1h1.1v-2l1.4-0.8v2.7h1.4v1.1H203v4.7c0,0.5,0,0.6,0,0.8c0,0.2,0.2,0.2,0.3,0.3
			c0.2,0,0.3,0.2,0.5,0.2C203.9,285.1,204.2,285.1,204.3,285.1z"/>
		<path class="st1" d="M211,286.3v-1.2c-0.6,0.9-1.5,1.4-2.6,1.4c-0.5,0-0.9-0.2-1.4-0.3c-0.5-0.2-0.8-0.5-0.9-0.8
			c-0.2-0.3-0.3-0.6-0.5-1.1c0-0.3-0.2-0.8-0.2-1.2v-4.8h1.4v4.4c0,0.8,0,1.2,0.2,1.4c0.2,0.3,0.3,0.6,0.6,0.9
			c0.3,0.2,0.6,0.3,1.1,0.3s0.8-0.2,1.2-0.3c0.3-0.2,0.6-0.5,0.8-0.9c0.2-0.5,0.2-0.9,0.2-1.5v-4.2h1.4v8H211z"/>
		<path class="st1" d="M219.5,286.3v-1.1c-0.5,0.8-1.2,1.2-2.3,1.2c-0.6,0-1.2-0.2-1.8-0.5s-0.9-0.9-1.2-1.5
			c-0.3-0.6-0.5-1.4-0.5-2.1s0.2-1.5,0.5-2.1c0.3-0.6,0.6-1.2,1.2-1.5c0.6-0.3,1.1-0.5,1.8-0.5c0.5,0,0.9,0.2,1.4,0.3
			c0.5,0.2,0.8,0.5,0.9,0.8v-4.1h1.4v11.1H219.5z M215.2,282.4c0,1.1,0.2,1.8,0.6,2.3c0.5,0.5,0.9,0.8,1.5,0.8s1.1-0.3,1.5-0.8
			c0.5-0.5,0.6-1.2,0.6-2.3s-0.2-2-0.6-2.4c-0.5-0.5-0.9-0.8-1.5-0.8s-1.1,0.3-1.5,0.8C215.4,280.5,215.2,281.3,215.2,282.4z"/>
		<path class="st1" d="M222.8,276.7v-1.5h1.4v1.5H222.8z M222.8,286.3v-8h1.4v8H222.8z"/>
		<path class="st1" d="M225.9,282.4c0-1.5,0.5-2.6,1.2-3.3c0.8-0.6,1.5-0.9,2.6-0.9c1.1,0,2,0.3,2.7,1.1c0.8,0.8,1.1,1.7,1.1,3
			c0,1.1-0.2,1.8-0.5,2.4c-0.3,0.6-0.8,1.1-1.4,1.4c-0.6,0.3-1.2,0.5-2,0.5c-1.1,0-2-0.3-2.7-1.1
			C226.2,284.6,225.9,283.7,225.9,282.4z M227.2,282.4c0,1.1,0.2,1.8,0.6,2.3c0.5,0.5,1.1,0.8,1.7,0.8c0.6,0,1.2-0.3,1.7-0.8
			c0.5-0.5,0.6-1.4,0.6-2.3c0-1.1-0.2-1.7-0.6-2.3c-0.5-0.5-1.1-0.8-1.7-0.8c-0.6,0-1.2,0.3-1.7,0.8
			C227.4,280.5,227.2,281.3,227.2,282.4z"/>
	</g>
	<path class="st2" d="M125,262.2L125,262.2c0-1.5,1.2-2.7,2.7-2.7l0,0l0,0c-1.5,0-2.7-1.2-2.7-2.7l0,0l0,0c0,1.5-1.2,2.7-2.7,2.7
		l0,0C123.7,259.5,125,260.7,125,262.2L125,262.2z"/>
	<g>
		<path class="st3" d="M42.5,168h-9.7c-0.2,0-0.3,0.2-0.3,0.3l0,0v20.6c-0.3-0.6-0.8-1.2-1.2-1.8c-0.9-1.1-1.8-1.8-3-2.6
			c-1.2-0.8-2.6-1.2-3.9-1.5c-1.5-0.3-3-0.5-4.5-0.3c-2,0.2-3.9,0.8-5.6,1.8c-1.5,1.1-2.9,2.4-3.8,3.9c-0.9,1.7-1.7,3.5-2,5.3
			c-0.3,2-0.5,3.9-0.3,5.9c0.2,2,0.6,3.8,1.4,5.6c0.8,1.8,1.7,3.3,2.9,4.7l0,0c0.2,0.2,0.3,0.3,0.5,0.3l0.5,0.5
			c1.2,1.2,2.7,2.3,4.4,3c1.5,0.8,3.2,1.2,4.8,1.5c2,0.3,3.9,0.3,5.9-0.2c1.8-0.5,3.5-1.2,5-2.3c0.5,0.8,1.1,1.4,1.7,1.8
			c0.9,0.6,1.8,0.9,2.9,0.9h4.1c0.2,0,0.3-0.2,0.3-0.3c0-0.2-0.2-0.3-0.3-0.3c-1.1-0.2-2-0.6-2.7-1.4c-0.8-0.6-1.2-1.7-1.2-2.6v-38
			c0-0.6,0.2-1.2,0.5-1.8l0,0c0.3-0.5,0.8-0.9,1.1-1.2c0.5-0.3,0.9-0.6,1.5-0.8c0.5-0.2,0.9-0.3,1.4-0.3c0.2,0,0.3-0.2,0.3-0.3
			S42.7,168,42.5,168L42.5,168L42.5,168z M15.4,207.7c-0.9-1.8-1.5-3.6-1.8-5.6c-0.3-2-0.3-4.1-0.2-6.1c0.2-2,0.8-3.8,1.5-5.6
			c0.8-1.5,1.8-3,3-4.1c1.4-1.1,2.9-1.8,4.7-1.8c0.3,0,0.5,0,0.8,0c0.8,0,1.7,0.2,2.4,0.3c1.1,0.3,2,0.8,2.9,1.4
			c0.9,0.6,1.7,1.4,2.3,2.3c0.6,0.9,1.2,2,1.5,3v18.5c0,0.6,0.2,1.2,0.3,1.8c-1.1,0.8-2.1,1.4-3.3,1.8c-1.2,0.5-2.6,0.8-3.9,0.8
			c-1.2,0-2.3-0.2-3.3-0.6c-1.2-0.3-2.3-1.1-3.2-1.8C17.4,210.8,16.3,209.3,15.4,207.7L15.4,207.7z"/>
		<path class="st3" d="M70.1,185.8c-1.2-1.1-2.7-2-4.2-2.4c-1.7-0.6-3.3-0.8-5-0.8c-2.1,0-4.2,0.3-6.2,1.1c-2.1,0.8-3.9,1.8-5.6,3.3
			s-3,3.3-3.9,5.5c-1.1,2.3-1.5,4.8-1.4,7.4c0,2.7,0.6,5.2,1.5,7.3c0.9,2,2.3,3.6,3.8,5c1.5,1.2,3.3,2.3,5.3,2.9s3.9,0.9,6.1,0.9
			c2,0,3.9-0.3,5.9-1.1c1.5-0.6,3-1.5,4.2-2.7c1.1-1.1,2-2.3,2.6-3.6c0.6-1.2,0.9-2.6,1.1-3.8c0-0.2,0-0.2-0.2-0.3
			c0,0-0.2-0.2-0.3-0.2h-0.3c-0.2,0-0.3,0.2-0.3,0.3c-0.2,1.4-0.6,2.6-1.2,3.8c-0.6,1.1-1.5,2.1-2.4,2.9c-0.9,0.8-2.1,1.5-3.3,2
			s-2.4,0.8-3.8,0.8c-2.6,0.2-4.8-0.3-6.7-1.5c-1.8-1.1-3.2-2.6-4.2-4.4c-0.3-1.8,0.3-3.8,1.5-5.3c1.4-1.7,3.2-3,5.2-4.1
			c2.4-1.2,4.8-2,7.4-2.4c2.7-0.6,5.6-0.8,8.3-0.6c0.2,0,0.2,0,0.3-0.2c0,0,0.2-0.2,0.2-0.3c0-2-0.3-3.9-1.1-5.8
			C72.4,188.3,71.3,186.9,70.1,185.8z M50.4,206.1c-0.6-1.4-0.9-2.9-1.1-4.4c-0.3-2.1-0.3-4.1,0-6.2v-0.3l0,0
			c0.2-1.2,0.5-2.4,0.9-3.6c0.5-1.2,0.9-2.3,1.7-3.5c0.6-1.1,1.5-2,2.4-2.7c0.9-0.8,2.1-1.2,3.3-1.5c1.5-0.3,3-0.3,4.5,0.3
			c1.4,0.5,2.7,1.4,3.6,2.4c1.1,1.1,1.8,2.4,2.4,3.9c0.6,1.4,0.8,2.9,0.8,4.4c-2.1,0.2-4.2,0.6-6.4,1.1c-2.1,0.6-4.2,1.5-6.2,2.6
			c-1.8,1.1-3.3,2.3-4.5,3.9C51,203.6,50.6,204.8,50.4,206.1L50.4,206.1z"/>
		<path class="st3" d="M127.2,214.8c-1.1-0.2-2-0.6-2.7-1.4c-0.8-0.8-1.2-1.7-1.2-2.6v-42.4c0-0.2-0.2-0.3-0.3-0.3l0,0h-9.2
			c-0.2,0-0.3,0.2-0.3,0.3c0,0.2,0.2,0.3,0.3,0.3c0.9,0.2,1.8,0.6,2.6,1.1c0.9,0.6,1.2,1.5,1.4,2.7v38.3c0,0.9-0.5,1.8-1.1,2.4
			c-0.6,0.6-1.4,1.1-2.3,1.2c-0.2,0-0.2,0-0.3,0c-0.2,0-0.3,0-0.5,0.2c-0.2,0.2-0.3,0.3-0.2,0.5c0,0.2,0.2,0.2,0.3,0.2h13.3
			c0.2,0,0.3-0.2,0.3-0.3C127.5,214.9,127.4,214.8,127.2,214.8L127.2,214.8z"/>
		<path class="st3" d="M158.9,189.6L158.9,189.6c-0.9-1.5-2.1-2.9-3.6-3.9s-3-1.8-4.7-2.3c-1.8-0.6-3.6-0.8-5.5-0.8
			s-3.6,0.3-5.3,0.9c-1.4,0.5-2.7,1.2-3.9,2c-1.1,0.8-2,1.5-2.7,2.4c-0.8,0.9-1.2,1.5-1.7,2c-1.2,1.8-2.1,3.9-2.7,6.1
			c-0.6,2.4-0.6,5-0.2,7.4c0.3,1.8,0.9,3.5,1.7,5c0.8,1.4,1.8,2.7,3,3.8s2.6,2,3.9,2.6c1.5,0.6,3,1.1,4.7,1.2c0.5,0,0.9,0,1.4,0
			c1.1,0,2.3-0.2,3.3-0.3c1.4-0.3,2.6-0.6,3.8-1.1s2.4-1.1,3.5-2c2.6-2,4.5-4.7,5.8-7.6c1.2-3,1.7-6.5,1.2-9.8
			C160.6,193.1,160,191.3,158.9,189.6z M138.1,211.9c-1.2-1.2-2.3-2.7-3-4.2c-0.9-2.1-1.5-4.4-1.7-6.5c-0.3-2.9-0.2-5.5,0.5-7.6
			c0.5-2,1.4-3.8,2.6-5.3c1.1-1.4,2.4-2.3,3.9-3c1.4-0.6,2.9-1.1,4.4-1.1c1.7,0,3.2,0.5,4.7,1.2c1.8,1.4,3.2,3,4.1,5.2
			c1.1,2.3,1.8,4.7,2,7.1c0.2,2,0.2,3.8-0.2,5.8l0,0c-0.2,1.8-0.8,3.5-1.5,5.2c-0.8,1.5-1.8,2.9-3,3.9c-1.4,1.1-3,1.7-4.7,2
			c-1.5,0.2-2.9,0.2-4.4-0.3C140.6,213.6,139.3,212.8,138.1,211.9z"/>
		<path class="st3" d="M184.8,186.9c0.6-0.8,0.6-1.8,0-2.6c-0.3-0.6-0.9-1.1-1.7-1.4c-0.8-0.3-1.5-0.3-2.1-0.3
			c-0.9,0-1.7,0.2-2.6,0.3c-0.9,0.2-1.7,0.5-2.4,0.9c-0.3,0.2-0.8,0.3-1.1,0.3c-0.3,0.2-0.6,0.2-1.1,0.2s-0.8-0.2-1.1-0.3
			c-0.5-0.3-0.9-0.8-1.2-1.4c0-0.2-0.2-0.2-0.3-0.2h-9.2c-0.2,0-0.3,0.2-0.3,0.3s0.2,0.3,0.3,0.3c0.9,0.2,1.8,0.6,2.6,1.2
			c0.8,0.6,1.2,1.4,1.2,2.3V211c-0.2,0.9-0.6,1.7-1.2,2.3c-0.8,0.6-1.7,1.1-2.6,1.2c-0.2,0-0.3,0.2-0.3,0.5c0,0.3,0.2,0.3,0.3,0.3
			h13.3c0.2,0,0.3-0.2,0.3-0.3c0-0.2-0.2-0.3-0.3-0.3c-0.9,0-2-0.5-2.7-1.1c-0.8-0.6-1.2-1.5-1.4-2.4v-26.8c0.2,0.3,0.5,0.5,0.8,0.6
			c0.5,0.3,1.1,0.5,1.7,0.5c0.8,0,1.4-0.2,2.1-0.5c0.5-0.2,0.9-0.3,1.5-0.3c0.5,0,1.1,0.2,1.5,0.3c0.3,0.2,0.6,0.5,0.8,0.8
			c0.2,0.3,0.5,0.8,0.6,1.1c0.2,0.3,0.5,0.8,0.8,1.1c0.3,0.3,0.9,0.5,1.4,0.5C183.3,188.3,184.2,187.8,184.8,186.9z"/>
		<path class="st3" d="M236.3,201.5c-1.1-1.2-2.3-2.3-3.8-3l0,0c-1.5-0.8-3.2-1.5-4.8-2.1c-1.7-0.6-3.2-1.2-4.7-2
			c-1.4-0.6-2.4-1.4-3.5-2.4c-0.9-0.9-1.2-2-1.1-3.3c0.2-1.4,0.8-2.6,1.8-3.3c1.1-0.9,2.7-1.7,4.8-1.8c1.2-0.2,2.7,0,4.5,0.6
			s3.8,1.8,5.8,3.5c0.2,0.2,0.3,0.2,0.5,0l0.2-0.2c0.2-0.2,0.2-0.3,0-0.5l0,0c-1.4-1.2-2.9-2.3-4.7-3.2c-1.7-0.9-3.6-1.4-5.6-1.4
			c-1.5,0-3,0.2-4.4,0.6c-1.1,0.3-2.1,0.9-3,1.8c-0.8,0.8-1.4,1.7-1.8,2.7c-0.3,1.1-0.6,2.1-0.6,3.2c-0.2,1.8,0.3,3.5,1.1,4.8
			c0.8,1.2,1.8,2.3,3,3.2c1.2,0.9,2.7,1.7,4.1,2.1c1.5,0.6,3,1.2,4.4,1.7c1.2,0.5,2.6,1.1,3.8,1.8c0.9,0.5,1.8,1.2,2.3,2.1
			c0.3,0.8,0.5,1.7,0.3,2.4c-0.2,1.1-0.6,2-1.5,2.7c-0.9,0.9-2,1.5-3,2c-1.4,0.6-2.7,1.1-4.1,1.4c-1.5,0.3-3,0.6-4.5,0.8
			c-1.5,0.2-2.9,0.3-4.1,0.3s-2.4,0-3.2,0c-2.1,0-4.1-0.2-6.1-0.3c-2-0.2-3.8-0.5-5.8-0.8c-1.7-0.3-3.2-0.8-4.8-1.4
			c-1.2-0.5-2.4-1.1-3.5-1.8c-1.4-1.1-2.6-2.4-3.5-3.9c-0.3-1.8,0.3-3.8,1.5-5.3c1.4-1.7,3.2-3,5.2-4.1c2.3-1.2,4.8-2,7.4-2.4
			c2.7-0.5,5.6-0.8,8.3-0.6c0.2,0,0.3-0.2,0.3-0.3l0,0c0-2-0.3-3.9-1.1-5.8c-0.8-1.5-1.7-2.9-3-4.1c-1.2-1.1-2.7-2-4.2-2.4
			c-1.7-0.6-3.3-0.8-5-0.8c-2.4,0-4.8,0.5-7.1,1.5c-4.2,1.7-7.4,5-9.1,9.2c-0.8,2.1-1.1,4.4-1.1,6.5c0,2,0.3,4.1,1.1,5.9
			c0.6,1.7,1.5,3.2,2.6,4.5c1.1,1.2,2.3,2.3,3.6,3c1.4,0.8,2.9,1.4,4.4,1.8c2.9,0.8,5.6,1.2,8.5,1.5c3.5,0.5,7,0.6,10.6,0.6
			c1.4,0,3.2,0,5.3-0.2c2.1-0.2,4.2-0.5,6.4-0.9s4.1-1.1,6.1-1.8c2-0.8,3.3-2,4.2-3.3c1.1-1.5,1.7-3.2,1.8-5
			C237.8,204.3,237.4,202.7,236.3,201.5z M207.8,190.5c0.6,1.4,0.8,2.9,0.8,4.2c-2.1,0.2-4.2,0.6-6.4,1.1c-2.1,0.6-4.2,1.5-6.2,2.6
			c-1.8,1.1-3.3,2.3-4.5,3.9c-0.8,1.1-1.4,2.3-1.5,3.6c-0.6-1.4-0.9-2.9-1.1-4.4l0,0c-0.3-2.1-0.3-4.1,0-6.2v-0.3l0,0
			c0.2-1.2,0.5-2.4,0.9-3.6s0.9-2.3,1.7-3.5c0.6-1.1,1.5-2,2.4-2.7c2.3-1.7,5.2-2.1,7.9-1.2c1.4,0.6,2.6,1.4,3.6,2.4
			C206.3,187.8,207.2,189,207.8,190.5L207.8,190.5z"/>
		<path class="st3" d="M114.3,173.9C114.5,173.9,114.5,173.9,114.3,173.9c0-0.8-0.2-1.5-0.5-2.1l0,0c-0.3-0.6-0.8-1.2-1.4-1.7
			c-0.6-0.5-1.2-0.9-2-1.2c-0.8-0.3-1.5-0.6-2.3-0.8l0,0c-0.8-0.2-1.7-0.2-2.4,0c-0.8,0-1.7,0.2-2.4,0.5c-1.2,0.3-2.4,1.1-3.3,2.1
			c-0.8,0.9-1.4,2.1-1.7,3.3c-0.2,0.6-0.2,1.2-0.2,1.8l0,0v7H95c-0.2,0-0.3,0.2-0.3,0.3l0,0v0.3c0,0.2,0.2,0.3,0.3,0.3l0,0h3.3v27
			c0,0.2,0,0.3,0,0.5c0,0.2,0,0.3,0,0.5c-0.2,0.9-0.8,1.7-1.5,2.1c-0.8,0.5-1.5,0.8-2.4,0.9c-0.2,0-0.3,0.2-0.3,0.5
			c0,0.2,0.2,0.3,0.3,0.3h13.3c0.2,0,0.3-0.2,0.3-0.3c0-0.2-0.2-0.3-0.3-0.3c-1.1-0.2-2-0.6-2.9-1.4c-0.8-0.8-1.1-1.7-1.1-2.7v-27
			h5.6c0.2,0,0.3-0.2,0.3-0.3v-0.3c0-0.2-0.2-0.3-0.3-0.3l0,0h-6.2c-2.9-2.9-3.6-5.5-3.8-6.5c-0.2-1.4,0.2-2.7,0.9-3.9
			c0.9-1.4,2.3-2.3,4.1-2.7c1.1-0.2,2.1-0.2,3,0c0.9,0.2,1.5,0.6,1.8,1.2c0.2,0.3,0.2,0.6,0.2,1.1c0,0.5-0.2,0.8-0.2,1.2
			s0,0.9,0,1.2c0.2,0.6,0.5,1.1,0.9,1.4c0.2,0.3,0.5,0.5,0.8,0.6c0.3,0,0.5,0.2,0.8,0.2c0.6,0,1.1-0.2,1.5-0.6
			C114,175.1,114.3,174.5,114.3,173.9z"/>
		<path class="st1" d="M11.3,230.2L11.3,230.2c0-0.3-0.2-0.6-0.5-0.8c-0.2-0.2-0.5-0.3-0.8-0.3H10V229h1.4V230.2z M11.3,239.6v1.2
			H10v-0.2h0.2c0.3,0,0.6-0.2,0.8-0.3C11.2,240.2,11.2,239.9,11.3,239.6L11.3,239.6z M12.8,229v12h-1.7v-12H12.8z M19.5,234.8v0.6
			h-6.8v-0.6H19.5z M12.8,230.2V229h1.4v0.2h-0.2c-0.3,0-0.6,0.2-0.8,0.3C13,229.6,12.8,229.9,12.8,230.2L12.8,230.2z M12.8,239.6
			L12.8,239.6c0,0.3,0.2,0.6,0.5,0.8c0.2,0.2,0.5,0.3,0.8,0.3h0.2v0.2h-1.4V239.6z M19.4,230.2L19.4,230.2c0-0.3-0.2-0.6-0.3-0.8
			c-0.2-0.2-0.5-0.3-0.8-0.3h-0.2V229h1.4v1.2H19.4z M19.4,239.6v1.2H18v-0.2h0.2c0.3,0,0.6-0.2,0.8-0.3
			C19.2,240.2,19.4,239.9,19.4,239.6L19.4,239.6z M21,229v12h-1.7v-12H21z M20.9,230.2V229h1.4v0.2h-0.2c-0.3,0-0.6,0.2-0.8,0.3
			C21,229.6,21,229.9,20.9,230.2L20.9,230.2z M20.9,239.6L20.9,239.6c0,0.3,0.2,0.6,0.5,0.8c0.2,0.2,0.5,0.3,0.8,0.3h0.2v0.2h-1.4
			V239.6z"/>
		<path class="st1" d="M32.4,239.6c-0.2,0.2-0.2,0.3,0,0.6c0,0.2,0.2,0.3,0.3,0.3c0.2,0.2,0.3,0.2,0.5,0.2h0.2v0.2h-3.5v-0.2H30
			c0.3,0,0.6-0.2,0.8-0.3c0.3-0.2,0.6-0.5,0.8-0.8H32.4z M36,228.7l0.2,1.5L31.9,241h-1.1l4.4-10.3c0,0,0-0.2,0.2-0.3
			c0-0.2,0.2-0.3,0.3-0.6c0.2-0.2,0.2-0.5,0.2-0.6C35.9,229,36,228.9,36,228.7L36,228.7z M36,228.7l5.3,12.1h-2l-3.8-10L36,228.7z
			 M38.9,239.6h2c0.2,0.3,0.3,0.6,0.8,0.8c0.3,0.2,0.6,0.3,0.8,0.3l0,0v0.2H38v-0.2h0.2c0.2,0,0.5-0.2,0.6-0.3
			C39.1,240.2,39.1,239.9,38.9,239.6L38.9,239.6z"/>
		<path class="st1" d="M50.4,229v1.1l0,0c0-0.3-0.2-0.5-0.3-0.6c-0.2-0.2-0.5-0.3-0.6-0.3h-0.3V229H50.4z M51.9,229v7.6
			c0,0.8,0.2,1.5,0.5,2.1s0.8,1.1,1.2,1.5c0.6,0.3,1.2,0.6,1.8,0.5c0.8,0,1.4-0.2,2-0.5c0.6-0.3,1.1-0.8,1.2-1.4
			c0.3-0.6,0.5-1.4,0.5-2v-7.7H60v7.7c0,0.8-0.2,1.7-0.6,2.3c-0.3,0.6-0.9,1.2-1.7,1.5c-0.8,0.3-1.7,0.6-2.6,0.6
			c-0.9,0-1.8-0.2-2.7-0.6c-0.8-0.3-1.4-0.9-1.7-1.5c-0.5-0.8-0.6-1.5-0.6-2.3v-7.7h1.8V229z M53.1,229v0.2h-0.3
			c-0.3,0-0.5,0.2-0.6,0.3c-0.2,0.2-0.3,0.3-0.3,0.6l0,0V229H53.1z M59.2,229v1.1l0,0c0-0.3-0.2-0.5-0.3-0.6
			c-0.2-0.2-0.5-0.3-0.6-0.3H58V229H59.2z M61.3,229v0.2H61c-0.3,0-0.5,0.2-0.6,0.3c-0.2,0.2-0.3,0.3-0.3,0.6l0,0V229H61.3z"/>
		<path class="st1" d="M69.2,228.7c0.2,0,0.3,0.2,0.6,0.2c0.2,0,0.5,0.2,0.8,0.2s0.6,0,0.8,0l-2.1,0.2V228.7z M79.4,229v0.6H69V229
			H79.4z M70.6,229.5L70.6,229.5c-0.3,0-0.6,0.2-0.9,0.5c-0.3,0.3-0.3,0.6-0.3,0.9v0.3h-0.2v-1.7H70.6z M73.6,239.6v1.2h-1.4v-0.2
			h0.2c0.3,0,0.6-0.2,0.8-0.3C73.3,240.2,73.4,239.9,73.6,239.6L73.6,239.6z M75.1,229v11.8h-1.7V229H75.1z M75.1,239.6L75.1,239.6
			c0,0.3,0.2,0.6,0.5,0.8c0.2,0.2,0.5,0.3,0.8,0.3h0.2v0.2h-1.4V239.6L75.1,239.6z M79.4,228.7v0.5l-2.1-0.2c0.3,0,0.6,0,0.8,0
			c0.3,0,0.6,0,0.8-0.2C79,228.7,79.2,228.7,79.4,228.7L79.4,228.7z M79.4,229.5v1.7h-0.2v-0.3c0-0.3-0.2-0.6-0.3-0.9
			c-0.3-0.3-0.6-0.3-0.9-0.3l0,0L79.4,229.5z"/>
		<path class="st1" d="M88.7,230.2L88.7,230.2c0-0.3-0.2-0.6-0.3-0.8c-0.2-0.2-0.5-0.3-0.8-0.3h-0.2V229h1.4L88.7,230.2z
			 M88.7,239.6v1.2h-1.4v-0.2h0.2c0.3,0,0.6-0.2,0.8-0.3C88.6,240.2,88.7,239.9,88.7,239.6L88.7,239.6z M90.4,229v12h-1.7v-12H90.4z
			 M95,229v0.6h-4.7V229H95z M94.2,234.8v0.6h-3.9v-0.6H94.2z M95,240.4l0.2,0.6h-4.7v-0.6H95z M96,238l-0.9,3h-3l0.6-0.6
			c0.5,0,1.1-0.2,1.5-0.3c0.5-0.2,0.8-0.5,1.1-0.9c0.3-0.3,0.5-0.8,0.6-1.2H96z M95,228.7v0.5l-2.1-0.2c0.3,0,0.6,0,0.8,0
			c0.3,0,0.6,0,0.8-0.2C94.7,228.9,94.8,228.7,95,228.7L95,228.7z M94.2,233.6v1.4H93l0,0c0.3,0,0.6-0.2,0.8-0.3
			c0.2-0.2,0.3-0.5,0.3-0.8v-0.2L94.2,233.6z M94.2,235.4v1.4H94v-0.3c0-0.3-0.2-0.6-0.3-0.8c-0.2-0.2-0.5-0.3-0.8-0.3l0,0H94.2z
			 M95,229.5v1.5h-0.2v-0.3c0-0.3-0.2-0.6-0.3-0.9c-0.3-0.3-0.6-0.3-0.9-0.3l0,0H95z"/>
		<path class="st1" d="M126.8,236l-0.2,2.7c-0.3,0.5-0.6,0.9-1.1,1.2c-0.5,0.3-1.1,0.8-1.5,0.9c-0.8,0.2-1.4,0.3-2.1,0.3
			c-1.2,0-2.3-0.3-3.3-0.8c-0.9-0.5-1.7-1.2-2.3-2.1c-1.1-2.1-1.1-4.5,0-6.5c0.6-0.9,1.2-1.7,2.3-2.1c1.1-0.6,2.3-0.8,3.5-0.8
			c0.8,0,1.7,0.2,2.3,0.3c0.6,0.2,1.2,0.5,1.8,0.8l0.3,2.6h-0.2c-0.2-0.9-0.8-1.8-1.5-2.3c-2.1-1.5-4.8-0.9-6.4,1.1
			c-0.2,0.3-0.3,0.5-0.5,0.8c-0.5,0.9-0.6,2-0.6,3s0.2,2,0.6,2.9c0.3,0.8,0.9,1.5,1.7,2s1.5,0.8,2.4,0.8c0.8,0,1.5-0.2,2.3-0.5
			c0.8-0.3,1.2-0.8,1.7-1.5C126.3,237.8,126.6,236.9,126.8,236L126.8,236z"/>
		<path class="st1" d="M141.9,228.7c1.2,0,2.3,0.3,3.3,0.8c0.9,0.5,1.7,1.2,2.3,2.1c1.1,2.1,1.1,4.5,0,6.5c-0.5,0.9-1.2,1.7-2.3,2.1
			c-1.1,0.6-2.1,0.8-3.3,0.8c-1.2,0-2.3-0.3-3.3-0.8c-0.9-0.5-1.7-1.2-2.3-2.1c-1.1-2.1-1.1-4.5,0-6.5c0.5-0.9,1.2-1.7,2.3-2.1
			C139.6,229,140.7,228.7,141.9,228.7z M141.9,240.5c0.9,0,1.7-0.2,2.4-0.8c0.8-0.5,1.2-1.2,1.5-2c0.8-2,0.8-4.1,0-5.9
			c-0.3-0.8-0.9-1.5-1.5-2c-1.5-0.9-3.3-0.9-4.7,0c-0.8,0.5-1.2,1.2-1.5,2c-0.8,2-0.8,4.1,0,5.9c0.3,0.8,0.9,1.5,1.5,2
			C140.3,240.4,141.2,240.7,141.9,240.5z"/>
		<path class="st1" d="M157.7,229v1.1l0,0c0-0.3-0.2-0.5-0.3-0.6c-0.2-0.2-0.5-0.3-0.6-0.3h-0.3V229H157.7z M159.2,229v7.6
			c0,0.8,0.2,1.5,0.5,2.1s0.8,1.1,1.2,1.5c0.6,0.3,1.2,0.6,1.8,0.5c0.8,0,1.4-0.2,2-0.5c0.6-0.3,1.1-0.8,1.2-1.4
			c0.3-0.6,0.5-1.4,0.5-2v-7.7h0.9v7.7c0,0.8-0.2,1.7-0.6,2.3c-0.3,0.6-0.9,1.2-1.7,1.5c-0.8,0.3-1.7,0.6-2.6,0.6
			c-0.9,0-1.8-0.2-2.7-0.6c-0.8-0.3-1.4-0.9-1.7-1.5c-0.5-0.8-0.6-1.5-0.6-2.3v-7.7h1.8V229z M160.4,229v0.2h-0.3
			c-0.2,0-0.5,0.2-0.6,0.3c-0.2,0.2-0.3,0.3-0.3,0.6l0,0V229H160.4z M166.5,229v1.1l0,0c0-0.3-0.2-0.5-0.3-0.6
			c-0.2-0.2-0.5-0.3-0.6-0.3h-0.3V229H166.5z M168.6,229v0.2h-0.3c-0.2,0-0.5,0.2-0.6,0.3c-0.2,0.2-0.3,0.3-0.3,0.6l0,0V229H168.6z"
			/>
		<path class="st1" d="M176.5,228.7c0.2,0,0.3,0.2,0.6,0.2c0.3,0,0.5,0.2,0.8,0.2c0.3,0,0.6,0,0.8,0l-2.1,0.2V228.7z M186.6,229v0.6
			h-10.3V229H186.6z M177.8,229.5L177.8,229.5c-0.3,0-0.6,0.2-0.9,0.5c-0.3,0.3-0.3,0.6-0.3,0.9v0.3h-0.2v-1.7H177.8z M180.9,239.6
			v1.2h-1.4v-0.2h0.2c0.3,0,0.6-0.2,0.8-0.3C180.6,240.2,180.7,239.9,180.9,239.6L180.9,239.6z M182.4,229v11.8h-1.7V229H182.4z
			 M182.2,239.6L182.2,239.6c0,0.3,0.2,0.6,0.5,0.8c0.2,0.2,0.5,0.3,0.8,0.3h0.2v0.2h-1.4L182.2,239.6L182.2,239.6z M186.6,228.7
			v0.5l-2.1-0.2c0.3,0,0.6,0,0.8,0c0.3,0,0.6,0,0.8-0.2C186.3,228.7,186.5,228.7,186.6,228.7L186.6,228.7z M186.6,229.5v1.7h-0.2
			v-0.3c0-0.3-0.2-0.6-0.3-0.9c-0.3-0.3-0.6-0.3-0.9-0.3l0,0L186.6,229.5z"/>
		<path class="st1" d="M195.9,229v1.1l0,0c0-0.3-0.2-0.5-0.3-0.6c-0.2-0.2-0.5-0.3-0.6-0.3h-0.3V229H195.9z M197.4,229v7.6
			c0,0.8,0.2,1.5,0.5,2.1c0.3,0.6,0.8,1.1,1.2,1.5c0.6,0.3,1.2,0.6,1.8,0.5c0.8,0,1.4-0.2,2-0.5c0.6-0.3,1.1-0.8,1.2-1.4
			c0.3-0.6,0.5-1.4,0.5-2v-7.7h0.9v7.7c0,0.8-0.2,1.7-0.6,2.3c-0.3,0.6-0.9,1.2-1.7,1.5c-0.8,0.3-1.7,0.6-2.6,0.6
			c-0.9,0-1.8-0.2-2.7-0.6c-0.8-0.3-1.4-0.9-1.7-1.5c-0.5-0.8-0.6-1.5-0.6-2.3v-7.7h1.8V229z M198.6,229v0.2h-0.3
			c-0.2,0-0.5,0.2-0.6,0.3c-0.2,0.2-0.3,0.3-0.3,0.6l0,0V229H198.6z M204.6,229v1.1l0,0c0-0.3-0.2-0.5-0.3-0.6
			c-0.2-0.2-0.5-0.3-0.6-0.3h-0.3V229H204.6z M206.6,229v0.2h-0.3c-0.2,0-0.5,0.2-0.6,0.3c-0.2,0.2-0.3,0.3-0.3,0.6l0,0V229H206.6z"
			/>
		<path class="st1" d="M216.3,230.2L216.3,230.2c0-0.3-0.2-0.6-0.5-0.8c-0.2-0.2-0.5-0.3-0.8-0.3h-0.2V229h1.4L216.3,230.2
			L216.3,230.2z M216.3,239.6v1.2h-1.4v-0.2h0.2c0.3,0,0.6-0.2,0.8-0.3C216.2,240.2,216.3,239.9,216.3,239.6L216.3,239.6z
			 M217.8,229v12h-1.7v-12H217.8z M219.9,229c0.5,0,0.9,0,1.5,0.2c0.5,0.2,0.8,0.3,1.1,0.6c0.3,0.3,0.6,0.6,0.8,1.1
			c0.2,0.5,0.3,0.9,0.3,1.4c0,0.6-0.2,1.1-0.3,1.5c-0.2,0.5-0.6,0.9-1.1,1.2c-0.5,0.3-0.9,0.5-1.5,0.5c0.3,0.2,0.6,0.3,0.8,0.6
			c0.2,0.3,0.5,0.5,0.6,0.8c0,0.2,0.2,0.2,0.2,0.3c0.2,0.2,0.3,0.5,0.6,0.8c0.2,0.3,0.5,0.6,0.6,0.9c0.2,0.3,0.5,0.6,0.6,0.8
			c0.2,0.3,0.5,0.5,0.8,0.8c0.2,0.2,0.5,0.3,0.8,0.5c0.3,0.2,0.6,0.2,0.9,0.2v0.2h-1.2c-0.5,0-0.9,0-1.5-0.2
			c-0.5-0.2-0.8-0.3-1.1-0.6c-0.3-0.2-0.6-0.5-0.8-0.8c0-0.2-0.2-0.2-0.3-0.5l-0.5-0.8c-0.2-0.3-0.3-0.6-0.6-0.9l-0.5-0.8
			c-0.2-0.2-0.2-0.3-0.3-0.3c-0.2-0.3-0.5-0.6-0.6-0.8c-0.2-0.2-0.5-0.3-0.8-0.3v-0.2h0.3c0.2,0,0.3,0,0.6,0c0.3,0,0.6,0,0.9-0.2
			c0.3-0.2,0.8-0.3,0.9-0.6c0.3-0.3,0.6-0.8,0.6-1.2c0-0.2,0-0.3,0-0.5c0-0.2,0-0.3,0-0.6c0-0.6-0.2-1.4-0.6-1.8
			c-0.3-0.5-0.9-0.8-1.5-0.8c-0.3,0-0.6,0-0.8,0h-0.8h-0.5v-0.2l-0.2-0.5L219.9,229z M217.8,239.6L217.8,239.6
			c0,0.3,0.2,0.6,0.3,0.8c0.2,0.2,0.5,0.3,0.8,0.3h0.2v0.2h-1.4v-1.2H217.8z"/>
		<path class="st1" d="M234.6,230.2L234.6,230.2c0-0.3-0.2-0.6-0.3-0.8c-0.2-0.2-0.5-0.3-0.8-0.3h-0.3V229h1.4V230.2L234.6,230.2z
			 M234.6,239.6v1.2h-1.4v-0.2h0.2c0.3,0,0.6-0.2,0.8-0.3C234.5,240.2,234.6,239.9,234.6,239.6L234.6,239.6z M236.3,229v12h-1.7v-12
			H236.3z M240.9,229v0.6h-4.7V229H240.9z M240.1,234.8v0.6h-3.9v-0.6H240.1z M240.9,240.4l0.2,0.6h-4.8v-0.6H240.9z M241.9,238
			l-0.9,3h-3l0.6-0.6c0.5,0,1.1-0.2,1.5-0.3c0.5-0.2,0.8-0.5,1.1-0.9c0.3-0.3,0.5-0.8,0.6-1.2H241.9z M240.9,228.7v0.5l-2.1-0.2
			c0.3,0,0.6,0,0.8,0c0.3,0,0.6,0,0.8-0.2C240.6,228.9,240.7,228.7,240.9,228.7L240.9,228.7z M240.1,233.6v1.4h-1.2l0,0
			c0.3,0,0.6-0.2,0.8-0.3c0.2-0.2,0.3-0.5,0.3-0.8v-0.2L240.1,233.6z M240.1,235.4v1.4h-0.2v-0.3c0-0.3-0.2-0.6-0.3-0.8
			c-0.2-0.2-0.5-0.3-0.8-0.3l0,0H240.1z M240.9,229.5v1.5h-0.2v-0.3c0-0.3-0.2-0.6-0.3-0.9c-0.3-0.3-0.6-0.3-0.9-0.3l0,0H240.9z"/>
		
			<linearGradient id="SVGID_1_" gradientUnits="userSpaceOnUse" x1="110.2092" y1="1328.6295" x2="104.8984" y2="1219.6382" gradientTransform="matrix(1 0 0 -1 0 1356.3564)">
			<stop  offset="0.16" style="stop-color:#FE957A"/>
			<stop  offset="0.61" style="stop-color:#FE6659"/>
			<stop  offset="1" style="stop-color:#FF587A"/>
		</linearGradient>
		<path class="st4" d="M114.8,10.4c-2.7-0.3-5.2,1.5-5.6,4.2v0.2l-2,19.4c0.9,1.2,2.1,3.5,2.3,5.9c0.3,3.5,0.6,8.8,0.5,11.8
			c0,1.7,0.5,3.2,1.4,4.5l7.6-40.1c0.5-2.7-1.2-5.3-3.9-5.8C115,10.4,115,10.4,114.8,10.4z M116.2,16.3l-1.7,11.8
			c-0.2,1.2-1.2,2-2.3,1.8c-1.1-0.2-2-1.2-1.8-2.3v-0.2l1.7-11.8c0.2-1.2,1.2-2,2.4-1.8C115.6,14,116.3,15.3,116.2,16.3z
			 M97.1,129.6c0,0.2,0,0.2,0.2,0.2c0.2,0,0.2,0,0.2-0.2l8-42.4c-1.4-0.3-2.6-0.6-3.8-1.2L97.1,129.6z"/>
		
			<linearGradient id="SVGID_00000049193985422626085850000003596423439494211217_" gradientUnits="userSpaceOnUse" x1="75.3704" y1="1330.328" x2="70.0596" y2="1221.3368" gradientTransform="matrix(1 0 0 -1 0 1356.3564)">
			<stop  offset="0.16" style="stop-color:#FE957A"/>
			<stop  offset="0.61" style="stop-color:#FE6659"/>
			<stop  offset="1" style="stop-color:#FF587A"/>
		</linearGradient>
		<path style="fill:url(#SVGID_00000049193985422626085850000003596423439494211217_);" d="M64.8,26.2c-0.5-1.1-0.8-2.3-0.8-3.5
			c0-1.2,0.3-2.4,0.9-3.6c0.2-0.2,0.5-0.3,0.6-0.2c0.2,0.2,0.3,0.5,0.2,0.6l0,0c-0.6,0.9-0.9,2-0.8,3c0,1.1,0.3,2.1,0.8,3.2
			c0.9,2,2.4,3.8,4.2,5c1.8,1.2,3.9,2.1,6.1,2.6s4.5,0.6,6.7,0.3c1.1-0.2,2.3-0.3,3.3-0.5c0.2,0.3,0.3,0.8,0.5,0.9
			c-1.2,0.2-2.4,0.3-3.6,0.5c-2.3,0.2-4.7,0-7-0.5c-2.3-0.5-4.5-1.4-6.5-2.7C67.4,30.3,65.9,28.4,64.8,26.2z"/>
		
			<linearGradient id="SVGID_00000103247305937231056380000015624097985427959460_" gradientUnits="userSpaceOnUse" x1="126.8193" y1="1327.8187" x2="121.5085" y2="1218.8306" gradientTransform="matrix(1 0 0 -1 0 1356.3564)">
			<stop  offset="0.16" style="stop-color:#FE957A"/>
			<stop  offset="0.61" style="stop-color:#FE6659"/>
			<stop  offset="1" style="stop-color:#FF587A"/>
		</linearGradient>
		<path style="fill:url(#SVGID_00000103247305937231056380000015624097985427959460_);" d="M198.7,67.4c-0.6-2.4-1.2-4.8-2.1-7.3
			c-0.8-2.4-1.8-4.7-2.7-7c-1.1-2.3-2.1-4.5-3.5-6.7l-0.9-1.7c-0.3-0.6-0.8-1.1-1.1-1.5c-0.3-0.5-0.8-1.1-1.1-1.5
			c-0.2-0.3-0.3-0.5-0.6-0.8l-0.6-0.8c-3-3.9-6.5-7.6-10.5-10.8c-3.8-3-8-5.6-12.6-7.6c-2.3-0.9-4.5-1.8-6.8-2.6
			c-7-2.1-14.1-3-21.4-2.7c-2.4,0.2-4.7,0.3-7.1,0.8c-2.3,0.3-4.7,0.9-7,1.5c-4.5,1.2-8.9,2.7-13.2,4.8l-1.5,0.8
			c-0.5,0.3-1.1,0.6-1.5,0.8c-0.6,0.3-1.1,0.6-1.5,0.9l-1.5,0.9c-1.1,0.6-2.3,1.2-3.5,1.8c0.8,0.2,1.4,0.3,2,0.5
			c0.8-0.3,1.4-0.8,2.1-1.1c1.1-0.6,2-1.1,3-1.7c0.5-0.3,1.1-0.5,1.5-0.8l1.5-0.8c8.3-3.8,17.4-5.9,26.7-6.1
			c9.2-0.2,18.3,2,26.7,6.1c2,1.1,4.1,2.1,5.9,3.5c2,1.2,3.8,2.7,5.5,4.2c1.7,1.5,3.3,3.2,4.8,4.8c1.5,1.7,2.9,3.6,4.1,5.5
			c1.2,2,2.4,3.9,3.5,5.9c1.1,2,2,4.1,2.7,6.2c1.7,4.2,2.9,8.6,3.6,13.2c0.8,4.5,1.1,9.1,1.1,13.6c-0.2,4.5-0.6,9.1-1.5,13.6
			c-0.9,4.5-2.3,8.8-4.1,13c-1.8,4.2-3.9,8.2-6.5,12c-5.2,7.6-12,13.8-19.8,18.5c-3.9,2.3-8,4.2-12.4,5.8c-4.2,1.5-8.8,2.7-13.2,3.3
			c-4.5,0.8-9.1,0.9-13.6,0.5c-4.5-0.5-8.9-1.5-13.3-3c-4.2-1.7-8.5-3.6-12.3-6.1c-3.9-2.4-7.6-5.2-11.2-8l-2.4-1.8
			c0.6-0.5,1.2-0.9,1.8-1.2c1.8-1.4,3.6-2.9,5.5-4.4c0.9-0.8,1.7-1.5,2.6-2.1c0.5-0.3,0.9-0.6,1.4-0.9c0.3-0.2,0.5-0.3,0.8-0.5
			c0.3-0.2,0.5-0.3,0.8-0.3l0,0c0.2-0.2-0.2-0.9-0.3-0.9c-0.3,0.2-0.6,0.3-0.8,0.5c-0.3,0.2-0.5,0.3-0.8,0.5
			c-0.5,0.3-1.1,0.6-1.5,1.1c-0.9,0.8-1.8,1.5-2.7,2.3c-1.7,1.5-3.5,2.9-5.5,4.2c-0.6,0.5-1.4,0.9-2,1.5c-0.6-0.5-1.2-1.1-2-1.5
			c-1.8-1.4-3.8-2.7-5.8-3.8s-4.1-2.1-6.4-2.9c-2.3-0.8-4.5-1.2-6.8-1.4c-2.3-0.2-4.7,0.2-7,0.8c-2.3,0.6-4.4,2-5.9,3.6
			c-0.8,0.9-1.5,1.8-2,2.9c-0.5,1.1-0.8,2.3-0.8,3.5c0,0.6,0,1.2,0,1.8c0.3,1.8,0.9,3.5,1.8,4.8c0.6,1.1,1.5,1.8,2.4,2.6
			c0.9,0.8,2.1,1.2,3.2,1.5c1.2,0.3,2.3,0.3,3.5,0.3s2.3-0.2,3.5-0.3c2.3-0.5,4.5-1.2,6.7-2s4.2-1.8,6.4-3c2.3-1.2,4.7-2.7,6.8-4.1
			c1.1,1.1,2.1,2,3.3,3c1.7,1.5,3.5,3,5.3,4.7c0.9,0.8,1.8,1.5,2.7,2.3s2,1.5,2.9,2.1c4.1,2.9,8.3,5.3,12.9,7.3
			c2.3,1.1,4.7,1.8,7.1,2.6c2.4,0.8,5,1.2,7.4,1.7c5,0.8,10.3,0.9,15.3,0.6c2.6-0.2,5-0.6,7.6-1.1l1.8-0.3c0.6-0.2,1.2-0.3,1.8-0.5
			c1.2-0.3,2.4-0.6,3.6-1.1c2.4-0.8,4.8-1.7,7.3-2.6c2.4-1.1,4.7-2.1,7-3.3c6.8-3.8,12.9-8.8,18-14.8c0.5-0.5,0.9-1.1,1.2-1.5
			l1.2-1.5c0.5-0.6,0.8-1.1,1.2-1.5c0.3-0.6,0.8-1.1,1.1-1.7c2.9-4.2,5.3-8.9,7.3-13.6c0.9-2.4,1.8-4.8,2.4-7.3
			c0.2-0.6,0.3-1.2,0.5-1.8c0.2-0.6,0.3-1.2,0.5-1.8c0.2-0.6,0.3-1.2,0.3-1.8l0.3-1.8C201.5,87.7,201.2,77.4,198.7,67.4z
			 M77.7,131.5c-2,1.2-3.9,2.3-5.9,3.5c-2,1.1-4.1,2-6.2,2.9c-2.1,0.8-4.2,1.5-6.5,1.8c-2.1,0.3-4.4,0.5-6.4,0
			c-0.9-0.3-1.8-0.6-2.7-1.2c-0.9-0.6-1.5-1.4-2-2.1c-0.2-0.2-0.3-0.5-0.3-0.6c-0.2-0.2-0.3-0.5-0.3-0.8c-0.2-0.5-0.3-0.9-0.6-1.5
			c-0.2-0.5-0.2-0.9-0.3-1.5c0-0.5,0-0.9,0-1.5c0.2-2,0.9-3.8,2.3-5.2c1.5-1.4,3.2-2.4,5.2-2.9c1.1-0.3,2-0.5,3-0.5s2.1,0,3.2,0
			c2.1,0.2,4.2,0.8,6.2,1.5s3.9,1.8,5.8,2.9c0.9,0.6,1.8,1.2,2.7,1.8c0.9,0.6,1.7,1.4,2.6,2.1c0.3,0.3,0.6,0.6,0.9,0.9L77.7,131.5z"
			/>
		
			<linearGradient id="SVGID_00000031192526110983666510000015696609780414628751_" gradientUnits="userSpaceOnUse" x1="99.7323" y1="1329.1385" x2="94.4185" y2="1220.1503" gradientTransform="matrix(1 0 0 -1 0 1356.3564)">
			<stop  offset="0.16" style="stop-color:#FE957A"/>
			<stop  offset="0.61" style="stop-color:#FE6659"/>
			<stop  offset="1" style="stop-color:#FF587A"/>
		</linearGradient>
		<path style="fill:url(#SVGID_00000031192526110983666510000015696609780414628751_);" d="M94.5,119.3c0.9-0.5,1.5-0.8,1.5-0.8
			l-0.2,1.1l-0.9,0.5L94.5,119.3z"/>
		
			<linearGradient id="SVGID_00000037660398680319179480000010315672388685019552_" gradientUnits="userSpaceOnUse" x1="136.3403" y1="1327.3573" x2="131.0295" y2="1218.3661" gradientTransform="matrix(1 0 0 -1 0 1356.3564)">
			<stop  offset="0.16" style="stop-color:#FE957A"/>
			<stop  offset="0.61" style="stop-color:#FE6659"/>
			<stop  offset="1" style="stop-color:#FF587A"/>
		</linearGradient>
		<path style="fill:url(#SVGID_00000037660398680319179480000010315672388685019552_);" d="M127.7,100.6c0.8,0.2,1.7,0.3,2.4,0.3
			c5.5,0.3,8.2-2.7,8.3-2.9c0.2-0.2,0.2-0.5,0-0.6c-0.2-0.2-0.5-0.2-0.6,0c-0.2,0.2-3.5,3.6-9.8,2.3c-0.2,0-0.5,0-0.6,0.3
			C127.2,100.1,127.4,100.4,127.7,100.6L127.7,100.6L127.7,100.6z"/>
		
			<linearGradient id="SVGID_00000009575214416906509370000006628250774169964160_" gradientUnits="userSpaceOnUse" x1="152.304" y1="1326.5769" x2="146.9932" y2="1217.5889" gradientTransform="matrix(1 0 0 -1 0 1356.3564)">
			<stop  offset="0.16" style="stop-color:#FE957A"/>
			<stop  offset="0.61" style="stop-color:#FE6659"/>
			<stop  offset="1" style="stop-color:#FF587A"/>
		</linearGradient>
		<path style="fill:url(#SVGID_00000009575214416906509370000006628250774169964160_);" d="M149.2,96.8c-0.5,0-0.9,0-1.2,0.3
			c-0.8,0.6-0.8,1.5-0.3,2.1c0.3,0.3,0.6,0.6,1.1,0.6h0.2c0.9,0,1.5-0.6,1.7-1.4C150.6,97.7,150,96.8,149.2,96.8z M149.6,98.4
			c0,0.5-0.5,0.6-0.8,0.6c-0.2,0-0.3-0.2-0.5-0.3c-0.2-0.2-0.2-0.3-0.2-0.6c0-0.2,0.2-0.3,0.3-0.5c0.2-0.2,0.3-0.2,0.5-0.2l0,0
			C149.5,97.7,149.8,98,149.6,98.4L149.6,98.4z"/>
		
			<linearGradient id="SVGID_00000024717967497752430740000000656830281081961099_" gradientUnits="userSpaceOnUse" x1="82.0634" y1="1330.0013" x2="76.7527" y2="1221.0101" gradientTransform="matrix(1 0 0 -1 0 1356.3564)">
			<stop  offset="0.16" style="stop-color:#FE957A"/>
			<stop  offset="0.61" style="stop-color:#FE6659"/>
			<stop  offset="1" style="stop-color:#FF587A"/>
		</linearGradient>
		<path style="fill:url(#SVGID_00000024717967497752430740000000656830281081961099_);" d="M81.6,38.6c-0.5,0-0.9,0-1.2,0.3
			c-0.3,0.3-0.6,0.6-0.6,1.1c-0.2,0.9,0.5,1.7,1.4,1.7l0,0c0,0,0,0,0.2,0c0.9,0,1.7-0.6,1.7-1.5C83.1,39.5,82.4,38.7,81.6,38.6
			L81.6,38.6z M82.1,40.3c0,0.2-0.2,0.3-0.3,0.5c-0.3,0.3-0.8,0.2-1.1-0.2c-0.2-0.2-0.2-0.3-0.2-0.6c0-0.2,0.2-0.3,0.3-0.5
			c0.2-0.2,0.3-0.2,0.5-0.2l0,0C81.9,39.5,82.2,39.9,82.1,40.3L82.1,40.3z"/>
		
			<linearGradient id="SVGID_00000178896893212127867950000009155642231073612940_" gradientUnits="userSpaceOnUse" x1="101.6385" y1="1329.0476" x2="96.3277" y2="1220.0563" gradientTransform="matrix(1 0 0 -1 0 1356.3564)">
			<stop  offset="0.16" style="stop-color:#FE957A"/>
			<stop  offset="0.61" style="stop-color:#FE6659"/>
			<stop  offset="1" style="stop-color:#FF587A"/>
		</linearGradient>
		<path style="fill:url(#SVGID_00000178896893212127867950000009155642231073612940_);" d="M101.2,64.3c-0.3-0.3-0.8-0.6-1.2-0.6
			c-0.2,0-0.3,0-0.5,0c-0.9,0.2-1.7,1.1-1.5,2c0.2,0.8,0.8,1.4,1.5,1.5c0,0,0,0,0.2,0c0.5,0,0.9-0.2,1.2-0.5
			C101.8,66.2,101.8,65.1,101.2,64.3L101.2,64.3z M100.7,65.6c0,0.2,0,0.3-0.2,0.5c-0.2,0.3-0.5,0.5-0.9,0.3c-0.3,0-0.5-0.2-0.6-0.3
			c-0.2-0.2-0.2-0.5-0.2-0.6c0-0.5,0.5-0.8,0.9-0.8l0,0c0.3,0,0.5,0.2,0.6,0.3C100.7,65.1,100.9,65.4,100.7,65.6z"/>
		
			<linearGradient id="SVGID_00000116231504498893704380000015810631536339310478_" gradientUnits="userSpaceOnUse" x1="122.071" y1="1328.05" x2="116.7604" y2="1219.0619" gradientTransform="matrix(1 0 0 -1 0 1356.3564)">
			<stop  offset="0.16" style="stop-color:#FE957A"/>
			<stop  offset="0.61" style="stop-color:#FE6659"/>
			<stop  offset="1" style="stop-color:#FF587A"/>
		</linearGradient>
		<path style="fill:url(#SVGID_00000116231504498893704380000015810631536339310478_);" d="M157.5,71.8c-0.3-0.6-0.6-1.1-0.8-1.5
			c-0.6-1.1-0.8-1.7-1.5-2c-0.5-2.3-2.9-5.6-5-7c-0.8-0.5-1.4-0.6-2-0.6c-0.8-1.8-2-3.5-3.8-4.4c-1.2-0.8-2.4-0.9-3.5-0.8
			c-1.8-2-4.8-2.7-7-1.8c-1.4,0.6-2.1,1.8-2.1,3.3c0.2,3.2,0.2,4.5,0.2,5c-0.6,0.8-3.3,4.4-3.2,8.3c0,1.4,0.3,2.6,0.6,3.8
			c-5,1.7-8.5,5.6-10.6,11.7c0-2.3,0.5-4.5,0.9-6.7c0.5-2.4,0.9-4.7,0.8-6.7l0,0c0.8-6.1,5.9-8.9,7-9.5c0.3,0.2,0.6,0.3,0.9,0.5h0.2
			c1.1,0,1.8-0.8,2-1.7c0-1.1-0.8-1.8-1.7-2c-0.9,0-1.8,0.6-2,1.7c0,0.3,0,0.6,0.2,0.9c-1.5,0.8-2.9,1.8-3.9,3
			c0.5-2.6,0-3.9-0.5-4.7c0.2-0.2,0.3-0.5,0.3-0.8c0-0.3,0-0.8-0.3-0.9c0-0.3-0.3-0.5-0.6-0.5c-0.3,0-0.6,0-0.9,0.3
			c-0.3,0.2-0.5,0.5-0.5,0.9c0,0.3,0,0.8,0.3,0.9c0.2,0.3,0.5,0.5,0.9,0.5l0,0h0.2c0.3,0.8,0.9,2.4,0,5.8c-0.8,1.1-1.4,2.3-1.7,3.6
			c-0.2-0.3-0.3-0.6-0.5-0.9l0,0l-0.2-0.2c-0.2-0.3-0.5-0.8-0.8-1.1c-0.2-0.9-1.2-5.6-0.3-10.3c0.3-0.8,2.1-4.8,7.9-5.2
			c3.2-0.2,4.4-1.7,5.3-3c1.2-1.5,2.1-2.9,6.4-1.8c0,0,0,0,0.2,0c0,0,0,0,0.2,0s0.2,0,0.2-0.2l0,0l0,0l0,0c0,0,0.2-0.2,0-0.3l0,0
			v-0.2c0,0-4.5-7-15.3-4.5c-2.9,0.6-4.8,2-6.1,4.1c-2.3,4.2-0.2,10.2,0.3,11.2c-0.5,3-0.5,5.9,0,8.9c-0.8-0.9-1.7-1.7-2.4-2.6
			c-3.2-3.2-6.8-7-7.1-11.5c-0.5-8.2-0.5-9.7-0.5-9.7c0-2.1-0.3-4.2-1.2-6.1c-1.2-2.6-3.5-4.5-6.4-5.2c-0.2,0-0.2,0-0.3,0
			c-1.8-0.5-3.2-0.8-4.4-1.1c-3.8-0.8-4.8-0.9-7.4-5.2c0,0,0,0-0.2-0.2l0,0c-0.2,0-0.2,0-0.3,0l0,0l0,0l0,0c0,0-0.2,0-0.2,0.2l0,0
			c0,0,0,0,0,0.2v0.2c-1.4,5.3,1.2,10.3,6.7,13c0.8,0.5,1.7,0.8,2.6,1.1c0.9,0.3,1.8,0.5,2.9,0.5c1.8,0.2,3.5,0.6,5,1.5
			c0.9,0.5,1.8,1.1,2.6,1.5c0,0.6,0.2,2.9,0.5,9.5c0.2,3.5,2.1,6.4,4.4,8.8c-1.8-1.2-3.9-2.3-5.9-3.2c-0.3-0.8-2.9-5.3-7.9-5.6
			c-0.9,0-2,0.2-2.9,0.3c-4.1,1.1-8.3,0.3-11.8-2c-0.2-0.2-0.3-0.2-0.5,0c-0.2,0.2-0.2,0.3-0.2,0.5s1.7,7.6,8,8.6
			c0.3,0,0.6,0.2,0.9,0.2c0.2,0,0.5,0,0.8,0c2,0,3.9-0.2,5.9-0.6c0.6-0.2,1.1-0.3,1.5-0.3c1.8-0.5,3.2-0.8,5.5-0.5
			c3.5,1.5,6.7,3.5,9.5,6.1c-0.2,0-0.2,0-0.3,0c-0.5,0.2-0.9,0.3-1.4,0.6c-0.8-0.5-2.1,0.3-3.3,1.1l-0.5,0.3
			c-1.1,0.6-1.2,2.3-1.2,2.9c-0.2,0.2-0.5,0.5-0.5,0.8c-0.2,0.3-0.3,0.6-0.6,0.8c-0.5,0.3-0.8,0.8-0.5,1.4c0.2,0.9,3.2,2.1,5.3,2.4
			c0.2,0,0.3,0,0.6,0c1.4,0.2,2.4-0.2,3.2-0.8c0.9,0.8,2.9,2.9,2.7,7.9l0,0c-0.5,2.9-0.6,5.9,0.6,8.8c1.2,3,2.1,7.6,0.6,12.1
			c0,0.2-0.2,0.3-0.2,0.5l0,0c-0.5,1.4-1.2,2.6-2,3.8c2.6-6.5,1.4-14.7-3.2-19.5l0,0c0-1.2,0.2-7.3-3.9-10.9c-2.3-2-4.4-2.7-6.2-2.9
			c-1.4-0.2-2.7,0-3.9,0.3c-0.3,0-0.5,0.2-0.8,0.2c-1.2,0.2-2.6-0.2-3.5-0.9c-0.6-0.5-0.9-1.1-1.2-1.7c0,0,0-0.2-0.2-0.2l0,0
			c-0.2,0-0.2-0.2-0.3,0l0,0l0,0l0,0c0,0-0.2,0-0.2,0.2c0,0,0,0,0,0.2V73c0,3.5,1.5,6.8,4.2,9.2c2.3,2.1,5.2,3.5,8.2,4.1l0,0
			c4.8,0.9,7,2.7,7.1,2.9l0.2,0.2c5,5.3,5.8,15.2,1.5,21.5c-1.7,1.5-3.5,2.7-5.6,3.6c-2.3,1.1-3.8,0.8-5.6,1.4
			c-0.5,0.2-0.8,0.3-1.2,0.6l-0.2,1.1c2.1-1.1,4.4-0.8,7.4-2.3c2.6-1.2,5.5-1.4,7.6-1.2c1.1,0,2.3,0.2,3.3,0.5
			c0,0.9,0.8,1.7,1.7,1.8h-0.3c1.1,0,2-0.8,2-1.7c0-0.5-0.2-0.9-0.5-1.2c-0.3-0.3-0.8-0.6-1.2-0.8c-0.5,0-0.9,0.2-1.4,0.5
			c-0.2,0.2-0.3,0.3-0.5,0.6c-2.6-0.6-5.2-0.6-7.7-0.3c3.6-2.4,5.8-5.5,6.8-8.6c0.8-0.8,2.6-0.6,4.8-0.3c1.8,0.3,3.8,0.3,5.8,0.3
			c5.8-0.2,10.3-5.8,10.5-9.4c0-0.2-0.2-0.3-0.3-0.5c-0.2,0-0.3,0-0.5,0c0,0-3.5,2.9-9.8,2.1c-4.5-0.5-7.7,0.6-9.5,3.5
			c0.2-3-0.3-6.1-1.5-8.9c-0.3-0.9-0.6-1.7-0.8-2.6c2-7,5.6-11.4,10.8-13.2c0.3,0.9,0.8,2,1.2,2.9c-1.5,1.7-0.6,3.2,0.5,5
			c0.5,0.6,0.9,1.4,1.4,2.1c1.2,2.3,2.6,3.6,3.6,3.6c0.2,0,0.2,0,0.3,0c0.5,0,0.9-0.5,1.1-0.9c1.2,0.8,3.3-0.2,4.1-0.5
			c0.9,0.6,4.1,2.7,6.4,1.7c1.4-0.6,2.4-1.7,3.2-3c1.2-0.5,2.1-1.5,2.1-2.7c0.2-1.1,0.9-1.7,1.7-2.3c0.6-0.6,1.2-1.1,1.4-1.8
			c0.2-0.8,0.2-1.5-0.2-2.1C157.4,76,158.6,73.9,157.5,71.8z M128,61.6c0-0.5,0.5-0.9,1.1-0.9l0,0c0.6,0,0.9,0.6,0.9,1.1
			s-0.5,0.9-1.1,0.9l0,0C128.3,62.5,127.8,62.1,128,61.6L128,61.6z M121.8,60.1L121.8,60.1C121.6,60.1,121.6,60.1,121.8,60.1
			c-0.2,0-0.2-0.2-0.2-0.3c0-0.2,0.2-0.3,0.5-0.3l0,0c0.2,0,0.2,0,0.3,0.2c0,0.2,0.2,0.2,0.2,0.3v0.2
			C122.1,59.9,121.9,59.9,121.8,60.1z M118.3,47.2c1.1-2,2.9-3.2,5.5-3.6c1.7-0.3,3.5-0.5,5.2-0.5c2.3,0.2,4.4,0.8,6.4,2
			c-1.7-0.8-3.6-1.2-5.5-0.9c-3,0.6-4.1,1.8-5,2.9c-0.3,0.3-0.6,0.6-0.9,0.9c-0.2,0.2-0.2,0.5-0.2,0.6l0,0c0,0.2,0.2,0.2,0.3,0.2
			c0.2,0,0.2,0,0.3-0.2c0.5-0.3,0.8-0.8,1.1-1.1c0.8-0.9,1.7-2,4.4-2.6c2.4-0.6,5,0.8,6.7,1.7c-3.2-0.3-4.2,1.1-5.3,2.4
			c-0.9,1.2-2,2.6-4.7,2.7c-3.6,0.2-5.8,1.8-7.1,3.2c0.6-1.5,1.4-2.7,2.4-3.9c0.2-0.2,0.2-0.5,0-0.6c-0.2-0.2-0.5-0.2-0.6,0l0,0
			c-1.5,1.7-2.6,3.6-3.2,5.8C117.5,54.3,116.6,50.3,118.3,47.2z M97.8,36.3c0.3,0,0.6,0.2,0.8,0.2c1.4,0.5,4.2,1.5,6.4,3.9
			c0.5,0.5,0.8,0.9,1.1,1.4c-0.5-0.3-1.1-0.6-1.5-0.8c-1.7-0.9-3.5-1.4-5.3-1.5c-0.8,0-1.7-0.2-2.4-0.3c-0.9-0.3-1.8-0.6-2.7-1.1
			c-4.5-2.3-6.8-6.1-6.5-10.2c1.1,3.5,3.8,6.2,7.3,7.4H95c0.2,0,0.5-0.2,0.5-0.3c0-0.2-0.2-0.5-0.3-0.5c-3-1.1-5.5-3.5-6.5-6.5
			c2,2.7,3.5,2.9,6.7,3.6c1.2,0.3,2.7,0.6,4.5,1.1h0.2c3.5,0.9,5.3,3.2,6.1,5.5c0.5,1.1,0.6,2.1,0.8,3.2c-0.5-0.6-0.9-1.2-1.4-1.8
			c-2.3-2.3-5-3.3-6.5-3.8c-0.6-0.2-0.9-0.3-0.9-0.3c-0.2,0-0.5,0.2-0.5,0.3C97.5,36,97.5,36.3,97.8,36.3L97.8,36.3z M95,56.6
			c0.9,0,2,0.2,2.9,0.3c1.7,0.3,3.5,0.8,5,1.4c-1.1,0-2.3,0.3-3.3,0.6c-0.5,0.2-1.1,0.3-1.7,0.3c-2,0.3-3.8,0.6-5.8,0.6
			c-0.6,0-1.2,0-1.8-0.2c-4.2-0.9-6.1-5-6.7-6.8c2,1.1,4.1,1.8,6.4,2c1.8,0.2,3.5,0,5.2-0.5c0.8-0.2,1.7-0.3,2.4-0.3
			c3.6,0,5.8,2.7,6.8,4.1c-2.3-0.9-4.5-1.5-7-2c-0.9-0.2-1.7-0.3-2.6-0.3l0,0c-0.2,0-0.5,0.2-0.5,0.3C94.5,56.3,94.7,56.6,95,56.6
			L95,56.6z M109.8,68l0.5-0.3c0.6-0.3,1.2-0.6,1.8-0.9c-0.5,0.5-0.9,0.9-1.4,1.5c-0.2,0.2-0.2,0.3-0.3,0.5
			c-0.5,0.2-0.9,0.5-1.4,0.8C109.2,68.7,109.3,68.1,109.8,68L109.8,68z M113,74.6c-2.6,0-5.3-1.4-5.6-1.8c0-0.3,0-0.3,0.2-0.5
			c0.5-0.3,0.8-0.8,0.9-1.2c0.2-0.6,0.8-0.9,1.4-1.2c-0.2,0.2-0.2,0.5-0.2,0.8c0,0.3-0.2,0.5-0.3,0.9c-0.2,0.3-0.2,0.8,0.5,1.2
			c0.9,0.9,3.5,1.5,5,1.7C114.2,74.5,113.6,74.6,113,74.6z M115.6,73.4c-0.6,0.3-4.1-0.5-5.2-1.4c-0.2-0.2-0.2-0.3-0.2-0.3
			c0.2-0.3,0.2-0.6,0.3-0.9c0.2-0.6,0.3-1.1,1.1-2.1c0.9-1.2,2.3-2.6,3.2-2.7h0.2c0.2,0,0.2,0,0.2,0c0.5,0.3,1.5,3.5,1.2,5.6
			C116.3,72.4,116.2,73.1,115.6,73.4L115.6,73.4z M116.2,74C116.3,74,116.3,74,116.2,74c0.5-0.5,0.9-1.1,1.1-2.1
			c0.2-1.7-0.3-3.9-0.9-5.3c1.1,1.1,2,2.1,2.7,3.2c0.5,0.6,0.8,1.4,0.9,2.1c0.3,2.1-0.2,4.5-0.8,7.3c0,0.2,0,0.2,0,0.3
			C118.4,76.3,117.1,74.6,116.2,74L116.2,74z M113.4,87.2c-3.3-3.2-6.1-4.5-7.6-5c-0.3-0.2-0.8-0.2-1.1-0.3c-0.2,0-0.5,0.2-0.5,0.3
			c0,0.2,0.2,0.5,0.3,0.5c0.5,0,0.9,0.2,1.2,0.3c1.7,0.8,3.3,1.7,4.7,2.7c-1.4-0.6-2.7-0.9-4.2-1.2H106c-3.2-0.6-6.1-2.3-8.3-4.7
			l0,0c-1.2-1.2-2-2.7-2.6-4.4c0.6,0.9,1.2,1.7,2,2.3c1.5,1.4,3.2,2.3,5.2,3c0,0,0,0,0.2,0c0.2,0,0.5-0.2,0.5-0.5
			c0-0.2-0.2-0.3-0.3-0.5c0,0-3.5-1.2-5.9-4.1c-0.3-0.5-0.8-0.9-1.1-1.4c0.2,0.2,0.5,0.3,0.6,0.3c0.9,0.5,2.1,0.6,3,0.5
			c0.2,0,0.5,0,0.8-0.2c1.4-0.3,2.7-0.3,4.1-0.2l0,0c1.7,0.2,3.5,0.9,5.3,2.6C113,80.7,113.4,85.2,113.4,87.2L113.4,87.2z
			 M121.9,113.7c0-0.3,0.2-0.5,0.3-0.6c0.2-0.2,0.5-0.2,0.8-0.2l0,0c0.3,0,0.5,0.2,0.6,0.3c0.2,0.2,0.3,0.5,0.2,0.8
			c0,0.6-0.6,0.9-1.1,0.9C122.2,114.8,121.8,114.3,121.9,113.7L121.9,113.7L121.9,113.7z M125.6,100.7c0.2,0,0.5-0.2,0.3-0.5l0,0
			c0-0.2-0.2-0.5-0.5-0.3c-1.5,0.2-3,0.9-4.1,1.8c1.7-3.2,4.2-4.5,8.6-4.4c0.3,0,0.6,0,0.9,0c5,0.6,8.2-0.9,9.7-1.8
			c-0.8,3.2-4.5,7.6-9.5,7.7c-1.8,0-3.8-0.2-5.6-0.3c-1.7-0.2-3-0.3-4.1-0.2C122.4,101.6,123.9,100.9,125.6,100.7L125.6,100.7z
			 M133,60.9L133,60.9c0-0.8,0-2-0.2-3.8c-0.2-1.5,0.8-2.3,1.5-2.6c0.6-0.3,1.2-0.3,2-0.3c1.4,0.2,2.7,0.8,3.8,1.7
			c-0.6,0.3-1.2,0.8-1.8,1.2c-0.2,0.2-0.2,0.5,0,0.6l0,0c0,0,0.2,0.2,0.3,0.2c0.2,0,0.3,0,0.3-0.2c0,0,1.1-1.1,2.1-1.4l0,0l0,0
			c0.9-0.3,2,0,3,0.6c1.5,0.9,2.7,2.3,3.3,3.9c-2.1,0.6-4.8,2.6-5.9,5c-0.6,1.5-1.4,3.2-1.8,4.4c-0.8,1.5-1.5,1.8-1.7,1.8
			c-0.3,0-0.6-0.3-0.8-0.5C136.3,70.3,132.8,64.3,133,60.9L133,60.9z M142.5,70.3c-0.2,0.3-0.2,0.6-0.2,0.9
			c-0.9,0.5-1.8,0.9-2.6,1.5c0.6-1.1,1.8-2,2.4-2.3C142.4,70.3,142.5,70.3,142.5,70.3L142.5,70.3z M142.4,69.2L142.4,69.2
			c0-0.2,0-0.2,0.2-0.2l0,0l0,0c0,0,0.2,0,0.2,0.2v0.2l0,0C142.7,69.2,142.5,69.2,142.4,69.2L142.4,69.2z M129.8,70.4
			c-0.2-3,1.7-6.1,2.6-7.3c0.8,3.6,3.3,7.7,3.9,8.9c0.2,0.3,0.3,0.5,0.3,0.8c-1.4,0.9-3.9,2.9-5.2,4.4
			C130.6,75.1,130,72.8,129.8,70.4z M137.2,87.1c-0.2,0.5-0.3,0.9-0.6,0.9c-0.6,0-1.8-1.1-3-3.2c-0.5-0.9-0.9-1.7-1.4-2.3
			c-1.2-1.8-1.8-2.7-0.5-4.1l0,0l0,0c0.6-1.1,3-3,4.8-4.2l0.5,1.2c-0.3,2.1-1.8,5-1.8,5c-0.2,0.2,0,0.5,0.2,0.6l0,0h0.2
			c0.2,0,0.3-0.2,0.5-0.3c0.6-1.2,1.2-2.6,1.7-3.9l0.6,1.2c0.2,0.5,0.3,0.9,0.3,1.7c0,0.2,0.2,0.5,0.2,0.8s0.2,0.6,0.2,0.9
			c-0.2,1.7-1.7,2.4-1.7,2.4c-0.2,0.2-0.3,0.3-0.2,0.6c0,0.2,0.2,0.2,0.3,0.2h0.2c0.8-0.5,1.4-1.1,1.8-1.8c0,1.5-0.6,2.1-1.1,2.7
			C137.7,85.6,137.2,86,137.2,87.1L137.2,87.1z M138.1,86.9c0-0.6,0.3-0.9,0.8-1.2c0.5-0.5,0.9-0.9,1.1-1.5c0.3,0.9,0.8,1.8,1.4,2.6
			C140.4,87.1,138.7,87.7,138.1,86.9L138.1,86.9z M155.7,78.9c-0.2,0.5-0.6,0.8-1.1,1.2c-0.8,0.6-1.8,1.5-2,2.9
			c-0.2,1.7-1.5,2-1.7,2.1c-0.9,0-1.7-0.3-2.4-0.8c-0.2-0.2-0.5,0-0.6,0.2c-0.2,0.2,0,0.5,0.2,0.6c0.8,0.3,1.5,0.6,2.3,0.8
			c-0.6,1.1-1.5,1.8-2.6,2.3c-2,1.1-5.5-1.5-5.8-1.7c-0.9-0.9-1.5-2.6-2-4.4c0-0.2,0-0.3,0-0.5c0-0.2,0-0.2-0.2-0.3
			c-0.2-0.8-0.3-1.5-0.5-2.1c-0.2-0.6-0.3-1.2-0.3-1.5v-1.8c0.6,0.5,1.2,0.9,1.2,0.9c1.5,1.5,3.5,2.1,5.6,2.3
			c3.9,0.3,8.2-1.2,9.5-1.7C155.7,77.8,155.7,78.4,155.7,78.9L155.7,78.9z M155.6,76.5c-0.6,0.3-10,3.8-14.2,0c0.2,0,0.3,0,0.6,0.2
			c0.3,0,0.6,0,0.8,0c0,0.2,0.2,0.2,0.2,0.2c0.2,0.2,0.5,0.3,0.8,0.3c0.3,0,0.6,0,0.8-0.3c0.5-0.3,0.5-1.1,0.2-1.5l0,0
			c-0.2-0.2-0.5-0.3-0.8-0.3c-0.3,0-0.6,0.2-0.8,0.3c-0.2,0.2-0.2,0.3-0.3,0.3c-0.5,0.2-1.7,0.2-2.4-0.8c0.2,0,0.3,0,0.3,0
			c0.9,0,1.7-0.2,2.6-0.6c0.2,0.2,0.5,0.3,0.6,0.3h0.2c0.3,0,0.6-0.2,0.8-0.3c0.2-0.2,0.3-0.5,0.2-0.8c0-0.3-0.2-0.6-0.3-0.8
			c-0.2-0.2-0.5-0.3-0.8-0.3c-0.3,0-0.6,0.2-0.8,0.3c-0.2,0.2-0.2,0.3-0.2,0.6c-0.8,0.3-2.1,0.9-3.2,0.2c0,0,0,0-0.2,0
			c0.9-0.9,2.7-1.8,3.5-2c0.2,0,0.3,0.2,0.3,0.2c0.2,0,0.3,0,0.5,0c0.3-0.2,0.5-0.3,0.6-0.6c0.2-0.3,0.2-0.6,0-0.8
			c-0.2-0.3-0.6-0.6-0.9-0.6l0.2-0.2c0.2-0.3,0.2-0.6,0-0.8c-0.2-0.3-0.3-0.5-0.6-0.6c-0.3-0.2-0.6-0.2-0.8,0
			c-0.3,0.2-0.5,0.3-0.6,0.6c-0.2,0.3-0.2,0.5,0,0.8c-0.3,0.2-0.8,0.5-1.1,0.8l0,0c0.5-1.2,1.1-2.7,1.7-3.9c1.1-2.4,3.8-4.1,5.8-4.7
			l0,0l0,0c0.3-0.2,0.9,0,1.7,0.5c2,1.2,4.1,4.2,4.5,6.2c-0.8,0.2-1.5,0.3-2.1,0.5c-0.2,0.2-0.3,0.3-0.3,0.6c0,0.2,0.2,0.3,0.3,0.3
			h0.2c0.8-0.3,1.5-0.5,2.3-0.5c0.6,0.2,0.6,0.3,1.2,1.5c0.2,0.5,0.5,0.9,0.8,1.5C157.8,74.3,155.9,76.2,155.6,76.5L155.6,76.5z
			 M143.4,76.2C143.4,76,143.4,76,143.4,76.2c0.2-0.2,0.2-0.2,0.2-0.2h0.2v0.2v0.2h-0.2C143.4,76.3,143.4,76.2,143.4,76.2
			L143.4,76.2L143.4,76.2z M143.7,73.6L143.7,73.6C143.7,73.6,143.9,73.6,143.7,73.6L143.7,73.6c0.2,0,0.2,0,0.3,0.2
			c0,0.2,0,0.2-0.2,0.2l0,0l0,0C143.9,73.7,143.9,73.7,143.7,73.6L143.7,73.6z M143.3,70.9c0-0.2,0-0.2,0.2-0.2c0.2,0,0.2,0,0.3,0.2
			l0,0V71c0,0,0,0-0.2,0.2l0,0C143.4,70.9,143.3,70.9,143.3,70.9L143.3,70.9z M127.1,130.2L127.1,130.2c-1.1-0.2-2.1-0.5-3.2-0.9
			c-2.3-1.1-4.2-2.9-5.5-5c-1.5-2.9-4.8-5-8.9-6.1c-2.4-0.6-4.5-1.8-6.8-1.4l-0.2,0.9c2.1-0.6,4.2,0.8,6.8,1.4
			c3.8,0.9,7,2.9,8.3,5.6c0.9,1.8,2.3,3.3,3.9,4.4c-2.3-0.8-4.4-2-6.4-3.5c-0.2-0.2-0.5-0.2-0.6,0c-0.2,0.2-0.2,0.5,0,0.6
			c3.5,3,7.6,4.2,10,4.7c-2.9,0.8-7.3,1.4-10.9-0.3c-2.3-1.1-4.8-3.2-7.3-5.3c-1.7-1.5-3-4.2-4.5-5.2l-0.2,0.9
			c1.4,0.9,2.6,3.6,4.1,4.8c2.4,2.1,5,4.4,7.6,5.5c1.4,0.6,2.9,0.9,4.5,1.1c3.6,0.2,7.1-0.8,8.9-1.2h0.2c0,0,0,0,0.2,0
			c0,0,0,0,0.2,0v-0.2c0,0,0,0,0-0.2l0,0l0,0l0,0C127.4,130.5,127.2,130.4,127.1,130.2L127.1,130.2z M114.5,124.6
			c0.2,0,0.3,0,0.3-0.2c0.2-0.2,0.2-0.5-0.2-0.6l0,0c-2.4-1.7-7.4-4.8-12.4-5.2l-0.2,0.9c4.8,0.3,9.8,3.5,12.1,5
			C114.3,124.6,114.5,124.6,114.5,124.6z"/>
		
			<linearGradient id="SVGID_00000094585305293715498870000014338887324718070156_" gradientUnits="userSpaceOnUse" x1="151.1375" y1="1326.6349" x2="145.8267" y2="1217.6437" gradientTransform="matrix(1 0 0 -1 0 1356.3564)">
			<stop  offset="0.16" style="stop-color:#FE957A"/>
			<stop  offset="0.61" style="stop-color:#FE6659"/>
			<stop  offset="1" style="stop-color:#FF587A"/>
		</linearGradient>
		<path style="fill:url(#SVGID_00000094585305293715498870000014338887324718070156_);" d="M148,71c0.2,0,0.2,0,0.3,0
			c0.8-0.5,1.5-0.8,2.3-0.9c0.2,0,0.3-0.3,0.3-0.5c0-0.2-0.3-0.3-0.5-0.3c-0.9,0.2-1.8,0.6-2.7,1.1c-0.2,0.2-0.3,0.5-0.2,0.6l0,0
			C147.7,70.9,147.8,71,148,71z"/>
		
			<linearGradient id="SVGID_00000169532256527965745170000010608434186952342678_" gradientUnits="userSpaceOnUse" x1="143.6847" y1="1326.9989" x2="138.3707" y2="1218.0076" gradientTransform="matrix(1 0 0 -1 0 1356.3564)">
			<stop  offset="0.16" style="stop-color:#FE957A"/>
			<stop  offset="0.61" style="stop-color:#FE6659"/>
			<stop  offset="1" style="stop-color:#FF587A"/>
		</linearGradient>
		<path style="fill:url(#SVGID_00000169532256527965745170000010608434186952342678_);" d="M139.6,66L139.6,66
			c0.3,0,0.5-0.2,0.5-0.3c0.9-4.4,4.2-5,4.4-5c0.2,0,0.3-0.3,0.3-0.5c0-0.2-0.3-0.3-0.5-0.3c0,0-4.1,0.6-5,5.6
			C139.2,65.9,139.3,66,139.6,66L139.6,66z"/>
		
			<linearGradient id="SVGID_00000018926705390751151330000010225995051195464376_" gradientUnits="userSpaceOnUse" x1="136.3403" y1="1327.3573" x2="131.0295" y2="1218.3661" gradientTransform="matrix(1 0 0 -1 0 1356.3564)">
			<stop  offset="0.16" style="stop-color:#FE957A"/>
			<stop  offset="0.61" style="stop-color:#FE6659"/>
			<stop  offset="1" style="stop-color:#FF587A"/>
		</linearGradient>
		<path style="fill:url(#SVGID_00000018926705390751151330000010225995051195464376_);" d="M127.7,100.6c0.8,0.2,1.7,0.3,2.4,0.3
			c5.5,0.3,8.2-2.7,8.3-2.9c0.2-0.2,0.2-0.5,0-0.6c-0.2-0.2-0.5-0.2-0.6,0c-0.2,0.2-3.5,3.6-9.8,2.3c-0.2,0-0.5,0-0.6,0.3
			C127.2,100.1,127.4,100.4,127.7,100.6L127.7,100.6L127.7,100.6z"/>
		
			<linearGradient id="SVGID_00000146472633073398133010000004044898480747739296_" gradientUnits="userSpaceOnUse" x1="152.304" y1="1326.5769" x2="146.9932" y2="1217.5889" gradientTransform="matrix(1 0 0 -1 0 1356.3564)">
			<stop  offset="0.16" style="stop-color:#FE957A"/>
			<stop  offset="0.61" style="stop-color:#FE6659"/>
			<stop  offset="1" style="stop-color:#FF587A"/>
		</linearGradient>
		<path style="fill:url(#SVGID_00000146472633073398133010000004044898480747739296_);" d="M149.2,96.8c-0.5,0-0.9,0-1.2,0.3
			c-0.8,0.6-0.8,1.5-0.3,2.1c0.3,0.3,0.6,0.6,1.1,0.6h0.2c0.9,0,1.5-0.6,1.7-1.4C150.6,97.7,150,96.8,149.2,96.8z M149.6,98.4
			c0,0.5-0.5,0.6-0.8,0.6c-0.2,0-0.3-0.2-0.5-0.3c-0.2-0.2-0.2-0.3-0.2-0.6c0-0.2,0.2-0.3,0.3-0.5c0.2-0.2,0.3-0.2,0.5-0.2l0,0
			C149.5,97.7,149.8,98,149.6,98.4L149.6,98.4z"/>
		
			<linearGradient id="SVGID_00000052819793317819938530000015033711970522083200_" gradientUnits="userSpaceOnUse" x1="82.0634" y1="1330.0013" x2="76.7527" y2="1221.0101" gradientTransform="matrix(1 0 0 -1 0 1356.3564)">
			<stop  offset="0.16" style="stop-color:#FE957A"/>
			<stop  offset="0.61" style="stop-color:#FE6659"/>
			<stop  offset="1" style="stop-color:#FF587A"/>
		</linearGradient>
		<path style="fill:url(#SVGID_00000052819793317819938530000015033711970522083200_);" d="M81.6,38.6c-0.5,0-0.9,0-1.2,0.3
			c-0.3,0.3-0.6,0.6-0.6,1.1c-0.2,0.9,0.5,1.7,1.4,1.7l0,0c0,0,0,0,0.2,0c0.9,0,1.7-0.6,1.7-1.5C83.1,39.5,82.4,38.7,81.6,38.6
			L81.6,38.6z M82.1,40.3c0,0.2-0.2,0.3-0.3,0.5c-0.3,0.3-0.8,0.2-1.1-0.2c-0.2-0.2-0.2-0.3-0.2-0.6c0-0.2,0.2-0.3,0.3-0.5
			c0.2-0.2,0.3-0.2,0.5-0.2l0,0C81.9,39.5,82.2,39.9,82.1,40.3L82.1,40.3z"/>
		
			<linearGradient id="SVGID_00000024721401375767180690000009531831889210339483_" gradientUnits="userSpaceOnUse" x1="101.6385" y1="1329.0476" x2="96.3277" y2="1220.0563" gradientTransform="matrix(1 0 0 -1 0 1356.3564)">
			<stop  offset="0.16" style="stop-color:#FE957A"/>
			<stop  offset="0.61" style="stop-color:#FE6659"/>
			<stop  offset="1" style="stop-color:#FF587A"/>
		</linearGradient>
		<path style="fill:url(#SVGID_00000024721401375767180690000009531831889210339483_);" d="M101.2,64.3c-0.3-0.3-0.8-0.6-1.2-0.6
			c-0.2,0-0.3,0-0.5,0c-0.9,0.2-1.7,1.1-1.5,2c0.2,0.8,0.8,1.4,1.5,1.5c0,0,0,0,0.2,0c0.5,0,0.9-0.2,1.2-0.5
			C101.8,66.2,101.8,65.1,101.2,64.3L101.2,64.3z M100.7,65.6c0,0.2,0,0.3-0.2,0.5c-0.2,0.3-0.5,0.5-0.9,0.3c-0.3,0-0.5-0.2-0.6-0.3
			c-0.2-0.2-0.2-0.5-0.2-0.6c0-0.5,0.5-0.8,0.9-0.8l0,0c0.3,0,0.5,0.2,0.6,0.3C100.7,65.1,100.9,65.4,100.7,65.6z"/>
		
			<linearGradient id="SVGID_00000112628013552105809050000008533662617225010596_" gradientUnits="userSpaceOnUse" x1="122.071" y1="1328.05" x2="116.7604" y2="1219.0619" gradientTransform="matrix(1 0 0 -1 0 1356.3564)">
			<stop  offset="0.16" style="stop-color:#FE957A"/>
			<stop  offset="0.61" style="stop-color:#FE6659"/>
			<stop  offset="1" style="stop-color:#FF587A"/>
		</linearGradient>
		<path style="fill:url(#SVGID_00000112628013552105809050000008533662617225010596_);" d="M157.5,71.8c-0.3-0.6-0.6-1.1-0.8-1.5
			c-0.6-1.1-0.8-1.7-1.5-2c-0.5-2.3-2.9-5.6-5-7c-0.8-0.5-1.4-0.6-2-0.6c-0.8-1.8-2-3.5-3.8-4.4c-1.2-0.8-2.4-0.9-3.5-0.8
			c-1.8-2-4.8-2.7-7-1.8c-1.4,0.6-2.1,1.8-2.1,3.3c0.2,3.2,0.2,4.5,0.2,5c-0.6,0.8-3.3,4.4-3.2,8.3c0,1.4,0.3,2.6,0.6,3.8
			c-5,1.7-8.5,5.6-10.6,11.7c0-2.3,0.5-4.5,0.9-6.7c0.5-2.4,0.9-4.7,0.8-6.7l0,0c0.8-6.1,5.9-8.9,7-9.5c0.3,0.2,0.6,0.3,0.9,0.5h0.2
			c1.1,0,1.8-0.8,2-1.7c0-1.1-0.8-1.8-1.7-2c-0.9,0-1.8,0.6-2,1.7c0,0.3,0,0.6,0.2,0.9c-1.5,0.8-2.9,1.8-3.9,3
			c0.5-2.6,0-3.9-0.5-4.7c0.2-0.2,0.3-0.5,0.3-0.8c0-0.3,0-0.8-0.3-0.9c0-0.3-0.3-0.5-0.6-0.5c-0.3,0-0.6,0-0.9,0.3
			c-0.3,0.2-0.5,0.5-0.5,0.9c0,0.3,0,0.8,0.3,0.9c0.2,0.3,0.5,0.5,0.9,0.5l0,0h0.2c0.3,0.8,0.9,2.4,0,5.8c-0.8,1.1-1.4,2.3-1.7,3.6
			c-0.2-0.3-0.3-0.6-0.5-0.9l0,0l-0.2-0.2c-0.2-0.3-0.5-0.8-0.8-1.1c-0.2-0.9-1.2-5.6-0.3-10.3c0.3-0.8,2.1-4.8,7.9-5.2
			c3.2-0.2,4.4-1.7,5.3-3c1.2-1.5,2.1-2.9,6.4-1.8c0,0,0,0,0.2,0c0,0,0,0,0.2,0s0.2,0,0.2-0.2l0,0l0,0l0,0c0,0,0.2-0.2,0-0.3l0,0
			v-0.2c0,0-4.5-7-15.3-4.5c-2.9,0.6-4.8,2-6.1,4.1c-2.3,4.2-0.2,10.2,0.3,11.2c-0.5,3-0.5,5.9,0,8.9c-0.8-0.9-1.7-1.7-2.4-2.6
			c-3.2-3.2-6.8-7-7.1-11.5c-0.5-8.2-0.5-9.7-0.5-9.7c0-2.1-0.3-4.2-1.2-6.1c-1.2-2.6-3.5-4.5-6.4-5.2c-0.2,0-0.2,0-0.3,0
			c-1.8-0.5-3.2-0.8-4.4-1.1c-3.8-0.8-4.8-0.9-7.4-5.2c0,0,0,0-0.2-0.2l0,0c-0.2,0-0.2,0-0.3,0l0,0l0,0l0,0c0,0-0.2,0-0.2,0.2l0,0
			c0,0,0,0,0,0.2v0.2c-1.4,5.3,1.2,10.3,6.7,13c0.8,0.5,1.7,0.8,2.6,1.1c0.9,0.3,1.8,0.5,2.9,0.5c1.8,0.2,3.5,0.6,5,1.5
			c0.9,0.5,1.8,1.1,2.6,1.5c0,0.6,0.2,2.9,0.5,9.5c0.2,3.5,2.1,6.4,4.4,8.8c-1.8-1.2-3.9-2.3-5.9-3.2c-0.3-0.8-2.9-5.3-7.9-5.6
			c-0.9,0-2,0.2-2.9,0.3c-4.1,1.1-8.3,0.3-11.8-2c-0.2-0.2-0.3-0.2-0.5,0c-0.2,0.2-0.2,0.3-0.2,0.5s1.7,7.6,8,8.6
			c0.3,0,0.6,0.2,0.9,0.2c0.2,0,0.5,0,0.8,0c2,0,3.9-0.2,5.9-0.6c0.6-0.2,1.1-0.3,1.5-0.3c1.8-0.5,3.2-0.8,5.5-0.5
			c3.5,1.5,6.7,3.5,9.5,6.1c-0.2,0-0.2,0-0.3,0c-0.5,0.2-0.9,0.3-1.4,0.6c-0.8-0.5-2.1,0.3-3.3,1.1l-0.5,0.3
			c-1.1,0.6-1.2,2.3-1.2,2.9c-0.2,0.2-0.5,0.5-0.5,0.8c-0.2,0.3-0.3,0.6-0.6,0.8c-0.5,0.3-0.8,0.8-0.5,1.4c0.2,0.9,3.2,2.1,5.3,2.4
			c0.2,0,0.3,0,0.6,0c1.4,0.2,2.4-0.2,3.2-0.8c0.9,0.8,2.9,2.9,2.7,7.9l0,0c-0.5,2.9-0.6,5.9,0.6,8.8c1.2,3,2.1,7.6,0.6,12.1
			c0,0.2-0.2,0.3-0.2,0.5l0,0c-0.5,1.4-1.2,2.6-2,3.8c2.6-6.5,1.4-14.7-3.2-19.5l0,0c0-1.2,0.2-7.3-3.9-10.9c-2.3-2-4.4-2.7-6.2-2.9
			c-1.4-0.2-2.7,0-3.9,0.3c-0.3,0-0.5,0.2-0.8,0.2c-1.2,0.2-2.6-0.2-3.5-0.9c-0.6-0.5-0.9-1.1-1.2-1.7c0,0,0-0.2-0.2-0.2l0,0
			c-0.2,0-0.2-0.2-0.3,0l0,0l0,0l0,0c0,0-0.2,0-0.2,0.2c0,0,0,0,0,0.2V73c0,3.5,1.5,6.8,4.2,9.2c2.3,2.1,5.2,3.5,8.2,4.1l0,0
			c4.8,0.9,7,2.7,7.1,2.9l0.2,0.2c5,5.3,5.8,15.2,1.5,21.5c-1.7,1.5-3.5,2.7-5.6,3.6c-2.3,1.1-3.8,0.8-5.6,1.4
			c-0.5,0.2-0.8,0.3-1.2,0.6l-0.2,1.1c2.1-1.1,4.4-0.8,7.4-2.3c2.6-1.2,5.5-1.4,7.6-1.2c1.1,0,2.3,0.2,3.3,0.5
			c0,0.9,0.8,1.7,1.7,1.8h-0.3c1.1,0,2-0.8,2-1.7c0-0.5-0.2-0.9-0.5-1.2c-0.3-0.3-0.8-0.6-1.2-0.8c-0.5,0-0.9,0.2-1.4,0.5
			c-0.2,0.2-0.3,0.3-0.5,0.6c-2.6-0.6-5.2-0.6-7.7-0.3c3.6-2.4,5.8-5.5,6.8-8.6c0.8-0.8,2.6-0.6,4.8-0.3c1.8,0.3,3.8,0.3,5.8,0.3
			c5.8-0.2,10.3-5.8,10.5-9.4c0-0.2-0.2-0.3-0.3-0.5c-0.2,0-0.3,0-0.5,0c0,0-3.5,2.9-9.8,2.1c-4.5-0.5-7.7,0.6-9.5,3.5
			c0.2-3-0.3-6.1-1.5-8.9c-0.3-0.9-0.6-1.7-0.8-2.6c2-7,5.6-11.4,10.8-13.2c0.3,0.9,0.8,2,1.2,2.9c-1.5,1.7-0.6,3.2,0.5,5
			c0.5,0.6,0.9,1.4,1.4,2.1c1.2,2.3,2.6,3.6,3.6,3.6c0.2,0,0.2,0,0.3,0c0.5,0,0.9-0.5,1.1-0.9c1.2,0.8,3.3-0.2,4.1-0.5
			c0.9,0.6,4.1,2.7,6.4,1.7c1.4-0.6,2.4-1.7,3.2-3c1.2-0.5,2.1-1.5,2.1-2.7c0.2-1.1,0.9-1.7,1.7-2.3c0.6-0.6,1.2-1.1,1.4-1.8
			c0.2-0.8,0.2-1.5-0.2-2.1C157.4,76,158.6,73.9,157.5,71.8z M128,61.6c0-0.5,0.5-0.9,1.1-0.9l0,0c0.6,0,0.9,0.6,0.9,1.1
			s-0.5,0.9-1.1,0.9l0,0C128.3,62.5,127.8,62.1,128,61.6L128,61.6z M121.8,60.1L121.8,60.1C121.6,60.1,121.6,60.1,121.8,60.1
			c-0.2,0-0.2-0.2-0.2-0.3c0-0.2,0.2-0.3,0.5-0.3l0,0c0.2,0,0.2,0,0.3,0.2c0,0.2,0.2,0.2,0.2,0.3v0.2
			C122.1,59.9,121.9,59.9,121.8,60.1z M118.3,47.2c1.1-2,2.9-3.2,5.5-3.6c1.7-0.3,3.5-0.5,5.2-0.5c2.3,0.2,4.4,0.8,6.4,2
			c-1.7-0.8-3.6-1.2-5.5-0.9c-3,0.6-4.1,1.8-5,2.9c-0.3,0.3-0.6,0.6-0.9,0.9c-0.2,0.2-0.2,0.5-0.2,0.6l0,0c0,0.2,0.2,0.2,0.3,0.2
			c0.2,0,0.2,0,0.3-0.2c0.5-0.3,0.8-0.8,1.1-1.1c0.8-0.9,1.7-2,4.4-2.6c2.4-0.6,5,0.8,6.7,1.7c-3.2-0.3-4.2,1.1-5.3,2.4
			c-0.9,1.2-2,2.6-4.7,2.7c-3.6,0.2-5.8,1.8-7.1,3.2c0.6-1.5,1.4-2.7,2.4-3.9c0.2-0.2,0.2-0.5,0-0.6c-0.2-0.2-0.5-0.2-0.6,0l0,0
			c-1.5,1.7-2.6,3.6-3.2,5.8C117.5,54.3,116.6,50.3,118.3,47.2z M97.8,36.3c0.3,0,0.6,0.2,0.8,0.2c1.4,0.5,4.2,1.5,6.4,3.9
			c0.5,0.5,0.8,0.9,1.1,1.4c-0.5-0.3-1.1-0.6-1.5-0.8c-1.7-0.9-3.5-1.4-5.3-1.5c-0.8,0-1.7-0.2-2.4-0.3c-0.9-0.3-1.8-0.6-2.7-1.1
			c-4.5-2.3-6.8-6.1-6.5-10.2c1.1,3.5,3.8,6.2,7.3,7.4H95c0.2,0,0.5-0.2,0.5-0.3c0-0.2-0.2-0.5-0.3-0.5c-3-1.1-5.5-3.5-6.5-6.5
			c2,2.7,3.5,2.9,6.7,3.6c1.2,0.3,2.7,0.6,4.5,1.1h0.2c3.5,0.9,5.3,3.2,6.1,5.5c0.5,1.1,0.6,2.1,0.8,3.2c-0.5-0.6-0.9-1.2-1.4-1.8
			c-2.3-2.3-5-3.3-6.5-3.8c-0.6-0.2-0.9-0.3-0.9-0.3c-0.2,0-0.5,0.2-0.5,0.3C97.5,36,97.5,36.3,97.8,36.3L97.8,36.3z M95,56.6
			c0.9,0,2,0.2,2.9,0.3c1.7,0.3,3.5,0.8,5,1.4c-1.1,0-2.3,0.3-3.3,0.6c-0.5,0.2-1.1,0.3-1.7,0.3c-2,0.3-3.8,0.6-5.8,0.6
			c-0.6,0-1.2,0-1.8-0.2c-4.2-0.9-6.1-5-6.7-6.8c2,1.1,4.1,1.8,6.4,2c1.8,0.2,3.5,0,5.2-0.5c0.8-0.2,1.7-0.3,2.4-0.3
			c3.6,0,5.8,2.7,6.8,4.1c-2.3-0.9-4.5-1.5-7-2c-0.9-0.2-1.7-0.3-2.6-0.3l0,0c-0.2,0-0.5,0.2-0.5,0.3C94.5,56.3,94.7,56.6,95,56.6
			L95,56.6z M109.8,68l0.5-0.3c0.6-0.3,1.2-0.6,1.8-0.9c-0.5,0.5-0.9,0.9-1.4,1.5c-0.2,0.2-0.2,0.3-0.3,0.5
			c-0.5,0.2-0.9,0.5-1.4,0.8C109.2,68.7,109.3,68.1,109.8,68L109.8,68z M113,74.6c-2.6,0-5.3-1.4-5.6-1.8c0-0.3,0-0.3,0.2-0.5
			c0.5-0.3,0.8-0.8,0.9-1.2c0.2-0.6,0.8-0.9,1.4-1.2c-0.2,0.2-0.2,0.5-0.2,0.8c0,0.3-0.2,0.5-0.3,0.9c-0.2,0.3-0.2,0.8,0.5,1.2
			c0.9,0.9,3.5,1.5,5,1.7C114.2,74.5,113.6,74.6,113,74.6z M115.6,73.4c-0.6,0.3-4.1-0.5-5.2-1.4c-0.2-0.2-0.2-0.3-0.2-0.3
			c0.2-0.3,0.2-0.6,0.3-0.9c0.2-0.6,0.3-1.1,1.1-2.1c0.9-1.2,2.3-2.6,3.2-2.7h0.2c0.2,0,0.2,0,0.2,0c0.5,0.3,1.5,3.5,1.2,5.6
			C116.3,72.4,116.2,73.1,115.6,73.4L115.6,73.4z M116.2,74C116.3,74,116.3,74,116.2,74c0.5-0.5,0.9-1.1,1.1-2.1
			c0.2-1.7-0.3-3.9-0.9-5.3c1.1,1.1,2,2.1,2.7,3.2c0.5,0.6,0.8,1.4,0.9,2.1c0.3,2.1-0.2,4.5-0.8,7.3c0,0.2,0,0.2,0,0.3
			C118.4,76.3,117.1,74.6,116.2,74L116.2,74z M113.4,87.2c-3.3-3.2-6.1-4.5-7.6-5c-0.3-0.2-0.8-0.2-1.1-0.3c-0.2,0-0.5,0.2-0.5,0.3
			c0,0.2,0.2,0.5,0.3,0.5c0.5,0,0.9,0.2,1.2,0.3c1.7,0.8,3.3,1.7,4.7,2.7c-1.4-0.6-2.7-0.9-4.2-1.2H106c-3.2-0.6-6.1-2.3-8.3-4.7
			l0,0c-1.2-1.2-2-2.7-2.6-4.4c0.6,0.9,1.2,1.7,2,2.3c1.5,1.4,3.2,2.3,5.2,3c0,0,0,0,0.2,0c0.2,0,0.5-0.2,0.5-0.5
			c0-0.2-0.2-0.3-0.3-0.5c0,0-3.5-1.2-5.9-4.1c-0.3-0.5-0.8-0.9-1.1-1.4c0.2,0.2,0.5,0.3,0.6,0.3c0.9,0.5,2.1,0.6,3,0.5
			c0.2,0,0.5,0,0.8-0.2c1.4-0.3,2.7-0.3,4.1-0.2l0,0c1.7,0.2,3.5,0.9,5.3,2.6C113,80.7,113.4,85.2,113.4,87.2L113.4,87.2z
			 M121.9,113.7c0-0.3,0.2-0.5,0.3-0.6c0.2-0.2,0.5-0.2,0.8-0.2l0,0c0.3,0,0.5,0.2,0.6,0.3c0.2,0.2,0.3,0.5,0.2,0.8
			c0,0.6-0.6,0.9-1.1,0.9C122.2,114.8,121.8,114.3,121.9,113.7L121.9,113.7L121.9,113.7z M125.6,100.7c0.2,0,0.5-0.2,0.3-0.5l0,0
			c0-0.2-0.2-0.5-0.5-0.3c-1.5,0.2-3,0.9-4.1,1.8c1.7-3.2,4.2-4.5,8.6-4.4c0.3,0,0.6,0,0.9,0c5,0.6,8.2-0.9,9.7-1.8
			c-0.8,3.2-4.5,7.6-9.5,7.7c-1.8,0-3.8-0.2-5.6-0.3c-1.7-0.2-3-0.3-4.1-0.2C122.4,101.6,123.9,100.9,125.6,100.7L125.6,100.7z
			 M133,60.9L133,60.9c0-0.8,0-2-0.2-3.8c-0.2-1.5,0.8-2.3,1.5-2.6c0.6-0.3,1.2-0.3,2-0.3c1.4,0.2,2.7,0.8,3.8,1.7
			c-0.6,0.3-1.2,0.8-1.8,1.2c-0.2,0.2-0.2,0.5,0,0.6l0,0c0,0,0.2,0.2,0.3,0.2c0.2,0,0.3,0,0.3-0.2c0,0,1.1-1.1,2.1-1.4l0,0l0,0
			c0.9-0.3,2,0,3,0.6c1.5,0.9,2.7,2.3,3.3,3.9c-2.1,0.6-4.8,2.6-5.9,5c-0.6,1.5-1.4,3.2-1.8,4.4c-0.8,1.5-1.5,1.8-1.7,1.8
			c-0.3,0-0.6-0.3-0.8-0.5C136.3,70.3,132.8,64.3,133,60.9L133,60.9z M142.5,70.3c-0.2,0.3-0.2,0.6-0.2,0.9
			c-0.9,0.5-1.8,0.9-2.6,1.5c0.6-1.1,1.8-2,2.4-2.3C142.4,70.3,142.5,70.3,142.5,70.3L142.5,70.3z M142.4,69.2L142.4,69.2
			c0-0.2,0-0.2,0.2-0.2l0,0l0,0c0,0,0.2,0,0.2,0.2v0.2l0,0C142.7,69.2,142.5,69.2,142.4,69.2L142.4,69.2z M129.8,70.4
			c-0.2-3,1.7-6.1,2.6-7.3c0.8,3.6,3.3,7.7,3.9,8.9c0.2,0.3,0.3,0.5,0.3,0.8c-1.4,0.9-3.9,2.9-5.2,4.4
			C130.6,75.1,130,72.8,129.8,70.4z M137.2,87.1c-0.2,0.5-0.3,0.9-0.6,0.9c-0.6,0-1.8-1.1-3-3.2c-0.5-0.9-0.9-1.7-1.4-2.3
			c-1.2-1.8-1.8-2.7-0.5-4.1l0,0l0,0c0.6-1.1,3-3,4.8-4.2l0.5,1.2c-0.3,2.1-1.8,5-1.8,5c-0.2,0.2,0,0.5,0.2,0.6l0,0h0.2
			c0.2,0,0.3-0.2,0.5-0.3c0.6-1.2,1.2-2.6,1.7-3.9l0.6,1.2c0.2,0.5,0.3,0.9,0.3,1.7c0,0.2,0.2,0.5,0.2,0.8s0.2,0.6,0.2,0.9
			c-0.2,1.7-1.7,2.4-1.7,2.4c-0.2,0.2-0.3,0.3-0.2,0.6c0,0.2,0.2,0.2,0.3,0.2h0.2c0.8-0.5,1.4-1.1,1.8-1.8c0,1.5-0.6,2.1-1.1,2.7
			C137.7,85.6,137.2,86,137.2,87.1L137.2,87.1z M138.1,86.9c0-0.6,0.3-0.9,0.8-1.2c0.5-0.5,0.9-0.9,1.1-1.5c0.3,0.9,0.8,1.8,1.4,2.6
			C140.4,87.1,138.7,87.7,138.1,86.9L138.1,86.9z M155.7,78.9c-0.2,0.5-0.6,0.8-1.1,1.2c-0.8,0.6-1.8,1.5-2,2.9
			c-0.2,1.7-1.5,2-1.7,2.1c-0.9,0-1.7-0.3-2.4-0.8c-0.2-0.2-0.5,0-0.6,0.2c-0.2,0.2,0,0.5,0.2,0.6c0.8,0.3,1.5,0.6,2.3,0.8
			c-0.6,1.1-1.5,1.8-2.6,2.3c-2,1.1-5.5-1.5-5.8-1.7c-0.9-0.9-1.5-2.6-2-4.4c0-0.2,0-0.3,0-0.5c0-0.2,0-0.2-0.2-0.3
			c-0.2-0.8-0.3-1.5-0.5-2.1c-0.2-0.6-0.3-1.2-0.3-1.5v-1.8c0.6,0.5,1.2,0.9,1.2,0.9c1.5,1.5,3.5,2.1,5.6,2.3
			c3.9,0.3,8.2-1.2,9.5-1.7C155.7,77.8,155.7,78.4,155.7,78.9L155.7,78.9z M155.6,76.5c-0.6,0.3-10,3.8-14.2,0c0.2,0,0.3,0,0.6,0.2
			c0.3,0,0.6,0,0.8,0c0,0.2,0.2,0.2,0.2,0.2c0.2,0.2,0.5,0.3,0.8,0.3c0.3,0,0.6,0,0.8-0.3c0.5-0.3,0.5-1.1,0.2-1.5l0,0
			c-0.2-0.2-0.5-0.3-0.8-0.3c-0.3,0-0.6,0.2-0.8,0.3c-0.2,0.2-0.2,0.3-0.3,0.3c-0.5,0.2-1.7,0.2-2.4-0.8c0.2,0,0.3,0,0.3,0
			c0.9,0,1.7-0.2,2.6-0.6c0.2,0.2,0.5,0.3,0.6,0.3h0.2c0.3,0,0.6-0.2,0.8-0.3c0.2-0.2,0.3-0.5,0.2-0.8c0-0.3-0.2-0.6-0.3-0.8
			c-0.2-0.2-0.5-0.3-0.8-0.3c-0.3,0-0.6,0.2-0.8,0.3c-0.2,0.2-0.2,0.3-0.2,0.6c-0.8,0.3-2.1,0.9-3.2,0.2c0,0,0,0-0.2,0
			c0.9-0.9,2.7-1.8,3.5-2c0.2,0,0.3,0.2,0.3,0.2c0.2,0,0.3,0,0.5,0c0.3-0.2,0.5-0.3,0.6-0.6c0.2-0.3,0.2-0.6,0-0.8
			c-0.2-0.3-0.6-0.6-0.9-0.6l0.2-0.2c0.2-0.3,0.2-0.6,0-0.8c-0.2-0.3-0.3-0.5-0.6-0.6c-0.3-0.2-0.6-0.2-0.8,0
			c-0.3,0.2-0.5,0.3-0.6,0.6c-0.2,0.3-0.2,0.5,0,0.8c-0.3,0.2-0.8,0.5-1.1,0.8l0,0c0.5-1.2,1.1-2.7,1.7-3.9c1.1-2.4,3.8-4.1,5.8-4.7
			l0,0l0,0c0.3-0.2,0.9,0,1.7,0.5c2,1.2,4.1,4.2,4.5,6.2c-0.8,0.2-1.5,0.3-2.1,0.5c-0.2,0.2-0.3,0.3-0.3,0.6c0,0.2,0.2,0.3,0.3,0.3
			h0.2c0.8-0.3,1.5-0.5,2.3-0.5c0.6,0.2,0.6,0.3,1.2,1.5c0.2,0.5,0.5,0.9,0.8,1.5C157.8,74.3,155.9,76.2,155.6,76.5L155.6,76.5z
			 M143.4,76.2C143.4,76,143.4,76,143.4,76.2c0.2-0.2,0.2-0.2,0.2-0.2h0.2v0.2v0.2h-0.2C143.4,76.3,143.4,76.2,143.4,76.2
			L143.4,76.2L143.4,76.2z M143.7,73.6L143.7,73.6C143.7,73.6,143.9,73.6,143.7,73.6L143.7,73.6c0.2,0,0.2,0,0.3,0.2
			c0,0.2,0,0.2-0.2,0.2l0,0l0,0C143.9,73.7,143.9,73.7,143.7,73.6L143.7,73.6z M143.3,70.9c0-0.2,0-0.2,0.2-0.2c0.2,0,0.2,0,0.3,0.2
			l0,0V71c0,0,0,0-0.2,0.2l0,0C143.4,70.9,143.3,70.9,143.3,70.9L143.3,70.9z M127.1,130.2L127.1,130.2c-1.1-0.2-2.1-0.5-3.2-0.9
			c-2.3-1.1-4.2-2.9-5.5-5c-1.5-2.9-4.8-5-8.9-6.1c-2.4-0.6-4.5-1.8-6.8-1.4l-0.2,0.9c2.1-0.6,4.2,0.8,6.8,1.4
			c3.8,0.9,7,2.9,8.3,5.6c0.9,1.8,2.3,3.3,3.9,4.4c-2.3-0.8-4.4-2-6.4-3.5c-0.2-0.2-0.5-0.2-0.6,0c-0.2,0.2-0.2,0.5,0,0.6
			c3.5,3,7.6,4.2,10,4.7c-2.9,0.8-7.3,1.4-10.9-0.3c-2.3-1.1-4.8-3.2-7.3-5.3c-1.7-1.5-3-4.2-4.5-5.2l-0.2,0.9
			c1.4,0.9,2.6,3.6,4.1,4.8c2.4,2.1,5,4.4,7.6,5.5c1.4,0.6,2.9,0.9,4.5,1.1c3.6,0.2,7.1-0.8,8.9-1.2h0.2c0,0,0,0,0.2,0
			c0,0,0,0,0.2,0v-0.2c0,0,0,0,0-0.2l0,0l0,0l0,0C127.4,130.5,127.2,130.4,127.1,130.2L127.1,130.2z M114.5,124.6
			c0.2,0,0.3,0,0.3-0.2c0.2-0.2,0.2-0.5-0.2-0.6l0,0c-2.4-1.7-7.4-4.8-12.4-5.2l-0.2,0.9c4.8,0.3,9.8,3.5,12.1,5
			C114.3,124.6,114.5,124.6,114.5,124.6z"/>
		
			<linearGradient id="SVGID_00000119800246262542246630000012635329681275970992_" gradientUnits="userSpaceOnUse" x1="151.1375" y1="1326.6349" x2="145.8267" y2="1217.6437" gradientTransform="matrix(1 0 0 -1 0 1356.3564)">
			<stop  offset="0.16" style="stop-color:#FE957A"/>
			<stop  offset="0.61" style="stop-color:#FE6659"/>
			<stop  offset="1" style="stop-color:#FF587A"/>
		</linearGradient>
		<path style="fill:url(#SVGID_00000119800246262542246630000012635329681275970992_);" d="M148,71c0.2,0,0.2,0,0.3,0
			c0.8-0.5,1.5-0.8,2.3-0.9c0.2,0,0.3-0.3,0.3-0.5c0-0.2-0.3-0.3-0.5-0.3c-0.9,0.2-1.8,0.6-2.7,1.1c-0.2,0.2-0.3,0.5-0.2,0.6l0,0
			C147.7,70.9,147.8,71,148,71z"/>
		
			<linearGradient id="SVGID_00000174592363767489666260000008345486535842154654_" gradientUnits="userSpaceOnUse" x1="143.6847" y1="1326.9989" x2="138.3707" y2="1218.0076" gradientTransform="matrix(1 0 0 -1 0 1356.3564)">
			<stop  offset="0.16" style="stop-color:#FE957A"/>
			<stop  offset="0.61" style="stop-color:#FE6659"/>
			<stop  offset="1" style="stop-color:#FF587A"/>
		</linearGradient>
		<path style="fill:url(#SVGID_00000174592363767489666260000008345486535842154654_);" d="M139.6,66L139.6,66
			c0.3,0,0.5-0.2,0.5-0.3c0.9-4.4,4.2-5,4.4-5c0.2,0,0.3-0.3,0.3-0.5c0-0.2-0.3-0.3-0.5-0.3c0,0-4.1,0.6-5,5.6
			C139.2,65.9,139.3,66,139.6,66L139.6,66z"/>
		
			<linearGradient id="SVGID_00000037674869998147424990000005233751285907058590_" gradientUnits="userSpaceOnUse" x1="136.3403" y1="1327.3573" x2="131.0295" y2="1218.3661" gradientTransform="matrix(1 0 0 -1 0 1356.3564)">
			<stop  offset="0.16" style="stop-color:#FE957A"/>
			<stop  offset="0.61" style="stop-color:#FE6659"/>
			<stop  offset="1" style="stop-color:#FF587A"/>
		</linearGradient>
		<path style="fill:url(#SVGID_00000037674869998147424990000005233751285907058590_);" d="M127.7,100.6c0.8,0.2,1.7,0.3,2.4,0.3
			c5.5,0.3,8.2-2.7,8.3-2.9c0.2-0.2,0.2-0.5,0-0.6c-0.2-0.2-0.5-0.2-0.6,0c-0.2,0.2-3.5,3.6-9.8,2.3c-0.2,0-0.5,0-0.6,0.3
			C127.2,100.1,127.4,100.4,127.7,100.6L127.7,100.6L127.7,100.6z"/>
		
			<linearGradient id="SVGID_00000048492962820479722320000012521261165011649673_" gradientUnits="userSpaceOnUse" x1="152.304" y1="1326.5769" x2="146.9932" y2="1217.5889" gradientTransform="matrix(1 0 0 -1 0 1356.3564)">
			<stop  offset="0.16" style="stop-color:#FE957A"/>
			<stop  offset="0.61" style="stop-color:#FE6659"/>
			<stop  offset="1" style="stop-color:#FF587A"/>
		</linearGradient>
		<path style="fill:url(#SVGID_00000048492962820479722320000012521261165011649673_);" d="M149.2,96.8c-0.5,0-0.9,0-1.2,0.3
			c-0.8,0.6-0.8,1.5-0.3,2.1c0.3,0.3,0.6,0.6,1.1,0.6h0.2c0.9,0,1.5-0.6,1.7-1.4C150.6,97.7,150,96.8,149.2,96.8z M149.6,98.4
			c0,0.5-0.5,0.6-0.8,0.6c-0.2,0-0.3-0.2-0.5-0.3c-0.2-0.2-0.2-0.3-0.2-0.6c0-0.2,0.2-0.3,0.3-0.5c0.2-0.2,0.3-0.2,0.5-0.2l0,0
			C149.5,97.7,149.8,98,149.6,98.4L149.6,98.4z"/>
		
			<linearGradient id="SVGID_00000139295417705405005240000003397139550966263743_" gradientUnits="userSpaceOnUse" x1="82.0634" y1="1330.0013" x2="76.7527" y2="1221.0101" gradientTransform="matrix(1 0 0 -1 0 1356.3564)">
			<stop  offset="0.16" style="stop-color:#FE957A"/>
			<stop  offset="0.61" style="stop-color:#FE6659"/>
			<stop  offset="1" style="stop-color:#FF587A"/>
		</linearGradient>
		<path style="fill:url(#SVGID_00000139295417705405005240000003397139550966263743_);" d="M81.6,38.6c-0.5,0-0.9,0-1.2,0.3
			c-0.3,0.3-0.6,0.6-0.6,1.1c-0.2,0.9,0.5,1.7,1.4,1.7l0,0c0,0,0,0,0.2,0c0.9,0,1.7-0.6,1.7-1.5C83.1,39.5,82.4,38.7,81.6,38.6
			L81.6,38.6z M82.1,40.3c0,0.2-0.2,0.3-0.3,0.5c-0.3,0.3-0.8,0.2-1.1-0.2c-0.2-0.2-0.2-0.3-0.2-0.6c0-0.2,0.2-0.3,0.3-0.5
			c0.2-0.2,0.3-0.2,0.5-0.2l0,0C81.9,39.5,82.2,39.9,82.1,40.3L82.1,40.3z"/>
		
			<linearGradient id="SVGID_00000029007194108691726540000013152921564484758401_" gradientUnits="userSpaceOnUse" x1="101.6385" y1="1329.0476" x2="96.3277" y2="1220.0563" gradientTransform="matrix(1 0 0 -1 0 1356.3564)">
			<stop  offset="0.16" style="stop-color:#FE957A"/>
			<stop  offset="0.61" style="stop-color:#FE6659"/>
			<stop  offset="1" style="stop-color:#FF587A"/>
		</linearGradient>
		<path style="fill:url(#SVGID_00000029007194108691726540000013152921564484758401_);" d="M101.2,64.3c-0.3-0.3-0.8-0.6-1.2-0.6
			c-0.2,0-0.3,0-0.5,0c-0.9,0.2-1.7,1.1-1.5,2c0.2,0.8,0.8,1.4,1.5,1.5c0,0,0,0,0.2,0c0.5,0,0.9-0.2,1.2-0.5
			C101.8,66.2,101.8,65.1,101.2,64.3L101.2,64.3z M100.7,65.6c0,0.2,0,0.3-0.2,0.5c-0.2,0.3-0.5,0.5-0.9,0.3c-0.3,0-0.5-0.2-0.6-0.3
			c-0.2-0.2-0.2-0.5-0.2-0.6c0-0.5,0.5-0.8,0.9-0.8l0,0c0.3,0,0.5,0.2,0.6,0.3C100.7,65.1,100.9,65.4,100.7,65.6z"/>
		
			<linearGradient id="SVGID_00000021095530563704172600000003664321509956817082_" gradientUnits="userSpaceOnUse" x1="122.071" y1="1328.05" x2="116.7604" y2="1219.0619" gradientTransform="matrix(1 0 0 -1 0 1356.3564)">
			<stop  offset="0.16" style="stop-color:#FE957A"/>
			<stop  offset="0.61" style="stop-color:#FE6659"/>
			<stop  offset="1" style="stop-color:#FF587A"/>
		</linearGradient>
		<path style="fill:url(#SVGID_00000021095530563704172600000003664321509956817082_);" d="M157.5,71.8c-0.3-0.6-0.6-1.1-0.8-1.5
			c-0.6-1.1-0.8-1.7-1.5-2c-0.5-2.3-2.9-5.6-5-7c-0.8-0.5-1.4-0.6-2-0.6c-0.8-1.8-2-3.5-3.8-4.4c-1.2-0.8-2.4-0.9-3.5-0.8
			c-1.8-2-4.8-2.7-7-1.8c-1.4,0.6-2.1,1.8-2.1,3.3c0.2,3.2,0.2,4.5,0.2,5c-0.6,0.8-3.3,4.4-3.2,8.3c0,1.4,0.3,2.6,0.6,3.8
			c-5,1.7-8.5,5.6-10.6,11.7c0-2.3,0.5-4.5,0.9-6.7c0.5-2.4,0.9-4.7,0.8-6.7l0,0c0.8-6.1,5.9-8.9,7-9.5c0.3,0.2,0.6,0.3,0.9,0.5h0.2
			c1.1,0,1.8-0.8,2-1.7c0-1.1-0.8-1.8-1.7-2c-0.9,0-1.8,0.6-2,1.7c0,0.3,0,0.6,0.2,0.9c-1.5,0.8-2.9,1.8-3.9,3
			c0.5-2.6,0-3.9-0.5-4.7c0.2-0.2,0.3-0.5,0.3-0.8c0-0.3,0-0.8-0.3-0.9c0-0.3-0.3-0.5-0.6-0.5c-0.3,0-0.6,0-0.9,0.3
			c-0.3,0.2-0.5,0.5-0.5,0.9c0,0.3,0,0.8,0.3,0.9c0.2,0.3,0.5,0.5,0.9,0.5l0,0h0.2c0.3,0.8,0.9,2.4,0,5.8c-0.8,1.1-1.4,2.3-1.7,3.6
			c-0.2-0.3-0.3-0.6-0.5-0.9l0,0l-0.2-0.2c-0.2-0.3-0.5-0.8-0.8-1.1c-0.2-0.9-1.2-5.6-0.3-10.3c0.3-0.8,2.1-4.8,7.9-5.2
			c3.2-0.2,4.4-1.7,5.3-3c1.2-1.5,2.1-2.9,6.4-1.8c0,0,0,0,0.2,0c0,0,0,0,0.2,0s0.2,0,0.2-0.2l0,0l0,0l0,0c0,0,0.2-0.2,0-0.3l0,0
			v-0.2c0,0-4.5-7-15.3-4.5c-2.9,0.6-4.8,2-6.1,4.1c-2.3,4.2-0.2,10.2,0.3,11.2c-0.5,3-0.5,5.9,0,8.9c-0.8-0.9-1.7-1.7-2.4-2.6
			c-3.2-3.2-6.8-7-7.1-11.5c-0.5-8.2-0.5-9.7-0.5-9.7c0-2.1-0.3-4.2-1.2-6.1c-1.2-2.6-3.5-4.5-6.4-5.2c-0.2,0-0.2,0-0.3,0
			c-1.8-0.5-3.2-0.8-4.4-1.1c-3.8-0.8-4.8-0.9-7.4-5.2c0,0,0,0-0.2-0.2l0,0c-0.2,0-0.2,0-0.3,0l0,0l0,0l0,0c0,0-0.2,0-0.2,0.2l0,0
			c0,0,0,0,0,0.2v0.2c-1.4,5.3,1.2,10.3,6.7,13c0.8,0.5,1.7,0.8,2.6,1.1c0.9,0.3,1.8,0.5,2.9,0.5c1.8,0.2,3.5,0.6,5,1.5
			c0.9,0.5,1.8,1.1,2.6,1.5c0,0.6,0.2,2.9,0.5,9.5c0.2,3.5,2.1,6.4,4.4,8.8c-1.8-1.2-3.9-2.3-5.9-3.2c-0.3-0.8-2.9-5.3-7.9-5.6
			c-0.9,0-2,0.2-2.9,0.3c-4.1,1.1-8.3,0.3-11.8-2c-0.2-0.2-0.3-0.2-0.5,0c-0.2,0.2-0.2,0.3-0.2,0.5s1.7,7.6,8,8.6
			c0.3,0,0.6,0.2,0.9,0.2c0.2,0,0.5,0,0.8,0c2,0,3.9-0.2,5.9-0.6c0.6-0.2,1.1-0.3,1.5-0.3c1.8-0.5,3.2-0.8,5.5-0.5
			c3.5,1.5,6.7,3.5,9.5,6.1c-0.2,0-0.2,0-0.3,0c-0.5,0.2-0.9,0.3-1.4,0.6c-0.8-0.5-2.1,0.3-3.3,1.1l-0.5,0.3
			c-1.1,0.6-1.2,2.3-1.2,2.9c-0.2,0.2-0.5,0.5-0.5,0.8c-0.2,0.3-0.3,0.6-0.6,0.8c-0.5,0.3-0.8,0.8-0.5,1.4c0.2,0.9,3.2,2.1,5.3,2.4
			c0.2,0,0.3,0,0.6,0c1.4,0.2,2.4-0.2,3.2-0.8c0.9,0.8,2.9,2.9,2.7,7.9l0,0c-0.5,2.9-0.6,5.9,0.6,8.8c1.2,3,2.1,7.6,0.6,12.1
			c0,0.2-0.2,0.3-0.2,0.5l0,0c-0.5,1.4-1.2,2.6-2,3.8c2.6-6.5,1.4-14.7-3.2-19.5l0,0c0-1.2,0.2-7.3-3.9-10.9c-2.3-2-4.4-2.7-6.2-2.9
			c-1.4-0.2-2.7,0-3.9,0.3c-0.3,0-0.5,0.2-0.8,0.2c-1.2,0.2-2.6-0.2-3.5-0.9c-0.6-0.5-0.9-1.1-1.2-1.7c0,0,0-0.2-0.2-0.2l0,0
			c-0.2,0-0.2-0.2-0.3,0l0,0l0,0l0,0c0,0-0.2,0-0.2,0.2c0,0,0,0,0,0.2V73c0,3.5,1.5,6.8,4.2,9.2c2.3,2.1,5.2,3.5,8.2,4.1l0,0
			c4.8,0.9,7,2.7,7.1,2.9l0.2,0.2c5,5.3,5.8,15.2,1.5,21.5c-1.7,1.5-3.5,2.7-5.6,3.6c-2.3,1.1-3.8,0.8-5.6,1.4
			c-0.5,0.2-0.8,0.3-1.2,0.6l-0.2,1.1c2.1-1.1,4.4-0.8,7.4-2.3c2.6-1.2,5.5-1.4,7.6-1.2c1.1,0,2.3,0.2,3.3,0.5
			c0,0.9,0.8,1.7,1.7,1.8h-0.3c1.1,0,2-0.8,2-1.7c0-0.5-0.2-0.9-0.5-1.2c-0.3-0.3-0.8-0.6-1.2-0.8c-0.5,0-0.9,0.2-1.4,0.5
			c-0.2,0.2-0.3,0.3-0.5,0.6c-2.6-0.6-5.2-0.6-7.7-0.3c3.6-2.4,5.8-5.5,6.8-8.6c0.8-0.8,2.6-0.6,4.8-0.3c1.8,0.3,3.8,0.3,5.8,0.3
			c5.8-0.2,10.3-5.8,10.5-9.4c0-0.2-0.2-0.3-0.3-0.5c-0.2,0-0.3,0-0.5,0c0,0-3.5,2.9-9.8,2.1c-4.5-0.5-7.7,0.6-9.5,3.5
			c0.2-3-0.3-6.1-1.5-8.9c-0.3-0.9-0.6-1.7-0.8-2.6c2-7,5.6-11.4,10.8-13.2c0.3,0.9,0.8,2,1.2,2.9c-1.5,1.7-0.6,3.2,0.5,5
			c0.5,0.6,0.9,1.4,1.4,2.1c1.2,2.3,2.6,3.6,3.6,3.6c0.2,0,0.2,0,0.3,0c0.5,0,0.9-0.5,1.1-0.9c1.2,0.8,3.3-0.2,4.1-0.5
			c0.9,0.6,4.1,2.7,6.4,1.7c1.4-0.6,2.4-1.7,3.2-3c1.2-0.5,2.1-1.5,2.1-2.7c0.2-1.1,0.9-1.7,1.7-2.3c0.6-0.6,1.2-1.1,1.4-1.8
			c0.2-0.8,0.2-1.5-0.2-2.1C157.4,76,158.6,73.9,157.5,71.8z M128,61.6c0-0.5,0.5-0.9,1.1-0.9l0,0c0.6,0,0.9,0.6,0.9,1.1
			s-0.5,0.9-1.1,0.9l0,0C128.3,62.5,127.8,62.1,128,61.6L128,61.6z M121.8,60.1L121.8,60.1C121.6,60.1,121.6,60.1,121.8,60.1
			c-0.2,0-0.2-0.2-0.2-0.3c0-0.2,0.2-0.3,0.5-0.3l0,0c0.2,0,0.2,0,0.3,0.2c0,0.2,0.2,0.2,0.2,0.3v0.2
			C122.1,59.9,121.9,59.9,121.8,60.1z M118.3,47.2c1.1-2,2.9-3.2,5.5-3.6c1.7-0.3,3.5-0.5,5.2-0.5c2.3,0.2,4.4,0.8,6.4,2
			c-1.7-0.8-3.6-1.2-5.5-0.9c-3,0.6-4.1,1.8-5,2.9c-0.3,0.3-0.6,0.6-0.9,0.9c-0.2,0.2-0.2,0.5-0.2,0.6l0,0c0,0.2,0.2,0.2,0.3,0.2
			c0.2,0,0.2,0,0.3-0.2c0.5-0.3,0.8-0.8,1.1-1.1c0.8-0.9,1.7-2,4.4-2.6c2.4-0.6,5,0.8,6.7,1.7c-3.2-0.3-4.2,1.1-5.3,2.4
			c-0.9,1.2-2,2.6-4.7,2.7c-3.6,0.2-5.8,1.8-7.1,3.2c0.6-1.5,1.4-2.7,2.4-3.9c0.2-0.2,0.2-0.5,0-0.6c-0.2-0.2-0.5-0.2-0.6,0l0,0
			c-1.5,1.7-2.6,3.6-3.2,5.8C117.5,54.3,116.6,50.3,118.3,47.2z M97.8,36.3c0.3,0,0.6,0.2,0.8,0.2c1.4,0.5,4.2,1.5,6.4,3.9
			c0.5,0.5,0.8,0.9,1.1,1.4c-0.5-0.3-1.1-0.6-1.5-0.8c-1.7-0.9-3.5-1.4-5.3-1.5c-0.8,0-1.7-0.2-2.4-0.3c-0.9-0.3-1.8-0.6-2.7-1.1
			c-4.5-2.3-6.8-6.1-6.5-10.2c1.1,3.5,3.8,6.2,7.3,7.4H95c0.2,0,0.5-0.2,0.5-0.3c0-0.2-0.2-0.5-0.3-0.5c-3-1.1-5.5-3.5-6.5-6.5
			c2,2.7,3.5,2.9,6.7,3.6c1.2,0.3,2.7,0.6,4.5,1.1h0.2c3.5,0.9,5.3,3.2,6.1,5.5c0.5,1.1,0.6,2.1,0.8,3.2c-0.5-0.6-0.9-1.2-1.4-1.8
			c-2.3-2.3-5-3.3-6.5-3.8c-0.6-0.2-0.9-0.3-0.9-0.3c-0.2,0-0.5,0.2-0.5,0.3C97.5,36,97.5,36.3,97.8,36.3L97.8,36.3z M95,56.6
			c0.9,0,2,0.2,2.9,0.3c1.7,0.3,3.5,0.8,5,1.4c-1.1,0-2.3,0.3-3.3,0.6c-0.5,0.2-1.1,0.3-1.7,0.3c-2,0.3-3.8,0.6-5.8,0.6
			c-0.6,0-1.2,0-1.8-0.2c-4.2-0.9-6.1-5-6.7-6.8c2,1.1,4.1,1.8,6.4,2c1.8,0.2,3.5,0,5.2-0.5c0.8-0.2,1.7-0.3,2.4-0.3
			c3.6,0,5.8,2.7,6.8,4.1c-2.3-0.9-4.5-1.5-7-2c-0.9-0.2-1.7-0.3-2.6-0.3l0,0c-0.2,0-0.5,0.2-0.5,0.3C94.5,56.3,94.7,56.6,95,56.6
			L95,56.6z M109.8,68l0.5-0.3c0.6-0.3,1.2-0.6,1.8-0.9c-0.5,0.5-0.9,0.9-1.4,1.5c-0.2,0.2-0.2,0.3-0.3,0.5
			c-0.5,0.2-0.9,0.5-1.4,0.8C109.2,68.7,109.3,68.1,109.8,68L109.8,68z M113,74.6c-2.6,0-5.3-1.4-5.6-1.8c0-0.3,0-0.3,0.2-0.5
			c0.5-0.3,0.8-0.8,0.9-1.2c0.2-0.6,0.8-0.9,1.4-1.2c-0.2,0.2-0.2,0.5-0.2,0.8c0,0.3-0.2,0.5-0.3,0.9c-0.2,0.3-0.2,0.8,0.5,1.2
			c0.9,0.9,3.5,1.5,5,1.7C114.2,74.5,113.6,74.6,113,74.6z M115.6,73.4c-0.6,0.3-4.1-0.5-5.2-1.4c-0.2-0.2-0.2-0.3-0.2-0.3
			c0.2-0.3,0.2-0.6,0.3-0.9c0.2-0.6,0.3-1.1,1.1-2.1c0.9-1.2,2.3-2.6,3.2-2.7h0.2c0.2,0,0.2,0,0.2,0c0.5,0.3,1.5,3.5,1.2,5.6
			C116.3,72.4,116.2,73.1,115.6,73.4L115.6,73.4z M116.2,74C116.3,74,116.3,74,116.2,74c0.5-0.5,0.9-1.1,1.1-2.1
			c0.2-1.7-0.3-3.9-0.9-5.3c1.1,1.1,2,2.1,2.7,3.2c0.5,0.6,0.8,1.4,0.9,2.1c0.3,2.1-0.2,4.5-0.8,7.3c0,0.2,0,0.2,0,0.3
			C118.4,76.3,117.1,74.6,116.2,74L116.2,74z M113.4,87.2c-3.3-3.2-6.1-4.5-7.6-5c-0.3-0.2-0.8-0.2-1.1-0.3c-0.2,0-0.5,0.2-0.5,0.3
			c0,0.2,0.2,0.5,0.3,0.5c0.5,0,0.9,0.2,1.2,0.3c1.7,0.8,3.3,1.7,4.7,2.7c-1.4-0.6-2.7-0.9-4.2-1.2H106c-3.2-0.6-6.1-2.3-8.3-4.7
			l0,0c-1.2-1.2-2-2.7-2.6-4.4c0.6,0.9,1.2,1.7,2,2.3c1.5,1.4,3.2,2.3,5.2,3c0,0,0,0,0.2,0c0.2,0,0.5-0.2,0.5-0.5
			c0-0.2-0.2-0.3-0.3-0.5c0,0-3.5-1.2-5.9-4.1c-0.3-0.5-0.8-0.9-1.1-1.4c0.2,0.2,0.5,0.3,0.6,0.3c0.9,0.5,2.1,0.6,3,0.5
			c0.2,0,0.5,0,0.8-0.2c1.4-0.3,2.7-0.3,4.1-0.2l0,0c1.7,0.2,3.5,0.9,5.3,2.6C113,80.7,113.4,85.2,113.4,87.2L113.4,87.2z
			 M121.9,113.7c0-0.3,0.2-0.5,0.3-0.6c0.2-0.2,0.5-0.2,0.8-0.2l0,0c0.3,0,0.5,0.2,0.6,0.3c0.2,0.2,0.3,0.5,0.2,0.8
			c0,0.6-0.6,0.9-1.1,0.9C122.2,114.8,121.8,114.3,121.9,113.7L121.9,113.7L121.9,113.7z M125.6,100.7c0.2,0,0.5-0.2,0.3-0.5l0,0
			c0-0.2-0.2-0.5-0.5-0.3c-1.5,0.2-3,0.9-4.1,1.8c1.7-3.2,4.2-4.5,8.6-4.4c0.3,0,0.6,0,0.9,0c5,0.6,8.2-0.9,9.7-1.8
			c-0.8,3.2-4.5,7.6-9.5,7.7c-1.8,0-3.8-0.2-5.6-0.3c-1.7-0.2-3-0.3-4.1-0.2C122.4,101.6,123.9,100.9,125.6,100.7L125.6,100.7z
			 M133,60.9L133,60.9c0-0.8,0-2-0.2-3.8c-0.2-1.5,0.8-2.3,1.5-2.6c0.6-0.3,1.2-0.3,2-0.3c1.4,0.2,2.7,0.8,3.8,1.7
			c-0.6,0.3-1.2,0.8-1.8,1.2c-0.2,0.2-0.2,0.5,0,0.6l0,0c0,0,0.2,0.2,0.3,0.2c0.2,0,0.3,0,0.3-0.2c0,0,1.1-1.1,2.1-1.4l0,0l0,0
			c0.9-0.3,2,0,3,0.6c1.5,0.9,2.7,2.3,3.3,3.9c-2.1,0.6-4.8,2.6-5.9,5c-0.6,1.5-1.4,3.2-1.8,4.4c-0.8,1.5-1.5,1.8-1.7,1.8
			c-0.3,0-0.6-0.3-0.8-0.5C136.3,70.3,132.8,64.3,133,60.9L133,60.9z M142.5,70.3c-0.2,0.3-0.2,0.6-0.2,0.9
			c-0.9,0.5-1.8,0.9-2.6,1.5c0.6-1.1,1.8-2,2.4-2.3C142.4,70.3,142.5,70.3,142.5,70.3L142.5,70.3z M142.4,69.2L142.4,69.2
			c0-0.2,0-0.2,0.2-0.2l0,0l0,0c0,0,0.2,0,0.2,0.2v0.2l0,0C142.7,69.2,142.5,69.2,142.4,69.2L142.4,69.2z M129.8,70.4
			c-0.2-3,1.7-6.1,2.6-7.3c0.8,3.6,3.3,7.7,3.9,8.9c0.2,0.3,0.3,0.5,0.3,0.8c-1.4,0.9-3.9,2.9-5.2,4.4
			C130.6,75.1,130,72.8,129.8,70.4z M137.2,87.1c-0.2,0.5-0.3,0.9-0.6,0.9c-0.6,0-1.8-1.1-3-3.2c-0.5-0.9-0.9-1.7-1.4-2.3
			c-1.2-1.8-1.8-2.7-0.5-4.1l0,0l0,0c0.6-1.1,3-3,4.8-4.2l0.5,1.2c-0.3,2.1-1.8,5-1.8,5c-0.2,0.2,0,0.5,0.2,0.6l0,0h0.2
			c0.2,0,0.3-0.2,0.5-0.3c0.6-1.2,1.2-2.6,1.7-3.9l0.6,1.2c0.2,0.5,0.3,0.9,0.3,1.7c0,0.2,0.2,0.5,0.2,0.8s0.2,0.6,0.2,0.9
			c-0.2,1.7-1.7,2.4-1.7,2.4c-0.2,0.2-0.3,0.3-0.2,0.6c0,0.2,0.2,0.2,0.3,0.2h0.2c0.8-0.5,1.4-1.1,1.8-1.8c0,1.5-0.6,2.1-1.1,2.7
			C137.7,85.6,137.2,86,137.2,87.1L137.2,87.1z M138.1,86.9c0-0.6,0.3-0.9,0.8-1.2c0.5-0.5,0.9-0.9,1.1-1.5c0.3,0.9,0.8,1.8,1.4,2.6
			C140.4,87.1,138.7,87.7,138.1,86.9L138.1,86.9z M155.7,78.9c-0.2,0.5-0.6,0.8-1.1,1.2c-0.8,0.6-1.8,1.5-2,2.9
			c-0.2,1.7-1.5,2-1.7,2.1c-0.9,0-1.7-0.3-2.4-0.8c-0.2-0.2-0.5,0-0.6,0.2c-0.2,0.2,0,0.5,0.2,0.6c0.8,0.3,1.5,0.6,2.3,0.8
			c-0.6,1.1-1.5,1.8-2.6,2.3c-2,1.1-5.5-1.5-5.8-1.7c-0.9-0.9-1.5-2.6-2-4.4c0-0.2,0-0.3,0-0.5c0-0.2,0-0.2-0.2-0.3
			c-0.2-0.8-0.3-1.5-0.5-2.1c-0.2-0.6-0.3-1.2-0.3-1.5v-1.8c0.6,0.5,1.2,0.9,1.2,0.9c1.5,1.5,3.5,2.1,5.6,2.3
			c3.9,0.3,8.2-1.2,9.5-1.7C155.7,77.8,155.7,78.4,155.7,78.9L155.7,78.9z M155.6,76.5c-0.6,0.3-10,3.8-14.2,0c0.2,0,0.3,0,0.6,0.2
			c0.3,0,0.6,0,0.8,0c0,0.2,0.2,0.2,0.2,0.2c0.2,0.2,0.5,0.3,0.8,0.3c0.3,0,0.6,0,0.8-0.3c0.5-0.3,0.5-1.1,0.2-1.5l0,0
			c-0.2-0.2-0.5-0.3-0.8-0.3c-0.3,0-0.6,0.2-0.8,0.3c-0.2,0.2-0.2,0.3-0.3,0.3c-0.5,0.2-1.7,0.2-2.4-0.8c0.2,0,0.3,0,0.3,0
			c0.9,0,1.7-0.2,2.6-0.6c0.2,0.2,0.5,0.3,0.6,0.3h0.2c0.3,0,0.6-0.2,0.8-0.3c0.2-0.2,0.3-0.5,0.2-0.8c0-0.3-0.2-0.6-0.3-0.8
			c-0.2-0.2-0.5-0.3-0.8-0.3c-0.3,0-0.6,0.2-0.8,0.3c-0.2,0.2-0.2,0.3-0.2,0.6c-0.8,0.3-2.1,0.9-3.2,0.2c0,0,0,0-0.2,0
			c0.9-0.9,2.7-1.8,3.5-2c0.2,0,0.3,0.2,0.3,0.2c0.2,0,0.3,0,0.5,0c0.3-0.2,0.5-0.3,0.6-0.6c0.2-0.3,0.2-0.6,0-0.8
			c-0.2-0.3-0.6-0.6-0.9-0.6l0.2-0.2c0.2-0.3,0.2-0.6,0-0.8c-0.2-0.3-0.3-0.5-0.6-0.6c-0.3-0.2-0.6-0.2-0.8,0
			c-0.3,0.2-0.5,0.3-0.6,0.6c-0.2,0.3-0.2,0.5,0,0.8c-0.3,0.2-0.8,0.5-1.1,0.8l0,0c0.5-1.2,1.1-2.7,1.7-3.9c1.1-2.4,3.8-4.1,5.8-4.7
			l0,0l0,0c0.3-0.2,0.9,0,1.7,0.5c2,1.2,4.1,4.2,4.5,6.2c-0.8,0.2-1.5,0.3-2.1,0.5c-0.2,0.2-0.3,0.3-0.3,0.6c0,0.2,0.2,0.3,0.3,0.3
			h0.2c0.8-0.3,1.5-0.5,2.3-0.5c0.6,0.2,0.6,0.3,1.2,1.5c0.2,0.5,0.5,0.9,0.8,1.5C157.8,74.3,155.9,76.2,155.6,76.5L155.6,76.5z
			 M143.4,76.2C143.4,76,143.4,76,143.4,76.2c0.2-0.2,0.2-0.2,0.2-0.2h0.2v0.2v0.2h-0.2C143.4,76.3,143.4,76.2,143.4,76.2
			L143.4,76.2L143.4,76.2z M143.7,73.6L143.7,73.6C143.7,73.6,143.9,73.6,143.7,73.6L143.7,73.6c0.2,0,0.2,0,0.3,0.2
			c0,0.2,0,0.2-0.2,0.2l0,0l0,0C143.9,73.7,143.9,73.7,143.7,73.6L143.7,73.6z M143.3,70.9c0-0.2,0-0.2,0.2-0.2c0.2,0,0.2,0,0.3,0.2
			l0,0V71c0,0,0,0-0.2,0.2l0,0C143.4,70.9,143.3,70.9,143.3,70.9L143.3,70.9z M127.1,130.2L127.1,130.2c-1.1-0.2-2.1-0.5-3.2-0.9
			c-2.3-1.1-4.2-2.9-5.5-5c-1.5-2.9-4.8-5-8.9-6.1c-2.4-0.6-4.5-1.8-6.8-1.4l-0.2,0.9c2.1-0.6,4.2,0.8,6.8,1.4
			c3.8,0.9,7,2.9,8.3,5.6c0.9,1.8,2.3,3.3,3.9,4.4c-2.3-0.8-4.4-2-6.4-3.5c-0.2-0.2-0.5-0.2-0.6,0c-0.2,0.2-0.2,0.5,0,0.6
			c3.5,3,7.6,4.2,10,4.7c-2.9,0.8-7.3,1.4-10.9-0.3c-2.3-1.1-4.8-3.2-7.3-5.3c-1.7-1.5-3-4.2-4.5-5.2l-0.2,0.9
			c1.4,0.9,2.6,3.6,4.1,4.8c2.4,2.1,5,4.4,7.6,5.5c1.4,0.6,2.9,0.9,4.5,1.1c3.6,0.2,7.1-0.8,8.9-1.2h0.2c0,0,0,0,0.2,0
			c0,0,0,0,0.2,0v-0.2c0,0,0,0,0-0.2l0,0l0,0l0,0C127.4,130.5,127.2,130.4,127.1,130.2L127.1,130.2z M114.5,124.6
			c0.2,0,0.3,0,0.3-0.2c0.2-0.2,0.2-0.5-0.2-0.6l0,0c-2.4-1.7-7.4-4.8-12.4-5.2l-0.2,0.9c4.8,0.3,9.8,3.5,12.1,5
			C114.3,124.6,114.5,124.6,114.5,124.6z"/>
		
			<linearGradient id="SVGID_00000161631820374181718280000007551827343901276846_" gradientUnits="userSpaceOnUse" x1="151.1375" y1="1326.6349" x2="145.8267" y2="1217.6437" gradientTransform="matrix(1 0 0 -1 0 1356.3564)">
			<stop  offset="0.16" style="stop-color:#FE957A"/>
			<stop  offset="0.61" style="stop-color:#FE6659"/>
			<stop  offset="1" style="stop-color:#FF587A"/>
		</linearGradient>
		<path style="fill:url(#SVGID_00000161631820374181718280000007551827343901276846_);" d="M148,71c0.2,0,0.2,0,0.3,0
			c0.8-0.5,1.5-0.8,2.3-0.9c0.2,0,0.3-0.3,0.3-0.5c0-0.2-0.3-0.3-0.5-0.3c-0.9,0.2-1.8,0.6-2.7,1.1c-0.2,0.2-0.3,0.5-0.2,0.6l0,0
			C147.7,70.9,147.8,71,148,71z"/>
		
			<linearGradient id="SVGID_00000021834886303661409800000010293630304742929299_" gradientUnits="userSpaceOnUse" x1="143.6847" y1="1326.9989" x2="138.3707" y2="1218.0076" gradientTransform="matrix(1 0 0 -1 0 1356.3564)">
			<stop  offset="0.16" style="stop-color:#FE957A"/>
			<stop  offset="0.61" style="stop-color:#FE6659"/>
			<stop  offset="1" style="stop-color:#FF587A"/>
		</linearGradient>
		<path style="fill:url(#SVGID_00000021834886303661409800000010293630304742929299_);" d="M139.6,66L139.6,66
			c0.3,0,0.5-0.2,0.5-0.3c0.9-4.4,4.2-5,4.4-5c0.2,0,0.3-0.3,0.3-0.5c0-0.2-0.3-0.3-0.5-0.3c0,0-4.1,0.6-5,5.6
			C139.2,65.9,139.3,66,139.6,66L139.6,66z"/>
	</g>
</g>
</svg>
