<svg xmlns="http://www.w3.org/2000/svg" width="197" height="194.352" viewBox="0 0 197 194.352">
  <g id="Group_9" data-name="Group 9" transform="translate(-169.462 -45.837)">
    <path id="Path_73" data-name="Path 73" d="M198.6,549.44H190.46a.3.3,0,0,0-.3.3v17.243a8.716,8.716,0,0,0-1.009-1.484,9.832,9.832,0,0,0-2.551-2.145,11.881,11.881,0,0,0-3.291-1.3,12.067,12.067,0,0,0-3.823-.263,9.6,9.6,0,0,0-4.783,1.51,10.536,10.536,0,0,0-3.209,3.354,13.886,13.886,0,0,0-1.694,4.479,17.3,17.3,0,0,0-.264,4.943,16.9,16.9,0,0,0,1.144,4.775,12.68,12.68,0,0,0,2.474,3.971.166.166,0,0,0,.04.034,4.111,4.111,0,0,1,.361.308l.345.345a14.31,14.31,0,0,0,3.671,2.5,14.108,14.108,0,0,0,4.124,1.233,12.575,12.575,0,0,0,4.92-.174,11.578,11.578,0,0,0,4.179-1.916,4.617,4.617,0,0,0,1.452,1.536,4.365,4.365,0,0,0,2.472.725h3.425a.3.3,0,0,0,.055-.6,4.537,4.537,0,0,1-2.319-1.159,3.038,3.038,0,0,1-.972-2.192V553.45a2.84,2.84,0,0,1,.377-1.526h0a3.685,3.685,0,0,1,.959-1.038,4.482,4.482,0,0,1,1.207-.63,3.662,3.662,0,0,1,1.141-.211.3.3,0,1,0,0-.606h.014ZM175.765,582.9a15.975,15.975,0,0,1-1.544-4.714,18.748,18.748,0,0,1-.137-5.083,14.9,14.9,0,0,1,1.236-4.651,9.967,9.967,0,0,1,2.588-3.462,6.934,6.934,0,0,1,3.929-1.581c.208-.016.419-.024.63-.024a7.953,7.953,0,0,1,2.047.264,8.329,8.329,0,0,1,2.466,1.109,7.957,7.957,0,0,1,1.974,1.895,7.533,7.533,0,0,1,1.2,2.553v15.628a4.219,4.219,0,0,0,.264,1.528,10.973,10.973,0,0,1-2.848,1.528,9.812,9.812,0,0,1-3.294.572,9.31,9.31,0,0,1-2.856-.464,8.692,8.692,0,0,1-2.74-1.491,10.8,10.8,0,0,1-2.917-3.6Z" transform="translate(0 -370.903)" fill="#ff587a"/>
    <path id="Path_74" data-name="Path 74" d="M305.655,598.8a10.294,10.294,0,0,0-3.615-2.026,13.714,13.714,0,0,0-4.216-.661,15.341,15.341,0,0,0-5.241.946,14.141,14.141,0,0,0-4.677,2.812,14.493,14.493,0,0,0-3.357,4.588,13.548,13.548,0,0,0-1.18,6.284,14.2,14.2,0,0,0,1.318,6.084,12.926,12.926,0,0,0,3.22,4.169,12.466,12.466,0,0,0,4.461,2.387,17.689,17.689,0,0,0,5.057.743,12.576,12.576,0,0,0,4.92-.893,11.983,11.983,0,0,0,3.544-2.25,9.671,9.671,0,0,0,2.2-3.014,10.535,10.535,0,0,0,.922-3.209.3.3,0,0,0-.074-.234.3.3,0,0,0-.227-.1h-.282a.3.3,0,0,0-.3.263,8.25,8.25,0,0,1-1.054,3.162,9.508,9.508,0,0,1-2.068,2.477,10.336,10.336,0,0,1-2.754,1.663,9.007,9.007,0,0,1-3.162.68,9.457,9.457,0,0,1-5.581-1.246,10.787,10.787,0,0,1-3.6-3.692,5.845,5.845,0,0,1,1.236-4.432,12.632,12.632,0,0,1,4.308-3.4,23.68,23.68,0,0,1,6.292-2.053,30.508,30.508,0,0,1,7.062-.5.3.3,0,0,0,.224-.084.3.3,0,0,0,.095-.219,11.374,11.374,0,0,0-.957-4.819A10.115,10.115,0,0,0,305.655,598.8Zm-16.579,17.159a15.879,15.879,0,0,1-.922-3.634,20.049,20.049,0,0,1-.032-5.238l.053-.208v-.029a17.159,17.159,0,0,1,.746-3.035,13.413,13.413,0,0,1,1.373-2.883,8.893,8.893,0,0,1,2.063-2.282,6.654,6.654,0,0,1,2.759-1.262,6.879,6.879,0,0,1,3.821.213,7.865,7.865,0,0,1,3.083,2.029,10.128,10.128,0,0,1,2.055,3.27,9.929,9.929,0,0,1,.685,3.623,27.67,27.67,0,0,0-5.37.946,21.829,21.829,0,0,0-5.209,2.163,13.175,13.175,0,0,0-3.823,3.278,6.257,6.257,0,0,0-1.289,3.049Z" transform="translate(-83.878 -405.276)" fill="#ff587a"/>
    <path id="Path_75" data-name="Path 75" d="M518.158,589.184a4.552,4.552,0,0,1-2.319-1.157,3.044,3.044,0,0,1-.972-2.2V550.173a.3.3,0,0,0-.3-.3h-7.752a.3.3,0,0,0-.3.279.308.308,0,0,0,.263.324,5.213,5.213,0,0,1,2.177.933,2.784,2.784,0,0,1,1.159,2.258v32.326a2.854,2.854,0,0,1-.959,2.055,4.945,4.945,0,0,1-1.866,1.038.7.7,0,0,1-.213.039.876.876,0,0,0-.387.087.306.306,0,0,0,.134.577H518.1a.306.306,0,0,0,.058-.6Z" transform="translate(-248.234 -371.22)" fill="#ff587a"/>
    <path id="Path_76" data-name="Path 76" d="M579.555,602.049h0a11.914,11.914,0,0,0-3.028-3.341,12.85,12.85,0,0,0-4-1.984,14.692,14.692,0,0,0-4.559-.6,13.763,13.763,0,0,0-4.508.791,15.606,15.606,0,0,0-3.378,1.721,12.473,12.473,0,0,0-2.332,2.045c-.614.709-1.054,1.257-1.368,1.681a15.514,15.514,0,0,0-2.263,5.07,15.092,15.092,0,0,0-.145,6.216,13.059,13.059,0,0,0,1.439,4.255,12.583,12.583,0,0,0,2.5,3.162,11.681,11.681,0,0,0,3.346,2.108,14.411,14.411,0,0,0,3.937,1c.387.034.791.05,1.17.05a14.21,14.21,0,0,0,2.788-.279,19.985,19.985,0,0,0,3.223-.941,10.654,10.654,0,0,0,2.972-1.647,15.862,15.862,0,0,0,4.867-6.411,15.449,15.449,0,0,0,.975-8.248A12.443,12.443,0,0,0,579.555,602.049Zm-17.433,18.693a11.37,11.37,0,0,1-2.516-3.613,20.327,20.327,0,0,1-1.02-11.937,11.753,11.753,0,0,1,2.187-4.435,9.279,9.279,0,0,1,3.3-2.572,9.021,9.021,0,0,1,3.75-.843,7.332,7.332,0,0,1,3.929,1.07,11.778,11.778,0,0,1,3.454,4.3,17.562,17.562,0,0,1,1.684,6.042,22.448,22.448,0,0,1-.084,4.819h0a13.876,13.876,0,0,1-1.265,4.34,9.518,9.518,0,0,1-2.556,3.267,7.826,7.826,0,0,1-3.924,1.62,9.118,9.118,0,0,1-3.689-.216A7.806,7.806,0,0,1,562.121,620.742Z" transform="translate(-283.007 -405.283)" fill="#ff587a"/>
    <path id="Path_77" data-name="Path 77" d="M680.173,599.8a1.889,1.889,0,0,0,0-2.124,2.654,2.654,0,0,0-1.394-1.138,5.491,5.491,0,0,0-1.844-.3,9.273,9.273,0,0,0-2.148.263,10.776,10.776,0,0,0-2.068.717c-.3.111-.6.211-.9.3a3.018,3.018,0,0,1-.841.129,1.832,1.832,0,0,1-.943-.264,3.69,3.69,0,0,1-1.054-1.117.308.308,0,0,0-.25-.132h-7.615a.3.3,0,0,0-.05.6,4.565,4.565,0,0,1,2.187.972,2.9,2.9,0,0,1,1.041,1.95v20.571a2.9,2.9,0,0,1-1.041,1.947,4.542,4.542,0,0,1-2.187.972.3.3,0,0,0,.05.6H672.4a.3.3,0,0,0,.024-.606,3.8,3.8,0,0,1-2.242-.912,3.323,3.323,0,0,1-1.128-2.068V597.639a2.818,2.818,0,0,0,.64.527,2.717,2.717,0,0,0,1.357.377,4.411,4.411,0,0,0,1.742-.416,3.673,3.673,0,0,1,1.236-.2,2.49,2.49,0,0,1,1.212.264,1.546,1.546,0,0,1,.685.606c.166.3.335.606.5.92a3.581,3.581,0,0,0,.617.859,1.394,1.394,0,0,0,1.17.34A2.5,2.5,0,0,0,680.173,599.8Z" transform="translate(-361.873 -405.297)" fill="#ff587a"/>
    <path id="Path_78" data-name="Path 78" d="M773.907,611.87a10.541,10.541,0,0,0-3.207-2.514h0a30.231,30.231,0,0,0-4.113-1.76,41.4,41.4,0,0,1-4.01-1.615,10.072,10.072,0,0,1-2.946-2.016,3.236,3.236,0,0,1-.87-2.819,4.282,4.282,0,0,1,1.528-2.835,7.463,7.463,0,0,1,4.111-1.555,9.049,9.049,0,0,1,3.879.551,14,14,0,0,1,4.862,2.97.306.306,0,0,0,.416-.013l.169-.169a.3.3,0,0,0,.009-.428l-.009-.009a16.694,16.694,0,0,0-3.889-2.635,10.43,10.43,0,0,0-4.685-1.157,11.139,11.139,0,0,0-3.726.551,7.276,7.276,0,0,0-2.548,1.5,5.8,5.8,0,0,0-1.481,2.253,8.844,8.844,0,0,0-.527,2.672,6.888,6.888,0,0,0,.885,4.021,9.2,9.2,0,0,0,2.556,2.7,16.035,16.035,0,0,0,3.491,1.831c1.3.5,2.532.978,3.673,1.431a28.86,28.86,0,0,1,3.162,1.47,4.581,4.581,0,0,1,1.931,1.844,3.3,3.3,0,0,1,.3,2.05,4.055,4.055,0,0,1-1.2,2.329,8.567,8.567,0,0,1-2.6,1.679,19.247,19.247,0,0,1-3.51,1.107c-1.275.277-2.551.493-3.792.64s-2.422.242-3.512.279-1.995.055-2.656.055c-1.739,0-3.478-.076-5.167-.224a41.218,41.218,0,0,1-4.8-.7,30.417,30.417,0,0,1-4.087-1.138A11.2,11.2,0,0,1,738.6,620.7a10.6,10.6,0,0,1-2.867-3.281,5.845,5.845,0,0,1,1.236-4.432,12.6,12.6,0,0,1,4.308-3.4,22.943,22.943,0,0,1,6.282-2.026,31.574,31.574,0,0,1,7.064-.474.3.3,0,0,0,.318-.287.157.157,0,0,0,0-.016,11.371,11.371,0,0,0-.956-4.817,10.131,10.131,0,0,0-2.519-3.426,10.276,10.276,0,0,0-3.615-2.024,13.638,13.638,0,0,0-4.216-.661,15.467,15.467,0,0,0-5.984,1.231,13.561,13.561,0,0,0-8.477,13.344,15.33,15.33,0,0,0,.859,5,12.27,12.27,0,0,0,2.161,3.771,11.8,11.8,0,0,0,3.112,2.6,15.166,15.166,0,0,0,3.75,1.518,52.837,52.837,0,0,0,7.2,1.318,72.269,72.269,0,0,0,8.88.527c1.2,0,2.7-.058,4.456-.169a41.648,41.648,0,0,0,5.375-.706,25.132,25.132,0,0,0,5.088-1.565,7.984,7.984,0,0,0,3.576-2.793,7.481,7.481,0,0,0,1.465-4.153A5.451,5.451,0,0,0,773.907,611.87ZM749.891,602.6a9.91,9.91,0,0,1,.685,3.62,27.529,27.529,0,0,0-5.37.946A21.866,21.866,0,0,0,740,609.333a12.988,12.988,0,0,0-3.823,3.31,6.377,6.377,0,0,0-1.291,3.054,16.418,16.418,0,0,1-.922-3.644h0a19.858,19.858,0,0,1-.032-5.215l.055-.263v-.016a17.322,17.322,0,0,1,.746-3.033,13.5,13.5,0,0,1,1.373-2.885,8.877,8.877,0,0,1,2.063-2.279,7.064,7.064,0,0,1,6.587-1.025,8.39,8.39,0,0,1,3.091,2.024,9.832,9.832,0,0,1,2.042,3.244Z" transform="translate(-412.211 -405.092)" fill="#ff587a"/>
    <path id="Path_79" data-name="Path 79" d="M461.61,554.514a.087.087,0,0,0,0-.026,3.307,3.307,0,0,0-.369-1.76h0a4.573,4.573,0,0,0-1.144-1.412,7.5,7.5,0,0,0-1.636-1.025,7.8,7.8,0,0,0-1.871-.611h-.021a12.98,12.98,0,0,0-2.074-.058,9.088,9.088,0,0,0-2.037.35,5.8,5.8,0,0,0-2.783,1.808,6.948,6.948,0,0,0-1.439,2.79,6.174,6.174,0,0,0-.182,1.484.226.226,0,0,0,0,.042v5.826h-2.827a.3.3,0,0,0-.3.3v.285a.3.3,0,0,0,.3.306h2.788v22.772a2.094,2.094,0,0,1-.024.34,2.266,2.266,0,0,0-.032.358,2.635,2.635,0,0,1-1.283,1.844,6.218,6.218,0,0,1-2.005.806.3.3,0,0,0,.053.6h11.288a.3.3,0,0,0,.055-.6,4.521,4.521,0,0,1-2.371-1.183,3.023,3.023,0,0,1-.917-2.282V562.8h4.743a.306.306,0,0,0,.306-.306v-.279a.3.3,0,0,0-.3-.3H452.3a10.086,10.086,0,0,1-3.162-5.5,4.969,4.969,0,0,1,.79-3.328,5.291,5.291,0,0,1,3.4-2.253,6.651,6.651,0,0,1,2.58-.029,2.151,2.151,0,0,1,1.581.991,1.611,1.611,0,0,1,.137.841q-.055.506-.111.98a3.561,3.561,0,0,0,.029,1.054,2.079,2.079,0,0,0,.738,1.149,1.641,1.641,0,0,0,.682.437,2.286,2.286,0,0,0,.648.1,1.913,1.913,0,0,0,1.3-.5A2.153,2.153,0,0,0,461.61,554.514Z" transform="translate(-202.508 -371.024)" fill="#ff587a"/>
    <path id="Path_80" data-name="Path 80" d="M176.954,745.434h-.047a.92.92,0,0,0-.282-.64.862.862,0,0,0-.638-.264H175.8v-.145h1.149Zm0,7.968v1.054h-1.149v-.142h.187a.872.872,0,0,0,.638-.264.931.931,0,0,0,.282-.64Zm1.3-9.02v10.068h-1.344V744.383Zm5.607,4.833v.49h-5.752v-.49Zm-5.652-3.781V744.38h1.152v.145h-.187a.863.863,0,0,0-.64.263.917.917,0,0,0-.279.64Zm0,7.968h.045a.927.927,0,0,0,.279.64.875.875,0,0,0,.64.263h.187v.142h-1.152Zm5.568-7.968h-.045a.859.859,0,0,0-.264-.64.893.893,0,0,0-.648-.264h-.187v-.145h1.151Zm0,7.968v1.054h-1.151v-.142h.187a.9.9,0,0,0,.648-.264.867.867,0,0,0,.264-.64Zm1.3-9.02v10.068h-1.339V744.383Zm-.042,1.054v-1.054h1.149v.145h-.187a.872.872,0,0,0-.64.263.929.929,0,0,0-.279.64Zm0,7.968h.042a.94.94,0,0,0,.279.64.884.884,0,0,0,.64.263h.187v.142h-1.149Z" transform="translate(-4.668 -514.477)" fill="#ff587a"/>
    <path id="Path_81" data-name="Path 81" d="M241.266,752.769a.723.723,0,0,0-.029.487.6.6,0,0,0,.237.311.622.622,0,0,0,.337.108h.129v.142H239v-.142h.129a1.351,1.351,0,0,0,.685-.211,1.528,1.528,0,0,0,.582-.7Zm3.091-9.249.116,1.252-3.6,9h-.933l3.689-8.645c0-.018.047-.092.108-.221s.129-.287.2-.469.137-.358.192-.527a1.341,1.341,0,0,0,.087-.387Zm0,0,4.416,10.211h-1.681l-3.209-8.369Zm2.371,9.249h1.623a1.546,1.546,0,0,0,.582.7,1.351,1.351,0,0,0,.685.211h.113v.142h-3.689v-.142h.129a.659.659,0,0,0,.5-.237.606.606,0,0,0,.042-.669Z" transform="translate(-51.215 -513.843)" fill="#ff587a"/>
    <path id="Path_82" data-name="Path 82" d="M302.258,744.368v.864h-.034a.664.664,0,0,0-.224-.527.773.773,0,0,0-.54-.2h-.229v-.145Zm1.294,0v6.324a4.2,4.2,0,0,0,.369,1.813,2.79,2.79,0,0,0,1.036,1.2,2.853,2.853,0,0,0,1.56.424,3.2,3.2,0,0,0,1.631-.4,2.758,2.758,0,0,0,1.08-1.136,3.692,3.692,0,0,0,.374-1.7v-6.522h.79v6.487a3.953,3.953,0,0,1-.482,1.984,3.369,3.369,0,0,1-1.381,1.318,4.458,4.458,0,0,1-2.108.474,5.077,5.077,0,0,1-2.258-.469,3.357,3.357,0,0,1-1.452-1.318,3.809,3.809,0,0,1-.5-1.987v-6.49Zm.993,0v.145h-.229a.773.773,0,0,0-.54.2.674.674,0,0,0-.224.527h-.026v-.864Zm5.107,0v.864h-.05a.674.674,0,0,0-.224-.527.79.79,0,0,0-.54-.2h-.229v-.145Zm1.739,0v.145h-.229a.79.79,0,0,0-.54.2.671.671,0,0,0-.221.527h-.029v-.864Z" transform="translate(-97.047 -514.462)" fill="#ff587a"/>
    <path id="Path_83" data-name="Path 83" d="M365,743.35a2.418,2.418,0,0,0,.44.116c.195.04.414.071.653.1a5.6,5.6,0,0,0,.661.045l-1.755.158Zm8.616.263v.487H365v-.49Zm-7.423.445v.042a1.068,1.068,0,0,0-.754.311,1.014,1.014,0,0,0-.3.754v.216L365,745.4v-1.339Zm2.5,8.585V753.7h-1.151v-.142h.187a.875.875,0,0,0,.64-.263.927.927,0,0,0,.279-.64Zm1.294-8.975v10.013h-1.339V743.669Zm-.042,8.975h.042a.94.94,0,0,0,.279.64.884.884,0,0,0,.64.263h.187v.142h-1.149Zm3.689-9.294v.419l-1.755-.158a5.527,5.527,0,0,0,.669-.045c.235-.029.453-.061.654-.1a1.978,1.978,0,0,0,.422-.116Zm0,.706V745.4l-.145-.016v-.216a1.022,1.022,0,0,0-.292-.754,1.081,1.081,0,0,0-.756-.311v-.042Z" transform="translate(-144.014 -513.718)" fill="#ff587a"/>
    <path id="Path_84" data-name="Path 84" d="M424.572,744.72h-.045a.86.86,0,0,0-.264-.64.893.893,0,0,0-.648-.263h-.174l-.013-.145h1.151Zm0,7.968v1.054H423.42V753.6h.187a.875.875,0,0,0,.64-.263.927.927,0,0,0,.279-.64Zm1.294-9.02v10.068h-1.339V743.668Zm3.913,0v.5h-3.953v-.5Zm-.648,4.862v.49h-3.307v-.49Zm.59,4.7.116.5h-4.013v-.5Zm.935-2.026-.777,2.53h-2.532l.527-.5a2.816,2.816,0,0,0,1.252-.25,2.244,2.244,0,0,0,.833-.714,4.6,4.6,0,0,0,.561-1.054Zm-.877-7.8v.416l-1.755-.158a5.527,5.527,0,0,0,.669-.042c.235-.029.453-.063.654-.1a2.428,2.428,0,0,0,.432-.116Zm-.648,4.055v1.094h-1.007v-.029a.851.851,0,0,0,.619-.263.862.862,0,0,0,.245-.617v-.174Zm0,1.526v1.094h-.142V749.9a.871.871,0,0,0-.245-.619.819.819,0,0,0-.619-.263v-.029Zm.648-4.862v1.318h-.145v-.229a1.023,1.023,0,0,0-.3-.748,1.053,1.053,0,0,0-.754-.316v-.024Z" transform="translate(-187.04 -513.762)" fill="#ff587a"/>
    <path id="Path_85" data-name="Path 85" d="M522.75,749.7l-.071,2.332a4.333,4.333,0,0,1-.914,1.054,4.192,4.192,0,0,1-1.318.74,5.416,5.416,0,0,1-1.8.263,6.059,6.059,0,0,1-2.814-.643,4.63,4.63,0,0,1-1.892-1.813,6.037,6.037,0,0,1,0-5.533,4.611,4.611,0,0,1,1.884-1.821,6.059,6.059,0,0,1,2.883-.646,6.71,6.71,0,0,1,1.971.263,6.211,6.211,0,0,1,1.5.654l.2,2.171h-.129a3.26,3.26,0,0,0-1.286-1.963,3.826,3.826,0,0,0-5.7,1.581,5.882,5.882,0,0,0-.487,2.5,5.973,5.973,0,0,0,.482,2.487,3.9,3.9,0,0,0,1.352,1.663,3.665,3.665,0,0,0,2.034.625,4.54,4.54,0,0,0,1.884-.374,3.163,3.163,0,0,0,1.381-1.231,5.646,5.646,0,0,0,.735-2.308Z" transform="translate(-253.216 -513.926)" fill="#ff587a"/>
    <path id="Path_86" data-name="Path 86" d="M582.7,743.624a5.867,5.867,0,0,1,2.812.646,4.621,4.621,0,0,1,1.868,1.829,6.032,6.032,0,0,1,0,5.534,4.634,4.634,0,0,1-1.868,1.826,5.837,5.837,0,0,1-2.812.648,5.772,5.772,0,0,1-2.8-.659,4.634,4.634,0,0,1-1.868-1.826,6.032,6.032,0,0,1,0-5.534,4.621,4.621,0,0,1,1.868-1.829A5.8,5.8,0,0,1,582.7,743.624Zm0,9.981a3.426,3.426,0,0,0,2.013-.59,3.891,3.891,0,0,0,1.318-1.652,6.851,6.851,0,0,0,0-5.007,3.9,3.9,0,0,0-1.318-1.655,3.689,3.689,0,0,0-4.005,0,3.854,3.854,0,0,0-1.318,1.655,6.851,6.851,0,0,0,0,5.007,3.848,3.848,0,0,0,1.318,1.652A3.406,3.406,0,0,0,582.7,753.606Z" transform="translate(-300.417 -513.919)" fill="#ff587a"/>
    <path id="Path_87" data-name="Path 87" d="M645.036,744.368v.864h-.042a.664.664,0,0,0-.224-.527.769.769,0,0,0-.527-.2H644v-.145Zm1.3,0v6.324a4.2,4.2,0,0,0,.366,1.813,2.822,2.822,0,0,0,1.036,1.2,2.859,2.859,0,0,0,1.56.424,3.212,3.212,0,0,0,1.634-.4,2.75,2.75,0,0,0,1.078-1.136,3.655,3.655,0,0,0,.382-1.713v-6.511h.791v6.487a3.953,3.953,0,0,1-.482,1.984,3.352,3.352,0,0,1-1.381,1.318,4.451,4.451,0,0,1-2.108.474,5.084,5.084,0,0,1-2.258-.469,3.357,3.357,0,0,1-1.452-1.318,3.83,3.83,0,0,1-.5-1.987v-6.49Zm.991,0v.145h-.229a.791.791,0,0,0-.527.2.671.671,0,0,0-.221.527h-.029v-.864Zm5.107,0v.864h-.042a.664.664,0,0,0-.224-.527.769.769,0,0,0-.527-.2H651.4v-.145Zm1.742,0v.145h-.232a.77.77,0,0,0-.527.2.665.665,0,0,0-.224.527h-.029v-.864Z" transform="translate(-349.497 -514.462)" fill="#ff587a"/>
    <path id="Path_88" data-name="Path 88" d="M707.82,743.35a2.305,2.305,0,0,0,.437.116c.2.04.414.071.653.1a5.592,5.592,0,0,0,.664.045l-1.755.158Zm8.614.263v.487H707.82v-.49Zm-7.42.445v.042a1.075,1.075,0,0,0-.756.311,1.014,1.014,0,0,0-.3.754v.216l-.142.016v-1.339Zm2.487,8.587V753.7H710.35v-.142h.187a.875.875,0,0,0,.64-.264.943.943,0,0,0,.282-.64Zm1.294-8.975v10.013h-1.336V743.671Zm-.042,8.975h.042a.931.931,0,0,0,.282.64.875.875,0,0,0,.64.263h.187v.142h-1.151Zm3.689-9.294v.419l-1.755-.158a5.515,5.515,0,0,0,.669-.045c.234-.029.453-.061.656-.1a1.951,1.951,0,0,0,.422-.119Zm0,.706V745.4l-.142-.016v-.216a1.024,1.024,0,0,0-.3-.754,1.075,1.075,0,0,0-.756-.311v-.042Z" transform="translate(-396.5 -513.718)" fill="#ff587a"/>
    <path id="Path_89" data-name="Path 89" d="M766.826,744.368v.864h-.045a.671.671,0,0,0-.221-.527.79.79,0,0,0-.54-.2h-.229v-.145Zm1.294,0v6.324a4.2,4.2,0,0,0,.366,1.813,2.823,2.823,0,0,0,1.036,1.2,2.859,2.859,0,0,0,1.56.424,3.212,3.212,0,0,0,1.634-.4,2.749,2.749,0,0,0,1.078-1.136,3.653,3.653,0,0,0,.382-1.713v-6.511h.791v6.487a3.953,3.953,0,0,1-.482,1.984,3.353,3.353,0,0,1-1.381,1.318,4.451,4.451,0,0,1-2.108.474,5.065,5.065,0,0,1-2.258-.469,3.365,3.365,0,0,1-1.455-1.318,3.83,3.83,0,0,1-.5-1.987v-6.49Zm.993,0v.145h-.232a.77.77,0,0,0-.527.2.664.664,0,0,0-.224.527H768.1v-.864Zm5.1,0v.864h-.042a.664.664,0,0,0-.224-.527.769.769,0,0,0-.527-.2h-.232v-.145Zm1.742,0v.145h-.229a.769.769,0,0,0-.527.2.664.664,0,0,0-.224.527h-.029v-.864Z" transform="translate(-439.195 -514.462)" fill="#ff587a"/>
    <path id="Path_90" data-name="Path 90" d="M832.061,745.39h-.045a.917.917,0,0,0-.279-.64.872.872,0,0,0-.64-.264h-.187v-.145h1.152Zm0,7.968v1.054H830.91v-.142h.187a.884.884,0,0,0,.64-.264.927.927,0,0,0,.279-.64Zm1.294-9.02v10.068h-1.339V744.338Zm1.784,0a4.062,4.062,0,0,1,1.207.174,2.633,2.633,0,0,1,.957.509,2.436,2.436,0,0,1,.627.843,2.811,2.811,0,0,1,.229,1.178,2.9,2.9,0,0,1-.3,1.289,2.739,2.739,0,0,1-.841,1.028,2.206,2.206,0,0,1-1.273.432,1.722,1.722,0,0,1,.632.445,6.761,6.761,0,0,1,.548.648,2.588,2.588,0,0,0,.179.263c.119.171.264.385.453.638s.366.506.553.756.353.456.5.619a4.808,4.808,0,0,0,.569.582,2.382,2.382,0,0,0,.6.374,1.884,1.884,0,0,0,.727.137v.142H839.5a3.774,3.774,0,0,1-1.223-.179,2.964,2.964,0,0,1-.922-.49,3.761,3.761,0,0,1-.661-.667c-.037-.069-.116-.192-.237-.374l-.4-.627c-.148-.234-.3-.466-.437-.7l-.374-.6c-.105-.169-.174-.263-.2-.324a3.314,3.314,0,0,0-.548-.669,1.017,1.017,0,0,0-.661-.3v-.142h.661a3.648,3.648,0,0,0,.791-.129,1.826,1.826,0,0,0,.79-.448,2.022,2.022,0,0,0,.527-.978,2.046,2.046,0,0,0,.066-.358,2.8,2.8,0,0,0,0-.445,2.32,2.32,0,0,0-.5-1.547,1.675,1.675,0,0,0-1.26-.582,6.421,6.421,0,0,0-.69-.024h-.914a1.055,1.055,0,0,0-.034-.137l-.108-.366Zm-1.834,9.02h.045a.859.859,0,0,0,.263.64.9.9,0,0,0,.646.263h.174v.142h-1.128Z" transform="translate(-487.156 -514.432)" fill="#ff587a"/>
    <path id="Path_91" data-name="Path 91" d="M890.781,744.72h-.045a.859.859,0,0,0-.263-.64.891.891,0,0,0-.648-.263h-.171l-.016-.145h1.144Zm0,7.968v1.054H889.63V753.6h.187a.875.875,0,0,0,.64-.263.927.927,0,0,0,.279-.64Zm1.294-9.02v10.068h-1.339V743.668Zm3.913,0v.5h-3.953v-.5Zm-.648,4.862v.49h-3.317v-.49Zm.59,4.7.116.5h-4.024v-.5Zm.935-2.026-.777,2.53h-2.532l.527-.5a2.817,2.817,0,0,0,1.252-.25,2.244,2.244,0,0,0,.833-.714,4.6,4.6,0,0,0,.561-1.054Zm-.877-7.8v.416l-1.755-.158a5.529,5.529,0,0,0,.669-.042c.234-.029.453-.063.653-.1a2.407,2.407,0,0,0,.422-.116Zm-.648,4.055v1.094h-1.007v-.029a.851.851,0,0,0,.619-.263.862.862,0,0,0,.245-.617v-.174Zm0,1.526v1.094H895.2V749.9a.872.872,0,0,0-.245-.619.819.819,0,0,0-.619-.263v-.029Zm.638-4.862v1.318h-.145v-.229a1.022,1.022,0,0,0-.3-.748,1.053,1.053,0,0,0-.754-.316v-.024Z" transform="translate(-530.403 -513.762)" fill="#ff587a"/>
    <path id="Path_92" data-name="Path 92" d="M469.235,45.88a4.158,4.158,0,0,0-4.706,3.512.511.511,0,0,1-.018.166l-1.723,16.355a9.646,9.646,0,0,1,1.974,4.964c.2,2.867.461,7.412.424,9.913a6.791,6.791,0,0,0,1.112,3.855l6.421-33.873a4.15,4.15,0,0,0-3.289-4.861C469.365,45.9,469.3,45.889,469.235,45.88Zm1.07,4.959-1.444,9.955a1.768,1.768,0,0,1-3.515-.383c0-.043.011-.085.019-.128l1.439-9.947a1.769,1.769,0,0,1,3.5.5Zm-15.989,95.434a.15.15,0,0,0,.3.042L461.38,110.6a15.1,15.1,0,0,1-3.2-1Z" transform="translate(-209.793)" fill="#ff587a"/>
    <path id="Path_93" data-name="Path 93" d="M349.455,79.362a7.8,7.8,0,0,1-.661-2.962,5.565,5.565,0,0,1,.777-2.993.4.4,0,0,1,.54-.126.393.393,0,0,1,.126.527h0a4.784,4.784,0,0,0-.68,2.566,7.018,7.018,0,0,0,.582,2.685,10.312,10.312,0,0,0,3.557,4.248,14.088,14.088,0,0,0,5.162,2.208,19.173,19.173,0,0,0,5.652.329,26.532,26.532,0,0,0,2.78-.372c.134.3.263.572.377.79a27.662,27.662,0,0,1-3.1.382,20.854,20.854,0,0,1-5.873-.4,14.661,14.661,0,0,1-5.433-2.335A11.067,11.067,0,0,1,349.455,79.362Z" transform="translate(-132.076 -20.17)" fill="#ff587a"/>
    <path id="Path_94" data-name="Path 94" d="M416.915,109.1a63.091,63.091,0,0,0-1.742-6.082q-1.033-2.988-2.35-5.852a61.474,61.474,0,0,0-2.9-5.56l-.812-1.341c-.264-.443-.567-.875-.846-1.317s-.582-.862-.88-1.291c-.145-.213-.29-.427-.443-.638l-.469-.64a48.065,48.065,0,0,0-8.735-9.038,48.89,48.89,0,0,0-10.6-6.4A51.539,51.539,0,0,0,381.4,68.8a53.567,53.567,0,0,0-17.952-2.269,56.3,56.3,0,0,0-5.966.574c-1.979.3-3.929.717-5.858,1.2A58.838,58.838,0,0,0,340.482,72.4l-1.318.667c-.432.232-.875.456-1.318.693s-.867.466-1.291.717l-1.27.733q-1.42.83-2.9,1.581c.6.111,1.154.227,1.639.335.6-.3,1.2-.624,1.784-.954.851-.472,1.694-.946,2.556-1.389.424-.224.862-.432,1.291-.651l1.317-.611a56.011,56.011,0,0,1,22.482-5.075,48.788,48.788,0,0,1,22.4,5.067,45.722,45.722,0,0,1,4.988,2.927,43.532,43.532,0,0,1,4.564,3.544,41.131,41.131,0,0,1,4.05,4.116,43.016,43.016,0,0,1,3.454,4.619c1.038,1.621,2,3.3,2.87,5.007A56.524,56.524,0,0,1,408.117,99a58.507,58.507,0,0,1,3.064,11.12,60.619,60.619,0,0,1,.88,11.491,62.23,62.23,0,0,1-1.275,11.449,59,59,0,0,1-3.426,10.967,55.4,55.4,0,0,1-5.533,10.053,53.583,53.583,0,0,1-16.693,15.57,57.566,57.566,0,0,1-10.4,4.88,60.461,60.461,0,0,1-11.159,2.812,47.965,47.965,0,0,1-11.478.358,45.131,45.131,0,0,1-11.212-2.516,55.027,55.027,0,0,1-10.348-5.1,106.892,106.892,0,0,1-9.457-6.754l-2.227-1.75c.5-.35.991-.717,1.481-1.08,1.56-1.17,3.083-2.39,4.545-3.689.717-.648,1.439-1.273,2.2-1.844.385-.285.772-.564,1.173-.819.2-.129.4-.264.6-.372s.419-.235.606-.321h.013c.195-.084-.126-.79-.327-.711a7.6,7.6,0,0,0-.688.358c-.227.126-.429.264-.635.39-.427.264-.833.545-1.228.843-.79.582-1.552,1.225-2.277,1.876-1.444,1.267-2.967,2.464-4.522,3.6-.559.411-1.123.812-1.692,1.207q-.791-.627-1.621-1.257a40.906,40.906,0,0,0-4.9-3.228,30.541,30.541,0,0,0-5.373-2.372,23.308,23.308,0,0,0-5.765-1.136,16.426,16.426,0,0,0-5.844.646,11.4,11.4,0,0,0-5.033,3.036,8.785,8.785,0,0,0-1.631,2.487,8.1,8.1,0,0,0-.661,2.9,9.433,9.433,0,0,0,.066,1.494,10.219,10.219,0,0,0,1.581,4.145A7.851,7.851,0,0,0,291,169.88a8.051,8.051,0,0,0,2.725,1.215,11.331,11.331,0,0,0,2.956.3,17.351,17.351,0,0,0,2.933-.321,30.773,30.773,0,0,0,5.62-1.718,53.226,53.226,0,0,0,5.286-2.511c1.979-1.07,3.9-2.234,5.765-3.478q1.383,1.249,2.8,2.514,2.194,1.976,4.511,3.889c.769.638,1.552,1.27,2.353,1.887s1.628,1.215,2.466,1.8a59.737,59.737,0,0,0,10.851,6.124,53.434,53.434,0,0,0,6.008,2.142,51.052,51.052,0,0,0,6.29,1.42,54.844,54.844,0,0,0,12.912.456,64.307,64.307,0,0,0,6.374-.856l1.581-.316c.527-.116,1.038-.232,1.555-.353,1.038-.264,2.076-.527,3.1-.848a56.937,56.937,0,0,0,6.095-2.179,59.052,59.052,0,0,0,5.868-2.854A55.8,55.8,0,0,0,404.2,163.727c.353-.424.711-.838,1.054-1.267l1.014-1.294c.332-.437.648-.88.978-1.318s.617-.9.927-1.354a58.754,58.754,0,0,0,6.082-11.544,60.641,60.641,0,0,0,2.066-6.158c.145-.527.292-1.038.419-1.568s.263-1.054.377-1.581.229-1.054.327-1.581l.292-1.581A63.71,63.71,0,0,0,416.915,109.1ZM315.009,163.042c-1.634,1.02-3.3,1.979-5.007,2.864a50.578,50.578,0,0,1-5.212,2.372,29.318,29.318,0,0,1-5.42,1.56,12.7,12.7,0,0,1-5.336-.055,6.605,6.605,0,0,1-2.245-1.054,6.355,6.355,0,0,1-1.657-1.8,5.536,5.536,0,0,1-.316-.545c-.1-.195-.2-.387-.285-.582a9.831,9.831,0,0,1-.437-1.2,9.7,9.7,0,0,1-.242-1.225,8.232,8.232,0,0,1-.029-1.22,6.851,6.851,0,0,1,1.971-4.329,9.578,9.578,0,0,1,4.345-2.464,13.431,13.431,0,0,1,2.561-.43,15.2,15.2,0,0,1,2.635.053,19.7,19.7,0,0,1,5.191,1.275,28.342,28.342,0,0,1,4.83,2.458c.772.485,1.518,1.007,2.253,1.555s1.431,1.133,2.134,1.729q.4.348.79.7Z" transform="translate(-86.771 -15.206)" fill="#ff587a"/>
    <path id="Path_95" data-name="Path 95" d="M446.2,392.187c.819-.414,1.22-.577,1.22-.577l-.09.891-.819.4Z" transform="translate(-203.817 -254.662)" fill="#ff587a"/>
    <path id="Path_96" data-name="Path 96" d="M551.226,326.255a12.662,12.662,0,0,0,2.026.29,8.893,8.893,0,0,0,7.014-2.393.358.358,0,0,0-.026-.5.364.364,0,0,0-.506.026c-.116.126-2.9,3.1-8.353,1.881a.358.358,0,0,0-.2.689l.043.009Z" transform="translate(-280.946 -204.542)" fill="#ff587a"/>
    <path id="Path_97" data-name="Path 97" d="M616.406,321.779a1.332,1.332,0,0,0-.972.285,1.318,1.318,0,0,0,.68,2.356h.068a1.317,1.317,0,0,0,1.4-1.175A1.338,1.338,0,0,0,616.406,321.779Zm.464,1.391a.617.617,0,0,1-.68.527.6.6,0,0,1-.406-.221.587.587,0,0,1-.129-.453.606.606,0,0,1,.221-.414.621.621,0,0,1,.424-.129h.026a.62.62,0,0,1,.543.687Z" transform="translate(-328.079 -203.226)" fill="#ff587a"/>
    <path id="Path_98" data-name="Path 98" d="M400.567,136.028a1.318,1.318,0,0,0-.972.285,1.3,1.3,0,0,0-.49.891,1.317,1.317,0,0,0,1.157,1.461l.013,0a.343.343,0,0,0,.071.013,1.33,1.33,0,1,0,.221-2.651Zm.466,1.391a.631.631,0,0,1-.229.408.611.611,0,0,1-.993-.545.638.638,0,0,1,.227-.408.611.611,0,0,1,.416-.137h.037a.624.624,0,0,1,.543.682Z" transform="translate(-169.125 -66.42)" fill="#ff587a"/>
    <path id="Path_99" data-name="Path 99" d="M460.146,216.883a1.483,1.483,0,0,0-.986-.545,1.45,1.45,0,0,0-.43.018,1.476,1.476,0,0,0,.1,2.922.265.265,0,0,0,.076,0,1.483,1.483,0,0,0,1.241-2.408Zm-.39,1.009a.715.715,0,0,1-.148.372.743.743,0,0,1-.7.311.791.791,0,0,1-.511-.285.738.738,0,0,1-.163-.564.772.772,0,0,1,.79-.68h.05a.748.748,0,0,1,.527.285A.775.775,0,0,1,459.756,217.892Z" transform="translate(-212.143 -125.567)" fill="#ff587a"/>
    <path id="Path_100" data-name="Path 100" d="M471.078,132.9c-.263-.527-.472-.956-.635-1.3-.445-.962-.646-1.381-1.294-1.6a11.1,11.1,0,0,0-4.216-5.918,2.776,2.776,0,0,0-1.613-.527,7.078,7.078,0,0,0-3.2-3.742,4.325,4.325,0,0,0-2.927-.609,5.589,5.589,0,0,0-5.847-1.539,2.756,2.756,0,0,0-1.742,2.854c.163,2.7.145,3.839.132,4.163-.458.593-2.761,3.742-2.635,7.062a15.051,15.051,0,0,0,.527,3.252c-4.174,1.457-7.183,4.764-8.977,9.852a30.8,30.8,0,0,1,.79-5.642,22.572,22.572,0,0,0,.685-5.671v-.037c.656-5.162,5.038-7.57,5.892-7.992a1.514,1.514,0,0,0,.79.358h.076a1.518,1.518,0,1,0-1.418-1.681,1.5,1.5,0,0,0,.127.733,12.471,12.471,0,0,0-3.352,2.545,6.07,6.07,0,0,0-.348-3.953,1.087,1.087,0,0,0,.306-.609,1.072,1.072,0,0,0-.229-.791,1.013,1.013,0,0,0-.7-.385,1.025,1.025,0,0,0-.777.221,1.036,1.036,0,0,0-.4.706,1.083,1.083,0,0,0,.227.79,1.054,1.054,0,0,0,.709.387.177.177,0,0,0,.055,0,.62.62,0,0,0,.158-.026c.321.582.772,2.016-.013,4.885a10.494,10.494,0,0,0-1.457,3.091,6.171,6.171,0,0,0-.382-.783v-.042a1.449,1.449,0,0,1-.095-.14c-.187-.3-.387-.606-.614-.909a21.48,21.48,0,0,1-.282-8.7c.227-.6,1.742-4.066,6.682-4.382a5.418,5.418,0,0,0,4.511-2.569c1.03-1.317,1.831-2.371,5.36-1.478h.079a.266.266,0,0,0,.076,0,.263.263,0,0,0,.177-.095h.034a.316.316,0,0,0,.063-.221.127.127,0,0,0-.018-.063.309.309,0,0,0-.026-.116c-.04-.058-3.779-5.813-12.885-3.884a6.944,6.944,0,0,0-5.054,3.478c-1.895,3.618-.082,8.551.248,9.37a21.306,21.306,0,0,0,.042,7.531c-.64-.711-1.341-1.423-2.063-2.148-2.719-2.727-5.8-5.815-6.024-9.647-.4-6.827-.419-8.169-.414-8.213a11.424,11.424,0,0,0-1.054-5.138,7.955,7.955,0,0,0-5.32-4.361c-.082-.018-.158-.045-.242-.066-1.526-.414-2.751-.656-3.742-.856-3.2-.64-4.066-.812-6.277-4.4-.018-.029-.053-.045-.071-.069a.164.164,0,0,0-.055-.042.379.379,0,0,0-.227-.058h0l-.05.018A.312.312,0,0,0,412,93.9a.152.152,0,0,0-.037.061.177.177,0,0,0-.047.069l-.029.124c-1.183,4.479.975,8.7,5.655,11a13.457,13.457,0,0,0,2.163.859,14.721,14.721,0,0,0,2.371.427,10.66,10.66,0,0,1,4.187,1.2,21.224,21.224,0,0,1,2.219,1.318c.016.551.087,2.437.419,8.06.171,2.877,1.789,5.3,3.7,7.462a32.077,32.077,0,0,0-5.007-2.725c-.319-.646-2.437-4.48-6.63-4.659a7.971,7.971,0,0,0-2.387.279,12.385,12.385,0,0,1-9.963-1.628.351.351,0,0,0-.4-.018.358.358,0,0,0-.166.369c.018.079,1.346,6.414,6.727,7.294a5.731,5.731,0,0,0,.791.095c.187,0,.385.016.588.016a25.525,25.525,0,0,0,5.043-.5c.477-.105.912-.206,1.318-.3a11.223,11.223,0,0,1,4.651-.361,30.651,30.651,0,0,1,8.092,5.054,1.007,1.007,0,0,0-.3,0,2.975,2.975,0,0,0-1.162.527c-.675-.343-1.8.321-2.8.917l-.408.235c-.946.527-.988,1.953-.98,2.408a1.939,1.939,0,0,0-.43.685,1.247,1.247,0,0,1-.527.693.922.922,0,0,0-.43,1.1c.169.819,2.667,1.829,4.516,2.058.161.016.319.034.474.042a3.76,3.76,0,0,0,2.661-.669c.73.611,2.371,2.461,2.348,6.588h0a13.3,13.3,0,0,0,.527,7.378,15.184,15.184,0,0,1,.559,10.158c-.042.145-.1.264-.137.419v.029a12.466,12.466,0,0,1-1.689,3.194c2.163-5.452,1.162-12.442-2.69-16.461l-.047-.045c.047-.983.145-6.15-3.283-9.2a8.873,8.873,0,0,0-5.215-2.408,12.6,12.6,0,0,0-3.344.213c-.206.037-.4.069-.582.092a3.872,3.872,0,0,1-2.967-.735,2.77,2.77,0,0,1-.991-1.41.4.4,0,0,0-.116-.155.266.266,0,0,0-.032-.037.356.356,0,0,0-.263-.055h0c-.021,0-.037.026-.058.029a.4.4,0,0,0-.153.105c-.018.026-.018.063-.034.09a.859.859,0,0,0-.045.132,10.6,10.6,0,0,0,3.536,7.786,14.035,14.035,0,0,0,6.872,3.462h.026c4.1.79,5.873,2.311,5.992,2.416l.166.166c4.261,4.451,4.859,12.74,1.318,18.1a17.916,17.916,0,0,1-4.667,3.033c-1.887.87-3.162.669-4.743,1.173a7.932,7.932,0,0,0-.991.466l-.163.872c1.823-.877,3.652-.7,6.19-1.86a13.532,13.532,0,0,1,6.424-1.03,18.752,18.752,0,0,1,2.777.377,1.489,1.489,0,0,0,1.357,1.523h.076a1.555,1.555,0,0,0,1.318-2.524,1.512,1.512,0,0,0-1.054-.569,1.582,1.582,0,0,0-1.136.343,1.66,1.66,0,0,0-.422.527,17.875,17.875,0,0,0-6.479-.232,14.2,14.2,0,0,0,5.8-7.233c.569-.675,2.14-.511,4.116-.287a36.5,36.5,0,0,0,4.785.3c4.864-.1,8.677-4.88,8.769-7.923a.353.353,0,0,0-.2-.337.374.374,0,0,0-.39.047c-.021.026-2.875,2.358-8.269,1.789-3.863-.408-6.448.527-8.082,2.9a16.457,16.457,0,0,0-1.209-7.549,9.184,9.184,0,0,1-.614-2.221c1.623-5.844,4.672-9.578,9.054-11.13a16.5,16.5,0,0,0,.967,2.4c-1.318,1.436-.545,2.635.424,4.15a20.745,20.745,0,0,1,1.094,1.845c1,1.9,2.108,3.03,3.041,3.086a1.086,1.086,0,0,0,.227,0,1.183,1.183,0,0,0,.93-.759c1.054.675,2.812-.1,3.426-.406.743.527,3.454,2.287,5.37,1.339a5.478,5.478,0,0,0,2.635-2.6,2.619,2.619,0,0,0,1.792-2.332,3.016,3.016,0,0,1,1.368-1.926,2.836,2.836,0,0,0,1.157-1.465,2.8,2.8,0,0,0-.148-1.76A3.863,3.863,0,0,0,471.078,132.9ZM446.2,124.265a.79.79,0,0,1,.865-.709l.021,0a.8.8,0,0,1,.706.885.79.79,0,0,1-.865.709l-.021,0a.79.79,0,0,1-.709-.865Zm-5.209-1.275a.065.065,0,0,1-.018.055c-.018.018-.055-.016-.076-.04a.35.35,0,0,1-.066-.25.345.345,0,0,1,.353-.308h.021a.337.337,0,0,1,.232.119.353.353,0,0,1,.069.25c0,.05-.04.076-.055.108A.359.359,0,0,0,440.986,122.99Zm-2.951-10.854a6.3,6.3,0,0,1,4.566-3.109,16.506,16.506,0,0,1,4.337-.358,11.067,11.067,0,0,1,5.365,1.671,7.7,7.7,0,0,0-4.632-.719,6.473,6.473,0,0,0-4.15,2.408,5.142,5.142,0,0,1-.79.79.35.35,0,0,0-.082.489l.011.014a.34.34,0,0,0,.264.142.347.347,0,0,0,.229-.069,5.644,5.644,0,0,0,.906-.9,5.85,5.85,0,0,1,3.755-2.171c2.024-.448,4.269.606,5.649,1.449a4.259,4.259,0,0,0-4.451,2.032,4.771,4.771,0,0,1-4,2.292,8.317,8.317,0,0,0-5.95,2.743,10.674,10.674,0,0,1,2.039-3.323.364.364,0,0,0-.016-.506.359.359,0,0,0-.506.021l0,0a11.9,11.9,0,0,0-2.635,4.84C437.424,118.123,436.689,114.71,438.035,112.136Zm-17.217-9.122a5.955,5.955,0,0,1,.656.184,13.056,13.056,0,0,1,5.415,3.265,8.389,8.389,0,0,1,.941,1.18c-.432-.263-.835-.487-1.215-.677a11.331,11.331,0,0,0-4.464-1.3,13.915,13.915,0,0,1-2-.329,11.977,11.977,0,0,1-2.311-.885c-3.781-1.863-5.771-5.054-5.534-8.569a9.6,9.6,0,0,0,6.111,6.224h.069a.353.353,0,0,0,.111-.7,8.662,8.662,0,0,1-5.512-5.465c1.681,2.232,2.9,2.487,5.6,3.028,1.007.208,2.258.461,3.837.885l.1.026A7.354,7.354,0,0,1,427.8,104.5a9.928,9.928,0,0,1,.635,2.746,9.723,9.723,0,0,0-1.191-1.478,13.682,13.682,0,0,0-5.465-3.244c-.456-.14-.751-.216-.79-.227a.361.361,0,0,0-.155.7ZM418.4,120.041a24.177,24.177,0,0,1,2.435.321,28.119,28.119,0,0,1,4.279,1.123,15.09,15.09,0,0,0-2.79.458c-.424.1-.859.208-1.336.306a24.818,24.818,0,0,1-4.856.482,7.245,7.245,0,0,1-1.523-.148c-3.613-.735-5.115-4.166-5.636-5.8a13.066,13.066,0,0,0,5.412,1.647,13.262,13.262,0,0,0,4.364-.414,7.348,7.348,0,0,1,2.053-.263,7.077,7.077,0,0,1,5.7,3.5,29.683,29.683,0,0,0-5.858-1.644c-.722-.119-1.447-.213-2.182-.264h-.016a.349.349,0,1,0-.05.7Zm12.529,9.581.416-.242a11.614,11.614,0,0,1,1.547-.79,9.35,9.35,0,0,0-1.133,1.275c-.1.134-.163.242-.24.358a6.269,6.269,0,0,0-1.178.582,1.574,1.574,0,0,1,.588-1.183Zm2.667,5.663a8.251,8.251,0,0,1-4.68-1.539c-.047-.235-.047-.235.148-.377a1.939,1.939,0,0,0,.775-1.054,2.25,2.25,0,0,1,1.13-1.078,4.423,4.423,0,0,0-.174.588c-.053.2-.111.43-.206.725a.925.925,0,0,0,.361,1.007,8.526,8.526,0,0,0,4.176,1.4A3.161,3.161,0,0,1,433.6,135.284Zm2.179-1.054a7.749,7.749,0,0,1-4.342-1.194c-.113-.1-.177-.2-.161-.25.1-.319.158-.559.216-.79a3.889,3.889,0,0,1,.848-1.726,5.887,5.887,0,0,1,2.714-2.242.577.577,0,0,1,.148,0,.344.344,0,0,1,.195.061,8.207,8.207,0,0,1,1.07,4.767c-.047.506-.213,1.162-.685,1.373Zm.559.54c.024-.042.055-.069.076-.1a2.514,2.514,0,0,0,.767-1.731,10.317,10.317,0,0,0-.759-4.5,18.344,18.344,0,0,1,2.269,2.751,4.9,4.9,0,0,1,.706,1.792,19.407,19.407,0,0,1-.646,6.087c-.018.074-.029.15-.047.227a7.473,7.473,0,0,0-2.364-4.53Zm-2.324,11.114a16.739,16.739,0,0,0-6.324-4.158,6.447,6.447,0,0,0-.872-.216.382.382,0,0,0-.4.314.361.361,0,0,0,.314.4,5.309,5.309,0,0,1,1.078.311,14.949,14.949,0,0,1,3.966,2.348,18.7,18.7,0,0,0-3.539-1.02l-.264-.061a13.207,13.207,0,0,1-7.012-3.971h0a9.955,9.955,0,0,1-2.14-3.731,9.96,9.96,0,0,0,1.718,1.937,14.718,14.718,0,0,0,4.316,2.6.354.354,0,0,0,.1.021.358.358,0,0,0,.148-.693,13.742,13.742,0,0,1-5.007-3.394,8.186,8.186,0,0,1-.87-1.175,5.075,5.075,0,0,0,.559.292,4.841,4.841,0,0,0,2.617.332c.184-.032.385-.061.588-.092a11.205,11.205,0,0,1,3.454-.171h0a8.344,8.344,0,0,1,4.508,2.19c2.69,2.364,3.046,6.266,3.067,7.939Zm7.086,22.274a.811.811,0,0,1,.308-.559.839.839,0,0,1,.574-.184h.05a.864.864,0,0,1,.564.316.828.828,0,0,1,.174.617.843.843,0,0,1-.922.735.824.824,0,0,1-.744-.9c0-.01,0-.019,0-.029Zm3.078-11.006a.351.351,0,0,0,.323-.376v-.014a.366.366,0,0,0-.39-.327,7.045,7.045,0,0,0-3.494,1.536c1.336-2.719,3.6-3.842,7.238-3.623.248.016.5.032.748.058a13.05,13.05,0,0,0,8.126-1.481c-.609,2.748-3.884,6.4-7.981,6.474a34.949,34.949,0,0,1-4.685-.287A13.866,13.866,0,0,0,440.6,159a6.184,6.184,0,0,1,3.578-1.847Zm6.279-33.465h0c0-.675-.047-1.681-.14-3.194a2.032,2.032,0,0,1,1.3-2.155,3.572,3.572,0,0,1,1.6-.235,5.294,5.294,0,0,1,3.162,1.378,6.023,6.023,0,0,0-1.507,1.075.358.358,0,0,0,0,.507l0,0a.348.348,0,0,0,.224.1.377.377,0,0,0,.282-.105,4.477,4.477,0,0,1,1.744-1.1h.029a3.573,3.573,0,0,1,2.606.5,6.351,6.351,0,0,1,2.846,3.291,8.373,8.373,0,0,0-4.962,4.216c-.527,1.233-1.146,2.7-1.581,3.718-.69,1.318-1.2,1.549-1.457,1.557a.9.9,0,0,1-.64-.432c-.7-1.207-3.61-6.161-3.5-9.136Zm8.092,7.879a.87.87,0,0,0-.134.7,14.573,14.573,0,0,0-2.224,1.215,5.666,5.666,0,0,1,2.087-1.968.885.885,0,0,0,.237.055Zm-.124-.877a.4.4,0,0,1,0-.05.184.184,0,0,1,.087-.079.16.16,0,0,1,.066-.018.121.121,0,0,1,.055.018.174.174,0,0,1,.087.082.138.138,0,0,1,0,.119.172.172,0,0,1-.024.026.325.325,0,0,0-.269-.108Zm-10.6,1.02c-.105-2.53,1.407-5.054,2.148-6.129a30.123,30.123,0,0,0,3.386,7.552,2.3,2.3,0,0,1,.29.648,25.663,25.663,0,0,0-4.358,3.663A15.7,15.7,0,0,1,447.824,131.709Zm6.19,13.947c-.079.332-.229.738-.527.775-.527.047-1.557-.838-2.535-2.7-.379-.733-.79-1.354-1.125-1.895-1.022-1.594-1.491-2.327-.335-3.444,0-.013,0-.037.016-.047a.448.448,0,0,0,.053-.047c.456-.893,2.543-2.527,4.039-3.6l.4,1.012a17.162,17.162,0,0,1-1.5,4.242.35.35,0,0,0,.14.475l.013.007a.386.386,0,0,0,.137.042.366.366,0,0,0,.345-.2,21.371,21.371,0,0,0,1.341-3.378l.44,1.088c.092.343.2.79.321,1.333.037.179.082.377.126.577a2.459,2.459,0,0,1,.069.714,2.661,2.661,0,0,1-1.415,2.037.369.369,0,0,0-.155.485.353.353,0,0,0,.3.192.335.335,0,0,0,.179-.037,3.561,3.561,0,0,0,1.481-1.5,2.527,2.527,0,0,1-.951,2.25,2.162,2.162,0,0,0-.864,1.615Zm.719-.058a1.455,1.455,0,0,1,.625-1.03,3.339,3.339,0,0,0,.956-1.3,8.117,8.117,0,0,0,1.094,2.161c-.688.316-2.108.843-2.677.169Zm14.809-6.754c-.071.361-.461.682-.914,1.054a3.678,3.678,0,0,0-1.621,2.406,1.848,1.848,0,0,1-1.37,1.744,4.867,4.867,0,0,1-2.066-.609.359.359,0,0,0-.353.624,6.209,6.209,0,0,0,1.9.656,4.937,4.937,0,0,1-2.132,1.947c-1.726.859-4.54-1.207-4.783-1.383a9.1,9.1,0,0,1-1.676-3.715,1.9,1.9,0,0,0-.032-.414.3.3,0,0,0-.148-.242c-.15-.619-.292-1.22-.408-1.747s-.221-.97-.314-1.318l.047-1.5c.527.39.988.735,1.03.759a6.854,6.854,0,0,0,4.777,1.945,21.477,21.477,0,0,0,7.992-1.431,2.053,2.053,0,0,1,.066,1.225Zm-.084-1.995c-.54.221-8.4,3.223-11.987,0a3.306,3.306,0,0,0,.44.069,2.9,2.9,0,0,0,.69-.042,1.158,1.158,0,0,0,.124.2.843.843,0,0,0,.588.282.748.748,0,0,0,.638-.221.872.872,0,0,0,.07-1.231l0,0a.775.775,0,0,0-.611-.285.856.856,0,0,0-.625.224.951.951,0,0,0-.216.319,2.058,2.058,0,0,1-1.992-.627c.1.013.206.047.311.053a4.543,4.543,0,0,0,2.108-.477.881.881,0,0,0,.564.264.736.736,0,0,0,.132,0,.88.88,0,0,0,.588-.308.87.87,0,0,0,.195-.646.88.88,0,0,0-.316-.59.854.854,0,0,0-.635-.2.88.88,0,0,0-.6.316.851.851,0,0,0-.177.5c-.572.264-1.818.756-2.688.153a.154.154,0,0,1-.09-.018,11.185,11.185,0,0,1,2.9-1.723.949.949,0,0,0,.319.082,1.012,1.012,0,0,0,.377-.055.894.894,0,0,0,.477-.469.858.858,0,0,0,0-.667.875.875,0,0,0-.79-.548.626.626,0,0,0,.1-.148.849.849,0,0,0,.013-.667.885.885,0,0,0-.472-.48.827.827,0,0,0-.667,0,.881.881,0,0,0-.477.466.916.916,0,0,0,0,.638,7.081,7.081,0,0,0-.835.59v-.029c.416-.98.943-2.242,1.407-3.32a7.582,7.582,0,0,1,4.846-3.918h0a.015.015,0,0,0,.016,0,1.756,1.756,0,0,1,1.362.377,10.66,10.66,0,0,1,3.837,5.27,7.7,7.7,0,0,0-1.816.427.358.358,0,0,0-.2.466.345.345,0,0,0,.311.221.412.412,0,0,0,.148-.018,6.824,6.824,0,0,1,1.958-.411c.443.111.527.264,1.009,1.27.161.348.358.79.635,1.318.912,1.758-.682,3.341-.972,3.6Zm-10.24-.374a.1.1,0,0,1,.047-.1.138.138,0,0,1,.113-.042.18.18,0,0,1,.111.05.184.184,0,0,1,.037.113.2.2,0,0,1-.05.111.209.209,0,0,1-.116.034.14.14,0,0,1-.108-.05.142.142,0,0,1-.037-.113Zm.329-2.108-.021-.013a.1.1,0,0,1,.058-.032h.026a.158.158,0,0,1,.148.142.155.155,0,0,1-.141.169h-.03a.425.425,0,0,0-.042-.256Zm-.445-2.308a.148.148,0,0,1,.087-.158.153.153,0,0,1,.2.079l0,.011a.194.194,0,0,1,0,.119.175.175,0,0,1-.087.079h-.029a.353.353,0,0,0-.179-.119Zm-13.678,50.065h0a8.3,8.3,0,0,1-2.675-.748,9.565,9.565,0,0,1-4.522-4.274c-1.283-2.4-4.1-4.279-7.541-5.049-2.055-.448-3.855-1.581-5.689-1.186l-.145.769c1.8-.464,3.613.659,5.681,1.117,3.238.722,5.881,2.474,7.07,4.682a10.379,10.379,0,0,0,3.307,3.736,15.868,15.868,0,0,1-5.312-2.991.356.356,0,0,0-.5.032.364.364,0,0,0,.034.509,17.612,17.612,0,0,0,8.432,3.9c-2.411.593-6.155,1.12-9.141-.2a28.489,28.489,0,0,1-6.158-4.479c-1.4-1.212-2.516-3.526-3.786-4.345l-.142.754c1.154.79,2.169,3.014,3.462,4.134a28.607,28.607,0,0,0,6.324,4.6,10.88,10.88,0,0,0,3.765.856,22.1,22.1,0,0,0,7.473-1.054l.116-.037a.244.244,0,0,0,.071-.058.22.22,0,0,0,.09-.063.329.329,0,0,0,.066-.145c0-.021.029-.04.032-.069a.132.132,0,0,0,0-.034v-.037a.34.34,0,0,0-.314-.311Zm-10.511-4.78a.345.345,0,0,0,.319-.158.353.353,0,0,0-.091-.491l-.007,0c-2.005-1.336-6.213-4.024-10.411-4.3l-.134.711c4.084.263,8.245,2.917,10.153,4.184A.333.333,0,0,0,434.913,177.344Z" transform="translate(-175.719 -35.308)" fill="#ff587a"/>
    <path id="Path_101" data-name="Path 101" d="M615.95,235.142a.352.352,0,0,0,.227-.063,6.1,6.1,0,0,1,1.979-.79.358.358,0,0,0-.137-.7,6.762,6.762,0,0,0-2.25.9.356.356,0,0,0-.092.495l0,0A.366.366,0,0,0,615.95,235.142Z" transform="translate(-328.591 -138.272)" fill="#ff587a"/>
    <path id="Path_102" data-name="Path 102" d="M589.313,209.354h.047a.356.356,0,0,0,.372-.287c.733-3.707,3.523-4.166,3.639-4.182a.358.358,0,0,0-.1-.709c-.034,0-3.407.527-4.24,4.743a.356.356,0,0,0,.261.43Z" transform="translate(-309.005 -116.615)" fill="#ff587a"/>
    <path id="Path_103" data-name="Path 103" d="M551.226,326.255a12.662,12.662,0,0,0,2.026.29,8.893,8.893,0,0,0,7.014-2.393.358.358,0,0,0-.026-.5.364.364,0,0,0-.506.026c-.116.126-2.9,3.1-8.353,1.881a.358.358,0,0,0-.2.689l.043.009Z" transform="translate(-280.946 -204.542)" fill="#ff587a"/>
    <path id="Path_104" data-name="Path 104" d="M616.406,321.779a1.332,1.332,0,0,0-.972.285,1.318,1.318,0,0,0,.68,2.356h.068a1.317,1.317,0,0,0,1.4-1.175A1.338,1.338,0,0,0,616.406,321.779Zm.464,1.391a.617.617,0,0,1-.68.527.6.6,0,0,1-.406-.221.587.587,0,0,1-.129-.453.606.606,0,0,1,.221-.414.621.621,0,0,1,.424-.129h.026a.62.62,0,0,1,.543.687Z" transform="translate(-328.079 -203.226)" fill="#ff587a"/>
    <path id="Path_105" data-name="Path 105" d="M400.567,136.028a1.318,1.318,0,0,0-.972.285,1.3,1.3,0,0,0-.49.891,1.317,1.317,0,0,0,1.157,1.461l.013,0a.343.343,0,0,0,.071.013,1.33,1.33,0,1,0,.221-2.651Zm.466,1.391a.631.631,0,0,1-.229.408.611.611,0,0,1-.993-.545.638.638,0,0,1,.227-.408.611.611,0,0,1,.416-.137h.037a.624.624,0,0,1,.543.682Z" transform="translate(-169.125 -66.42)" fill="#ff587a"/>
    <path id="Path_106" data-name="Path 106" d="M460.146,216.883a1.483,1.483,0,0,0-.986-.545,1.45,1.45,0,0,0-.43.018,1.476,1.476,0,0,0,.1,2.922.265.265,0,0,0,.076,0,1.483,1.483,0,0,0,1.241-2.408Zm-.39,1.009a.715.715,0,0,1-.148.372.743.743,0,0,1-.7.311.791.791,0,0,1-.511-.285.738.738,0,0,1-.163-.564.772.772,0,0,1,.79-.68h.05a.748.748,0,0,1,.527.285A.775.775,0,0,1,459.756,217.892Z" transform="translate(-212.143 -125.567)" fill="#ff587a"/>
    <path id="Path_107" data-name="Path 107" d="M471.078,132.9c-.263-.527-.472-.956-.635-1.3-.445-.962-.646-1.381-1.294-1.6a11.1,11.1,0,0,0-4.216-5.918,2.776,2.776,0,0,0-1.613-.527,7.078,7.078,0,0,0-3.2-3.742,4.325,4.325,0,0,0-2.927-.609,5.589,5.589,0,0,0-5.847-1.539,2.756,2.756,0,0,0-1.742,2.854c.163,2.7.145,3.839.132,4.163-.458.593-2.761,3.742-2.635,7.062a15.051,15.051,0,0,0,.527,3.252c-4.174,1.457-7.183,4.764-8.977,9.852a30.8,30.8,0,0,1,.79-5.642,22.572,22.572,0,0,0,.685-5.671v-.037c.656-5.162,5.038-7.57,5.892-7.992a1.514,1.514,0,0,0,.79.358h.076a1.518,1.518,0,1,0-1.418-1.681,1.5,1.5,0,0,0,.127.733,12.471,12.471,0,0,0-3.352,2.545,6.07,6.07,0,0,0-.348-3.953,1.087,1.087,0,0,0,.306-.609,1.072,1.072,0,0,0-.229-.791,1.013,1.013,0,0,0-.7-.385,1.025,1.025,0,0,0-.777.221,1.036,1.036,0,0,0-.4.706,1.083,1.083,0,0,0,.227.79,1.054,1.054,0,0,0,.709.387.177.177,0,0,0,.055,0,.62.62,0,0,0,.158-.026c.321.582.772,2.016-.013,4.885a10.494,10.494,0,0,0-1.457,3.091,6.171,6.171,0,0,0-.382-.783v-.042a1.449,1.449,0,0,1-.095-.14c-.187-.3-.387-.606-.614-.909a21.48,21.48,0,0,1-.282-8.7c.227-.6,1.742-4.066,6.682-4.382a5.418,5.418,0,0,0,4.511-2.569c1.03-1.317,1.831-2.371,5.36-1.478h.079a.266.266,0,0,0,.076,0,.263.263,0,0,0,.177-.095h.034a.316.316,0,0,0,.063-.221.127.127,0,0,0-.018-.063.309.309,0,0,0-.026-.116c-.04-.058-3.779-5.813-12.885-3.884a6.944,6.944,0,0,0-5.054,3.478c-1.895,3.618-.082,8.551.248,9.37a21.306,21.306,0,0,0,.042,7.531c-.64-.711-1.341-1.423-2.063-2.148-2.719-2.727-5.8-5.815-6.024-9.647-.4-6.827-.419-8.169-.414-8.213a11.424,11.424,0,0,0-1.054-5.138,7.955,7.955,0,0,0-5.32-4.361c-.082-.018-.158-.045-.242-.066-1.526-.414-2.751-.656-3.742-.856-3.2-.64-4.066-.812-6.277-4.4-.018-.029-.053-.045-.071-.069a.164.164,0,0,0-.055-.042.379.379,0,0,0-.227-.058h0l-.05.018A.312.312,0,0,0,412,93.9a.152.152,0,0,0-.037.061.177.177,0,0,0-.047.069l-.029.124c-1.183,4.479.975,8.7,5.655,11a13.457,13.457,0,0,0,2.163.859,14.721,14.721,0,0,0,2.371.427,10.66,10.66,0,0,1,4.187,1.2,21.224,21.224,0,0,1,2.219,1.318c.016.551.087,2.437.419,8.06.171,2.877,1.789,5.3,3.7,7.462a32.077,32.077,0,0,0-5.007-2.725c-.319-.646-2.437-4.48-6.63-4.659a7.971,7.971,0,0,0-2.387.279,12.385,12.385,0,0,1-9.963-1.628.351.351,0,0,0-.4-.018.358.358,0,0,0-.166.369c.018.079,1.346,6.414,6.727,7.294a5.731,5.731,0,0,0,.791.095c.187,0,.385.016.588.016a25.525,25.525,0,0,0,5.043-.5c.477-.105.912-.206,1.318-.3a11.223,11.223,0,0,1,4.651-.361,30.651,30.651,0,0,1,8.092,5.054,1.007,1.007,0,0,0-.3,0,2.975,2.975,0,0,0-1.162.527c-.675-.343-1.8.321-2.8.917l-.408.235c-.946.527-.988,1.953-.98,2.408a1.939,1.939,0,0,0-.43.685,1.247,1.247,0,0,1-.527.693.922.922,0,0,0-.43,1.1c.169.819,2.667,1.829,4.516,2.058.161.016.319.034.474.042a3.76,3.76,0,0,0,2.661-.669c.73.611,2.371,2.461,2.348,6.588h0a13.3,13.3,0,0,0,.527,7.378,15.184,15.184,0,0,1,.559,10.158c-.042.145-.1.264-.137.419v.029a12.466,12.466,0,0,1-1.689,3.194c2.163-5.452,1.162-12.442-2.69-16.461l-.047-.045c.047-.983.145-6.15-3.283-9.2a8.873,8.873,0,0,0-5.215-2.408,12.6,12.6,0,0,0-3.344.213c-.206.037-.4.069-.582.092a3.872,3.872,0,0,1-2.967-.735,2.77,2.77,0,0,1-.991-1.41.4.4,0,0,0-.116-.155.266.266,0,0,0-.032-.037.356.356,0,0,0-.263-.055h0c-.021,0-.037.026-.058.029a.4.4,0,0,0-.153.105c-.018.026-.018.063-.034.09a.859.859,0,0,0-.045.132,10.6,10.6,0,0,0,3.536,7.786,14.035,14.035,0,0,0,6.872,3.462h.026c4.1.79,5.873,2.311,5.992,2.416l.166.166c4.261,4.451,4.859,12.74,1.318,18.1a17.916,17.916,0,0,1-4.667,3.033c-1.887.87-3.162.669-4.743,1.173a7.932,7.932,0,0,0-.991.466l-.163.872c1.823-.877,3.652-.7,6.19-1.86a13.532,13.532,0,0,1,6.424-1.03,18.752,18.752,0,0,1,2.777.377,1.489,1.489,0,0,0,1.357,1.523h.076a1.555,1.555,0,0,0,1.318-2.524,1.512,1.512,0,0,0-1.054-.569,1.582,1.582,0,0,0-1.136.343,1.66,1.66,0,0,0-.422.527,17.875,17.875,0,0,0-6.479-.232,14.2,14.2,0,0,0,5.8-7.233c.569-.675,2.14-.511,4.116-.287a36.5,36.5,0,0,0,4.785.3c4.864-.1,8.677-4.88,8.769-7.923a.353.353,0,0,0-.2-.337.374.374,0,0,0-.39.047c-.021.026-2.875,2.358-8.269,1.789-3.863-.408-6.448.527-8.082,2.9a16.457,16.457,0,0,0-1.209-7.549,9.184,9.184,0,0,1-.614-2.221c1.623-5.844,4.672-9.578,9.054-11.13a16.5,16.5,0,0,0,.967,2.4c-1.318,1.436-.545,2.635.424,4.15a20.745,20.745,0,0,1,1.094,1.845c1,1.9,2.108,3.03,3.041,3.086a1.086,1.086,0,0,0,.227,0,1.183,1.183,0,0,0,.93-.759c1.054.675,2.812-.1,3.426-.406.743.527,3.454,2.287,5.37,1.339a5.478,5.478,0,0,0,2.635-2.6,2.619,2.619,0,0,0,1.792-2.332,3.016,3.016,0,0,1,1.368-1.926,2.836,2.836,0,0,0,1.157-1.465,2.8,2.8,0,0,0-.148-1.76A3.863,3.863,0,0,0,471.078,132.9ZM446.2,124.265a.79.79,0,0,1,.865-.709l.021,0a.8.8,0,0,1,.706.885.79.79,0,0,1-.865.709l-.021,0a.79.79,0,0,1-.709-.865Zm-5.209-1.275a.065.065,0,0,1-.018.055c-.018.018-.055-.016-.076-.04a.35.35,0,0,1-.066-.25.345.345,0,0,1,.353-.308h.021a.337.337,0,0,1,.232.119.353.353,0,0,1,.069.25c0,.05-.04.076-.055.108A.359.359,0,0,0,440.986,122.99Zm-2.951-10.854a6.3,6.3,0,0,1,4.566-3.109,16.506,16.506,0,0,1,4.337-.358,11.067,11.067,0,0,1,5.365,1.671,7.7,7.7,0,0,0-4.632-.719,6.473,6.473,0,0,0-4.15,2.408,5.142,5.142,0,0,1-.79.79.35.35,0,0,0-.082.489l.011.014a.34.34,0,0,0,.264.142.347.347,0,0,0,.229-.069,5.644,5.644,0,0,0,.906-.9,5.85,5.85,0,0,1,3.755-2.171c2.024-.448,4.269.606,5.649,1.449a4.259,4.259,0,0,0-4.451,2.032,4.771,4.771,0,0,1-4,2.292,8.317,8.317,0,0,0-5.95,2.743,10.674,10.674,0,0,1,2.039-3.323.364.364,0,0,0-.016-.506.359.359,0,0,0-.506.021l0,0a11.9,11.9,0,0,0-2.635,4.84C437.424,118.123,436.689,114.71,438.035,112.136Zm-17.217-9.122a5.955,5.955,0,0,1,.656.184,13.056,13.056,0,0,1,5.415,3.265,8.389,8.389,0,0,1,.941,1.18c-.432-.263-.835-.487-1.215-.677a11.331,11.331,0,0,0-4.464-1.3,13.915,13.915,0,0,1-2-.329,11.977,11.977,0,0,1-2.311-.885c-3.781-1.863-5.771-5.054-5.534-8.569a9.6,9.6,0,0,0,6.111,6.224h.069a.353.353,0,0,0,.111-.7,8.662,8.662,0,0,1-5.512-5.465c1.681,2.232,2.9,2.487,5.6,3.028,1.007.208,2.258.461,3.837.885l.1.026A7.354,7.354,0,0,1,427.8,104.5a9.928,9.928,0,0,1,.635,2.746,9.723,9.723,0,0,0-1.191-1.478,13.682,13.682,0,0,0-5.465-3.244c-.456-.14-.751-.216-.79-.227a.361.361,0,0,0-.155.7ZM418.4,120.041a24.177,24.177,0,0,1,2.435.321,28.119,28.119,0,0,1,4.279,1.123,15.09,15.09,0,0,0-2.79.458c-.424.1-.859.208-1.336.306a24.818,24.818,0,0,1-4.856.482,7.245,7.245,0,0,1-1.523-.148c-3.613-.735-5.115-4.166-5.636-5.8a13.066,13.066,0,0,0,5.412,1.647,13.262,13.262,0,0,0,4.364-.414,7.348,7.348,0,0,1,2.053-.263,7.077,7.077,0,0,1,5.7,3.5,29.683,29.683,0,0,0-5.858-1.644c-.722-.119-1.447-.213-2.182-.264h-.016a.349.349,0,1,0-.05.7Zm12.529,9.581.416-.242a11.614,11.614,0,0,1,1.547-.79,9.35,9.35,0,0,0-1.133,1.275c-.1.134-.163.242-.24.358a6.269,6.269,0,0,0-1.178.582,1.574,1.574,0,0,1,.588-1.183Zm2.667,5.663a8.251,8.251,0,0,1-4.68-1.539c-.047-.235-.047-.235.148-.377a1.939,1.939,0,0,0,.775-1.054,2.25,2.25,0,0,1,1.13-1.078,4.423,4.423,0,0,0-.174.588c-.053.2-.111.43-.206.725a.925.925,0,0,0,.361,1.007,8.526,8.526,0,0,0,4.176,1.4A3.161,3.161,0,0,1,433.6,135.284Zm2.179-1.054a7.749,7.749,0,0,1-4.342-1.194c-.113-.1-.177-.2-.161-.25.1-.319.158-.559.216-.79a3.889,3.889,0,0,1,.848-1.726,5.887,5.887,0,0,1,2.714-2.242.577.577,0,0,1,.148,0,.344.344,0,0,1,.195.061,8.207,8.207,0,0,1,1.07,4.767c-.047.506-.213,1.162-.685,1.373Zm.559.54c.024-.042.055-.069.076-.1a2.514,2.514,0,0,0,.767-1.731,10.317,10.317,0,0,0-.759-4.5,18.344,18.344,0,0,1,2.269,2.751,4.9,4.9,0,0,1,.706,1.792,19.407,19.407,0,0,1-.646,6.087c-.018.074-.029.15-.047.227a7.473,7.473,0,0,0-2.364-4.53Zm-2.324,11.114a16.739,16.739,0,0,0-6.324-4.158,6.447,6.447,0,0,0-.872-.216.382.382,0,0,0-.4.314.361.361,0,0,0,.314.4,5.309,5.309,0,0,1,1.078.311,14.949,14.949,0,0,1,3.966,2.348,18.7,18.7,0,0,0-3.539-1.02l-.264-.061a13.207,13.207,0,0,1-7.012-3.971h0a9.955,9.955,0,0,1-2.14-3.731,9.96,9.96,0,0,0,1.718,1.937,14.718,14.718,0,0,0,4.316,2.6.354.354,0,0,0,.1.021.358.358,0,0,0,.148-.693,13.742,13.742,0,0,1-5.007-3.394,8.186,8.186,0,0,1-.87-1.175,5.075,5.075,0,0,0,.559.292,4.841,4.841,0,0,0,2.617.332c.184-.032.385-.061.588-.092a11.205,11.205,0,0,1,3.454-.171h0a8.344,8.344,0,0,1,4.508,2.19c2.69,2.364,3.046,6.266,3.067,7.939Zm7.086,22.274a.811.811,0,0,1,.308-.559.839.839,0,0,1,.574-.184h.05a.864.864,0,0,1,.564.316.828.828,0,0,1,.174.617.843.843,0,0,1-.922.735.824.824,0,0,1-.744-.9c0-.01,0-.019,0-.029Zm3.078-11.006a.351.351,0,0,0,.323-.376v-.014a.366.366,0,0,0-.39-.327,7.045,7.045,0,0,0-3.494,1.536c1.336-2.719,3.6-3.842,7.238-3.623.248.016.5.032.748.058a13.05,13.05,0,0,0,8.126-1.481c-.609,2.748-3.884,6.4-7.981,6.474a34.949,34.949,0,0,1-4.685-.287A13.866,13.866,0,0,0,440.6,159a6.184,6.184,0,0,1,3.578-1.847Zm6.279-33.465h0c0-.675-.047-1.681-.14-3.194a2.032,2.032,0,0,1,1.3-2.155,3.572,3.572,0,0,1,1.6-.235,5.294,5.294,0,0,1,3.162,1.378,6.023,6.023,0,0,0-1.507,1.075.358.358,0,0,0,0,.507l0,0a.348.348,0,0,0,.224.1.377.377,0,0,0,.282-.105,4.477,4.477,0,0,1,1.744-1.1h.029a3.573,3.573,0,0,1,2.606.5,6.351,6.351,0,0,1,2.846,3.291,8.373,8.373,0,0,0-4.962,4.216c-.527,1.233-1.146,2.7-1.581,3.718-.69,1.318-1.2,1.549-1.457,1.557a.9.9,0,0,1-.64-.432c-.7-1.207-3.61-6.161-3.5-9.136Zm8.092,7.879a.87.87,0,0,0-.134.7,14.573,14.573,0,0,0-2.224,1.215,5.666,5.666,0,0,1,2.087-1.968.885.885,0,0,0,.237.055Zm-.124-.877a.4.4,0,0,1,0-.05.184.184,0,0,1,.087-.079.16.16,0,0,1,.066-.018.121.121,0,0,1,.055.018.174.174,0,0,1,.087.082.138.138,0,0,1,0,.119.172.172,0,0,1-.024.026.325.325,0,0,0-.269-.108Zm-10.6,1.02c-.105-2.53,1.407-5.054,2.148-6.129a30.123,30.123,0,0,0,3.386,7.552,2.3,2.3,0,0,1,.29.648,25.663,25.663,0,0,0-4.358,3.663A15.7,15.7,0,0,1,447.824,131.709Zm6.19,13.947c-.079.332-.229.738-.527.775-.527.047-1.557-.838-2.535-2.7-.379-.733-.79-1.354-1.125-1.895-1.022-1.594-1.491-2.327-.335-3.444,0-.013,0-.037.016-.047a.448.448,0,0,0,.053-.047c.456-.893,2.543-2.527,4.039-3.6l.4,1.012a17.162,17.162,0,0,1-1.5,4.242.35.35,0,0,0,.14.475l.013.007a.386.386,0,0,0,.137.042.366.366,0,0,0,.345-.2,21.371,21.371,0,0,0,1.341-3.378l.44,1.088c.092.343.2.79.321,1.333.037.179.082.377.126.577a2.459,2.459,0,0,1,.069.714,2.661,2.661,0,0,1-1.415,2.037.369.369,0,0,0-.155.485.353.353,0,0,0,.3.192.335.335,0,0,0,.179-.037,3.561,3.561,0,0,0,1.481-1.5,2.527,2.527,0,0,1-.951,2.25,2.162,2.162,0,0,0-.864,1.615Zm.719-.058a1.455,1.455,0,0,1,.625-1.03,3.339,3.339,0,0,0,.956-1.3,8.117,8.117,0,0,0,1.094,2.161c-.688.316-2.108.843-2.677.169Zm14.809-6.754c-.071.361-.461.682-.914,1.054a3.678,3.678,0,0,0-1.621,2.406,1.848,1.848,0,0,1-1.37,1.744,4.867,4.867,0,0,1-2.066-.609.359.359,0,0,0-.353.624,6.209,6.209,0,0,0,1.9.656,4.937,4.937,0,0,1-2.132,1.947c-1.726.859-4.54-1.207-4.783-1.383a9.1,9.1,0,0,1-1.676-3.715,1.9,1.9,0,0,0-.032-.414.3.3,0,0,0-.148-.242c-.15-.619-.292-1.22-.408-1.747s-.221-.97-.314-1.318l.047-1.5c.527.39.988.735,1.03.759a6.854,6.854,0,0,0,4.777,1.945,21.477,21.477,0,0,0,7.992-1.431,2.053,2.053,0,0,1,.066,1.225Zm-.084-1.995c-.54.221-8.4,3.223-11.987,0a3.306,3.306,0,0,0,.44.069,2.9,2.9,0,0,0,.69-.042,1.158,1.158,0,0,0,.124.2.843.843,0,0,0,.588.282.748.748,0,0,0,.638-.221.872.872,0,0,0,.07-1.231l0,0a.775.775,0,0,0-.611-.285.856.856,0,0,0-.625.224.951.951,0,0,0-.216.319,2.058,2.058,0,0,1-1.992-.627c.1.013.206.047.311.053a4.543,4.543,0,0,0,2.108-.477.881.881,0,0,0,.564.264.736.736,0,0,0,.132,0,.88.88,0,0,0,.588-.308.87.87,0,0,0,.195-.646.88.88,0,0,0-.316-.59.854.854,0,0,0-.635-.2.88.88,0,0,0-.6.316.851.851,0,0,0-.177.5c-.572.264-1.818.756-2.688.153a.154.154,0,0,1-.09-.018,11.185,11.185,0,0,1,2.9-1.723.949.949,0,0,0,.319.082,1.012,1.012,0,0,0,.377-.055.894.894,0,0,0,.477-.469.858.858,0,0,0,0-.667.875.875,0,0,0-.79-.548.626.626,0,0,0,.1-.148.849.849,0,0,0,.013-.667.885.885,0,0,0-.472-.48.827.827,0,0,0-.667,0,.881.881,0,0,0-.477.466.916.916,0,0,0,0,.638,7.081,7.081,0,0,0-.835.59v-.029c.416-.98.943-2.242,1.407-3.32a7.582,7.582,0,0,1,4.846-3.918h0a.015.015,0,0,0,.016,0,1.756,1.756,0,0,1,1.362.377,10.66,10.66,0,0,1,3.837,5.27,7.7,7.7,0,0,0-1.816.427.358.358,0,0,0-.2.466.345.345,0,0,0,.311.221.412.412,0,0,0,.148-.018,6.824,6.824,0,0,1,1.958-.411c.443.111.527.264,1.009,1.27.161.348.358.79.635,1.318.912,1.758-.682,3.341-.972,3.6Zm-10.24-.374a.1.1,0,0,1,.047-.1.138.138,0,0,1,.113-.042.18.18,0,0,1,.111.05.184.184,0,0,1,.037.113.2.2,0,0,1-.05.111.209.209,0,0,1-.116.034.14.14,0,0,1-.108-.05.142.142,0,0,1-.037-.113Zm.329-2.108-.021-.013a.1.1,0,0,1,.058-.032h.026a.158.158,0,0,1,.148.142.155.155,0,0,1-.141.169h-.03a.425.425,0,0,0-.042-.256Zm-.445-2.308a.148.148,0,0,1,.087-.158.153.153,0,0,1,.2.079l0,.011a.194.194,0,0,1,0,.119.175.175,0,0,1-.087.079h-.029a.353.353,0,0,0-.179-.119Zm-13.678,50.065h0a8.3,8.3,0,0,1-2.675-.748,9.565,9.565,0,0,1-4.522-4.274c-1.283-2.4-4.1-4.279-7.541-5.049-2.055-.448-3.855-1.581-5.689-1.186l-.145.769c1.8-.464,3.613.659,5.681,1.117,3.238.722,5.881,2.474,7.07,4.682a10.379,10.379,0,0,0,3.307,3.736,15.868,15.868,0,0,1-5.312-2.991.356.356,0,0,0-.5.032.364.364,0,0,0,.034.509,17.612,17.612,0,0,0,8.432,3.9c-2.411.593-6.155,1.12-9.141-.2a28.489,28.489,0,0,1-6.158-4.479c-1.4-1.212-2.516-3.526-3.786-4.345l-.142.754c1.154.79,2.169,3.014,3.462,4.134a28.607,28.607,0,0,0,6.324,4.6,10.88,10.88,0,0,0,3.765.856,22.1,22.1,0,0,0,7.473-1.054l.116-.037a.244.244,0,0,0,.071-.058.22.22,0,0,0,.09-.063.329.329,0,0,0,.066-.145c0-.021.029-.04.032-.069a.132.132,0,0,0,0-.034v-.037a.34.34,0,0,0-.314-.311Zm-10.511-4.78a.345.345,0,0,0,.319-.158.353.353,0,0,0-.091-.491l-.007,0c-2.005-1.336-6.213-4.024-10.411-4.3l-.134.711c4.084.263,8.245,2.917,10.153,4.184A.333.333,0,0,0,434.913,177.344Z" transform="translate(-175.719 -35.308)" fill="#ff587a"/>
    <path id="Path_108" data-name="Path 108" d="M615.95,235.142a.352.352,0,0,0,.227-.063,6.1,6.1,0,0,1,1.979-.79.358.358,0,0,0-.137-.7,6.762,6.762,0,0,0-2.25.9.356.356,0,0,0-.092.495l0,0A.366.366,0,0,0,615.95,235.142Z" transform="translate(-328.591 -138.272)" fill="#ff587a"/>
    <path id="Path_109" data-name="Path 109" d="M589.313,209.354h.047a.356.356,0,0,0,.372-.287c.733-3.707,3.523-4.166,3.639-4.182a.358.358,0,0,0-.1-.709c-.034,0-3.407.527-4.24,4.743a.356.356,0,0,0,.261.43Z" transform="translate(-309.005 -116.615)" fill="#ff587a"/>
    <path id="Path_110" data-name="Path 110" d="M551.226,326.255a12.662,12.662,0,0,0,2.026.29,8.893,8.893,0,0,0,7.014-2.393.358.358,0,0,0-.026-.5.364.364,0,0,0-.506.026c-.116.126-2.9,3.1-8.353,1.881a.358.358,0,0,0-.2.689l.043.009Z" transform="translate(-280.946 -204.542)" fill="#ff587a"/>
    <path id="Path_111" data-name="Path 111" d="M616.406,321.779a1.332,1.332,0,0,0-.972.285,1.318,1.318,0,0,0,.68,2.356h.068a1.317,1.317,0,0,0,1.4-1.175A1.338,1.338,0,0,0,616.406,321.779Zm.464,1.391a.617.617,0,0,1-.68.527.6.6,0,0,1-.406-.221.587.587,0,0,1-.129-.453.606.606,0,0,1,.221-.414.621.621,0,0,1,.424-.129h.026a.62.62,0,0,1,.543.687Z" transform="translate(-328.079 -203.226)" fill="#ff587a"/>
    <path id="Path_112" data-name="Path 112" d="M400.567,136.028a1.318,1.318,0,0,0-.972.285,1.3,1.3,0,0,0-.49.891,1.317,1.317,0,0,0,1.157,1.461l.013,0a.343.343,0,0,0,.071.013,1.33,1.33,0,1,0,.221-2.651Zm.466,1.391a.631.631,0,0,1-.229.408.611.611,0,0,1-.993-.545.638.638,0,0,1,.227-.408.611.611,0,0,1,.416-.137h.037a.624.624,0,0,1,.543.682Z" transform="translate(-169.125 -66.42)" fill="#ff587a"/>
    <path id="Path_113" data-name="Path 113" d="M460.146,216.883a1.483,1.483,0,0,0-.986-.545,1.45,1.45,0,0,0-.43.018,1.476,1.476,0,0,0,.1,2.922.265.265,0,0,0,.076,0,1.483,1.483,0,0,0,1.241-2.408Zm-.39,1.009a.715.715,0,0,1-.148.372.743.743,0,0,1-.7.311.791.791,0,0,1-.511-.285.738.738,0,0,1-.163-.564.772.772,0,0,1,.79-.68h.05a.748.748,0,0,1,.527.285A.775.775,0,0,1,459.756,217.892Z" transform="translate(-212.143 -125.567)" fill="#ff587a"/>
    <path id="Path_114" data-name="Path 114" d="M471.078,132.9c-.263-.527-.472-.956-.635-1.3-.445-.962-.646-1.381-1.294-1.6a11.1,11.1,0,0,0-4.216-5.918,2.776,2.776,0,0,0-1.613-.527,7.078,7.078,0,0,0-3.2-3.742,4.325,4.325,0,0,0-2.927-.609,5.589,5.589,0,0,0-5.847-1.539,2.756,2.756,0,0,0-1.742,2.854c.163,2.7.145,3.839.132,4.163-.458.593-2.761,3.742-2.635,7.062a15.051,15.051,0,0,0,.527,3.252c-4.174,1.457-7.183,4.764-8.977,9.852a30.8,30.8,0,0,1,.79-5.642,22.572,22.572,0,0,0,.685-5.671v-.037c.656-5.162,5.038-7.57,5.892-7.992a1.514,1.514,0,0,0,.79.358h.076a1.518,1.518,0,1,0-1.418-1.681,1.5,1.5,0,0,0,.127.733,12.471,12.471,0,0,0-3.352,2.545,6.07,6.07,0,0,0-.348-3.953,1.087,1.087,0,0,0,.306-.609,1.072,1.072,0,0,0-.229-.791,1.013,1.013,0,0,0-.7-.385,1.025,1.025,0,0,0-.777.221,1.036,1.036,0,0,0-.4.706,1.083,1.083,0,0,0,.227.79,1.054,1.054,0,0,0,.709.387.177.177,0,0,0,.055,0,.62.62,0,0,0,.158-.026c.321.582.772,2.016-.013,4.885a10.494,10.494,0,0,0-1.457,3.091,6.171,6.171,0,0,0-.382-.783v-.042a1.449,1.449,0,0,1-.095-.14c-.187-.3-.387-.606-.614-.909a21.48,21.48,0,0,1-.282-8.7c.227-.6,1.742-4.066,6.682-4.382a5.418,5.418,0,0,0,4.511-2.569c1.03-1.317,1.831-2.371,5.36-1.478h.079a.266.266,0,0,0,.076,0,.263.263,0,0,0,.177-.095h.034a.316.316,0,0,0,.063-.221.127.127,0,0,0-.018-.063.309.309,0,0,0-.026-.116c-.04-.058-3.779-5.813-12.885-3.884a6.944,6.944,0,0,0-5.054,3.478c-1.895,3.618-.082,8.551.248,9.37a21.306,21.306,0,0,0,.042,7.531c-.64-.711-1.341-1.423-2.063-2.148-2.719-2.727-5.8-5.815-6.024-9.647-.4-6.827-.419-8.169-.414-8.213a11.424,11.424,0,0,0-1.054-5.138,7.955,7.955,0,0,0-5.32-4.361c-.082-.018-.158-.045-.242-.066-1.526-.414-2.751-.656-3.742-.856-3.2-.64-4.066-.812-6.277-4.4-.018-.029-.053-.045-.071-.069a.164.164,0,0,0-.055-.042.379.379,0,0,0-.227-.058h0l-.05.018A.312.312,0,0,0,412,93.9a.152.152,0,0,0-.037.061.177.177,0,0,0-.047.069l-.029.124c-1.183,4.479.975,8.7,5.655,11a13.457,13.457,0,0,0,2.163.859,14.721,14.721,0,0,0,2.371.427,10.66,10.66,0,0,1,4.187,1.2,21.224,21.224,0,0,1,2.219,1.318c.016.551.087,2.437.419,8.06.171,2.877,1.789,5.3,3.7,7.462a32.077,32.077,0,0,0-5.007-2.725c-.319-.646-2.437-4.48-6.63-4.659a7.971,7.971,0,0,0-2.387.279,12.385,12.385,0,0,1-9.963-1.628.351.351,0,0,0-.4-.018.358.358,0,0,0-.166.369c.018.079,1.346,6.414,6.727,7.294a5.731,5.731,0,0,0,.791.095c.187,0,.385.016.588.016a25.525,25.525,0,0,0,5.043-.5c.477-.105.912-.206,1.318-.3a11.223,11.223,0,0,1,4.651-.361,30.651,30.651,0,0,1,8.092,5.054,1.007,1.007,0,0,0-.3,0,2.975,2.975,0,0,0-1.162.527c-.675-.343-1.8.321-2.8.917l-.408.235c-.946.527-.988,1.953-.98,2.408a1.939,1.939,0,0,0-.43.685,1.247,1.247,0,0,1-.527.693.922.922,0,0,0-.43,1.1c.169.819,2.667,1.829,4.516,2.058.161.016.319.034.474.042a3.76,3.76,0,0,0,2.661-.669c.73.611,2.371,2.461,2.348,6.588h0a13.3,13.3,0,0,0,.527,7.378,15.184,15.184,0,0,1,.559,10.158c-.042.145-.1.264-.137.419v.029a12.466,12.466,0,0,1-1.689,3.194c2.163-5.452,1.162-12.442-2.69-16.461l-.047-.045c.047-.983.145-6.15-3.283-9.2a8.873,8.873,0,0,0-5.215-2.408,12.6,12.6,0,0,0-3.344.213c-.206.037-.4.069-.582.092a3.872,3.872,0,0,1-2.967-.735,2.77,2.77,0,0,1-.991-1.41.4.4,0,0,0-.116-.155.266.266,0,0,0-.032-.037.356.356,0,0,0-.263-.055h0c-.021,0-.037.026-.058.029a.4.4,0,0,0-.153.105c-.018.026-.018.063-.034.09a.859.859,0,0,0-.045.132,10.6,10.6,0,0,0,3.536,7.786,14.035,14.035,0,0,0,6.872,3.462h.026c4.1.79,5.873,2.311,5.992,2.416l.166.166c4.261,4.451,4.859,12.74,1.318,18.1a17.916,17.916,0,0,1-4.667,3.033c-1.887.87-3.162.669-4.743,1.173a7.932,7.932,0,0,0-.991.466l-.163.872c1.823-.877,3.652-.7,6.19-1.86a13.532,13.532,0,0,1,6.424-1.03,18.752,18.752,0,0,1,2.777.377,1.489,1.489,0,0,0,1.357,1.523h.076a1.555,1.555,0,0,0,1.318-2.524,1.512,1.512,0,0,0-1.054-.569,1.582,1.582,0,0,0-1.136.343,1.66,1.66,0,0,0-.422.527,17.875,17.875,0,0,0-6.479-.232,14.2,14.2,0,0,0,5.8-7.233c.569-.675,2.14-.511,4.116-.287a36.5,36.5,0,0,0,4.785.3c4.864-.1,8.677-4.88,8.769-7.923a.353.353,0,0,0-.2-.337.374.374,0,0,0-.39.047c-.021.026-2.875,2.358-8.269,1.789-3.863-.408-6.448.527-8.082,2.9a16.457,16.457,0,0,0-1.209-7.549,9.184,9.184,0,0,1-.614-2.221c1.623-5.844,4.672-9.578,9.054-11.13a16.5,16.5,0,0,0,.967,2.4c-1.318,1.436-.545,2.635.424,4.15a20.745,20.745,0,0,1,1.094,1.845c1,1.9,2.108,3.03,3.041,3.086a1.086,1.086,0,0,0,.227,0,1.183,1.183,0,0,0,.93-.759c1.054.675,2.812-.1,3.426-.406.743.527,3.454,2.287,5.37,1.339a5.478,5.478,0,0,0,2.635-2.6,2.619,2.619,0,0,0,1.792-2.332,3.016,3.016,0,0,1,1.368-1.926,2.836,2.836,0,0,0,1.157-1.465,2.8,2.8,0,0,0-.148-1.76A3.863,3.863,0,0,0,471.078,132.9ZM446.2,124.265a.79.79,0,0,1,.865-.709l.021,0a.8.8,0,0,1,.706.885.79.79,0,0,1-.865.709l-.021,0a.79.79,0,0,1-.709-.865Zm-5.209-1.275a.065.065,0,0,1-.018.055c-.018.018-.055-.016-.076-.04a.35.35,0,0,1-.066-.25.345.345,0,0,1,.353-.308h.021a.337.337,0,0,1,.232.119.353.353,0,0,1,.069.25c0,.05-.04.076-.055.108A.359.359,0,0,0,440.986,122.99Zm-2.951-10.854a6.3,6.3,0,0,1,4.566-3.109,16.506,16.506,0,0,1,4.337-.358,11.067,11.067,0,0,1,5.365,1.671,7.7,7.7,0,0,0-4.632-.719,6.473,6.473,0,0,0-4.15,2.408,5.142,5.142,0,0,1-.79.79.35.35,0,0,0-.082.489l.011.014a.34.34,0,0,0,.264.142.347.347,0,0,0,.229-.069,5.644,5.644,0,0,0,.906-.9,5.85,5.85,0,0,1,3.755-2.171c2.024-.448,4.269.606,5.649,1.449a4.259,4.259,0,0,0-4.451,2.032,4.771,4.771,0,0,1-4,2.292,8.317,8.317,0,0,0-5.95,2.743,10.674,10.674,0,0,1,2.039-3.323.364.364,0,0,0-.016-.506.359.359,0,0,0-.506.021l0,0a11.9,11.9,0,0,0-2.635,4.84C437.424,118.123,436.689,114.71,438.035,112.136Zm-17.217-9.122a5.955,5.955,0,0,1,.656.184,13.056,13.056,0,0,1,5.415,3.265,8.389,8.389,0,0,1,.941,1.18c-.432-.263-.835-.487-1.215-.677a11.331,11.331,0,0,0-4.464-1.3,13.915,13.915,0,0,1-2-.329,11.977,11.977,0,0,1-2.311-.885c-3.781-1.863-5.771-5.054-5.534-8.569a9.6,9.6,0,0,0,6.111,6.224h.069a.353.353,0,0,0,.111-.7,8.662,8.662,0,0,1-5.512-5.465c1.681,2.232,2.9,2.487,5.6,3.028,1.007.208,2.258.461,3.837.885l.1.026A7.354,7.354,0,0,1,427.8,104.5a9.928,9.928,0,0,1,.635,2.746,9.723,9.723,0,0,0-1.191-1.478,13.682,13.682,0,0,0-5.465-3.244c-.456-.14-.751-.216-.79-.227a.361.361,0,0,0-.155.7ZM418.4,120.041a24.177,24.177,0,0,1,2.435.321,28.119,28.119,0,0,1,4.279,1.123,15.09,15.09,0,0,0-2.79.458c-.424.1-.859.208-1.336.306a24.818,24.818,0,0,1-4.856.482,7.245,7.245,0,0,1-1.523-.148c-3.613-.735-5.115-4.166-5.636-5.8a13.066,13.066,0,0,0,5.412,1.647,13.262,13.262,0,0,0,4.364-.414,7.348,7.348,0,0,1,2.053-.263,7.077,7.077,0,0,1,5.7,3.5,29.683,29.683,0,0,0-5.858-1.644c-.722-.119-1.447-.213-2.182-.264h-.016a.349.349,0,1,0-.05.7Zm12.529,9.581.416-.242a11.614,11.614,0,0,1,1.547-.79,9.35,9.35,0,0,0-1.133,1.275c-.1.134-.163.242-.24.358a6.269,6.269,0,0,0-1.178.582,1.574,1.574,0,0,1,.588-1.183Zm2.667,5.663a8.251,8.251,0,0,1-4.68-1.539c-.047-.235-.047-.235.148-.377a1.939,1.939,0,0,0,.775-1.054,2.25,2.25,0,0,1,1.13-1.078,4.423,4.423,0,0,0-.174.588c-.053.2-.111.43-.206.725a.925.925,0,0,0,.361,1.007,8.526,8.526,0,0,0,4.176,1.4A3.161,3.161,0,0,1,433.6,135.284Zm2.179-1.054a7.749,7.749,0,0,1-4.342-1.194c-.113-.1-.177-.2-.161-.25.1-.319.158-.559.216-.79a3.889,3.889,0,0,1,.848-1.726,5.887,5.887,0,0,1,2.714-2.242.577.577,0,0,1,.148,0,.344.344,0,0,1,.195.061,8.207,8.207,0,0,1,1.07,4.767c-.047.506-.213,1.162-.685,1.373Zm.559.54c.024-.042.055-.069.076-.1a2.514,2.514,0,0,0,.767-1.731,10.317,10.317,0,0,0-.759-4.5,18.344,18.344,0,0,1,2.269,2.751,4.9,4.9,0,0,1,.706,1.792,19.407,19.407,0,0,1-.646,6.087c-.018.074-.029.15-.047.227a7.473,7.473,0,0,0-2.364-4.53Zm-2.324,11.114a16.739,16.739,0,0,0-6.324-4.158,6.447,6.447,0,0,0-.872-.216.382.382,0,0,0-.4.314.361.361,0,0,0,.314.4,5.309,5.309,0,0,1,1.078.311,14.949,14.949,0,0,1,3.966,2.348,18.7,18.7,0,0,0-3.539-1.02l-.264-.061a13.207,13.207,0,0,1-7.012-3.971h0a9.955,9.955,0,0,1-2.14-3.731,9.96,9.96,0,0,0,1.718,1.937,14.718,14.718,0,0,0,4.316,2.6.354.354,0,0,0,.1.021.358.358,0,0,0,.148-.693,13.742,13.742,0,0,1-5.007-3.394,8.186,8.186,0,0,1-.87-1.175,5.075,5.075,0,0,0,.559.292,4.841,4.841,0,0,0,2.617.332c.184-.032.385-.061.588-.092a11.205,11.205,0,0,1,3.454-.171h0a8.344,8.344,0,0,1,4.508,2.19c2.69,2.364,3.046,6.266,3.067,7.939Zm7.086,22.274a.811.811,0,0,1,.308-.559.839.839,0,0,1,.574-.184h.05a.864.864,0,0,1,.564.316.828.828,0,0,1,.174.617.843.843,0,0,1-.922.735.824.824,0,0,1-.744-.9c0-.01,0-.019,0-.029Zm3.078-11.006a.351.351,0,0,0,.323-.376v-.014a.366.366,0,0,0-.39-.327,7.045,7.045,0,0,0-3.494,1.536c1.336-2.719,3.6-3.842,7.238-3.623.248.016.5.032.748.058a13.05,13.05,0,0,0,8.126-1.481c-.609,2.748-3.884,6.4-7.981,6.474a34.949,34.949,0,0,1-4.685-.287A13.866,13.866,0,0,0,440.6,159a6.184,6.184,0,0,1,3.578-1.847Zm6.279-33.465h0c0-.675-.047-1.681-.14-3.194a2.032,2.032,0,0,1,1.3-2.155,3.572,3.572,0,0,1,1.6-.235,5.294,5.294,0,0,1,3.162,1.378,6.023,6.023,0,0,0-1.507,1.075.358.358,0,0,0,0,.507l0,0a.348.348,0,0,0,.224.1.377.377,0,0,0,.282-.105,4.477,4.477,0,0,1,1.744-1.1h.029a3.573,3.573,0,0,1,2.606.5,6.351,6.351,0,0,1,2.846,3.291,8.373,8.373,0,0,0-4.962,4.216c-.527,1.233-1.146,2.7-1.581,3.718-.69,1.318-1.2,1.549-1.457,1.557a.9.9,0,0,1-.64-.432c-.7-1.207-3.61-6.161-3.5-9.136Zm8.092,7.879a.87.87,0,0,0-.134.7,14.573,14.573,0,0,0-2.224,1.215,5.666,5.666,0,0,1,2.087-1.968.885.885,0,0,0,.237.055Zm-.124-.877a.4.4,0,0,1,0-.05.184.184,0,0,1,.087-.079.16.16,0,0,1,.066-.018.121.121,0,0,1,.055.018.174.174,0,0,1,.087.082.138.138,0,0,1,0,.119.172.172,0,0,1-.024.026.325.325,0,0,0-.269-.108Zm-10.6,1.02c-.105-2.53,1.407-5.054,2.148-6.129a30.123,30.123,0,0,0,3.386,7.552,2.3,2.3,0,0,1,.29.648,25.663,25.663,0,0,0-4.358,3.663A15.7,15.7,0,0,1,447.824,131.709Zm6.19,13.947c-.079.332-.229.738-.527.775-.527.047-1.557-.838-2.535-2.7-.379-.733-.79-1.354-1.125-1.895-1.022-1.594-1.491-2.327-.335-3.444,0-.013,0-.037.016-.047a.448.448,0,0,0,.053-.047c.456-.893,2.543-2.527,4.039-3.6l.4,1.012a17.162,17.162,0,0,1-1.5,4.242.35.35,0,0,0,.14.475l.013.007a.386.386,0,0,0,.137.042.366.366,0,0,0,.345-.2,21.371,21.371,0,0,0,1.341-3.378l.44,1.088c.092.343.2.79.321,1.333.037.179.082.377.126.577a2.459,2.459,0,0,1,.069.714,2.661,2.661,0,0,1-1.415,2.037.369.369,0,0,0-.155.485.353.353,0,0,0,.3.192.335.335,0,0,0,.179-.037,3.561,3.561,0,0,0,1.481-1.5,2.527,2.527,0,0,1-.951,2.25,2.162,2.162,0,0,0-.864,1.615Zm.719-.058a1.455,1.455,0,0,1,.625-1.03,3.339,3.339,0,0,0,.956-1.3,8.117,8.117,0,0,0,1.094,2.161c-.688.316-2.108.843-2.677.169Zm14.809-6.754c-.071.361-.461.682-.914,1.054a3.678,3.678,0,0,0-1.621,2.406,1.848,1.848,0,0,1-1.37,1.744,4.867,4.867,0,0,1-2.066-.609.359.359,0,0,0-.353.624,6.209,6.209,0,0,0,1.9.656,4.937,4.937,0,0,1-2.132,1.947c-1.726.859-4.54-1.207-4.783-1.383a9.1,9.1,0,0,1-1.676-3.715,1.9,1.9,0,0,0-.032-.414.3.3,0,0,0-.148-.242c-.15-.619-.292-1.22-.408-1.747s-.221-.97-.314-1.318l.047-1.5c.527.39.988.735,1.03.759a6.854,6.854,0,0,0,4.777,1.945,21.477,21.477,0,0,0,7.992-1.431,2.053,2.053,0,0,1,.066,1.225Zm-.084-1.995c-.54.221-8.4,3.223-11.987,0a3.306,3.306,0,0,0,.44.069,2.9,2.9,0,0,0,.69-.042,1.158,1.158,0,0,0,.124.2.843.843,0,0,0,.588.282.748.748,0,0,0,.638-.221.872.872,0,0,0,.07-1.231l0,0a.775.775,0,0,0-.611-.285.856.856,0,0,0-.625.224.951.951,0,0,0-.216.319,2.058,2.058,0,0,1-1.992-.627c.1.013.206.047.311.053a4.543,4.543,0,0,0,2.108-.477.881.881,0,0,0,.564.264.736.736,0,0,0,.132,0,.88.88,0,0,0,.588-.308.87.87,0,0,0,.195-.646.88.88,0,0,0-.316-.59.854.854,0,0,0-.635-.2.88.88,0,0,0-.6.316.851.851,0,0,0-.177.5c-.572.264-1.818.756-2.688.153a.154.154,0,0,1-.09-.018,11.185,11.185,0,0,1,2.9-1.723.949.949,0,0,0,.319.082,1.012,1.012,0,0,0,.377-.055.894.894,0,0,0,.477-.469.858.858,0,0,0,0-.667.875.875,0,0,0-.79-.548.626.626,0,0,0,.1-.148.849.849,0,0,0,.013-.667.885.885,0,0,0-.472-.48.827.827,0,0,0-.667,0,.881.881,0,0,0-.477.466.916.916,0,0,0,0,.638,7.081,7.081,0,0,0-.835.59v-.029c.416-.98.943-2.242,1.407-3.32a7.582,7.582,0,0,1,4.846-3.918h0a.015.015,0,0,0,.016,0,1.756,1.756,0,0,1,1.362.377,10.66,10.66,0,0,1,3.837,5.27,7.7,7.7,0,0,0-1.816.427.358.358,0,0,0-.2.466.345.345,0,0,0,.311.221.412.412,0,0,0,.148-.018,6.824,6.824,0,0,1,1.958-.411c.443.111.527.264,1.009,1.27.161.348.358.79.635,1.318.912,1.758-.682,3.341-.972,3.6Zm-10.24-.374a.1.1,0,0,1,.047-.1.138.138,0,0,1,.113-.042.18.18,0,0,1,.111.05.184.184,0,0,1,.037.113.2.2,0,0,1-.05.111.209.209,0,0,1-.116.034.14.14,0,0,1-.108-.05.142.142,0,0,1-.037-.113Zm.329-2.108-.021-.013a.1.1,0,0,1,.058-.032h.026a.158.158,0,0,1,.148.142.155.155,0,0,1-.141.169h-.03a.425.425,0,0,0-.042-.256Zm-.445-2.308a.148.148,0,0,1,.087-.158.153.153,0,0,1,.2.079l0,.011a.194.194,0,0,1,0,.119.175.175,0,0,1-.087.079h-.029a.353.353,0,0,0-.179-.119Zm-13.678,50.065h0a8.3,8.3,0,0,1-2.675-.748,9.565,9.565,0,0,1-4.522-4.274c-1.283-2.4-4.1-4.279-7.541-5.049-2.055-.448-3.855-1.581-5.689-1.186l-.145.769c1.8-.464,3.613.659,5.681,1.117,3.238.722,5.881,2.474,7.07,4.682a10.379,10.379,0,0,0,3.307,3.736,15.868,15.868,0,0,1-5.312-2.991.356.356,0,0,0-.5.032.364.364,0,0,0,.034.509,17.612,17.612,0,0,0,8.432,3.9c-2.411.593-6.155,1.12-9.141-.2a28.489,28.489,0,0,1-6.158-4.479c-1.4-1.212-2.516-3.526-3.786-4.345l-.142.754c1.154.79,2.169,3.014,3.462,4.134a28.607,28.607,0,0,0,6.324,4.6,10.88,10.88,0,0,0,3.765.856,22.1,22.1,0,0,0,7.473-1.054l.116-.037a.244.244,0,0,0,.071-.058.22.22,0,0,0,.09-.063.329.329,0,0,0,.066-.145c0-.021.029-.04.032-.069a.132.132,0,0,0,0-.034v-.037a.34.34,0,0,0-.314-.311Zm-10.511-4.78a.345.345,0,0,0,.319-.158.353.353,0,0,0-.091-.491l-.007,0c-2.005-1.336-6.213-4.024-10.411-4.3l-.134.711c4.084.263,8.245,2.917,10.153,4.184A.333.333,0,0,0,434.913,177.344Z" transform="translate(-175.719 -35.308)" fill="#ff587a"/>
    <path id="Path_115" data-name="Path 115" d="M615.95,235.142a.352.352,0,0,0,.227-.063,6.1,6.1,0,0,1,1.979-.79.358.358,0,0,0-.137-.7,6.762,6.762,0,0,0-2.25.9.356.356,0,0,0-.092.495l0,0A.366.366,0,0,0,615.95,235.142Z" transform="translate(-328.591 -138.272)" fill="#ff587a"/>
    <path id="Path_116" data-name="Path 116" d="M589.313,209.354h.047a.356.356,0,0,0,.372-.287c.733-3.707,3.523-4.166,3.639-4.182a.358.358,0,0,0-.1-.709c-.034,0-3.407.527-4.24,4.743a.356.356,0,0,0,.261.43Z" transform="translate(-309.005 -116.615)" fill="#ff587a"/>
  </g>
</svg>
