<?xml version="1.0" encoding="UTF-8"?><svg id="Layer_1" xmlns="http://www.w3.org/2000/svg" xmlns:xlink="http://www.w3.org/1999/xlink" viewBox="0 0 567.59 204.89"><defs><style>.cls-1{fill:url(#linear-gradient-2);}.cls-2{fill:url(#linear-gradient-17);}.cls-3{fill:url(#linear-gradient-15);}.cls-4{fill:url(#linear-gradient-18);}.cls-5{fill:url(#linear-gradient-14);}.cls-6{fill:url(#linear-gradient-20);}.cls-7{fill:url(#linear-gradient-6);}.cls-8{isolation:isolate;}.cls-9{fill:#ff92b9;}.cls-10{fill:url(#linear-gradient-11);}.cls-11{fill:#e25a68;}.cls-12{fill:url(#linear-gradient-10);}.cls-13{fill:url(#linear-gradient-16);}.cls-14{fill:url(#linear-gradient-21);}.cls-15{fill:url(#linear-gradient-25);}.cls-16{fill:url(#linear-gradient-5);}.cls-17{fill:url(#linear-gradient-7);}.cls-18{fill:url(#linear-gradient-24);}.cls-19{fill:url(#linear-gradient-9);}.cls-20{fill:url(#linear-gradient-22);}.cls-21{fill:url(#linear-gradient-3);}.cls-22{fill:#ff587a;}.cls-23{fill:url(#linear-gradient);}.cls-24{fill:url(#linear-gradient-23);}.cls-25{fill:url(#linear-gradient-19);}.cls-26{fill:url(#linear-gradient-4);}.cls-27{fill:url(#linear-gradient-8);}.cls-28{fill:url(#linear-gradient-12);}.cls-29{fill:url(#linear-gradient-13);}</style><linearGradient id="linear-gradient" x1="91.12" y1="1306.88" x2="83.68" y2="1154.32" gradientTransform="translate(0 1331.17) scale(1 -1)" gradientUnits="userSpaceOnUse"><stop offset=".16" stop-color="#fe957a"/><stop offset=".61" stop-color="#fe6659"/><stop offset="1" stop-color="#ff587a"/></linearGradient><linearGradient id="linear-gradient-2" x1="42.35" y1="1309.25" x2="34.92" y2="1156.7" xlink:href="#linear-gradient"/><linearGradient id="linear-gradient-3" x1="114.36" y1="1305.74" x2="106.93" y2="1153.19" xlink:href="#linear-gradient"/><linearGradient id="linear-gradient-4" x1="76.45" y1="1307.59" x2="69.01" y2="1155.04" xlink:href="#linear-gradient"/><linearGradient id="linear-gradient-5" x1="127.69" y1="1305.1" x2="120.26" y2="1152.54" xlink:href="#linear-gradient"/><linearGradient id="linear-gradient-6" x1="150.04" y1="1304" x2="142.6" y2="1151.45" xlink:href="#linear-gradient"/><linearGradient id="linear-gradient-7" x1="51.72" y1="1308.8" x2="44.29" y2="1156.24" xlink:href="#linear-gradient"/><linearGradient id="linear-gradient-8" x1="79.12" y1="1307.46" x2="71.69" y2="1154.91" xlink:href="#linear-gradient"/><linearGradient id="linear-gradient-9" x1="107.72" y1="1306.07" x2="100.29" y2="1153.52" xlink:href="#linear-gradient"/><linearGradient id="linear-gradient-10" x1="148.4" y1="1304.09" x2="140.97" y2="1151.53" xlink:href="#linear-gradient"/><linearGradient id="linear-gradient-11" x1="137.97" y1="1304.59" x2="130.53" y2="1152.04" xlink:href="#linear-gradient"/><linearGradient id="linear-gradient-12" x1="127.69" y1="1305.1" x2="120.26" y2="1152.54" xlink:href="#linear-gradient"/><linearGradient id="linear-gradient-13" x1="150.04" y1="1304" x2="142.6" y2="1151.45" xlink:href="#linear-gradient"/><linearGradient id="linear-gradient-14" x1="51.72" y1="1308.8" x2="44.29" y2="1156.24" xlink:href="#linear-gradient"/><linearGradient id="linear-gradient-15" x1="79.12" y1="1307.46" x2="71.69" y2="1154.91" xlink:href="#linear-gradient"/><linearGradient id="linear-gradient-16" x1="107.72" y1="1306.07" x2="100.29" y2="1153.52" xlink:href="#linear-gradient"/><linearGradient id="linear-gradient-17" x1="148.4" y1="1304.09" x2="140.97" y2="1151.53" xlink:href="#linear-gradient"/><linearGradient id="linear-gradient-18" x1="137.97" y1="1304.59" x2="130.53" y2="1152.04" xlink:href="#linear-gradient"/><linearGradient id="linear-gradient-19" x1="127.69" y1="1305.1" x2="120.26" y2="1152.54" xlink:href="#linear-gradient"/><linearGradient id="linear-gradient-20" x1="150.04" y1="1304" x2="142.6" y2="1151.45" xlink:href="#linear-gradient"/><linearGradient id="linear-gradient-21" x1="51.72" y1="1308.8" x2="44.29" y2="1156.24" xlink:href="#linear-gradient"/><linearGradient id="linear-gradient-22" x1="79.12" y1="1307.46" x2="71.69" y2="1154.91" xlink:href="#linear-gradient"/><linearGradient id="linear-gradient-23" x1="107.72" y1="1306.07" x2="100.29" y2="1153.52" xlink:href="#linear-gradient"/><linearGradient id="linear-gradient-24" x1="148.4" y1="1304.09" x2="140.97" y2="1151.53" xlink:href="#linear-gradient"/><linearGradient id="linear-gradient-25" x1="137.97" y1="1304.59" x2="130.53" y2="1152.04" xlink:href="#linear-gradient"/></defs><g class="cls-8"><path class="cls-11" d="m251.41,187.26l5.94-15.48h2.12l6.36,15.48h-2.33l-1.91-4.67h-6.57l-1.7,4.67h-1.91Zm4.45-6.36h5.3l-1.7-4.24c-.42-1.27-.85-2.33-1.06-3.18-.21,1.06-.42,1.91-.85,2.97l-1.7,4.45Z"/><path class="cls-11" d="m267.31,187.26v-11.24h1.7v1.7c.85-1.27,1.91-1.91,3.6-1.91.64,0,1.27.21,1.91.42.64.21,1.06.64,1.27,1.06s.42.85.64,1.48v8.91h-1.91v-6.79c0-.85,0-1.27-.21-1.7s-.42-.64-.85-.85c-.42-.21-.85-.42-1.27-.42-.85,0-1.48.21-2.12.85s-.85,1.48-.85,2.97v6.15h-1.91v-.64Z"/><path class="cls-11" d="m279.4,173.9v-2.12h1.91v2.12h-1.91Zm0,13.36v-11.24h1.91v11.24h-1.91Z"/><path class="cls-11" d="m283.43,183.87l1.91-.21c0,.85.42,1.27.85,1.7s1.06.64,2.12.64c.85,0,1.48-.21,1.91-.64s.64-.85.64-1.27-.21-.85-.64-1.06c-.21-.21-.85-.42-1.91-.64-1.48-.42-2.33-.64-2.97-.85s-.85-.64-1.27-1.06c-.21-.42-.42-1.06-.42-1.48s.21-1.06.42-1.48c.21-.42.64-.85.85-1.06.21-.21.64-.42,1.27-.64s1.06-.21,1.7-.21c.85,0,1.7.21,2.33.42.64.21,1.06.64,1.48,1.06s.64,1.06.64,1.7l-1.91.21c0-.64-.42-1.06-.64-1.27-.42-.42-1.06-.42-1.7-.42-.85,0-1.48.21-1.91.42-.42.21-.64.64-.64,1.06,0,.21,0,.42.21.64s.42.42.64.42.85.21,1.7.42c1.27.42,2.33.64,2.76.85s.85.64,1.27,1.06c.21.42.42,1.06.42,1.7s-.21,1.27-.64,1.7c-.42.64-.85,1.06-1.7,1.27-.64.21-1.48.42-2.33.42-1.48,0-2.54-.21-3.39-.85s-.85-1.27-1.06-2.54Z"/><path class="cls-11" d="m294.88,187.26v-11.24h1.7v1.7c.42-.85.85-1.27,1.27-1.48s.85-.42,1.27-.42c.64,0,1.27.21,1.91.64l-.64,1.7c-.42-.21-.85-.42-1.48-.42-.42,0-.85.21-1.06.42-.42.21-.64.64-.64,1.06-.21.64-.21,1.48-.21,2.12v5.94h-2.12Z"/><path class="cls-11" d="m309.72,183.65l1.91.21c-.21,1.06-.85,2.12-1.7,2.76-.85.64-1.91.85-3.18.85-1.7,0-2.97-.42-3.82-1.48-1.06-1.06-1.48-2.33-1.48-4.24s.42-3.39,1.48-4.45,2.33-1.48,3.82-1.48,2.76.42,3.6,1.48,1.48,2.54,1.48,4.24v.42h-8.27c0,1.27.42,2.12,1.06,2.76s1.48,1.06,2.33,1.06c.64,0,1.27-.21,1.7-.64.42,0,.85-.64,1.06-1.48Zm-6.15-2.97h6.36c0-.85-.42-1.7-.64-2.12-.64-.64-1.48-1.06-2.33-1.06s-1.7.21-2.12.85c-.85.42-1.27,1.27-1.27,2.33Z"/><path class="cls-11" d="m321.81,183.65l1.91.21c-.21,1.06-.85,2.12-1.7,2.76-.85.64-1.91.85-3.18.85-1.7,0-2.97-.42-3.82-1.48-1.06-1.06-1.48-2.33-1.48-4.24s.42-3.39,1.48-4.45,2.33-1.48,3.82-1.48,2.76.42,3.6,1.48,1.48,2.54,1.48,4.24v.42h-8.27c0,1.27.42,2.12,1.06,2.76s1.48,1.06,2.33,1.06c.64,0,1.27-.21,1.7-.64.42,0,.85-.64,1.06-1.48Zm-6.15-2.97h6.36c0-.85-.42-1.7-.64-2.12-.64-.64-1.48-1.06-2.33-1.06s-1.7.21-2.12.85c-.85.42-1.27,1.27-1.27,2.33Z"/><path class="cls-11" d="m331.78,182.38l1.91-.21c0,.85.21,1.48.64,1.91s.85.85,1.48,1.27c.64.21,1.48.42,2.33.42s1.48-.21,2.12-.42,1.06-.64,1.27-1.06.42-.85.42-1.27-.21-.85-.42-1.27-.85-.64-1.48-.85c-.42-.21-1.27-.42-2.76-.85-1.48-.42-2.33-.64-2.97-1.06s-1.27-.85-1.7-1.48c-.42-.64-.64-1.27-.64-1.91,0-.85.21-1.48.64-2.12.42-.64,1.06-1.27,1.91-1.48.85-.42,1.7-.42,2.76-.42s2.12.21,2.97.64,1.48.85,2.12,1.7c.42.64.64,1.48.85,2.54l-1.91.21c0-1.06-.42-1.7-1.06-2.12s-1.48-.85-2.76-.85-2.12.21-2.76.64-.85,1.06-.85,1.7.21,1.06.64,1.27c.42.42,1.48.64,3.18,1.06s2.76.64,3.39,1.06c.85.42,1.48.85,1.91,1.48.42.64.64,1.27.64,2.12s-.21,1.7-.64,2.33c-.42.64-1.06,1.27-2.12,1.7-.85.42-1.91.64-2.97.64-1.48,0-2.54-.21-3.6-.64-.85-.42-1.7-1.06-2.33-1.91s-.21-1.91-.21-2.76Z"/><path class="cls-11" d="m346.62,187.26v-11.24h1.7v1.7c.42-.85.85-1.27,1.27-1.48s.85-.42,1.27-.42c.64,0,1.27.21,1.91.64l-.64,1.7c-.42-.21-.85-.42-1.48-.42-.42,0-.85.21-1.06.42-.42.21-.64.64-.64,1.06-.21.64-.21,1.48-.21,2.12v5.94h-2.12Z"/><path class="cls-11" d="m361.47,183.65l1.91.21c-.21,1.06-.85,2.12-1.7,2.76s-1.91.85-3.18.85c-1.7,0-2.97-.42-3.82-1.48-1.06-1.06-1.48-2.33-1.48-4.24s.42-3.39,1.48-4.45,2.33-1.48,3.82-1.48,2.76.42,3.6,1.48,1.48,2.54,1.48,4.24v.42h-8.27c0,1.27.42,2.12,1.06,2.76s1.48,1.06,2.33,1.06c.64,0,1.27-.21,1.7-.64.42,0,.85-.64,1.06-1.48Zm-6.15-2.97h6.36c0-.85-.42-1.7-.64-2.12-.64-.64-1.48-1.06-2.33-1.06s-1.7.21-2.12.85c-.85.42-1.27,1.27-1.27,2.33Z"/><path class="cls-11" d="m373.55,183.65l1.91.21c-.21,1.06-.85,2.12-1.7,2.76s-1.91.85-3.18.85c-1.7,0-2.97-.42-3.82-1.48-1.06-1.06-1.48-2.33-1.48-4.24s.42-3.39,1.48-4.45,2.33-1.48,3.82-1.48,2.76.42,3.6,1.48,1.48,2.54,1.48,4.24v.42h-8.27c0,1.27.42,2.12,1.06,2.76s1.48,1.06,2.33,1.06c.64,0,1.27-.21,1.7-.64.42,0,.64-.64,1.06-1.48Zm-6.36-2.97h6.36c0-.85-.42-1.7-.64-2.12-.64-.64-1.48-1.06-2.33-1.06s-1.7.21-2.12.85c-.85.42-1.06,1.27-1.27,2.33Z"/><path class="cls-11" d="m377.79,187.26v-11.24h1.7v1.7c.42-.85.85-1.27,1.27-1.48s.85-.42,1.27-.42c.64,0,1.27.21,1.91.64l-.64,1.7c-.42-.21-.85-.42-1.48-.42-.42,0-.85.21-1.06.42-.42.21-.64.64-.64,1.06-.21.64-.21,1.48-.21,2.12v5.94h-2.12Z"/><path class="cls-11" d="m392.43,185.99c-.64.64-1.48,1.06-2.12,1.27s-1.27.42-2.12.42c-1.27,0-2.12-.21-2.76-.85-.64-.64-1.06-1.27-1.06-2.33,0-.64.21-1.06.42-1.48s.64-.85,1.06-1.06.85-.42,1.27-.64c.42,0,.85-.21,1.7-.21,1.48-.21,2.76-.42,3.39-.64v-.42c0-.85-.21-1.27-.64-1.7-.42-.42-1.27-.64-2.12-.64s-1.48.21-1.91.42c-.42.21-.64.85-.85,1.7l-1.91-.21c.21-.85.42-1.48.85-1.91.42-.42.85-.85,1.7-1.06.64-.21,1.48-.42,2.54-.42s1.7.21,2.33.42c.64.21,1.06.42,1.27.85l.64,1.27v4.24c0,1.7,0,2.97.21,3.39s.21.85.42,1.27h-1.91c-.21-.85-.42-1.27-.42-1.7Zm-.21-4.24c-.64.21-1.7.42-3.18.64-.85.21-1.27.21-1.7.42-.42.21-.64.42-.85.64s-.21.64-.21.85c0,.42.21.85.64,1.27.42.42.85.42,1.7.42.64,0,1.48-.21,1.91-.42.64-.42,1.06-.85,1.27-1.27.21-.42.21-1.06.21-1.91v-.64h.21Z"/><path class="cls-11" d="m394.76,191.71l.42-1.7c.42,0,.64.21.85.21.42,0,.64-.21.85-.42.21-.21.21-.85.21-1.91v-11.88h1.91v11.88c0,1.48-.21,2.33-.64,2.97-.42.64-1.27,1.06-2.33,1.06-.42,0-.85-.21-1.27-.21Zm2.33-17.81v-2.12h1.91v2.12h-1.91Z"/><path class="cls-11" d="m401.76,173.9v-2.12h2.12v1.7c0,.85-.21,1.7-.42,2.12-.21.64-.85,1.06-1.48,1.27l-.42-.85c.42-.21.64-.42.85-.64.21-.42.21-.85.21-1.27h-.85v-.21Z"/><path class="cls-11" d="m405.57,183.87l1.91-.21c.21.85.42,1.27.85,1.7s1.06.64,2.12.64c.85,0,1.48-.21,1.91-.64.42-.42.64-.85.64-1.27s-.21-.85-.64-1.06c-.21-.21-.85-.42-1.91-.64-1.48-.42-2.33-.64-2.97-.85s-.85-.64-1.27-1.06c-.21-.42-.42-1.06-.42-1.48s.21-1.06.42-1.48.64-.85.85-1.06.64-.42,1.27-.64,1.06-.21,1.7-.21c.85,0,1.7.21,2.33.42.64.21,1.06.64,1.48,1.06s.64,1.06.64,1.7l-1.91.21c0-.64-.42-1.06-.64-1.27-.42-.42-1.06-.42-1.7-.42-.85,0-1.48.21-1.91.42-.42.21-.64.64-.64,1.06,0,.21,0,.42.21.64s.42.42.64.42.85.21,1.7.42c1.27.42,2.33.64,2.76.85.64.21.85.64,1.27,1.06s.42,1.06.42,1.7-.21,1.27-.64,1.7c-.42.64-.85,1.06-1.7,1.27-.64.21-1.48.42-2.33.42-1.48,0-2.54-.21-3.39-.85-.42-.42-.85-1.27-1.06-2.54Z"/><path class="cls-11" d="m423.39,187.26v-15.48h5.3c1.27,0,2.12,0,2.76.21.85.21,1.7.64,2.33,1.06.85.64,1.48,1.48,1.91,2.54.42,1.06.64,2.33.64,3.6s-.21,2.12-.42,3.18c-.21.85-.64,1.7-1.06,2.33s-.85,1.06-1.48,1.48c-.42.42-1.06.64-1.91.85-.64.21-1.48.21-2.54.21h-5.51Zm2.12-1.91h3.39c1.06,0,1.91,0,2.33-.21.64-.21,1.06-.42,1.48-.85s.85-1.06,1.06-1.91.42-1.91.42-2.97c0-1.7-.21-2.76-.85-3.82s-1.27-1.48-1.91-1.7-1.48-.21-2.54-.21h-3.18v11.66h-.21Z"/><path class="cls-11" d="m446.5,183.65l1.91.21c-.21,1.06-.85,2.12-1.7,2.76s-1.91.85-3.18.85c-1.7,0-2.97-.42-3.82-1.48-1.06-1.06-1.48-2.33-1.48-4.24s.42-3.39,1.48-4.45,2.33-1.48,3.82-1.48,2.76.42,3.6,1.48,1.48,2.54,1.48,4.24v.42h-8.27c0,1.27.42,2.12,1.06,2.76s1.48,1.06,2.33,1.06c.64,0,1.27-.21,1.7-.64.21,0,.64-.64,1.06-1.48Zm-6.36-2.97h6.36c0-.85-.42-1.7-.64-2.12-.64-.64-1.48-1.06-2.33-1.06s-1.7.21-2.12.85c-.85.42-1.06,1.27-1.27,2.33Z"/><path class="cls-11" d="m450.11,183.87l1.91-.21c0,.85.42,1.27.85,1.7.42.42,1.06.64,2.12.64.85,0,1.48-.21,1.91-.64.42-.42.64-.85.64-1.27s-.21-.85-.64-1.06c-.21-.21-.85-.42-1.91-.64-1.48-.42-2.33-.64-2.97-.85s-.85-.64-1.27-1.06c-.21-.42-.42-1.06-.42-1.48s.21-1.06.42-1.48.64-.85.85-1.06.64-.42,1.27-.64,1.06-.21,1.7-.21c.85,0,1.7.21,2.33.42s1.06.64,1.48,1.06c.21.42.64,1.06.64,1.7l-1.91.21c0-.64-.42-1.06-.64-1.27-.42-.42-1.06-.42-1.7-.42-.85,0-1.48.21-1.91.42-.42.21-.64.64-.64,1.06,0,.21,0,.42.21.64s.42.42.64.42.85.21,1.7.42c1.27.42,2.33.64,2.76.85s.85.64,1.27,1.06.42,1.06.42,1.7-.21,1.27-.64,1.7c-.42.64-.85,1.06-1.7,1.27-.64.21-1.48.42-2.33.42-1.48,0-2.54-.21-3.39-.85-.42-.42-.85-1.27-1.06-2.54Z"/><path class="cls-11" d="m461.56,173.9v-2.12h1.91v2.12h-1.91Zm0,13.36v-11.24h1.91v11.24h-1.91Z"/><path class="cls-11" d="m466.01,188.11l1.91.21c0,.64.21,1.06.64,1.27.42.42,1.06.42,1.91.42s1.48-.21,2.12-.42.85-.85,1.06-1.48c0-.42.21-1.27.21-2.54-.85,1.06-1.91,1.48-3.18,1.48-1.48,0-2.76-.64-3.6-1.7-.85-1.06-1.27-2.54-1.27-4.03,0-1.06.21-2.12.64-2.97s.85-1.7,1.7-2.12,1.7-.64,2.54-.64c1.27,0,2.33.64,3.18,1.7v-1.27h1.7v9.75c0,1.7-.21,2.97-.64,3.82-.42.64-.85,1.27-1.7,1.7s-1.7.64-2.76.64c-1.27,0-2.33-.21-3.18-.85-.85-.85-1.27-1.7-1.27-2.97Zm1.7-6.57c0,1.48.21,2.54.85,3.18.64.64,1.27,1.06,2.12,1.06s1.7-.42,2.12-1.06c.64-.64.85-1.7.85-3.18,0-1.27-.21-2.33-.85-3.18-.64-.64-1.27-1.06-2.12-1.06s-1.48.42-2.12,1.06c-.64.85-.85,1.7-.85,3.18Z"/><path class="cls-11" d="m478.52,187.26v-11.24h1.7v1.7c.85-1.27,2.12-1.91,3.6-1.91.64,0,1.27.21,1.91.42.64.21,1.06.64,1.27,1.06s.42.85.64,1.48v8.91h-1.91v-6.79c0-.85,0-1.27-.21-1.7s-.42-.64-.85-.85c-.42-.21-.85-.42-1.27-.42-.85,0-1.48.21-2.12.85s-.85,1.48-.85,2.97v6.15h-1.91v-.64Z"/><path class="cls-11" d="m495.91,182.38l1.91-.21c0,.85.21,1.48.64,1.91s.85.85,1.48,1.27c.64.21,1.48.42,2.33.42s1.48-.21,2.12-.42c.64-.21,1.06-.64,1.27-1.06s.42-.85.42-1.27-.21-.85-.42-1.27-.85-.64-1.48-.85c-.42-.21-1.27-.42-2.76-.85s-2.33-.64-2.97-1.06c-.64-.42-1.27-.85-1.7-1.48s-.64-1.27-.64-1.91c0-.85.21-1.48.64-2.12s1.06-1.27,1.91-1.48,1.7-.42,2.76-.42,2.12.21,2.97.64,1.48.85,2.12,1.7.64,1.48.85,2.54l-1.91.21c0-1.06-.42-1.7-1.06-2.12s-1.48-.85-2.76-.85-2.12.21-2.76.64-.85,1.06-.85,1.7.21,1.06.64,1.27c.42.42,1.48.64,3.18,1.06s2.76.64,3.39,1.06c.85.42,1.48.85,1.91,1.48s.64,1.27.64,2.12-.21,1.7-.64,2.33-1.06,1.27-2.12,1.7c-.85.42-1.91.64-2.97.64-1.48,0-2.54-.21-3.6-.64-.85-.42-1.7-1.06-2.12-1.91s-.21-1.91-.42-2.76Z"/><path class="cls-11" d="m515,185.56l.21,1.7c-.64.21-1.06.21-1.48.21-.64,0-1.27-.21-1.7-.42-.42-.21-.64-.42-.85-.85-.21-.42-.21-1.06-.21-2.33v-6.36h-1.48v-1.48h1.48v-2.76l1.91-1.06v3.82h1.91v1.48h-1.7v7.63c0,.21.21.21.42.42.21,0,.42.21.64.21.21-.21.64-.21.85-.21Z"/><path class="cls-11" d="m524.33,187.26v-1.7c-.85,1.27-2.12,1.91-3.6,1.91-.64,0-1.27-.21-1.91-.42-.64-.21-1.06-.64-1.27-1.06s-.42-.85-.64-1.48c0-.42-.21-1.06-.21-1.7v-6.79h1.91v6.15c0,1.06,0,1.7.21,1.91.21.42.42.85.85,1.27.42.21.85.42,1.48.42s1.06-.21,1.7-.42c.42-.21.85-.64,1.06-1.27s.21-1.27.21-2.12v-5.94h1.91v11.24h-1.7Z"/><path class="cls-11" d="m536.2,187.26v-1.48c-.64,1.06-1.7,1.7-3.18,1.7-.85,0-1.7-.21-2.54-.64s-1.27-1.27-1.7-2.12-.64-1.91-.64-2.97.21-2.12.64-2.97.85-1.7,1.7-2.12c.85-.42,1.48-.64,2.54-.64.64,0,1.27.21,1.91.42s1.06.64,1.27,1.06v-5.73h1.91v15.48h-1.91Zm-5.94-5.51c0,1.48.21,2.54.85,3.18.64.64,1.27,1.06,2.12,1.06s1.48-.42,2.12-1.06.85-1.7.85-3.18-.21-2.76-.85-3.39c-.64-.64-1.27-1.06-2.12-1.06s-1.48.42-2.12,1.06c-.64.85-.85,1.91-.85,3.39Z"/><path class="cls-11" d="m540.87,173.9v-2.12h1.91v2.12h-1.91Zm0,13.36v-11.24h1.91v11.24h-1.91Z"/><path class="cls-11" d="m545.11,181.75c0-2.12.64-3.6,1.7-4.67,1.06-.85,2.12-1.27,3.6-1.27s2.76.42,3.82,1.48,1.48,2.33,1.48,4.24c0,1.48-.21,2.54-.64,3.39-.42.85-1.06,1.48-1.91,1.91s-1.7.64-2.76.64c-1.48,0-2.76-.42-3.82-1.48s-1.48-2.33-1.48-4.24Zm1.91,0c0,1.48.21,2.54.85,3.18.64.64,1.48,1.06,2.33,1.06s1.7-.42,2.33-1.06.85-1.91.85-3.18c0-1.48-.21-2.33-.85-3.18-.64-.64-1.48-1.06-2.33-1.06s-1.7.42-2.33,1.06c-.64.64-.85,1.7-.85,3.18Z"/></g><path class="cls-9" d="m403.88,153.54h0c0-2.12,1.7-3.82,3.82-3.82h0c-2.12,0-3.82-1.7-3.82-3.82h0c0,2.12-1.7,3.82-3.82,3.82h0c2.12,0,3.82,1.7,3.82,3.82h0Z"/><path class="cls-22" d="m288.52,21.64h-13.57c-.21,0-.42.21-.42.42h0v28.84c-.42-.85-1.06-1.7-1.7-2.54-1.27-1.48-2.54-2.54-4.24-3.6s-3.6-1.7-5.51-2.12c-2.12-.42-4.24-.64-6.36-.42-2.76.21-5.51,1.06-7.85,2.54-2.12,1.48-4.03,3.39-5.3,5.51-1.27,2.33-2.33,4.88-2.76,7.42-.42,2.76-.64,5.51-.42,8.27.21,2.76.85,5.3,1.91,7.85s2.33,4.67,4.03,6.57h0c.21.21.42.42.64.42l.64.64c1.7,1.7,3.82,3.18,6.15,4.24,2.12,1.06,4.45,1.7,6.79,2.12,2.76.42,5.51.42,8.27-.21,2.54-.64,4.88-1.7,7-3.18.64,1.06,1.48,1.91,2.33,2.54,1.27.85,2.54,1.27,4.03,1.27h5.73c.21,0,.42-.21.42-.42s-.21-.42-.42-.42c-1.48-.21-2.76-.85-3.82-1.91-1.06-.85-1.7-2.33-1.7-3.6V28.64c0-.85.21-1.7.64-2.54h0c.42-.64,1.06-1.27,1.48-1.7.64-.42,1.27-.85,2.12-1.06.64-.21,1.27-.42,1.91-.42.21,0,.42-.21.42-.42s-.21-.85-.42-.85h0Zm-37.96,55.56c-1.27-2.54-2.12-5.09-2.54-7.85s-.42-5.73-.21-8.48,1.06-5.3,2.12-7.85c1.06-2.12,2.54-4.24,4.24-5.73,1.91-1.48,4.03-2.54,6.57-2.54h1.06c1.06,0,2.33.21,3.39.42,1.48.42,2.76,1.06,4.03,1.91,1.27.85,2.33,1.91,3.18,3.18s1.7,2.76,2.12,4.24v25.87c0,.85.21,1.7.42,2.54-1.48,1.06-2.97,1.91-4.67,2.54s-3.6,1.06-5.51,1.06c-1.7,0-3.18-.21-4.67-.85-1.7-.42-3.18-1.48-4.45-2.54-2.33-1.48-3.82-3.6-5.09-5.94h0Z"/><path class="cls-22" d="m327.11,46.67c-1.7-1.48-3.82-2.76-5.94-3.39-2.33-.85-4.67-1.06-7-1.06-2.97,0-5.94.42-8.69,1.48-2.97,1.06-5.51,2.54-7.85,4.67-2.33,2.12-4.24,4.67-5.51,7.63-1.48,3.18-2.12,6.79-1.91,10.39,0,3.82.85,7.21,2.12,10.18,1.27,2.76,3.18,5.09,5.3,7,2.12,1.7,4.67,3.18,7.42,4.03s5.51,1.27,8.48,1.27c2.76,0,5.51-.42,8.27-1.48,2.12-.85,4.24-2.12,5.94-3.82,1.48-1.48,2.76-3.18,3.6-5.09.85-1.7,1.27-3.6,1.48-5.3q0-.21-.21-.42s-.21-.21-.42-.21h-.42c-.21,0-.42.21-.42.42-.21,1.91-.85,3.6-1.7,5.3-.85,1.48-2.12,2.97-3.39,4.03s-2.97,2.12-4.67,2.76-3.39,1.06-5.3,1.06c-3.6.21-6.79-.42-9.33-2.12-2.54-1.48-4.45-3.6-5.94-6.15-.42-2.54.42-5.3,2.12-7.42,1.91-2.33,4.45-4.24,7.21-5.73,3.39-1.7,6.79-2.76,10.39-3.39,3.82-.85,7.85-1.06,11.66-.85q.21,0,.42-.21s.21-.21.21-.42c0-2.76-.42-5.51-1.48-8.06-1.27-1.7-2.76-3.6-4.45-5.09Zm-27.57,28.42c-.85-1.91-1.27-4.03-1.48-6.15-.42-2.97-.42-5.73,0-8.69v-.42h0c.21-1.7.64-3.39,1.27-5.09s1.27-3.18,2.33-4.88c.85-1.48,2.12-2.76,3.39-3.82s2.97-1.7,4.67-2.12c2.12-.42,4.24-.42,6.36.42,1.91.64,3.82,1.91,5.09,3.39,1.48,1.48,2.54,3.39,3.39,5.51.85,1.91,1.06,4.03,1.06,6.15-2.97.21-5.94.85-8.91,1.48-2.97.85-5.94,2.12-8.69,3.6-2.54,1.48-4.67,3.18-6.36,5.51-1.27,1.48-1.91,3.18-2.12,5.09h0Z"/><path class="cls-22" d="m407.06,87.17c-1.48-.21-2.76-.85-3.82-1.91s-1.7-2.33-1.7-3.6V22.28c0-.21-.21-.42-.42-.42h-12.94c-.21,0-.42.21-.42.42s.21.42.42.42c1.27.21,2.54.85,3.6,1.48,1.27.85,1.7,2.12,1.91,3.82v53.65c0,1.27-.64,2.54-1.48,3.39-.85.85-1.91,1.48-3.18,1.7h-.42c-.21,0-.42,0-.64.21-.21.21-.42.42-.21.64,0,.21.21.21.42.21h18.66c.21,0,.42-.21.42-.42.21,0,0-.21-.21-.21h0Z"/><path class="cls-22" d="m451.38,51.97h0c-1.27-2.12-2.97-4.03-5.09-5.51s-4.24-2.54-6.57-3.18c-2.54-.85-5.09-1.06-7.63-1.06s-5.09.42-7.42,1.27c-1.91.64-3.82,1.7-5.51,2.76-1.48,1.06-2.76,2.12-3.82,3.39s-1.7,2.12-2.33,2.76c-1.7,2.54-2.97,5.51-3.82,8.48-.85,3.39-.85,7-.21,10.39.42,2.54,1.27,4.88,2.33,7,1.06,1.91,2.54,3.82,4.24,5.3s3.6,2.76,5.51,3.6c2.12.85,4.24,1.48,6.57,1.7h1.91c1.48,0,3.18-.21,4.67-.42,1.91-.42,3.6-.85,5.3-1.48s3.39-1.48,4.88-2.76c3.6-2.76,6.36-6.57,8.06-10.6,1.7-4.24,2.33-9.12,1.7-13.78-.42-2.97-1.27-5.51-2.76-7.85Zm-29.05,31.17c-1.7-1.7-3.18-3.82-4.24-5.94-1.27-2.97-2.12-6.15-2.33-9.12-.42-4.03-.21-7.63.64-10.6.64-2.76,1.91-5.3,3.6-7.42,1.48-1.91,3.39-3.18,5.51-4.24,1.91-.85,4.03-1.48,6.15-1.48,2.33,0,4.45.64,6.57,1.7,2.54,1.91,4.45,4.24,5.73,7.21,1.48,3.18,2.54,6.57,2.76,9.97.21,2.76.21,5.3-.21,8.06h0c-.21,2.54-1.06,4.88-2.12,7.21-1.06,2.12-2.54,4.03-4.24,5.51-1.91,1.48-4.24,2.33-6.57,2.76-2.12.21-4.03.21-6.15-.42-1.7-.85-3.39-1.91-5.09-3.18Z"/><path class="cls-22" d="m487.64,48.15c.85-1.06.85-2.54,0-3.6-.42-.85-1.27-1.48-2.33-1.91-1.06-.42-2.12-.42-2.97-.42-1.27,0-2.33.21-3.6.42s-2.33.64-3.39,1.27c-.42.21-1.06.42-1.48.42-.42.21-.85.21-1.48.21s-1.06-.21-1.48-.42c-.64-.42-1.27-1.06-1.7-1.91,0-.21-.21-.21-.42-.21h-12.94c-.21,0-.42.21-.42.42s.21.42.42.42c1.27.21,2.54.85,3.6,1.7s1.7,1.91,1.7,3.18v34.14c-.21,1.27-.85,2.33-1.7,3.18-1.06.85-2.33,1.48-3.6,1.7-.21,0-.42.21-.42.64s.21.42.42.42h18.66c.21,0,.42-.21.42-.42s-.21-.42-.42-.42c-1.27,0-2.76-.64-3.82-1.48s-1.7-2.12-1.91-3.39v-37.53c.21.42.64.64,1.06.85.64.42,1.48.64,2.33.64,1.06,0,1.91-.21,2.97-.64.64-.21,1.27-.42,2.12-.42.64,0,1.48.21,2.12.42.42.21.85.64,1.06,1.06s.64,1.06.85,1.48c.21.42.64,1.06,1.06,1.48s1.27.64,1.91.64c1.27,0,2.54-.64,3.39-1.91Z"/><path class="cls-22" d="m559.74,68.51c-1.48-1.7-3.18-3.18-5.3-4.24h0c-2.12-1.06-4.45-2.12-6.79-2.97-2.33-.85-4.45-1.7-6.57-2.76-1.91-.85-3.39-1.91-4.88-3.39-1.27-1.27-1.7-2.76-1.48-4.67.21-1.91,1.06-3.6,2.54-4.67,1.48-1.27,3.82-2.33,6.79-2.54,1.7-.21,3.82,0,6.36.85s5.3,2.54,8.06,4.88c.21.21.42.21.64,0l.21-.21c.21-.21.21-.42,0-.64h0c-1.91-1.7-4.03-3.18-6.57-4.45-2.33-1.27-5.09-1.91-7.85-1.91-2.12,0-4.24.21-6.15.85-1.48.42-2.97,1.27-4.24,2.54-1.06,1.06-1.91,2.33-2.54,3.82-.42,1.48-.85,2.97-.85,4.45-.21,2.54.42,4.88,1.48,6.79,1.06,1.7,2.54,3.18,4.24,4.45s3.82,2.33,5.73,2.97c2.12.85,4.24,1.7,6.15,2.33,1.7.64,3.6,1.48,5.3,2.54,1.27.64,2.54,1.7,3.18,2.97.42,1.06.64,2.33.42,3.39-.21,1.48-.85,2.76-2.12,3.82-1.27,1.27-2.76,2.12-4.24,2.76-1.91.85-3.82,1.48-5.73,1.91-2.12.42-4.24.85-6.36,1.06s-4.03.42-5.73.42h-4.45c-2.97,0-5.73-.21-8.48-.42-2.76-.21-5.3-.64-8.06-1.06-2.33-.42-4.45-1.06-6.79-1.91-1.7-.64-3.39-1.48-4.88-2.54-1.91-1.48-3.6-3.39-4.88-5.51-.42-2.54.42-5.3,2.12-7.42,1.91-2.33,4.45-4.24,7.21-5.73,3.18-1.7,6.79-2.76,10.39-3.39,3.82-.64,7.85-1.06,11.66-.85.21,0,.42-.21.42-.42h0c0-2.76-.42-5.51-1.48-8.06-1.06-2.12-2.33-4.03-4.24-5.73-1.7-1.48-3.82-2.76-5.94-3.39-2.33-.85-4.67-1.06-7-1.06-3.39,0-6.79.64-9.97,2.12-5.94,2.33-10.39,7-12.72,12.94-1.06,2.97-1.48,6.15-1.48,9.12,0,2.76.42,5.73,1.48,8.27.85,2.33,2.12,4.45,3.6,6.36,1.48,1.7,3.18,3.18,5.09,4.24s4.03,1.91,6.15,2.54c4.03,1.06,7.85,1.7,11.88,2.12,4.88.64,9.75.85,14.84.85,1.91,0,4.45,0,7.42-.21s5.94-.64,8.91-1.27,5.73-1.48,8.48-2.54,4.67-2.76,5.94-4.67c1.48-2.12,2.33-4.45,2.54-7,.64-1.7,0-4.03-1.48-5.73Zm-39.87-15.27c.85,1.91,1.06,4.03,1.06,5.94-2.97.21-5.94.85-8.91,1.48-2.97.85-5.94,2.12-8.69,3.6-2.54,1.48-4.67,3.18-6.36,5.51-1.06,1.48-1.91,3.18-2.12,5.09-.85-1.91-1.27-4.03-1.48-6.15h0c-.42-2.97-.42-5.73,0-8.69v-.42h0c.21-1.7.64-3.39,1.27-5.09s1.27-3.18,2.33-4.88c.85-1.48,2.12-2.76,3.39-3.82,3.18-2.33,7.21-2.97,11.03-1.7,1.91.85,3.6,1.91,5.09,3.39,1.27,1.91,2.54,3.6,3.39,5.73h0Z"/><path class="cls-22" d="m389.03,29.91q.21,0,0,0c0-1.06-.21-2.12-.64-2.97h0c-.42-.85-1.06-1.7-1.91-2.33-.85-.64-1.7-1.27-2.76-1.7-1.06-.42-2.12-.85-3.18-1.06h0c-1.06-.21-2.33-.21-3.39,0-1.06,0-2.33.21-3.39.64-1.7.42-3.39,1.48-4.67,2.97-1.06,1.27-1.91,2.97-2.33,4.67-.21.85-.21,1.7-.21,2.54h0v9.75h-4.67c-.21,0-.42.21-.42.42h0v.42c0,.21.21.42.42.42h4.67v39.02c-.21,1.27-1.06,2.33-2.12,2.97-1.06.64-2.12,1.06-3.39,1.27-.21,0-.42.21-.42.64,0,.21.21.42.42.42h18.66c.21,0,.42-.21.42-.42s-.21-.42-.42-.42c-1.48-.21-2.76-.85-4.03-1.91-1.06-1.06-1.48-2.33-1.48-3.82v-37.75h7.85c.21,0,.42-.21.42-.42v-.42c0-.21-.21-.42-.42-.42h-8.69c-4.03-4.03-5.09-7.63-5.3-9.12-.21-1.91.21-3.82,1.27-5.51,1.27-1.91,3.18-3.18,5.73-3.82,1.48-.21,2.97-.21,4.24,0s2.12.85,2.54,1.7c.21.42.21.85.21,1.48s-.21,1.06-.21,1.7v1.7c.21.85.64,1.48,1.27,1.91.21.42.64.64,1.06.85.42,0,.64.21,1.06.21.85,0,1.48-.21,2.12-.85,1.27-1.06,1.7-1.91,1.7-2.76Z"/><path class="cls-11" d="m244.83,108.8h0c0-.42-.21-.85-.64-1.06-.21-.21-.64-.42-1.06-.42h-.21v-.21h1.91v1.7Zm0,13.15v1.7h-1.91v-.21h.21c.42,0,.85-.21,1.06-.42.42-.21.42-.64.64-1.06h0Zm2.12-14.84v16.75h-2.33v-16.75h2.33Zm9.33,8.06v.85h-9.54v-.85h9.54Zm-9.33-6.36v-1.7h1.91v.21h-.21c-.42,0-.85.21-1.06.42-.42.21-.64.64-.64,1.06h0Zm0,13.15h0c0,.42.21.85.64,1.06.21.21.64.42,1.06.42h.21v.21h-1.91v-1.7Zm9.12-13.15h0c0-.42-.21-.85-.42-1.06s-.64-.42-1.06-.42h-.21v-.21h1.91v1.7h-.21Zm0,13.15v1.7h-1.91v-.21h.21c.42,0,.85-.21,1.06-.42.42-.21.64-.64.64-1.06h0Zm2.33-14.84v16.75h-2.33v-16.75h2.33Zm-.21,1.7v-1.7h1.91v.21h-.21c-.42,0-.85.21-1.06.42-.42.21-.42.64-.64,1.06h0Zm0,13.15h0c0,.42.21.85.64,1.06.21.21.64.42,1.06.42h.21v.21h-1.91v-1.7Z"/><path class="cls-11" d="m274.31,121.95c-.21.21-.21.42,0,.85,0,.21.21.42.42.42.21.21.42.21.64.21h.21v.21h-4.88v-.21h.21c.42,0,.85-.21,1.06-.42.42-.21.85-.64,1.06-1.06h1.27Zm5.09-15.27l.21,2.12-5.94,15.06h-1.48l6.15-14.42s0-.21.21-.42c0-.21.21-.42.42-.85.21-.21.21-.64.21-.85s.21-.42.21-.64h0Zm0,0l7.42,16.96h-2.76l-5.3-14,.64-2.97Zm4.03,15.27h2.76c.21.42.42.85,1.06,1.06.42.21.85.42,1.06.42h0v.21h-6.15v-.21h.21c.21,0,.64-.21.85-.42.42-.21.42-.64.21-1.06h0Z"/><path class="cls-11" d="m299.55,107.1v1.48h0c0-.42-.21-.64-.42-.85-.21-.21-.64-.42-.85-.42h-.42v-.21h1.7Zm2.12,0v10.6c0,1.06.21,2.12.64,2.97s1.06,1.48,1.7,2.12c.85.42,1.7.85,2.54.64,1.06,0,1.91-.21,2.76-.64.85-.42,1.48-1.06,1.7-1.91.42-.85.64-1.91.64-2.76v-10.81h1.27v10.81c0,1.06-.21,2.33-.85,3.18-.42.85-1.27,1.7-2.33,2.12s-2.33.85-3.6.85-2.54-.21-3.82-.85c-1.06-.42-1.91-1.27-2.33-2.12-.64-1.06-.85-2.12-.85-3.18v-10.81h2.54v-.21Zm1.7,0v.21h-.42c-.42,0-.64.21-.85.42-.21.21-.42.42-.42.85h0v-1.48h1.7Zm8.48,0v1.48h0c0-.42-.21-.64-.42-.85-.21-.21-.64-.42-.85-.42h-.42v-.21h1.7Zm2.97,0v.21h-.42c-.42,0-.64.21-.85.42-.21.21-.42.42-.42.85h0v-1.48h1.7Z"/><path class="cls-11" d="m325.84,106.68c.21,0,.42.21.85.21.21,0,.64.21,1.06.21h1.06l-2.97.21v-.64Zm14.21.42v.85h-14.42v-.85h14.42Zm-12.3.64h0c-.42,0-.85.21-1.27.64s-.42.85-.42,1.27v.42h-.21v-2.33h1.91Zm4.24,14.21v1.7h-1.91v-.21h.21c.42,0,.85-.21,1.06-.42.21-.21.42-.64.64-1.06h0Zm2.12-14.84v16.54h-2.33v-16.54h2.33Zm0,14.84h0c0,.42.21.85.64,1.06.21.21.64.42,1.06.42h.21v.21h-1.91v-1.7h0Zm5.94-15.27v.64l-2.97-.21h1.06c.42,0,.85,0,1.06-.21.42-.21.64-.21.85-.21h0Zm0,1.06v2.33h-.21v-.42c0-.42-.21-.85-.42-1.27-.42-.42-.85-.42-1.27-.42h0l1.91-.21Z"/><path class="cls-11" d="m353.2,108.8h0c0-.42-.21-.85-.42-1.06s-.64-.42-1.06-.42h-.21v-.21h1.91l-.21,1.7Zm0,13.15v1.7h-1.91v-.21h.21c.42,0,.85-.21,1.06-.42.42-.21.64-.64.64-1.06h0Zm2.33-14.84v16.75h-2.33v-16.75h2.33Zm6.36,0v.85h-6.57v-.85h6.57Zm-1.06,8.06v.85h-5.51v-.85h5.51Zm1.06,7.85l.21.85h-6.57v-.85h6.36Zm1.48-3.39l-1.27,4.24h-4.24l.85-.85c.64,0,1.48-.21,2.12-.42.64-.21,1.06-.64,1.48-1.27.42-.42.64-1.06.85-1.7h.21Zm-1.48-12.94v.64l-2.97-.21h1.06c.42,0,.85,0,1.06-.21.42,0,.64-.21.85-.21h0Zm-1.06,6.79v1.91h-1.7c.42,0,.85-.21,1.06-.42.21-.21.42-.64.42-1.06v-.21l.21-.21Zm0,2.54v1.91h-.21v-.42c0-.42-.21-.85-.42-1.06s-.64-.42-1.06-.42h1.7Zm1.06-8.27v2.12h-.21v-.42c0-.42-.21-.85-.42-1.27-.42-.42-.85-.42-1.27-.42h1.91Z"/><path class="cls-11" d="m406.42,116.86l-.21,3.82c-.42.64-.85,1.27-1.48,1.7-.64.42-1.48,1.06-2.12,1.27-1.06.21-1.91.42-2.97.42-1.7,0-3.18-.42-4.67-1.06-1.27-.64-2.33-1.7-3.18-2.97-1.48-2.97-1.48-6.36,0-9.12.85-1.27,1.7-2.33,3.18-2.97,1.48-.85,3.18-1.06,4.88-1.06,1.06,0,2.33.21,3.18.42.85.21,1.7.64,2.54,1.06l.42,3.6h-.21c-.21-1.27-1.06-2.54-2.12-3.18-2.97-2.12-6.79-1.27-8.91,1.48-.21.42-.42.64-.64,1.06-.64,1.27-.85,2.76-.85,4.24s.21,2.76.85,4.03c.42,1.06,1.27,2.12,2.33,2.76s2.12,1.06,3.39,1.06c1.06,0,2.12-.21,3.18-.64s1.7-1.06,2.33-2.12c.42-1.27.85-2.54,1.06-3.82h0Z"/><path class="cls-11" d="m427.63,106.68c1.7,0,3.18.42,4.67,1.06,1.27.64,2.33,1.7,3.18,2.97,1.48,2.97,1.48,6.36,0,9.12-.64,1.27-1.7,2.33-3.18,2.97-1.48.85-2.97,1.06-4.67,1.06s-3.18-.42-4.67-1.06c-1.27-.64-2.33-1.7-3.18-2.97-1.48-2.97-1.48-6.36,0-9.12.64-1.27,1.7-2.33,3.18-2.97,1.48-.64,2.97-1.06,4.67-1.06Zm0,16.54c1.27,0,2.33-.21,3.39-1.06,1.06-.64,1.7-1.7,2.12-2.76,1.06-2.76,1.06-5.73,0-8.27-.42-1.06-1.27-2.12-2.12-2.76-2.12-1.27-4.67-1.27-6.57,0-1.06.64-1.7,1.7-2.12,2.76-1.06,2.76-1.06,5.73,0,8.27.42,1.06,1.27,2.12,2.12,2.76.85.85,2.12,1.27,3.18,1.06Z"/><path class="cls-11" d="m449.68,107.1v1.48h0c0-.42-.21-.64-.42-.85-.21-.21-.64-.42-.85-.42h-.42v-.21h1.7Zm2.12,0v10.6c0,1.06.21,2.12.64,2.97.42.85,1.06,1.48,1.7,2.12.85.42,1.7.85,2.54.64,1.06,0,1.91-.21,2.76-.64s1.48-1.06,1.7-1.91c.42-.85.64-1.91.64-2.76v-10.81h1.27v10.81c0,1.06-.21,2.33-.85,3.18-.42.85-1.27,1.7-2.33,2.12s-2.33.85-3.6.85-2.54-.21-3.82-.85c-1.06-.42-1.91-1.27-2.33-2.12-.64-1.06-.85-2.12-.85-3.18v-10.81h2.54v-.21Zm1.7,0v.21h-.42c-.21,0-.64.21-.85.42-.21.21-.42.42-.42.85h0v-1.48h1.7Zm8.48,0v1.48h0c0-.42-.21-.64-.42-.85-.21-.21-.64-.42-.85-.42h-.42v-.21h1.7Zm2.97,0v.21h-.42c-.21,0-.64.21-.85.42-.21.21-.42.42-.42.85h0v-1.48h1.7Z"/><path class="cls-11" d="m475.98,106.68c.21,0,.42.21.85.21s.64.21,1.06.21h1.06l-2.97.21v-.64Zm14.21.42v.85h-14.42v-.85h14.42Zm-12.3.64h0c-.42,0-.85.21-1.27.64-.42.42-.42.85-.42,1.27v.42h-.21v-2.33h1.91Zm4.24,14.21v1.7h-1.91v-.21h.21c.42,0,.85-.21,1.06-.42.21-.21.42-.64.64-1.06h0Zm2.12-14.84v16.54h-2.33v-16.54h2.33Zm-.21,14.84h0c0,.42.21.85.64,1.06.21.21.64.42,1.06.42h.21v.21h-1.91v-1.7h0Zm6.15-15.27v.64l-2.97-.21h1.06c.42,0,.85,0,1.06-.21.42-.21.64-.21.85-.21h0Zm0,1.06v2.33h-.21v-.42c0-.42-.21-.85-.42-1.27-.42-.42-.85-.42-1.27-.42h0l1.91-.21Z"/><path class="cls-11" d="m503.12,107.1v1.48h0c0-.42-.21-.64-.42-.85s-.64-.42-.85-.42h-.42v-.21h1.7Zm2.12,0v10.6c0,1.06.21,2.12.64,2.97s1.06,1.48,1.7,2.12c.85.42,1.7.85,2.54.64,1.06,0,1.91-.21,2.76-.64.85-.42,1.48-1.06,1.7-1.91.42-.85.64-1.91.64-2.76v-10.81h1.27v10.81c0,1.06-.21,2.33-.85,3.18-.42.85-1.27,1.7-2.33,2.12s-2.33.85-3.6.85-2.54-.21-3.82-.85c-1.06-.42-1.91-1.27-2.33-2.12-.64-1.06-.85-2.12-.85-3.18v-10.81h2.54v-.21Zm1.7,0v.21h-.42c-.21,0-.64.21-.85.42s-.42.42-.42.85h0v-1.48h1.7Zm8.48,0v1.48h0c0-.42-.21-.64-.42-.85s-.64-.42-.85-.42h-.42v-.21h1.7Zm2.76,0v.21h-.42c-.21,0-.64.21-.85.42s-.42.42-.42.85h0v-1.48h1.7Z"/><path class="cls-11" d="m531.75,108.8h0c0-.42-.21-.85-.64-1.06-.21-.21-.64-.42-1.06-.42h-.21v-.21h1.91v1.7h0Zm0,13.15v1.7h-1.91v-.21h.21c.42,0,.85-.21,1.06-.42.42-.21.64-.64.64-1.06h0Zm2.12-14.84v16.75h-2.33v-16.75h2.33Zm2.97,0c.64,0,1.27,0,2.12.21.64.21,1.06.42,1.48.85s.85.85,1.06,1.48.42,1.27.42,1.91c0,.85-.21,1.48-.42,2.12-.21.64-.85,1.27-1.48,1.7s-1.27.64-2.12.64c.42.21.85.42,1.06.85s.64.64.85,1.06c0,.21.21.21.21.42.21.21.42.64.85,1.06.21.42.64.85.85,1.27.21.42.64.85.85,1.06.21.42.64.64,1.06,1.06.21.21.64.42,1.06.64s.85.21,1.27.21v.21h-1.7c-.64,0-1.27,0-2.12-.21-.64-.21-1.06-.42-1.48-.85-.42-.21-.85-.64-1.06-1.06,0-.21-.21-.21-.42-.64l-.64-1.06c-.21-.42-.42-.85-.85-1.27l-.64-1.06c-.21-.21-.21-.42-.42-.42-.21-.42-.64-.85-.85-1.06-.21-.21-.64-.42-1.06-.42v-.21h1.27c.42,0,.85,0,1.27-.21.42-.21,1.06-.42,1.27-.85.42-.42.85-1.06.85-1.7v-1.48c0-.85-.21-1.91-.85-2.54-.42-.64-1.27-1.06-2.12-1.06h-2.76v-.21l-.21-.64,3.39.21Zm-2.97,14.84h0c0,.42.21.85.42,1.06.21.21.64.42,1.06.42h.21v.21h-1.91v-1.7h.21Z"/><path class="cls-11" d="m557.41,108.8h0c0-.42-.21-.85-.42-1.06-.21-.21-.64-.42-1.06-.42h-.42v-.21h1.91v1.7h0Zm0,13.15v1.7h-1.91v-.21h.21c.42,0,.85-.21,1.06-.42.42-.21.64-.64.64-1.06h0Zm2.33-14.84v16.75h-2.33v-16.75h2.33Zm6.36,0v.85h-6.57v-.85h6.57Zm-1.06,8.06v.85h-5.51v-.85h5.51Zm1.06,7.85l.21.85h-6.79v-.85h6.57Zm1.48-3.39l-1.27,4.24h-4.24l.85-.85c.64,0,1.48-.21,2.12-.42.64-.21,1.06-.64,1.48-1.27.42-.42.64-1.06.85-1.7h.21Zm-1.48-12.94v.64l-2.97-.21h1.06c.42,0,.85,0,1.06-.21.42,0,.64-.21.85-.21h0Zm-1.06,6.79v1.91h-1.7c.42,0,.85-.21,1.06-.42.21-.21.42-.64.42-1.06v-.21l.21-.21Zm0,2.54v1.91h-.21v-.42c0-.42-.21-.85-.42-1.06-.21-.21-.64-.42-1.06-.42h1.7Zm1.06-8.27v2.12h-.21v-.42c0-.42-.21-.85-.42-1.27-.42-.42-.85-.42-1.27-.42h1.91Z"/><path class="cls-23" d="m97.55.05c-3.82-.42-7.21,2.12-7.85,5.94v.21l-2.76,27.14c1.27,1.7,2.97,4.88,3.18,8.27.42,4.88.85,12.3.64,16.54,0,2.33.64,4.45,1.91,6.36l10.6-56.2c.64-3.82-1.7-7.42-5.51-8.06q0-.21-.21-.21Zm1.91,8.27l-2.33,16.54c-.21,1.7-1.7,2.76-3.18,2.54s-2.76-1.7-2.54-3.18v-.21l2.33-16.54c.21-1.7,1.7-2.76,3.39-2.54,1.48.21,2.54,1.91,2.33,3.39Zm-26.72,158.62q0,.21.21.21t.21-.21l11.24-59.38c-1.91-.42-3.6-.85-5.3-1.7l-6.36,61.07Z"/><path class="cls-1" d="m27.57,22.1c-.64-1.48-1.06-3.18-1.06-4.88s.42-3.39,1.27-5.09c.21-.21.64-.42.85-.21.21.21.42.64.21.85h0c-.85,1.27-1.27,2.76-1.06,4.24,0,1.48.42,2.97,1.06,4.45,1.27,2.76,3.39,5.3,5.94,7s5.51,2.97,8.48,3.6c2.97.64,6.36.85,9.33.42,1.48-.21,3.18-.42,4.67-.64.21.42.42,1.06.64,1.27-1.7.21-3.39.42-5.09.64-3.18.21-6.57,0-9.75-.64s-6.36-1.91-9.12-3.82c-2.76-1.48-4.88-4.03-6.36-7.21Z"/><path class="cls-21" d="m215.03,79.78c-.85-3.39-1.7-6.79-2.97-10.18-1.06-3.39-2.54-6.57-3.82-9.75-1.48-3.18-2.97-6.36-4.88-9.33l-1.27-2.33c-.42-.85-1.06-1.48-1.48-2.12s-1.06-1.48-1.48-2.12c-.21-.42-.42-.64-.85-1.06l-.85-1.06c-4.24-5.51-9.12-10.6-14.63-15.06-5.3-4.24-11.24-7.85-17.6-10.6-3.18-1.27-6.36-2.54-9.54-3.6-9.75-2.97-19.72-4.24-29.9-3.82-3.39.21-6.57.42-9.97,1.06-3.18.42-6.57,1.27-9.75,2.12-6.36,1.7-12.51,3.82-18.45,6.79l-2.12,1.06c-.64.42-1.48.85-2.12,1.06-.85.42-1.48.85-2.12,1.27l-2.12,1.27c-1.48.85-3.18,1.7-4.88,2.54,1.06.21,1.91.42,2.76.64,1.06-.42,1.91-1.06,2.97-1.48,1.48-.85,2.76-1.48,4.24-2.33.64-.42,1.48-.64,2.12-1.06l2.12-1.06c11.66-5.3,24.39-8.27,37.32-8.48s25.66,2.76,37.32,8.48c2.76,1.48,5.73,2.97,8.27,4.88,2.76,1.7,5.3,3.82,7.63,5.94s4.67,4.45,6.79,6.79,4.03,5.09,5.73,7.63c1.7,2.76,3.39,5.51,4.88,8.27s2.76,5.73,3.82,8.69c2.33,5.94,4.03,12.09,5.09,18.45s1.48,12.72,1.48,19.09c-.21,6.36-.85,12.72-2.12,19.09s-3.18,12.3-5.73,18.24-5.51,11.45-9.12,16.75c-7.21,10.6-16.75,19.3-27.78,25.87-5.51,3.18-11.24,5.94-17.39,8.06-5.94,2.12-12.3,3.82-18.45,4.67-6.36,1.06-12.72,1.27-19.09.64-6.36-.64-12.51-2.12-18.66-4.24-5.94-2.33-11.88-5.09-17.18-8.48-5.51-3.39-10.6-7.21-15.69-11.24l-3.39-2.54c.85-.64,1.7-1.27,2.54-1.7,2.54-1.91,5.09-4.03,7.63-6.15,1.27-1.06,2.33-2.12,3.6-2.97.64-.42,1.27-.85,1.91-1.27.42-.21.64-.42,1.06-.64.42-.21.64-.42,1.06-.42h0c.21-.21-.21-1.27-.42-1.27-.42.21-.85.42-1.06.64-.42.21-.64.42-1.06.64-.64.42-1.48.85-2.12,1.48-1.27,1.06-2.54,2.12-3.82,3.18-2.33,2.12-4.88,4.03-7.63,5.94-.85.64-1.91,1.27-2.76,2.12-.85-.64-1.7-1.48-2.76-2.12-2.54-1.91-5.3-3.82-8.06-5.3-2.76-1.48-5.73-2.97-8.91-4.03s-6.36-1.7-9.54-1.91-6.57.21-9.75,1.06-6.15,2.76-8.27,5.09c-1.06,1.27-2.12,2.54-2.76,4.03-.64,1.48-1.06,3.18-1.06,4.88v2.54c.42,2.54,1.27,4.88,2.54,6.79.85,1.48,2.12,2.54,3.39,3.6s2.97,1.7,4.45,2.12c1.7.42,3.18.42,4.88.42s3.18-.21,4.88-.42c3.18-.64,6.36-1.7,9.33-2.76s5.94-2.54,8.91-4.24c3.18-1.7,6.57-3.82,9.54-5.73,1.48,1.48,2.97,2.76,4.67,4.24,2.33,2.12,4.88,4.24,7.42,6.57,1.27,1.06,2.54,2.12,3.82,3.18,1.27,1.06,2.76,2.12,4.03,2.97,5.73,4.03,11.66,7.42,18.02,10.18,3.18,1.48,6.57,2.54,9.97,3.6s7,1.7,10.39,2.33c7,1.06,14.42,1.27,21.42.85,3.6-.21,7-.85,10.6-1.48l2.54-.42c.85-.21,1.7-.42,2.54-.64,1.7-.42,3.39-.85,5.09-1.48,3.39-1.06,6.79-2.33,10.18-3.6,3.39-1.48,6.57-2.97,9.75-4.67,9.54-5.3,18.02-12.3,25.23-20.78.64-.64,1.27-1.48,1.7-2.12l1.7-2.12c.64-.85,1.06-1.48,1.7-2.12.42-.85,1.06-1.48,1.48-2.33,4.03-5.94,7.42-12.51,10.18-19.09,1.27-3.39,2.54-6.79,3.39-10.18.21-.85.42-1.7.64-2.54.21-.85.42-1.7.64-2.54.21-.85.42-1.7.42-2.54l.42-2.54c2.97-15.27,2.54-29.69-.85-43.68ZM45.59,169.48c-2.76,1.7-5.51,3.18-8.27,4.88-2.76,1.48-5.73,2.76-8.69,4.03-2.97,1.06-5.94,2.12-9.12,2.54-2.97.42-6.15.64-8.91,0-1.27-.42-2.54-.85-3.82-1.7s-2.12-1.91-2.76-2.97c-.21-.21-.42-.64-.42-.85-.21-.21-.42-.64-.42-1.06-.21-.64-.42-1.27-.85-2.12-.21-.64-.21-1.27-.42-2.12v-2.12c.21-2.76,1.27-5.3,3.18-7.21,2.12-1.91,4.45-3.39,7.21-4.03,1.48-.42,2.76-.64,4.24-.64h4.45c2.97.21,5.94,1.06,8.69,2.12s5.51,2.54,8.06,4.03c1.27.85,2.54,1.7,3.82,2.54,1.27.85,2.33,1.91,3.6,2.97l1.27,1.27-.85.42Z"/><path class="cls-26" d="m69.13,152.52c1.27-.64,2.12-1.06,2.12-1.06l-.21,1.48-1.27.64-.64-1.06Z"/><path class="cls-16" d="m115.57,126.22c1.06.21,2.33.42,3.39.42,7.63.42,11.45-3.82,11.66-4.03.21-.21.21-.64,0-.85s-.64-.21-.85,0-4.88,5.09-13.78,3.18c-.21,0-.64,0-.85.42-.21.21,0,.64.42.85h0Z"/><path class="cls-7" d="m145.68,120.92c-.64,0-1.27,0-1.7.42-1.06.85-1.06,2.12-.42,2.97.42.42.85.85,1.48.85h.21c1.27,0,2.12-.85,2.33-1.91,0-1.06-.85-2.33-1.91-2.33Zm.64,2.33c0,.64-.64.85-1.06.85-.21,0-.42-.21-.64-.42-.21-.21-.21-.42-.21-.85,0-.21.21-.42.42-.64s.42-.21.64-.21h0c.64.21,1.06.64.85,1.27h0Z"/><path class="cls-17" d="m51.11,39.49c-.64,0-1.27,0-1.7.42-.42.42-.85.85-.85,1.48-.21,1.27.64,2.33,1.91,2.33h.21c1.27,0,2.33-.85,2.33-2.12.21-.85-.85-1.91-1.91-2.12h0Zm.64,2.33c0,.21-.21.42-.42.64-.42.42-1.06.21-1.48-.21-.21-.21-.21-.42-.21-.85,0-.21.21-.42.42-.64.21-.21.42-.21.64-.21h0c.85.21,1.27.85,1.06,1.27h0Z"/><path class="cls-27" d="m78.46,75.54c-.42-.42-1.06-.85-1.7-.85h-.64c-1.27.21-2.33,1.48-2.12,2.76.21,1.06,1.06,1.91,2.12,2.12h.21c.64,0,1.27-.21,1.7-.64,1.27-.85,1.27-2.33.42-3.39h0Zm-.64,1.7c0,.21,0,.42-.21.64-.21.42-.64.64-1.27.42-.42,0-.64-.21-.85-.42-.21-.21-.21-.64-.21-.85,0-.64.64-1.06,1.27-1.06h0c.42,0,.64.21.85.42.42.21.64.64.42.85Z"/><path class="cls-19" d="m157.35,85.93c-.42-.85-.85-1.48-1.06-2.12-.85-1.48-1.06-2.33-2.12-2.76-.64-3.18-4.03-7.85-7-9.75-1.06-.64-1.91-.85-2.76-.85-1.06-2.54-2.76-4.88-5.3-6.15-1.7-1.06-3.39-1.27-4.88-1.06-2.54-2.76-6.79-3.82-9.75-2.54-1.91.85-2.97,2.54-2.97,4.67.21,4.45.21,6.36.21,7-.85,1.06-4.67,6.15-4.45,11.66,0,1.91.42,3.6.85,5.3-7,2.33-11.88,7.85-14.84,16.33,0-3.18.64-6.36,1.27-9.33.64-3.39,1.27-6.57,1.06-9.33h0c1.06-8.48,8.27-12.51,9.75-13.36l1.27.64h.21c1.48,0,2.54-1.06,2.76-2.33,0-1.48-1.06-2.54-2.33-2.76-1.27,0-2.54.85-2.76,2.33,0,.42,0,.85.21,1.27-2.12,1.06-4.03,2.54-5.51,4.24.64-3.6,0-5.51-.64-6.57.21-.21.42-.64.42-1.06s0-1.06-.42-1.27c0-.42-.42-.64-.85-.64s-.85,0-1.27.42c-.42.21-.64.64-.64,1.27,0,.42,0,1.06.42,1.27.21.42.64.64,1.27.64h.21c.42,1.06,1.27,3.39,0,8.06-1.06,1.48-1.91,3.18-2.33,5.09-.21-.42-.42-.85-.64-1.27h0l-.21-.21c-.21-.42-.64-1.06-1.06-1.48-.21-1.27-1.7-7.85-.42-14.42.42-1.06,2.97-6.79,11.03-7.21,4.45-.21,6.15-2.33,7.42-4.24,1.7-2.12,2.97-4.03,8.91-2.54h.42q.21,0,.21-.21h0s.21-.21,0-.42h0v-.21s-6.36-9.75-21.42-6.36c-4.03.85-6.79,2.76-8.48,5.73-3.18,5.94-.21,14.21.42,15.69-.64,4.24-.64,8.27,0,12.51-1.06-1.27-2.33-2.33-3.39-3.6-4.45-4.45-9.54-9.75-9.97-16.12-.64-11.45-.64-13.57-.64-13.57,0-2.97-.42-5.94-1.7-8.48-1.7-3.6-4.88-6.36-8.91-7.21h-.42c-2.54-.64-4.45-1.06-6.15-1.48-5.3-1.06-6.79-1.27-10.39-7.21l-.21-.21h-.42s-.21,0-.21.21h0v.42c-1.91,7.42,1.7,14.42,9.33,18.24,1.06.64,2.33,1.06,3.6,1.48s2.54.64,4.03.64c2.54.21,4.88.85,7,2.12,1.27.64,2.54,1.48,3.6,2.12,0,.85.21,4.03.64,13.36.21,4.88,2.97,8.91,6.15,12.3-2.54-1.7-5.51-3.18-8.27-4.45-.42-1.06-4.03-7.42-11.03-7.85-1.27,0-2.76.21-4.03.42-5.73,1.48-11.66.42-16.54-2.76-.21-.21-.42-.21-.64,0-.21.21-.21.42-.21.64s2.33,10.6,11.24,12.09c.42,0,.85.21,1.27.21h1.06c2.76,0,5.51-.21,8.27-.85.85-.21,1.48-.42,2.12-.42,2.54-.64,4.45-1.06,7.63-.64,4.88,2.12,9.33,4.88,13.36,8.48h-.42c-.64.21-1.27.42-1.91.85-1.06-.64-2.97.42-4.67,1.48l-.64.42c-1.48.85-1.7,3.18-1.7,4.03-.21.21-.64.64-.64,1.06-.21.42-.42.85-.85,1.06-.64.42-1.06,1.06-.64,1.91.21,1.27,4.45,2.97,7.42,3.39h.85c1.91.21,3.39-.21,4.45-1.06,1.27,1.06,4.03,4.03,3.82,11.03h0c-.64,4.03-.85,8.27.85,12.3,1.7,4.24,2.97,10.6.85,16.96,0,.21-.21.42-.21.64h0c-.64,1.91-1.7,3.6-2.76,5.3,3.6-9.12,1.91-20.57-4.45-27.36h0c0-1.7.21-10.18-5.51-15.27-3.18-2.76-6.15-3.82-8.69-4.03-1.91-.21-3.82,0-5.51.42-.42,0-.64.21-1.06.21-1.7.21-3.6-.21-4.88-1.27-.85-.64-1.27-1.48-1.7-2.33,0,0,0-.21-.21-.21h0c-.21,0-.21-.21-.42,0h0s-.21,0-.21.21v.42c0,4.88,2.12,9.54,5.94,12.94,3.18,2.97,7.21,4.88,11.45,5.73h0c6.79,1.27,9.75,3.82,9.97,4.03l.21.21c7,7.42,8.06,21.21,2.12,30.11-2.33,2.12-4.88,3.82-7.85,5.09-3.18,1.48-5.3,1.06-7.85,1.91-.64.21-1.06.42-1.7.85l-.21,1.48c2.97-1.48,6.15-1.06,10.39-3.18,3.6-1.7,7.63-1.91,10.6-1.7,1.48,0,3.18.21,4.67.64,0,1.27,1.06,2.33,2.33,2.54h-.42c1.48,0,2.76-1.06,2.76-2.33,0-.64-.21-1.27-.64-1.7s-1.06-.85-1.7-1.06c-.64,0-1.27.21-1.91.64-.21.21-.42.42-.64.85-3.6-.85-7.21-.85-10.81-.42,5.09-3.39,8.06-7.63,9.54-12.09,1.06-1.06,3.6-.85,6.79-.42,2.54.42,5.3.42,8.06.42,8.06-.21,14.42-8.06,14.63-13.15,0-.21-.21-.42-.42-.64h-.64s-4.88,4.03-13.78,2.97c-6.36-.64-10.81.85-13.36,4.88.21-4.24-.42-8.48-2.12-12.51-.42-1.27-.85-2.33-1.06-3.6,2.76-9.75,7.85-15.9,15.06-18.45.42,1.27,1.06,2.76,1.7,4.03-2.12,2.33-.85,4.45.64,7,.64.85,1.27,1.91,1.91,2.97,1.7,3.18,3.6,5.09,5.09,5.09h.42c.64,0,1.27-.64,1.48-1.27,1.7,1.06,4.67-.21,5.73-.64,1.27.85,5.73,3.82,8.91,2.33,1.91-.85,3.39-2.33,4.45-4.24,1.7-.64,2.97-2.12,2.97-3.82.21-1.48,1.27-2.33,2.33-3.18.85-.85,1.7-1.48,1.91-2.54s.21-2.12-.21-2.97c1.48-2.54,3.18-5.51,1.7-8.48Zm-41.35-14.21c0-.64.64-1.27,1.48-1.27h0c.85,0,1.27.85,1.27,1.48s-.64,1.27-1.48,1.27h0c-.85-.21-1.48-.85-1.27-1.48h0Zm-8.69-2.12h0q-.21,0,0,0c-.21,0-.21-.21-.21-.42s.21-.42.64-.42h0q.21,0,.42.21c0,.21.21.21.21.42v.21c-.64-.21-.85-.21-1.06,0Zm-4.88-18.02c1.48-2.76,4.03-4.45,7.63-5.09,2.33-.42,4.88-.64,7.21-.64,3.18.21,6.15,1.06,8.91,2.76-2.33-1.06-5.09-1.7-7.63-1.27-4.24.85-5.73,2.54-7,4.03-.42.42-.85.85-1.27,1.27-.21.21-.21.64-.21.85h0c0,.21.21.21.42.21s.21,0,.42-.21c.64-.42,1.06-1.06,1.48-1.48,1.06-1.27,2.33-2.76,6.15-3.6,3.39-.85,7,1.06,9.33,2.33-4.45-.42-5.94,1.48-7.42,3.39-1.27,1.7-2.76,3.6-6.57,3.82-5.09.21-8.06,2.54-9.97,4.45.85-2.12,1.91-3.82,3.39-5.51.21-.21.21-.64,0-.85s-.64-.21-.85,0h0c-2.12,2.33-3.6,5.09-4.45,8.06-.64-2.54-1.91-8.27.42-12.51Zm-28.63-15.27c.42,0,.85.21,1.06.21,1.91.64,5.94,2.12,8.91,5.51.64.64,1.06,1.27,1.48,1.91-.64-.42-1.48-.85-2.12-1.06-2.33-1.27-4.88-1.91-7.42-2.12-1.06,0-2.33-.21-3.39-.42-1.27-.42-2.54-.85-3.82-1.48-6.36-3.18-9.54-8.48-9.12-14.21,1.48,4.88,5.3,8.69,10.18,10.39h.21c.21,0,.64-.21.64-.42s-.21-.64-.42-.64c-4.24-1.48-7.63-4.88-9.12-9.12,2.76,3.82,4.88,4.03,9.33,5.09,1.7.42,3.82.85,6.36,1.48h.21c4.88,1.27,7.42,4.45,8.48,7.63.64,1.48.85,2.97,1.06,4.45-.64-.85-1.27-1.7-1.91-2.54-3.18-3.18-7-4.67-9.12-5.3-.85-.21-1.27-.42-1.27-.42-.21,0-.64.21-.64.42,0,.21,0,.64.42.64h0Zm-4.03,28.42c1.27,0,2.76.21,4.03.42,2.33.42,4.88,1.06,7,1.91-1.48,0-3.18.42-4.67.85-.64.21-1.48.42-2.33.42-2.76.42-5.3.85-8.06.85-.85,0-1.7,0-2.54-.21-5.94-1.27-8.48-7-9.33-9.54,2.76,1.48,5.73,2.54,8.91,2.76,2.54.21,4.88,0,7.21-.64,1.06-.21,2.33-.42,3.39-.42,5.09,0,8.06,3.82,9.54,5.73-3.18-1.27-6.36-2.12-9.75-2.76-1.27-.21-2.33-.42-3.6-.42h0c-.21,0-.64.21-.64.42.21.21.42.64.85.64h0Zm20.78,15.9l.64-.42,2.54-1.27c-.64.64-1.27,1.27-1.91,2.12-.21.21-.21.42-.42.64-.64.21-1.27.64-1.91,1.06.21-1.06.42-1.91,1.06-2.12h0Zm4.45,9.33c-3.6,0-7.42-1.91-7.85-2.54q0-.42.21-.64c.64-.42,1.06-1.06,1.27-1.7.21-.85,1.06-1.27,1.91-1.7-.21.21-.21.64-.21,1.06s-.21.64-.42,1.27c-.21.42-.21,1.06.64,1.7,1.27,1.27,4.88,2.12,7,2.33-.85,0-1.7.21-2.54.21Zm3.6-1.7c-.85.42-5.73-.64-7.21-1.91-.21-.21-.21-.42-.21-.42.21-.42.21-.85.42-1.27.21-.85.42-1.48,1.48-2.97,1.27-1.7,3.18-3.6,4.45-3.82h.42c.64.42,2.12,4.88,1.7,7.85,0,1.06-.21,2.12-1.06,2.54h0Zm.85.85q.21,0,0,0c.64-.64,1.27-1.48,1.48-2.97.21-2.33-.42-5.51-1.27-7.42,1.48,1.48,2.76,2.97,3.82,4.45.64.85,1.06,1.91,1.27,2.97.42,2.97-.21,6.36-1.06,10.18v.42c-1.06-4.45-2.97-6.79-4.24-7.63h0Zm-3.82,18.45c-4.67-4.45-8.48-6.36-10.6-7-.42-.21-1.06-.21-1.48-.42-.21,0-.64.21-.64.42s.21.64.42.64c.64,0,1.27.21,1.7.42,2.33,1.06,4.67,2.33,6.57,3.82-1.91-.85-3.82-1.27-5.94-1.7h-.42c-4.45-.85-8.48-3.18-11.66-6.57h0c-1.7-1.7-2.76-3.82-3.6-6.15.85,1.27,1.7,2.33,2.76,3.18,2.12,1.91,4.45,3.18,7.21,4.24h.21c.21,0,.64-.21.64-.64,0-.21-.21-.42-.42-.64,0,0-4.88-1.7-8.27-5.73-.42-.64-1.06-1.27-1.48-1.91.21.21.64.42.85.42,1.27.64,2.97.85,4.24.64.21,0,.64,0,1.06-.21,1.91-.42,3.82-.42,5.73-.21h0c2.33.21,4.88,1.27,7.42,3.6,5.09,4.67,5.73,11.03,5.73,13.78h0Zm11.88,37.11c0-.42.21-.64.42-.85s.64-.21,1.06-.21h0c.42,0,.64.21.85.42s.42.64.21,1.06c0,.85-.85,1.27-1.48,1.27-.64-.21-1.27-.85-1.06-1.7h0Zm5.09-18.24c.21,0,.64-.21.42-.64h0c0-.21-.21-.64-.64-.42-2.12.21-4.24,1.27-5.73,2.54,2.33-4.45,5.94-6.36,12.09-6.15h1.27c7,.85,11.45-1.27,13.57-2.54-1.06,4.45-6.36,10.6-13.36,10.81-2.54,0-5.3-.21-7.85-.42-2.33-.21-4.24-.42-5.73-.21,1.48-1.7,3.6-2.76,5.94-2.97h0Zm10.39-55.77h0c0-1.06,0-2.76-.21-5.3-.21-2.12,1.06-3.18,2.12-3.6.85-.42,1.7-.42,2.76-.42,1.91.21,3.82,1.06,5.3,2.33-.85.42-1.7,1.06-2.54,1.7-.21.21-.21.64,0,.85h0s.21.21.42.21.42,0,.42-.21c0,0,1.48-1.48,2.97-1.91h0c1.27-.42,2.76,0,4.24.85,2.12,1.27,3.82,3.18,4.67,5.51-2.97.85-6.79,3.6-8.27,7-.85,2.12-1.91,4.45-2.54,6.15-1.06,2.12-2.12,2.54-2.33,2.54-.42,0-.85-.42-1.06-.64-1.27-1.91-6.15-10.18-5.94-15.06h0Zm13.36,13.15c-.21.42-.21.85-.21,1.27-1.27.64-2.54,1.27-3.6,2.12.85-1.48,2.54-2.76,3.39-3.18.21-.21.42-.21.42-.21h0Zm-.21-1.48h0q0-.21.21-.21h0s.21,0,.21.21v.21h0c0-.21-.21-.21-.42-.21h0Zm-17.6,1.7c-.21-4.24,2.33-8.48,3.6-10.18,1.06,5.09,4.67,10.81,5.51,12.51.21.42.42.64.42,1.06-1.91,1.27-5.51,4.03-7.21,6.15-1.27-2.97-2.12-6.15-2.33-9.54Zm10.39,23.33c-.21.64-.42,1.27-.85,1.27-.85,0-2.54-1.48-4.24-4.45-.64-1.27-1.27-2.33-1.91-3.18-1.7-2.54-2.54-3.82-.64-5.73h0c.85-1.48,4.24-4.24,6.79-5.94l.64,1.7c-.42,2.97-2.54,7-2.54,7-.21.21,0,.64.21.85h.21c.21,0,.42-.21.64-.42.85-1.7,1.7-3.6,2.33-5.51l.85,1.7c.21.64.42,1.27.42,2.33,0,.21.21.64.21,1.06s.21.85.21,1.27c-.21,2.33-2.33,3.39-2.33,3.39-.21.21-.42.42-.21.85,0,.21.21.21.42.21h.21c1.06-.64,1.91-1.48,2.54-2.54,0,2.12-.85,2.97-1.48,3.82-.85.21-1.48.85-1.48,2.33h0Zm1.27-.21c0-.85.42-1.27,1.06-1.7.64-.64,1.27-1.27,1.48-2.12.42,1.27,1.06,2.54,1.91,3.6-1.27.42-3.6,1.27-4.45.21h0Zm24.6-11.24c-.21.64-.85,1.06-1.48,1.7-1.06.85-2.54,2.12-2.76,4.03-.21,2.33-2.12,2.76-2.33,2.97-1.27,0-2.33-.42-3.39-1.06-.21-.21-.64,0-.85.21s0,.64.21.85c1.06.42,2.12.85,3.18,1.06-.85,1.48-2.12,2.54-3.6,3.18-2.76,1.48-7.63-2.12-8.06-2.33-1.27-1.27-2.12-3.6-2.76-6.15v-.64q0-.21-.21-.42c-.21-1.06-.42-2.12-.64-2.97s-.42-1.7-.42-2.12v-2.54l1.7,1.27c2.12,2.12,4.88,2.97,7.85,3.18,5.51.42,11.45-1.7,13.36-2.33.21.64.21,1.48.21,2.12h0Zm-.21-3.39c-.85.42-14,5.3-19.93,0,.21,0,.42,0,.85.21h1.06c0,.21.21.21.21.21.21.21.64.42,1.06.42s.85,0,1.06-.42c.64-.42.64-1.48.21-2.12h0c-.21-.21-.64-.42-1.06-.42s-.85.21-1.06.42c-.21.21-.21.42-.42.42-.64.21-2.33.21-3.39-1.06h.42c1.27,0,2.33-.21,3.6-.85.21.21.64.42.85.42h.21c.42,0,.85-.21,1.06-.42.21-.21.42-.64.21-1.06,0-.42-.21-.85-.42-1.06s-.64-.42-1.06-.42-.85.21-1.06.42c-.21.21-.21.42-.21.85-1.06.42-2.97,1.27-4.45.21h-.21c1.27-1.27,3.82-2.54,4.88-2.76.21,0,.42.21.42.21h.64c.42-.21.64-.42.85-.85s.21-.85,0-1.06c-.21-.42-.85-.85-1.27-.85l.21-.21c.21-.42.21-.85,0-1.06-.21-.42-.42-.64-.85-.85s-.85-.21-1.06,0c-.42.21-.64.42-.85.85s-.21.64,0,1.06c-.42.21-1.06.64-1.48,1.06h0c.64-1.7,1.48-3.82,2.33-5.51,1.48-3.39,5.3-5.73,8.06-6.57h0c.42-.21,1.27,0,2.33.64,2.76,1.7,5.73,5.94,6.36,8.69-1.06.21-2.12.42-2.97.64-.21.21-.42.42-.42.85,0,.21.21.42.42.42h.21c1.06-.42,2.12-.64,3.18-.64.85.21.85.42,1.7,2.12.21.64.64,1.27,1.06,2.12,1.91,2.97-.85,5.51-1.27,5.94h0Zm-16.96-.42q0-.21,0,0l.21-.21h.21v.42h-.21c-.21,0-.21-.21-.21-.21h0Zm.42-3.6h0s.21,0,0,0h0q.21,0,.42.21,0,.21-.21.21h0q0-.21-.21-.42h0Zm-.64-3.82q0-.21.21-.21t.42.21h0v.21l-.21.21h0c-.21-.42-.42-.42-.42-.42h0Zm-22.69,83.13h0c-1.48-.21-2.97-.64-4.45-1.27-3.18-1.48-5.94-4.03-7.63-7-2.12-4.03-6.79-7-12.51-8.48-3.39-.85-6.36-2.54-9.54-1.91l-.21,1.27c2.97-.85,5.94,1.06,9.54,1.91,5.3,1.27,9.75,4.03,11.66,7.85,1.27,2.54,3.18,4.67,5.51,6.15-3.18-1.06-6.15-2.76-8.91-4.88-.21-.21-.64-.21-.85,0s-.21.64,0,.85c4.88,4.24,10.6,5.94,14,6.57-4.03,1.06-10.18,1.91-15.27-.42-3.18-1.48-6.79-4.45-10.18-7.42-2.33-2.12-4.24-5.94-6.36-7.21l-.21,1.27c1.91,1.27,3.6,5.09,5.73,6.79,3.39,2.97,7,6.15,10.6,7.63,1.91.85,4.03,1.27,6.36,1.48,5.09.21,9.97-1.06,12.51-1.7h.64v-.42h0c0-.64-.21-.85-.42-1.06h0Zm-17.6-7.85c.21,0,.42,0,.42-.21.21-.21.21-.64-.21-.85h0c-3.39-2.33-10.39-6.79-17.39-7.21l-.21,1.27c6.79.42,13.78,4.88,16.96,7h.42Z"/><path class="cls-12" d="m143.99,84.87h.42c1.06-.64,2.12-1.06,3.18-1.27.21,0,.42-.42.42-.64s-.42-.42-.64-.42c-1.27.21-2.54.85-3.82,1.48-.21.21-.42.64-.21.85h0c.21-.21.42,0,.64,0Z"/><path class="cls-10" d="m132.32,77.87h0c.42,0,.64-.21.64-.42,1.27-6.15,5.94-7,6.15-7s.42-.42.42-.64-.42-.42-.64-.42c0,0-5.73.85-7,7.85-.21.42,0,.64.42.64h0Z"/><path class="cls-28" d="m115.57,126.22c1.06.21,2.33.42,3.39.42,7.63.42,11.45-3.82,11.66-4.03.21-.21.21-.64,0-.85s-.64-.21-.85,0-4.88,5.09-13.78,3.18c-.21,0-.64,0-.85.42-.21.21,0,.64.42.85h0Z"/><path class="cls-29" d="m145.68,120.92c-.64,0-1.27,0-1.7.42-1.06.85-1.06,2.12-.42,2.97.42.42.85.85,1.48.85h.21c1.27,0,2.12-.85,2.33-1.91,0-1.06-.85-2.33-1.91-2.33Zm.64,2.33c0,.64-.64.85-1.06.85-.21,0-.42-.21-.64-.42-.21-.21-.21-.42-.21-.85,0-.21.21-.42.42-.64s.42-.21.64-.21h0c.64.21,1.06.64.85,1.27h0Z"/><path class="cls-5" d="m51.11,39.49c-.64,0-1.27,0-1.7.42-.42.42-.85.85-.85,1.48-.21,1.27.64,2.33,1.91,2.33h.21c1.27,0,2.33-.85,2.33-2.12.21-.85-.85-1.91-1.91-2.12h0Zm.64,2.33c0,.21-.21.42-.42.64-.42.42-1.06.21-1.48-.21-.21-.21-.21-.42-.21-.85,0-.21.21-.42.42-.64.21-.21.42-.21.64-.21h0c.85.21,1.27.85,1.06,1.27h0Z"/><path class="cls-3" d="m78.46,75.54c-.42-.42-1.06-.85-1.7-.85h-.64c-1.27.21-2.33,1.48-2.12,2.76.21,1.06,1.06,1.91,2.12,2.12h.21c.64,0,1.27-.21,1.7-.64,1.27-.85,1.27-2.33.42-3.39h0Zm-.64,1.7c0,.21,0,.42-.21.64-.21.42-.64.64-1.27.42-.42,0-.64-.21-.85-.42-.21-.21-.21-.64-.21-.85,0-.64.64-1.06,1.27-1.06h0c.42,0,.64.21.85.42.42.21.64.64.42.85Z"/><path class="cls-13" d="m157.35,85.93c-.42-.85-.85-1.48-1.06-2.12-.85-1.48-1.06-2.33-2.12-2.76-.64-3.18-4.03-7.85-7-9.75-1.06-.64-1.91-.85-2.76-.85-1.06-2.54-2.76-4.88-5.3-6.15-1.7-1.06-3.39-1.27-4.88-1.06-2.54-2.76-6.79-3.82-9.75-2.54-1.91.85-2.97,2.54-2.97,4.67.21,4.45.21,6.36.21,7-.85,1.06-4.67,6.15-4.45,11.66,0,1.91.42,3.6.85,5.3-7,2.33-11.88,7.85-14.84,16.33,0-3.18.64-6.36,1.27-9.33.64-3.39,1.27-6.57,1.06-9.33h0c1.06-8.48,8.27-12.51,9.75-13.36l1.27.64h.21c1.48,0,2.54-1.06,2.76-2.33,0-1.48-1.06-2.54-2.33-2.76-1.27,0-2.54.85-2.76,2.33,0,.42,0,.85.21,1.27-2.12,1.06-4.03,2.54-5.51,4.24.64-3.6,0-5.51-.64-6.57.21-.21.42-.64.42-1.06s0-1.06-.42-1.27c0-.42-.42-.64-.85-.64s-.85,0-1.27.42c-.42.21-.64.64-.64,1.27,0,.42,0,1.06.42,1.27.21.42.64.64,1.27.64h.21c.42,1.06,1.27,3.39,0,8.06-1.06,1.48-1.91,3.18-2.33,5.09-.21-.42-.42-.85-.64-1.27h0l-.21-.21c-.21-.42-.64-1.06-1.06-1.48-.21-1.27-1.7-7.85-.42-14.42.42-1.06,2.97-6.79,11.03-7.21,4.45-.21,6.15-2.33,7.42-4.24,1.7-2.12,2.97-4.03,8.91-2.54h.42q.21,0,.21-.21h0s.21-.21,0-.42h0v-.21s-6.36-9.75-21.42-6.36c-4.03.85-6.79,2.76-8.48,5.73-3.18,5.94-.21,14.21.42,15.69-.64,4.24-.64,8.27,0,12.51-1.06-1.27-2.33-2.33-3.39-3.6-4.45-4.45-9.54-9.75-9.97-16.12-.64-11.45-.64-13.57-.64-13.57,0-2.97-.42-5.94-1.7-8.48-1.7-3.6-4.88-6.36-8.91-7.21h-.42c-2.54-.64-4.45-1.06-6.15-1.48-5.3-1.06-6.79-1.27-10.39-7.21l-.21-.21h-.42s-.21,0-.21.21h0v.42c-1.91,7.42,1.7,14.42,9.33,18.24,1.06.64,2.33,1.06,3.6,1.48s2.54.64,4.03.64c2.54.21,4.88.85,7,2.12,1.27.64,2.54,1.48,3.6,2.12,0,.85.21,4.03.64,13.36.21,4.88,2.97,8.91,6.15,12.3-2.54-1.7-5.51-3.18-8.27-4.45-.42-1.06-4.03-7.42-11.03-7.85-1.27,0-2.76.21-4.03.42-5.73,1.48-11.66.42-16.54-2.76-.21-.21-.42-.21-.64,0-.21.21-.21.42-.21.64s2.33,10.6,11.24,12.09c.42,0,.85.21,1.27.21h1.06c2.76,0,5.51-.21,8.27-.85.85-.21,1.48-.42,2.12-.42,2.54-.64,4.45-1.06,7.63-.64,4.88,2.12,9.33,4.88,13.36,8.48h-.42c-.64.21-1.27.42-1.91.85-1.06-.64-2.97.42-4.67,1.48l-.64.42c-1.48.85-1.7,3.18-1.7,4.03-.21.21-.64.64-.64,1.06-.21.42-.42.85-.85,1.06-.64.42-1.06,1.06-.64,1.91.21,1.27,4.45,2.97,7.42,3.39h.85c1.91.21,3.39-.21,4.45-1.06,1.27,1.06,4.03,4.03,3.82,11.03h0c-.64,4.03-.85,8.27.85,12.3,1.7,4.24,2.97,10.6.85,16.96,0,.21-.21.42-.21.64h0c-.64,1.91-1.7,3.6-2.76,5.3,3.6-9.12,1.91-20.57-4.45-27.36h0c0-1.7.21-10.18-5.51-15.27-3.18-2.76-6.15-3.82-8.69-4.03-1.91-.21-3.82,0-5.51.42-.42,0-.64.21-1.06.21-1.7.21-3.6-.21-4.88-1.27-.85-.64-1.27-1.48-1.7-2.33,0,0,0-.21-.21-.21h0c-.21,0-.21-.21-.42,0h0s-.21,0-.21.21v.42c0,4.88,2.12,9.54,5.94,12.94,3.18,2.97,7.21,4.88,11.45,5.73h0c6.79,1.27,9.75,3.82,9.97,4.03l.21.21c7,7.42,8.06,21.21,2.12,30.11-2.33,2.12-4.88,3.82-7.85,5.09-3.18,1.48-5.3,1.06-7.85,1.91-.64.21-1.06.42-1.7.85l-.21,1.48c2.97-1.48,6.15-1.06,10.39-3.18,3.6-1.7,7.63-1.91,10.6-1.7,1.48,0,3.18.21,4.67.64,0,1.27,1.06,2.33,2.33,2.54h-.42c1.48,0,2.76-1.06,2.76-2.33,0-.64-.21-1.27-.64-1.7s-1.06-.85-1.7-1.06c-.64,0-1.27.21-1.91.64-.21.21-.42.42-.64.85-3.6-.85-7.21-.85-10.81-.42,5.09-3.39,8.06-7.63,9.54-12.09,1.06-1.06,3.6-.85,6.79-.42,2.54.42,5.3.42,8.06.42,8.06-.21,14.42-8.06,14.63-13.15,0-.21-.21-.42-.42-.64h-.64s-4.88,4.03-13.78,2.97c-6.36-.64-10.81.85-13.36,4.88.21-4.24-.42-8.48-2.12-12.51-.42-1.27-.85-2.33-1.06-3.6,2.76-9.75,7.85-15.9,15.06-18.45.42,1.27,1.06,2.76,1.7,4.03-2.12,2.33-.85,4.45.64,7,.64.85,1.27,1.91,1.91,2.97,1.7,3.18,3.6,5.09,5.09,5.09h.42c.64,0,1.27-.64,1.48-1.27,1.7,1.06,4.67-.21,5.73-.64,1.27.85,5.73,3.82,8.91,2.33,1.91-.85,3.39-2.33,4.45-4.24,1.7-.64,2.97-2.12,2.97-3.82.21-1.48,1.27-2.33,2.33-3.18.85-.85,1.7-1.48,1.91-2.54s.21-2.12-.21-2.97c1.48-2.54,3.18-5.51,1.7-8.48Zm-41.35-14.21c0-.64.64-1.27,1.48-1.27h0c.85,0,1.27.85,1.27,1.48s-.64,1.27-1.48,1.27h0c-.85-.21-1.48-.85-1.27-1.48h0Zm-8.69-2.12h0q-.21,0,0,0c-.21,0-.21-.21-.21-.42s.21-.42.64-.42h0q.21,0,.42.21c0,.21.21.21.21.42v.21c-.64-.21-.85-.21-1.06,0Zm-4.88-18.02c1.48-2.76,4.03-4.45,7.63-5.09,2.33-.42,4.88-.64,7.21-.64,3.18.21,6.15,1.06,8.91,2.76-2.33-1.06-5.09-1.7-7.63-1.27-4.24.85-5.73,2.54-7,4.03-.42.42-.85.85-1.27,1.27-.21.21-.21.64-.21.85h0c0,.21.21.21.42.21s.21,0,.42-.21c.64-.42,1.06-1.06,1.48-1.48,1.06-1.27,2.33-2.76,6.15-3.6,3.39-.85,7,1.06,9.33,2.33-4.45-.42-5.94,1.48-7.42,3.39-1.27,1.7-2.76,3.6-6.57,3.82-5.09.21-8.06,2.54-9.97,4.45.85-2.12,1.91-3.82,3.39-5.51.21-.21.21-.64,0-.85s-.64-.21-.85,0h0c-2.12,2.33-3.6,5.09-4.45,8.06-.64-2.54-1.91-8.27.42-12.51Zm-28.63-15.27c.42,0,.85.21,1.06.21,1.91.64,5.94,2.12,8.91,5.51.64.64,1.06,1.27,1.48,1.91-.64-.42-1.48-.85-2.12-1.06-2.33-1.27-4.88-1.91-7.42-2.12-1.06,0-2.33-.21-3.39-.42-1.27-.42-2.54-.85-3.82-1.48-6.36-3.18-9.54-8.48-9.12-14.21,1.48,4.88,5.3,8.69,10.18,10.39h.21c.21,0,.64-.21.64-.42s-.21-.64-.42-.64c-4.24-1.48-7.63-4.88-9.12-9.12,2.76,3.82,4.88,4.03,9.33,5.09,1.7.42,3.82.85,6.36,1.48h.21c4.88,1.27,7.42,4.45,8.48,7.63.64,1.48.85,2.97,1.06,4.45-.64-.85-1.27-1.7-1.91-2.54-3.18-3.18-7-4.67-9.12-5.3-.85-.21-1.27-.42-1.27-.42-.21,0-.64.21-.64.42,0,.21,0,.64.42.64h0Zm-4.03,28.42c1.27,0,2.76.21,4.03.42,2.33.42,4.88,1.06,7,1.91-1.48,0-3.18.42-4.67.85-.64.21-1.48.42-2.33.42-2.76.42-5.3.85-8.06.85-.85,0-1.7,0-2.54-.21-5.94-1.27-8.48-7-9.33-9.54,2.76,1.48,5.73,2.54,8.91,2.76,2.54.21,4.88,0,7.21-.64,1.06-.21,2.33-.42,3.39-.42,5.09,0,8.06,3.82,9.54,5.73-3.18-1.27-6.36-2.12-9.75-2.76-1.27-.21-2.33-.42-3.6-.42h0c-.21,0-.64.21-.64.42.21.21.42.64.85.64h0Zm20.78,15.9l.64-.42,2.54-1.27c-.64.64-1.27,1.27-1.91,2.12-.21.21-.21.42-.42.64-.64.21-1.27.64-1.91,1.06.21-1.06.42-1.91,1.06-2.12h0Zm4.45,9.33c-3.6,0-7.42-1.91-7.85-2.54q0-.42.21-.64c.64-.42,1.06-1.06,1.27-1.7.21-.85,1.06-1.27,1.91-1.7-.21.21-.21.64-.21,1.06s-.21.64-.42,1.27c-.21.42-.21,1.06.64,1.7,1.27,1.27,4.88,2.12,7,2.33-.85,0-1.7.21-2.54.21Zm3.6-1.7c-.85.42-5.73-.64-7.21-1.91-.21-.21-.21-.42-.21-.42.21-.42.21-.85.42-1.27.21-.85.42-1.48,1.48-2.97,1.27-1.7,3.18-3.6,4.45-3.82h.42c.64.42,2.12,4.88,1.7,7.85,0,1.06-.21,2.12-1.06,2.54h0Zm.85.85q.21,0,0,0c.64-.64,1.27-1.48,1.48-2.97.21-2.33-.42-5.51-1.27-7.42,1.48,1.48,2.76,2.97,3.82,4.45.64.85,1.06,1.91,1.27,2.97.42,2.97-.21,6.36-1.06,10.18v.42c-1.06-4.45-2.97-6.79-4.24-7.63h0Zm-3.82,18.45c-4.67-4.45-8.48-6.36-10.6-7-.42-.21-1.06-.21-1.48-.42-.21,0-.64.21-.64.42s.21.64.42.64c.64,0,1.27.21,1.7.42,2.33,1.06,4.67,2.33,6.57,3.82-1.91-.85-3.82-1.27-5.94-1.7h-.42c-4.45-.85-8.48-3.18-11.66-6.57h0c-1.7-1.7-2.76-3.82-3.6-6.15.85,1.27,1.7,2.33,2.76,3.18,2.12,1.91,4.45,3.18,7.21,4.24h.21c.21,0,.64-.21.64-.64,0-.21-.21-.42-.42-.64,0,0-4.88-1.7-8.27-5.73-.42-.64-1.06-1.27-1.48-1.91.21.21.64.42.85.42,1.27.64,2.97.85,4.24.64.21,0,.64,0,1.06-.21,1.91-.42,3.82-.42,5.73-.21h0c2.33.21,4.88,1.27,7.42,3.6,5.09,4.67,5.73,11.03,5.73,13.78h0Zm11.88,37.11c0-.42.21-.64.42-.85s.64-.21,1.06-.21h0c.42,0,.64.21.85.42s.42.64.21,1.06c0,.85-.85,1.27-1.48,1.27-.64-.21-1.27-.85-1.06-1.7h0Zm5.09-18.24c.21,0,.64-.21.42-.64h0c0-.21-.21-.64-.64-.42-2.12.21-4.24,1.27-5.73,2.54,2.33-4.45,5.94-6.36,12.09-6.15h1.27c7,.85,11.45-1.27,13.57-2.54-1.06,4.45-6.36,10.6-13.36,10.81-2.54,0-5.3-.21-7.85-.42-2.33-.21-4.24-.42-5.73-.21,1.48-1.7,3.6-2.76,5.94-2.97h0Zm10.39-55.77h0c0-1.06,0-2.76-.21-5.3-.21-2.12,1.06-3.18,2.12-3.6.85-.42,1.7-.42,2.76-.42,1.91.21,3.82,1.06,5.3,2.33-.85.42-1.7,1.06-2.54,1.7-.21.21-.21.64,0,.85h0s.21.21.42.21.42,0,.42-.21c0,0,1.48-1.48,2.97-1.91h0c1.27-.42,2.76,0,4.24.85,2.12,1.27,3.82,3.18,4.67,5.51-2.97.85-6.79,3.6-8.27,7-.85,2.12-1.91,4.45-2.54,6.15-1.06,2.12-2.12,2.54-2.33,2.54-.42,0-.85-.42-1.06-.64-1.27-1.91-6.15-10.18-5.94-15.06h0Zm13.36,13.15c-.21.42-.21.85-.21,1.27-1.27.64-2.54,1.27-3.6,2.12.85-1.48,2.54-2.76,3.39-3.18.21-.21.42-.21.42-.21h0Zm-.21-1.48h0q0-.21.21-.21h0s.21,0,.21.21v.21h0c0-.21-.21-.21-.42-.21h0Zm-17.6,1.7c-.21-4.24,2.33-8.48,3.6-10.18,1.06,5.09,4.67,10.81,5.51,12.51.21.42.42.64.42,1.06-1.91,1.27-5.51,4.03-7.21,6.15-1.27-2.97-2.12-6.15-2.33-9.54Zm10.39,23.33c-.21.64-.42,1.27-.85,1.27-.85,0-2.54-1.48-4.24-4.45-.64-1.27-1.27-2.33-1.91-3.18-1.7-2.54-2.54-3.82-.64-5.73h0c.85-1.48,4.24-4.24,6.79-5.94l.64,1.7c-.42,2.97-2.54,7-2.54,7-.21.21,0,.64.21.85h.21c.21,0,.42-.21.64-.42.85-1.7,1.7-3.6,2.33-5.51l.85,1.7c.21.64.42,1.27.42,2.33,0,.21.21.64.21,1.06s.21.85.21,1.27c-.21,2.33-2.33,3.39-2.33,3.39-.21.21-.42.42-.21.85,0,.21.21.21.42.21h.21c1.06-.64,1.91-1.48,2.54-2.54,0,2.12-.85,2.97-1.48,3.82-.85.21-1.48.85-1.48,2.33h0Zm1.27-.21c0-.85.42-1.27,1.06-1.7.64-.64,1.27-1.27,1.48-2.12.42,1.27,1.06,2.54,1.91,3.6-1.27.42-3.6,1.27-4.45.21h0Zm24.6-11.24c-.21.64-.85,1.06-1.48,1.7-1.06.85-2.54,2.12-2.76,4.03-.21,2.33-2.12,2.76-2.33,2.97-1.27,0-2.33-.42-3.39-1.06-.21-.21-.64,0-.85.21s0,.64.21.85c1.06.42,2.12.85,3.18,1.06-.85,1.48-2.12,2.54-3.6,3.18-2.76,1.48-7.63-2.12-8.06-2.33-1.27-1.27-2.12-3.6-2.76-6.15v-.64q0-.21-.21-.42c-.21-1.06-.42-2.12-.64-2.97s-.42-1.7-.42-2.12v-2.54l1.7,1.27c2.12,2.12,4.88,2.97,7.85,3.18,5.51.42,11.45-1.7,13.36-2.33.21.64.21,1.48.21,2.12h0Zm-.21-3.39c-.85.42-14,5.3-19.93,0,.21,0,.42,0,.85.21h1.06c0,.21.21.21.21.21.21.21.64.42,1.06.42s.85,0,1.06-.42c.64-.42.64-1.48.21-2.12h0c-.21-.21-.64-.42-1.06-.42s-.85.21-1.06.42c-.21.21-.21.42-.42.42-.64.21-2.33.21-3.39-1.06h.42c1.27,0,2.33-.21,3.6-.85.21.21.64.42.85.42h.21c.42,0,.85-.21,1.06-.42.21-.21.42-.64.21-1.06,0-.42-.21-.85-.42-1.06s-.64-.42-1.06-.42-.85.21-1.06.42c-.21.21-.21.42-.21.85-1.06.42-2.97,1.27-4.45.21h-.21c1.27-1.27,3.82-2.54,4.88-2.76.21,0,.42.21.42.21h.64c.42-.21.64-.42.85-.85s.21-.85,0-1.06c-.21-.42-.85-.85-1.27-.85l.21-.21c.21-.42.21-.85,0-1.06-.21-.42-.42-.64-.85-.85s-.85-.21-1.06,0c-.42.21-.64.42-.85.85s-.21.64,0,1.06c-.42.21-1.06.64-1.48,1.06h0c.64-1.7,1.48-3.82,2.33-5.51,1.48-3.39,5.3-5.73,8.06-6.57h0c.42-.21,1.27,0,2.33.64,2.76,1.7,5.73,5.94,6.36,8.69-1.06.21-2.12.42-2.97.64-.21.21-.42.42-.42.85,0,.21.21.42.42.42h.21c1.06-.42,2.12-.64,3.18-.64.85.21.85.42,1.7,2.12.21.64.64,1.27,1.06,2.12,1.91,2.97-.85,5.51-1.27,5.94h0Zm-16.96-.42q0-.21,0,0l.21-.21h.21v.42h-.21c-.21,0-.21-.21-.21-.21h0Zm.42-3.6h0s.21,0,0,0h0q.21,0,.42.21,0,.21-.21.21h0q0-.21-.21-.42h0Zm-.64-3.82q0-.21.21-.21t.42.21h0v.21l-.21.21h0c-.21-.42-.42-.42-.42-.42h0Zm-22.69,83.13h0c-1.48-.21-2.97-.64-4.45-1.27-3.18-1.48-5.94-4.03-7.63-7-2.12-4.03-6.79-7-12.51-8.48-3.39-.85-6.36-2.54-9.54-1.91l-.21,1.27c2.97-.85,5.94,1.06,9.54,1.91,5.3,1.27,9.75,4.03,11.66,7.85,1.27,2.54,3.18,4.67,5.51,6.15-3.18-1.06-6.15-2.76-8.91-4.88-.21-.21-.64-.21-.85,0s-.21.64,0,.85c4.88,4.24,10.6,5.94,14,6.57-4.03,1.06-10.18,1.91-15.27-.42-3.18-1.48-6.79-4.45-10.18-7.42-2.33-2.12-4.24-5.94-6.36-7.21l-.21,1.27c1.91,1.27,3.6,5.09,5.73,6.79,3.39,2.97,7,6.15,10.6,7.63,1.91.85,4.03,1.27,6.36,1.48,5.09.21,9.97-1.06,12.51-1.7h.64v-.42h0c0-.64-.21-.85-.42-1.06h0Zm-17.6-7.85c.21,0,.42,0,.42-.21.21-.21.21-.64-.21-.85h0c-3.39-2.33-10.39-6.79-17.39-7.21l-.21,1.27c6.79.42,13.78,4.88,16.96,7h.42Z"/><path class="cls-2" d="m143.99,84.87h.42c1.06-.64,2.12-1.06,3.18-1.27.21,0,.42-.42.42-.64s-.42-.42-.64-.42c-1.27.21-2.54.85-3.82,1.48-.21.21-.42.64-.21.85h0c.21-.21.42,0,.64,0Z"/><path class="cls-4" d="m132.32,77.87h0c.42,0,.64-.21.64-.42,1.27-6.15,5.94-7,6.15-7s.42-.42.42-.64-.42-.42-.64-.42c0,0-5.73.85-7,7.85-.21.42,0,.64.42.64h0Z"/><path class="cls-25" d="m115.57,126.22c1.06.21,2.33.42,3.39.42,7.63.42,11.45-3.82,11.66-4.03.21-.21.21-.64,0-.85s-.64-.21-.85,0-4.88,5.09-13.78,3.18c-.21,0-.64,0-.85.42-.21.21,0,.64.42.85h0Z"/><path class="cls-6" d="m145.68,120.92c-.64,0-1.27,0-1.7.42-1.06.85-1.06,2.12-.42,2.97.42.42.85.85,1.48.85h.21c1.27,0,2.12-.85,2.33-1.91,0-1.06-.85-2.33-1.91-2.33Zm.64,2.33c0,.64-.64.85-1.06.85-.21,0-.42-.21-.64-.42-.21-.21-.21-.42-.21-.85,0-.21.21-.42.42-.64s.42-.21.64-.21h0c.64.21,1.06.64.85,1.27h0Z"/><path class="cls-14" d="m51.11,39.49c-.64,0-1.27,0-1.7.42-.42.42-.85.85-.85,1.48-.21,1.27.64,2.33,1.91,2.33h.21c1.27,0,2.33-.85,2.33-2.12.21-.85-.85-1.91-1.91-2.12h0Zm.64,2.33c0,.21-.21.42-.42.64-.42.42-1.06.21-1.48-.21-.21-.21-.21-.42-.21-.85,0-.21.21-.42.42-.64.21-.21.42-.21.64-.21h0c.85.21,1.27.85,1.06,1.27h0Z"/><path class="cls-20" d="m78.46,75.54c-.42-.42-1.06-.85-1.7-.85h-.64c-1.27.21-2.33,1.48-2.12,2.76.21,1.06,1.06,1.91,2.12,2.12h.21c.64,0,1.27-.21,1.7-.64,1.27-.85,1.27-2.33.42-3.39h0Zm-.64,1.7c0,.21,0,.42-.21.64-.21.42-.64.64-1.27.42-.42,0-.64-.21-.85-.42-.21-.21-.21-.64-.21-.85,0-.64.64-1.06,1.27-1.06h0c.42,0,.64.21.85.42.42.21.64.64.42.85Z"/><path class="cls-24" d="m157.35,85.93c-.42-.85-.85-1.48-1.06-2.12-.85-1.48-1.06-2.33-2.12-2.76-.64-3.18-4.03-7.85-7-9.75-1.06-.64-1.91-.85-2.76-.85-1.06-2.54-2.76-4.88-5.3-6.15-1.7-1.06-3.39-1.27-4.88-1.06-2.54-2.76-6.79-3.82-9.75-2.54-1.91.85-2.97,2.54-2.97,4.67.21,4.45.21,6.36.21,7-.85,1.06-4.67,6.15-4.45,11.66,0,1.91.42,3.6.85,5.3-7,2.33-11.88,7.85-14.84,16.33,0-3.18.64-6.36,1.27-9.33.64-3.39,1.27-6.57,1.06-9.33h0c1.06-8.48,8.27-12.51,9.75-13.36l1.27.64h.21c1.48,0,2.54-1.06,2.76-2.33,0-1.48-1.06-2.54-2.33-2.76-1.27,0-2.54.85-2.76,2.33,0,.42,0,.85.21,1.27-2.12,1.06-4.03,2.54-5.51,4.24.64-3.6,0-5.51-.64-6.57.21-.21.42-.64.42-1.06s0-1.06-.42-1.27c0-.42-.42-.64-.85-.64s-.85,0-1.27.42c-.42.21-.64.64-.64,1.27,0,.42,0,1.06.42,1.27.21.42.64.64,1.27.64h.21c.42,1.06,1.27,3.39,0,8.06-1.06,1.48-1.91,3.18-2.33,5.09-.21-.42-.42-.85-.64-1.27h0l-.21-.21c-.21-.42-.64-1.06-1.06-1.48-.21-1.27-1.7-7.85-.42-14.42.42-1.06,2.97-6.79,11.03-7.21,4.45-.21,6.15-2.33,7.42-4.24,1.7-2.12,2.97-4.03,8.91-2.54h.42q.21,0,.21-.21h0s.21-.21,0-.42h0v-.21s-6.36-9.75-21.42-6.36c-4.03.85-6.79,2.76-8.48,5.73-3.18,5.94-.21,14.21.42,15.69-.64,4.24-.64,8.27,0,12.51-1.06-1.27-2.33-2.33-3.39-3.6-4.45-4.45-9.54-9.75-9.97-16.12-.64-11.45-.64-13.57-.64-13.57,0-2.97-.42-5.94-1.7-8.48-1.7-3.6-4.88-6.36-8.91-7.21h-.42c-2.54-.64-4.45-1.06-6.15-1.48-5.3-1.06-6.79-1.27-10.39-7.21l-.21-.21h-.42s-.21,0-.21.21h0v.42c-1.91,7.42,1.7,14.42,9.33,18.24,1.06.64,2.33,1.06,3.6,1.48s2.54.64,4.03.64c2.54.21,4.88.85,7,2.12,1.27.64,2.54,1.48,3.6,2.12,0,.85.21,4.03.64,13.36.21,4.88,2.97,8.91,6.15,12.3-2.54-1.7-5.51-3.18-8.27-4.45-.42-1.06-4.03-7.42-11.03-7.85-1.27,0-2.76.21-4.03.42-5.73,1.48-11.66.42-16.54-2.76-.21-.21-.42-.21-.64,0-.21.21-.21.42-.21.64s2.33,10.6,11.24,12.09c.42,0,.85.21,1.27.21h1.06c2.76,0,5.51-.21,8.27-.85.85-.21,1.48-.42,2.12-.42,2.54-.64,4.45-1.06,7.63-.64,4.88,2.12,9.33,4.88,13.36,8.48h-.42c-.64.21-1.27.42-1.91.85-1.06-.64-2.97.42-4.67,1.48l-.64.42c-1.48.85-1.7,3.18-1.7,4.03-.21.21-.64.64-.64,1.06-.21.42-.42.85-.85,1.06-.64.42-1.06,1.06-.64,1.91.21,1.27,4.45,2.97,7.42,3.39h.85c1.91.21,3.39-.21,4.45-1.06,1.27,1.06,4.03,4.03,3.82,11.03h0c-.64,4.03-.85,8.27.85,12.3,1.7,4.24,2.97,10.6.85,16.96,0,.21-.21.42-.21.64h0c-.64,1.91-1.7,3.6-2.76,5.3,3.6-9.12,1.91-20.57-4.45-27.36h0c0-1.7.21-10.18-5.51-15.27-3.18-2.76-6.15-3.82-8.69-4.03-1.91-.21-3.82,0-5.51.42-.42,0-.64.21-1.06.21-1.7.21-3.6-.21-4.88-1.27-.85-.64-1.27-1.48-1.7-2.33,0,0,0-.21-.21-.21h0c-.21,0-.21-.21-.42,0h0s-.21,0-.21.21v.42c0,4.88,2.12,9.54,5.94,12.94,3.18,2.97,7.21,4.88,11.45,5.73h0c6.79,1.27,9.75,3.82,9.97,4.03l.21.21c7,7.42,8.06,21.21,2.12,30.11-2.33,2.12-4.88,3.82-7.85,5.09-3.18,1.48-5.3,1.06-7.85,1.91-.64.21-1.06.42-1.7.85l-.21,1.48c2.97-1.48,6.15-1.06,10.39-3.18,3.6-1.7,7.63-1.91,10.6-1.7,1.48,0,3.18.21,4.67.64,0,1.27,1.06,2.33,2.33,2.54h-.42c1.48,0,2.76-1.06,2.76-2.33,0-.64-.21-1.27-.64-1.7s-1.06-.85-1.7-1.06c-.64,0-1.27.21-1.91.64-.21.21-.42.42-.64.85-3.6-.85-7.21-.85-10.81-.42,5.09-3.39,8.06-7.63,9.54-12.09,1.06-1.06,3.6-.85,6.79-.42,2.54.42,5.3.42,8.06.42,8.06-.21,14.42-8.06,14.63-13.15,0-.21-.21-.42-.42-.64h-.64s-4.88,4.03-13.78,2.97c-6.36-.64-10.81.85-13.36,4.88.21-4.24-.42-8.48-2.12-12.51-.42-1.27-.85-2.33-1.06-3.6,2.76-9.75,7.85-15.9,15.06-18.45.42,1.27,1.06,2.76,1.7,4.03-2.12,2.33-.85,4.45.64,7,.64.85,1.27,1.91,1.91,2.97,1.7,3.18,3.6,5.09,5.09,5.09h.42c.64,0,1.27-.64,1.48-1.27,1.7,1.06,4.67-.21,5.73-.64,1.27.85,5.73,3.82,8.91,2.33,1.91-.85,3.39-2.33,4.45-4.24,1.7-.64,2.97-2.12,2.97-3.82.21-1.48,1.27-2.33,2.33-3.18.85-.85,1.7-1.48,1.91-2.54s.21-2.12-.21-2.97c1.48-2.54,3.18-5.51,1.7-8.48Zm-41.35-14.21c0-.64.64-1.27,1.48-1.27h0c.85,0,1.27.85,1.27,1.48s-.64,1.27-1.48,1.27h0c-.85-.21-1.48-.85-1.27-1.48h0Zm-8.69-2.12h0q-.21,0,0,0c-.21,0-.21-.21-.21-.42s.21-.42.64-.42h0q.21,0,.42.21c0,.21.21.21.21.42v.21c-.64-.21-.85-.21-1.06,0Zm-4.88-18.02c1.48-2.76,4.03-4.45,7.63-5.09,2.33-.42,4.88-.64,7.21-.64,3.18.21,6.15,1.06,8.91,2.76-2.33-1.06-5.09-1.7-7.63-1.27-4.24.85-5.73,2.54-7,4.03-.42.42-.85.85-1.27,1.27-.21.21-.21.64-.21.85h0c0,.21.21.21.42.21s.21,0,.42-.21c.64-.42,1.06-1.06,1.48-1.48,1.06-1.27,2.33-2.76,6.15-3.6,3.39-.85,7,1.06,9.33,2.33-4.45-.42-5.94,1.48-7.42,3.39-1.27,1.7-2.76,3.6-6.57,3.82-5.09.21-8.06,2.54-9.97,4.45.85-2.12,1.91-3.82,3.39-5.51.21-.21.21-.64,0-.85s-.64-.21-.85,0h0c-2.12,2.33-3.6,5.09-4.45,8.06-.64-2.54-1.91-8.27.42-12.51Zm-28.63-15.27c.42,0,.85.21,1.06.21,1.91.64,5.94,2.12,8.91,5.51.64.64,1.06,1.27,1.48,1.91-.64-.42-1.48-.85-2.12-1.06-2.33-1.27-4.88-1.91-7.42-2.12-1.06,0-2.33-.21-3.39-.42-1.27-.42-2.54-.85-3.82-1.48-6.36-3.18-9.54-8.48-9.12-14.21,1.48,4.88,5.3,8.69,10.18,10.39h.21c.21,0,.64-.21.64-.42s-.21-.64-.42-.64c-4.24-1.48-7.63-4.88-9.12-9.12,2.76,3.82,4.88,4.03,9.33,5.09,1.7.42,3.82.85,6.36,1.48h.21c4.88,1.27,7.42,4.45,8.48,7.63.64,1.48.85,2.97,1.06,4.45-.64-.85-1.27-1.7-1.91-2.54-3.18-3.18-7-4.67-9.12-5.3-.85-.21-1.27-.42-1.27-.42-.21,0-.64.21-.64.42,0,.21,0,.64.42.64h0Zm-4.03,28.42c1.27,0,2.76.21,4.03.42,2.33.42,4.88,1.06,7,1.91-1.48,0-3.18.42-4.67.85-.64.21-1.48.42-2.33.42-2.76.42-5.3.85-8.06.85-.85,0-1.7,0-2.54-.21-5.94-1.27-8.48-7-9.33-9.54,2.76,1.48,5.73,2.54,8.91,2.76,2.54.21,4.88,0,7.21-.64,1.06-.21,2.33-.42,3.39-.42,5.09,0,8.06,3.82,9.54,5.73-3.18-1.27-6.36-2.12-9.75-2.76-1.27-.21-2.33-.42-3.6-.42h0c-.21,0-.64.21-.64.42.21.21.42.64.85.64h0Zm20.78,15.9l.64-.42,2.54-1.27c-.64.64-1.27,1.27-1.91,2.12-.21.21-.21.42-.42.64-.64.21-1.27.64-1.91,1.06.21-1.06.42-1.91,1.06-2.12h0Zm4.45,9.33c-3.6,0-7.42-1.91-7.85-2.54q0-.42.21-.64c.64-.42,1.06-1.06,1.27-1.7.21-.85,1.06-1.27,1.91-1.7-.21.21-.21.64-.21,1.06s-.21.64-.42,1.27c-.21.42-.21,1.06.64,1.7,1.27,1.27,4.88,2.12,7,2.33-.85,0-1.7.21-2.54.21Zm3.6-1.7c-.85.42-5.73-.64-7.21-1.91-.21-.21-.21-.42-.21-.42.21-.42.21-.85.42-1.27.21-.85.42-1.48,1.48-2.97,1.27-1.7,3.18-3.6,4.45-3.82h.42c.64.42,2.12,4.88,1.7,7.85,0,1.06-.21,2.12-1.06,2.54h0Zm.85.85q.21,0,0,0c.64-.64,1.27-1.48,1.48-2.97.21-2.33-.42-5.51-1.27-7.42,1.48,1.48,2.76,2.97,3.82,4.45.64.85,1.06,1.91,1.27,2.97.42,2.97-.21,6.36-1.06,10.18v.42c-1.06-4.45-2.97-6.79-4.24-7.63h0Zm-3.82,18.45c-4.67-4.45-8.48-6.36-10.6-7-.42-.21-1.06-.21-1.48-.42-.21,0-.64.21-.64.42s.21.64.42.64c.64,0,1.27.21,1.7.42,2.33,1.06,4.67,2.33,6.57,3.82-1.91-.85-3.82-1.27-5.94-1.7h-.42c-4.45-.85-8.48-3.18-11.66-6.57h0c-1.7-1.7-2.76-3.82-3.6-6.15.85,1.27,1.7,2.33,2.76,3.18,2.12,1.91,4.45,3.18,7.21,4.24h.21c.21,0,.64-.21.64-.64,0-.21-.21-.42-.42-.64,0,0-4.88-1.7-8.27-5.73-.42-.64-1.06-1.27-1.48-1.91.21.21.64.42.85.42,1.27.64,2.97.85,4.24.64.21,0,.64,0,1.06-.21,1.91-.42,3.82-.42,5.73-.21h0c2.33.21,4.88,1.27,7.42,3.6,5.09,4.67,5.73,11.03,5.73,13.78h0Zm11.88,37.11c0-.42.21-.64.42-.85s.64-.21,1.06-.21h0c.42,0,.64.21.85.42s.42.64.21,1.06c0,.85-.85,1.27-1.48,1.27-.64-.21-1.27-.85-1.06-1.7h0Zm5.09-18.24c.21,0,.64-.21.42-.64h0c0-.21-.21-.64-.64-.42-2.12.21-4.24,1.27-5.73,2.54,2.33-4.45,5.94-6.36,12.09-6.15h1.27c7,.85,11.45-1.27,13.57-2.54-1.06,4.45-6.36,10.6-13.36,10.81-2.54,0-5.3-.21-7.85-.42-2.33-.21-4.24-.42-5.73-.21,1.48-1.7,3.6-2.76,5.94-2.97h0Zm10.39-55.77h0c0-1.06,0-2.76-.21-5.3-.21-2.12,1.06-3.18,2.12-3.6.85-.42,1.7-.42,2.76-.42,1.91.21,3.82,1.06,5.3,2.33-.85.42-1.7,1.06-2.54,1.7-.21.21-.21.64,0,.85h0s.21.21.42.21.42,0,.42-.21c0,0,1.48-1.48,2.97-1.91h0c1.27-.42,2.76,0,4.24.85,2.12,1.27,3.82,3.18,4.67,5.51-2.97.85-6.79,3.6-8.27,7-.85,2.12-1.91,4.45-2.54,6.15-1.06,2.12-2.12,2.54-2.33,2.54-.42,0-.85-.42-1.06-.64-1.27-1.91-6.15-10.18-5.94-15.06h0Zm13.36,13.15c-.21.42-.21.85-.21,1.27-1.27.64-2.54,1.27-3.6,2.12.85-1.48,2.54-2.76,3.39-3.18.21-.21.42-.21.42-.21h0Zm-.21-1.48h0q0-.21.21-.21h0s.21,0,.21.21v.21h0c0-.21-.21-.21-.42-.21h0Zm-17.6,1.7c-.21-4.24,2.33-8.48,3.6-10.18,1.06,5.09,4.67,10.81,5.51,12.51.21.42.42.64.42,1.06-1.91,1.27-5.51,4.03-7.21,6.15-1.27-2.97-2.12-6.15-2.33-9.54Zm10.39,23.33c-.21.64-.42,1.27-.85,1.27-.85,0-2.54-1.48-4.24-4.45-.64-1.27-1.27-2.33-1.91-3.18-1.7-2.54-2.54-3.82-.64-5.73h0c.85-1.48,4.24-4.24,6.79-5.94l.64,1.7c-.42,2.97-2.54,7-2.54,7-.21.21,0,.64.21.85h.21c.21,0,.42-.21.64-.42.85-1.7,1.7-3.6,2.33-5.51l.85,1.7c.21.64.42,1.27.42,2.33,0,.21.21.64.21,1.06s.21.85.21,1.27c-.21,2.33-2.33,3.39-2.33,3.39-.21.21-.42.42-.21.85,0,.21.21.21.42.21h.21c1.06-.64,1.91-1.48,2.54-2.54,0,2.12-.85,2.97-1.48,3.82-.85.21-1.48.85-1.48,2.33h0Zm1.27-.21c0-.85.42-1.27,1.06-1.7.64-.64,1.27-1.27,1.48-2.12.42,1.27,1.06,2.54,1.91,3.6-1.27.42-3.6,1.27-4.45.21h0Zm24.6-11.24c-.21.64-.85,1.06-1.48,1.7-1.06.85-2.54,2.12-2.76,4.03-.21,2.33-2.12,2.76-2.33,2.97-1.27,0-2.33-.42-3.39-1.06-.21-.21-.64,0-.85.21s0,.64.21.85c1.06.42,2.12.85,3.18,1.06-.85,1.48-2.12,2.54-3.6,3.18-2.76,1.48-7.63-2.12-8.06-2.33-1.27-1.27-2.12-3.6-2.76-6.15v-.64q0-.21-.21-.42c-.21-1.06-.42-2.12-.64-2.97s-.42-1.7-.42-2.12v-2.54l1.7,1.27c2.12,2.12,4.88,2.97,7.85,3.18,5.51.42,11.45-1.7,13.36-2.33.21.64.21,1.48.21,2.12h0Zm-.21-3.39c-.85.42-14,5.3-19.93,0,.21,0,.42,0,.85.21h1.06c0,.21.21.21.21.21.21.21.64.42,1.06.42s.85,0,1.06-.42c.64-.42.64-1.48.21-2.12h0c-.21-.21-.64-.42-1.06-.42s-.85.21-1.06.42c-.21.21-.21.42-.42.42-.64.21-2.33.21-3.39-1.06h.42c1.27,0,2.33-.21,3.6-.85.21.21.64.42.85.42h.21c.42,0,.85-.21,1.06-.42.21-.21.42-.64.21-1.06,0-.42-.21-.85-.42-1.06s-.64-.42-1.06-.42-.85.21-1.06.42c-.21.21-.21.42-.21.85-1.06.42-2.97,1.27-4.45.21h-.21c1.27-1.27,3.82-2.54,4.88-2.76.21,0,.42.21.42.21h.64c.42-.21.64-.42.85-.85s.21-.85,0-1.06c-.21-.42-.85-.85-1.27-.85l.21-.21c.21-.42.21-.85,0-1.06-.21-.42-.42-.64-.85-.85s-.85-.21-1.06,0c-.42.21-.64.42-.85.85s-.21.64,0,1.06c-.42.21-1.06.64-1.48,1.06h0c.64-1.7,1.48-3.82,2.33-5.51,1.48-3.39,5.3-5.73,8.06-6.57h0c.42-.21,1.27,0,2.33.64,2.76,1.7,5.73,5.94,6.36,8.69-1.06.21-2.12.42-2.97.64-.21.21-.42.42-.42.85,0,.21.21.42.42.42h.21c1.06-.42,2.12-.64,3.18-.64.85.21.85.42,1.7,2.12.21.64.64,1.27,1.06,2.12,1.91,2.97-.85,5.51-1.27,5.94h0Zm-16.96-.42q0-.21,0,0l.21-.21h.21v.42h-.21c-.21,0-.21-.21-.21-.21h0Zm.42-3.6h0s.21,0,0,0h0q.21,0,.42.21,0,.21-.21.21h0q0-.21-.21-.42h0Zm-.64-3.82q0-.21.21-.21t.42.21h0v.21l-.21.21h0c-.21-.42-.42-.42-.42-.42h0Zm-22.69,83.13h0c-1.48-.21-2.97-.64-4.45-1.27-3.18-1.48-5.94-4.03-7.63-7-2.12-4.03-6.79-7-12.51-8.48-3.39-.85-6.36-2.54-9.54-1.91l-.21,1.27c2.97-.85,5.94,1.06,9.54,1.91,5.3,1.27,9.75,4.03,11.66,7.85,1.27,2.54,3.18,4.67,5.51,6.15-3.18-1.06-6.15-2.76-8.91-4.88-.21-.21-.64-.21-.85,0s-.21.64,0,.85c4.88,4.24,10.6,5.94,14,6.57-4.03,1.06-10.18,1.91-15.27-.42-3.18-1.48-6.79-4.45-10.18-7.42-2.33-2.12-4.24-5.94-6.36-7.21l-.21,1.27c1.91,1.27,3.6,5.09,5.73,6.79,3.39,2.97,7,6.15,10.6,7.63,1.91.85,4.03,1.27,6.36,1.48,5.09.21,9.97-1.06,12.51-1.7h.64v-.42h0c0-.64-.21-.85-.42-1.06h0Zm-17.6-7.85c.21,0,.42,0,.42-.21.21-.21.21-.64-.21-.85h0c-3.39-2.33-10.39-6.79-17.39-7.21l-.21,1.27c6.79.42,13.78,4.88,16.96,7h.42Z"/><path class="cls-18" d="m143.99,84.87h.42c1.06-.64,2.12-1.06,3.18-1.27.21,0,.42-.42.42-.64s-.42-.42-.64-.42c-1.27.21-2.54.85-3.82,1.48-.21.21-.42.64-.21.85h0c.21-.21.42,0,.64,0Z"/><path class="cls-15" d="m132.32,77.87h0c.42,0,.64-.21.64-.42,1.27-6.15,5.94-7,6.15-7s.42-.42.42-.64-.42-.42-.64-.42c0,0-5.73.85-7,7.85-.21.42,0,.64.42.64h0Z"/></svg>