<svg id="Group_7" data-name="Group 7" xmlns="http://www.w3.org/2000/svg" width="279.77" height="60.071" viewBox="0 0 279.77 60.071">
  <path id="Path_66" data-name="Path 66" d="M66.135,13.613H54.358a.435.435,0,0,0-.438.431v24.94a12.6,12.6,0,0,0-1.46-2.146,14.22,14.22,0,0,0-3.689-3.1,17.2,17.2,0,0,0-4.76-1.875,17.467,17.467,0,0,0-5.53-.381,13.887,13.887,0,0,0-6.917,2.183,15.242,15.242,0,0,0-4.642,4.852,20.081,20.081,0,0,0-2.45,6.479,25,25,0,0,0-.381,7.15,24.436,24.436,0,0,0,1.654,6.906,18.335,18.335,0,0,0,3.578,5.744.234.234,0,0,0,.057.049,5.985,5.985,0,0,1,.522.446l.5.5A20.7,20.7,0,0,0,35.71,69.4a20.4,20.4,0,0,0,5.964,1.783,18.18,18.18,0,0,0,7.115-.251,16.739,16.739,0,0,0,6.045-2.771,6.672,6.672,0,0,0,2.1,2.222,6.311,6.311,0,0,0,3.575,1.048h4.955a.438.438,0,0,0,.08-.869,6.558,6.558,0,0,1-3.353-1.677,4.4,4.4,0,0,1-1.407-3.171v-46.3a4.111,4.111,0,0,1,.545-2.207h0a5.355,5.355,0,0,1,1.387-1.5,6.484,6.484,0,0,1,1.746-.91,5.321,5.321,0,0,1,1.65-.305.438.438,0,1,0,0-.876h.02ZM33.1,62.014A23.11,23.11,0,0,1,30.87,55.2a27.112,27.112,0,0,1-.2-7.351,21.56,21.56,0,0,1,1.787-6.726A14.409,14.409,0,0,1,36.2,36.11a10.027,10.027,0,0,1,5.682-2.287c.3-.023.606-.035.911-.035a11.5,11.5,0,0,1,2.961.381,12.052,12.052,0,0,1,3.568,1.6,11.5,11.5,0,0,1,2.854,2.74,10.887,10.887,0,0,1,1.742,3.693v22.6a6.107,6.107,0,0,0,.381,2.211,15.865,15.865,0,0,1-4.12,2.21,14.2,14.2,0,0,1-4.764.827,13.449,13.449,0,0,1-4.131-.671,12.575,12.575,0,0,1-3.964-2.157A15.632,15.632,0,0,1,33.1,62.018Z" transform="translate(-23.988 -13.613)" fill="#fff"/>
  <path id="Path_67" data-name="Path 67" d="M127.617,46.746a14.884,14.884,0,0,0-5.229-2.931,19.838,19.838,0,0,0-6.1-.957,22.191,22.191,0,0,0-7.58,1.368,20.45,20.45,0,0,0-6.765,4.066,20.965,20.965,0,0,0-4.855,6.635,19.6,19.6,0,0,0-1.708,9.09,20.525,20.525,0,0,0,1.906,8.8,18.7,18.7,0,0,0,4.657,6.029A18.038,18.038,0,0,0,108.4,82.3a25.588,25.588,0,0,0,7.313,1.075,18.191,18.191,0,0,0,7.116-1.292,17.352,17.352,0,0,0,5.126-3.255,13.993,13.993,0,0,0,3.186-4.36,15.25,15.25,0,0,0,1.334-4.642.427.427,0,0,0-.107-.339.434.434,0,0,0-.328-.149h-.407a.439.439,0,0,0-.435.381,11.935,11.935,0,0,1-1.524,4.573,13.749,13.749,0,0,1-2.992,3.582,14.936,14.936,0,0,1-3.982,2.4,13.021,13.021,0,0,1-4.573.983,13.676,13.676,0,0,1-8.072-1.8,15.6,15.6,0,0,1-5.213-5.339,8.452,8.452,0,0,1,1.787-6.411,18.268,18.268,0,0,1,6.231-4.912,34.25,34.25,0,0,1,9.1-2.969,44.107,44.107,0,0,1,10.214-.72.433.433,0,0,0,.324-.122.438.438,0,0,0,.137-.316,16.454,16.454,0,0,0-1.384-6.971A14.631,14.631,0,0,0,127.617,46.746ZM103.638,71.564a22.952,22.952,0,0,1-1.334-5.256,28.989,28.989,0,0,1-.046-7.577l.077-.3v-.042A24.79,24.79,0,0,1,103.413,54,19.424,19.424,0,0,1,105.4,49.83a12.849,12.849,0,0,1,2.984-3.3,9.618,9.618,0,0,1,3.99-1.826,9.953,9.953,0,0,1,5.526.309,11.373,11.373,0,0,1,4.459,2.934,14.647,14.647,0,0,1,2.973,4.73,14.36,14.36,0,0,1,.991,5.24,40.027,40.027,0,0,0-7.767,1.368,31.563,31.563,0,0,0-7.535,3.129,19.053,19.053,0,0,0-5.53,4.741,9.055,9.055,0,0,0-1.863,4.41Z" transform="translate(-51.952 -25.073)" fill="#fff"/>
  <path id="Path_68" data-name="Path 68" d="M252.05,70.744a6.587,6.587,0,0,1-3.354-1.673,4.4,4.4,0,0,1-1.406-3.183V14.32a.439.439,0,0,0-.438-.438H235.639a.439.439,0,0,0-.439.4.445.445,0,0,0,.381.468,7.539,7.539,0,0,1,3.148,1.35,4.025,4.025,0,0,1,1.677,3.266V66.125a4.126,4.126,0,0,1-1.387,2.972,7.133,7.133,0,0,1-2.7,1.5,1,1,0,0,1-.309.057,1.274,1.274,0,0,0-.56.126.442.442,0,0,0,.194.835h16.319a.442.442,0,0,0,.084-.873Z" transform="translate(-106.748 -13.718)" fill="#fff"/>
  <path id="Path_69" data-name="Path 69" d="M302.15,51.44h0a17.224,17.224,0,0,0-4.379-4.832,18.6,18.6,0,0,0-5.782-2.87,21.245,21.245,0,0,0-6.593-.865,19.905,19.905,0,0,0-6.521,1.143,22.578,22.578,0,0,0-4.886,2.489,18.06,18.06,0,0,0-3.373,2.958c-.888,1.025-1.524,1.818-1.978,2.431a22.435,22.435,0,0,0-3.274,7.333,21.829,21.829,0,0,0-.21,8.991,18.89,18.89,0,0,0,2.081,6.155,18.184,18.184,0,0,0,3.62,4.573,16.893,16.893,0,0,0,4.84,3.049,20.845,20.845,0,0,0,5.694,1.452c.56.049,1.143.072,1.692.072a20.537,20.537,0,0,0,4.032-.4,28.89,28.89,0,0,0,4.661-1.361,15.392,15.392,0,0,0,4.3-2.382,22.943,22.943,0,0,0,7.039-9.273,22.342,22.342,0,0,0,1.41-11.929A17.99,17.99,0,0,0,302.15,51.44ZM276.935,78.476a16.447,16.447,0,0,1-3.639-5.225,25.121,25.121,0,0,1-1.989-8,25.116,25.116,0,0,1,.514-9.261,17,17,0,0,1,3.163-6.414,13.424,13.424,0,0,1,4.772-3.72,13.047,13.047,0,0,1,5.423-1.219,10.6,10.6,0,0,1,5.682,1.547,17.034,17.034,0,0,1,5,6.22,25.4,25.4,0,0,1,2.435,8.739,32.457,32.457,0,0,1-.122,6.971h0a20.073,20.073,0,0,1-1.829,6.277,13.763,13.763,0,0,1-3.7,4.726,11.319,11.319,0,0,1-5.675,2.344,13.194,13.194,0,0,1-5.335-.313A11.3,11.3,0,0,1,276.935,78.476Z" transform="translate(-118.341 -25.075)" fill="#fff"/>
  <path id="Path_70" data-name="Path 70" d="M359.9,48.179a2.732,2.732,0,0,0,0-3.072,3.833,3.833,0,0,0-2.016-1.646,7.925,7.925,0,0,0-2.667-.431,13.428,13.428,0,0,0-3.106.381,15.587,15.587,0,0,0-2.992,1.037c-.431.16-.868.3-1.3.431a4.384,4.384,0,0,1-1.216.187,2.646,2.646,0,0,1-1.365-.381,5.338,5.338,0,0,1-1.524-1.616.446.446,0,0,0-.362-.19H332.346a.438.438,0,0,0-.072.873,6.6,6.6,0,0,1,3.163,1.406,4.191,4.191,0,0,1,1.505,2.82V77.731a4.191,4.191,0,0,1-1.505,2.816,6.575,6.575,0,0,1-3.163,1.406.438.438,0,0,0,.072.873h16.312a.439.439,0,1,0,.034-.876,5.506,5.506,0,0,1-3.243-1.319,4.808,4.808,0,0,1-1.631-2.992V45.046a4.074,4.074,0,0,0,.926.762,3.932,3.932,0,0,0,1.963.545,6.377,6.377,0,0,0,2.52-.6,5.318,5.318,0,0,1,1.787-.294,3.6,3.6,0,0,1,1.753.381,2.237,2.237,0,0,1,.991.876c.24.431.484.877.724,1.33a5.158,5.158,0,0,0,.892,1.242,2.017,2.017,0,0,0,1.692.492A3.617,3.617,0,0,0,359.9,48.179Z" transform="translate(-144.635 -25.08)" fill="#fff"/>
  <path id="Path_71" data-name="Path 71" d="M439.452,65.858a15.242,15.242,0,0,0-4.638-3.636h0a43.734,43.734,0,0,0-5.949-2.546,59.913,59.913,0,0,1-5.8-2.337,14.567,14.567,0,0,1-4.261-2.916,4.68,4.68,0,0,1-1.258-4.078,6.194,6.194,0,0,1,2.211-4.1A10.8,10.8,0,0,1,425.7,44a13.087,13.087,0,0,1,5.61.8,20.237,20.237,0,0,1,7.032,4.295.442.442,0,0,0,.6-.019l.244-.244a.438.438,0,0,0,.013-.62l-.013-.013a24.122,24.122,0,0,0-5.625-3.811,15.094,15.094,0,0,0-6.776-1.673,16.109,16.109,0,0,0-5.389.8,10.523,10.523,0,0,0-3.685,2.164,8.385,8.385,0,0,0-2.142,3.259,12.8,12.8,0,0,0-.762,3.864,9.967,9.967,0,0,0,1.28,5.816,13.322,13.322,0,0,0,3.7,3.906,23.2,23.2,0,0,0,5.05,2.649c1.875.716,3.662,1.413,5.313,2.069a41.757,41.757,0,0,1,4.573,2.127,6.622,6.622,0,0,1,2.793,2.668,4.768,4.768,0,0,1,.438,2.965,5.866,5.866,0,0,1-1.742,3.369,12.394,12.394,0,0,1-3.765,2.427,27.755,27.755,0,0,1-5.076,1.6c-1.845.4-3.69.713-5.484.926s-3.5.351-5.08.4-2.885.08-3.842.08c-2.515,0-5.031-.111-7.474-.324a59.527,59.527,0,0,1-6.936-1.006,44,44,0,0,1-5.911-1.646,16.2,16.2,0,0,1-4.261-2.191,15.321,15.321,0,0,1-4.146-4.745,8.452,8.452,0,0,1,1.787-6.411,18.238,18.238,0,0,1,6.231-4.916,33.234,33.234,0,0,1,9.086-2.931,45.7,45.7,0,0,1,10.218-.685.439.439,0,0,0,.46-.415v-.023a16.444,16.444,0,0,0-1.384-6.967,14.648,14.648,0,0,0-3.643-4.955,14.868,14.868,0,0,0-5.228-2.927,19.733,19.733,0,0,0-6.1-.957,22.374,22.374,0,0,0-8.655,1.78,19.615,19.615,0,0,0-12.261,19.3,22.171,22.171,0,0,0,1.242,7.229,17.735,17.735,0,0,0,3.125,5.454,17.056,17.056,0,0,0,4.5,3.754,21.942,21.942,0,0,0,5.424,2.2,76.276,76.276,0,0,0,10.419,1.905,104.572,104.572,0,0,0,12.844.763c1.73,0,3.9-.084,6.445-.244a60.267,60.267,0,0,0,7.774-1.022,36.378,36.378,0,0,0,7.359-2.264,11.547,11.547,0,0,0,5.172-4.04,10.819,10.819,0,0,0,2.119-6.006A7.885,7.885,0,0,0,439.452,65.858Zm-34.735-13.4a14.311,14.311,0,0,1,.991,5.236,39.826,39.826,0,0,0-7.767,1.368,31.648,31.648,0,0,0-7.535,3.129,18.793,18.793,0,0,0-5.53,4.787,9.222,9.222,0,0,0-1.867,4.417,23.721,23.721,0,0,1-1.334-5.271h0a28.726,28.726,0,0,1-.046-7.542l.08-.381v-.022a25.015,25.015,0,0,1,1.078-4.387,19.529,19.529,0,0,1,1.986-4.173,12.855,12.855,0,0,1,2.984-3.3,10.217,10.217,0,0,1,9.528-1.482,12.133,12.133,0,0,1,4.471,2.926,14.23,14.23,0,0,1,2.954,4.692Z" transform="translate(-161.418 -25.011)" fill="#fff"/>
  <path id="Path_72" data-name="Path 72" d="M221.153,20.818a.137.137,0,0,0,0-.038,4.787,4.787,0,0,0-.533-2.546h0a6.616,6.616,0,0,0-1.654-2.042,10.859,10.859,0,0,0-2.367-1.483,11.262,11.262,0,0,0-2.706-.884h-.03a18.716,18.716,0,0,0-3-.084,13.127,13.127,0,0,0-2.946.507,8.38,8.38,0,0,0-4.024,2.614,10.053,10.053,0,0,0-2.081,4.036,8.952,8.952,0,0,0-.263,2.146.337.337,0,0,0,0,.061v8.426h-4.089a.435.435,0,0,0-.438.431v.411a.438.438,0,0,0,.434.442h4.032V65.751a3.022,3.022,0,0,1-.034.491,3.378,3.378,0,0,0-.046.519,3.811,3.811,0,0,1-1.856,2.667,8.985,8.985,0,0,1-2.9,1.166.438.438,0,0,0,.077.869h16.326a.438.438,0,0,0,.08-.869,6.543,6.543,0,0,1-3.43-1.711,4.373,4.373,0,0,1-1.326-3.3V32.808h6.86a.442.442,0,0,0,.442-.442v-.4a.439.439,0,0,0-.438-.438h-7.55a14.586,14.586,0,0,1-4.573-7.954,7.188,7.188,0,0,1,1.143-4.814,7.656,7.656,0,0,1,4.913-3.259,9.63,9.63,0,0,1,3.731-.042,3.112,3.112,0,0,1,2.287,1.433,2.334,2.334,0,0,1,.2,1.216q-.08.732-.16,1.418a5.123,5.123,0,0,0,.042,1.524,3,3,0,0,0,1.067,1.662,2.381,2.381,0,0,0,.987.633,3.308,3.308,0,0,0,.938.14,2.764,2.764,0,0,0,1.875-.72A3.114,3.114,0,0,0,221.153,20.818Z" transform="translate(-91.503 -13.653)" fill="#fff"/>
</svg>
