<?xml version="1.0" encoding="UTF-8"?><svg id="Layer_1" xmlns="http://www.w3.org/2000/svg" viewBox="0 0 29.41 29.41"><defs><style>.cls-1{fill:#ff587a;isolation:isolate;}</style></defs><path id="facebook-oval" class="cls-1" d="m14.71,3c-6.47,0-11.71,5.24-11.71,11.71,0,6.47,5.24,11.71,11.71,11.71,6.46,0,11.71-5.24,11.71-11.71.02-6.44-5.19-11.68-11.63-11.71-.03,0-.05,0-.08,0m3.1,7.14h-1.17c-.53,0-.87.26-.87.76-.04.41,0,.87,0,1.21,0,.15.04.15.15.15h1.74c.15,0,.23.04.23.23-.04.68-.15,1.4-.15,2.08,0,.15-.04.15-.23.15h-1.4c-.3,0-.26-.04-.26.26v6.46c0,.23-.04.26-.26.26h-2.37c-.23,0-.26-.04-.26-.26v-6.53c0-.15-.04-.26-.23-.23h-1.02c-.23.11-.23.04-.23-.11v-2.08c0-.15.04-.15.15-.15h1.06c.23,0,.26-.04.26-.26v-1.59c-.02-.62.17-1.23.53-1.74.47-.6,1.17-.97,1.93-1.02.79-.04,1.59,0,2.38-.04.11,0,.15.04.15.15v2.08c.04.15,0,.23-.11.23M14.71,0c8.1-.02,14.69,6.53,14.71,14.63,0,.03,0,.05,0,.08.02,8.1-6.53,14.69-14.63,14.71-.03,0-.05,0-.08,0C6.61,29.43.02,22.88,0,14.78c0-.03,0-.05,0-.08C-.02,6.61,6.53.02,14.63,0c.03,0,.05,0,.08,0Z"/></svg>