<svg xmlns="http://www.w3.org/2000/svg" width="29.413" height="29.412" viewBox="0 0 29.413 29.412">
  <path id="facebook-oval" d="M12.706,1A11.706,11.706,0,1,0,24.413,12.706,11.668,11.668,0,0,0,12.706,1m3.1,7.137H14.632c-.529,0-.869.264-.869.755-.038.415,0,.869,0,1.208,0,.151.038.151.151.151h1.737c.151,0,.227.038.227.227-.038.68-.151,1.4-.151,2.077,0,.151-.038.151-.227.151H14.1c-.3,0-.264-.038-.264.264v6.457c0,.227-.038.264-.264.264H11.2c-.227,0-.264-.038-.264-.264V12.9c0-.151-.038-.264-.227-.227H9.685c-.227.113-.227.038-.227-.113V10.478c0-.151.038-.151.151-.151h1.057c.227,0,.264-.038.264-.264V8.477A2.861,2.861,0,0,1,11.46,6.74a2.652,2.652,0,0,1,1.926-1.02c.793-.038,1.586,0,2.379-.038.113,0,.151.038.151.151V7.91q.057.227-.113.227M12.706-2A14.668,14.668,0,0,1,27.413,12.706,14.668,14.668,0,0,1,12.706,27.413,14.668,14.668,0,0,1-2,12.706,14.668,14.668,0,0,1,12.706-2Z" transform="translate(2 2)" fill="#7a7a7a" opacity="0.3"/>
</svg>
