<?xml version="1.0" encoding="UTF-8"?><svg id="Layer_1" xmlns="http://www.w3.org/2000/svg" xmlns:xlink="http://www.w3.org/1999/xlink" viewBox="0 0 26.41 30.5"><defs><style>.cls-1{fill:url(#linear-gradient-2);}.cls-2{fill:url(#linear-gradient-17);}.cls-3{fill:url(#linear-gradient-15);}.cls-4{fill:url(#linear-gradient-18);}.cls-5{fill:url(#linear-gradient-14);}.cls-6{fill:url(#linear-gradient-20);}.cls-7{fill:url(#linear-gradient-6);}.cls-8{fill:url(#linear-gradient-11);}.cls-9{fill:url(#linear-gradient-10);}.cls-10{fill:url(#linear-gradient-16);}.cls-11{fill:url(#linear-gradient-21);}.cls-12{fill:url(#linear-gradient-5);}.cls-13{fill:url(#linear-gradient-7);}.cls-14{fill:url(#linear-gradient-24);}.cls-15{fill:url(#linear-gradient-9);}.cls-16{fill:url(#linear-gradient-22);}.cls-17{fill:url(#linear-gradient-3);}.cls-18{fill:url(#linear-gradient);}.cls-19{fill:url(#linear-gradient-23);}.cls-20{fill:url(#linear-gradient-19);}.cls-21{fill:url(#linear-gradient-4);}.cls-22{fill:url(#linear-gradient-8);}.cls-23{fill:url(#linear-gradient-12);}.cls-24{fill:url(#linear-gradient-13);}</style><linearGradient id="linear-gradient" x1="13.21" y1="1.38" x2="13.21" y2="28.78" gradientUnits="userSpaceOnUse"><stop offset=".16" stop-color="#fe957a"/><stop offset=".61" stop-color="#fe6659"/><stop offset="1" stop-color="#ff587a"/></linearGradient><linearGradient id="linear-gradient-2" x1="13.2" y1="1.38" x2="13.2" y2="28.78" xlink:href="#linear-gradient"/><linearGradient id="linear-gradient-3" x1="13.21" y1="1.38" x2="13.21" y2="28.78" xlink:href="#linear-gradient"/><linearGradient id="linear-gradient-4" x1="13.2" x2="13.2" y2="28.78" xlink:href="#linear-gradient"/><linearGradient id="linear-gradient-5" x1="20.15" y1="1.38" x2="20.15" y2="28.78" xlink:href="#linear-gradient"/><linearGradient id="linear-gradient-6" x1="13.84" y1="1.38" x2="13.84" y2="28.78" xlink:href="#linear-gradient"/><linearGradient id="linear-gradient-7" x1="18.46" y1="1.38" x2="18.46" y2="28.78" xlink:href="#linear-gradient"/><linearGradient id="linear-gradient-8" x1="6.14" y1="1.38" x2="6.14" y2="28.78" xlink:href="#linear-gradient"/><linearGradient id="linear-gradient-9" x1="12.32" y1="1.38" x2="12.32" y2="28.78" xlink:href="#linear-gradient"/><linearGradient id="linear-gradient-10" x1="7.93" y1="1.38" x2="7.93" y2="28.78" xlink:href="#linear-gradient"/><linearGradient id="linear-gradient-11" x1="20.15" y1="1.38" x2="20.15" y2="28.78" xlink:href="#linear-gradient"/><linearGradient id="linear-gradient-12" x1="13.85" y1="1.38" x2="13.85" y2="28.78" xlink:href="#linear-gradient"/><linearGradient id="linear-gradient-13" x1="14.73" y1="1.38" x2="14.73" y2="28.78" xlink:href="#linear-gradient"/><linearGradient id="linear-gradient-14" x1="18.48" y1="1.38" x2="18.48" y2="28.78" xlink:href="#linear-gradient"/><linearGradient id="linear-gradient-15" x1="6.12" y1="1.38" x2="6.12" y2="28.78" xlink:href="#linear-gradient"/><linearGradient id="linear-gradient-16" x1="12.27" x2="12.27" xlink:href="#linear-gradient"/><linearGradient id="linear-gradient-17" x1="11.68" y1="1.38" x2="11.68" y2="28.78" xlink:href="#linear-gradient"/><linearGradient id="linear-gradient-18" x1="7.96" y1="1.38" x2="7.96" y2="28.78" xlink:href="#linear-gradient"/><linearGradient id="linear-gradient-19" x1="13.1" y1="1.38" x2="13.1" y2="28.78" xlink:href="#linear-gradient"/><linearGradient id="linear-gradient-20" x1="8.27" x2="8.27" xlink:href="#linear-gradient"/><linearGradient id="linear-gradient-21" x1="8.18" y1="1.38" x2="8.18" y2="28.78" xlink:href="#linear-gradient"/><linearGradient id="linear-gradient-22" x1="13.14" y1="1.38" x2="13.14" y2="28.78" xlink:href="#linear-gradient"/><linearGradient id="linear-gradient-23" x1="17.91" y1="1.38" x2="17.91" y2="28.78" xlink:href="#linear-gradient"/><linearGradient id="linear-gradient-24" x1="17.84" y1="1.38" x2="17.84" y2="28.78" xlink:href="#linear-gradient"/></defs><g><path class="cls-18" d="m13.76,16.98c.02.39.13.86.33,1.37.2.51.48,1.06.79,1.66.31.59.67,1.24.88,1.94.05.17.09.35.11.52.02.17.03.37.02.56-.01.38-.07.77-.19,1.15-.24.77-.7,1.52-1.25,2.28l-.86,1.19-.22.32-.11.16-.04.06h0s0,0,0,0c0,0,0,0,0,0,0,0,0,0,0,0l-.1-.16-.21-.32c-.29-.42-.59-.82-.88-1.2-.59-.76-1.08-1.46-1.3-2.22-.12-.38-.17-.77-.19-1.16v-.28c0-.05,0-.15.02-.23.03-.17.09-.35.15-.53.24-.71.54-1.39.79-2.02.5-1.25.83-2.31.9-3.07,0-.05,0-.09,0-.13-.05.04-.09.08-.14.13-.02.02-.04.05-.07.07-.18.71-.61,1.65-1.21,2.78-.31.59-.66,1.23-.99,1.98-.08.19-.16.39-.22.61-.03.12-.06.22-.07.37,0,.12-.01.23-.02.34-.01.45.03.92.14,1.4.11.47.31.94.55,1.38.24.44.52.84.8,1.23.28.39.56.78.83,1.18l.2.3.1.16.19.32c.25.44.5.93.75,1.39l.06-.11c.25-.47.5-.98.77-1.41l.26-.4.2-.3.84-1.21c.55-.81,1.05-1.69,1.28-2.64.12-.47.17-.95.14-1.41-.01-.24-.03-.44-.08-.68-.05-.23-.12-.44-.19-.64-.33-.79-.76-1.4-1.12-1.96-.37-.56-.7-1.06-.95-1.52-.25-.46-.41-.88-.48-1.24-.01-.08-.02-.14-.03-.21-.05-.04-.09-.07-.14-.11,0,.11-.01.22,0,.34Z"/><path class="cls-1" d="m13.21,23.01h0s0,0,0,0c0,0,0,0,0,0,0,0,0,0,0,0h0s0,0,0,0c0,0,0,.01-.02-.03l-.19-.32c-.26-.42-.44-.76-.53-1.14-.05-.19-.08-.38-.09-.57,0-.11-.01-.14,0-.24,0-.09.03-.18.04-.27.08-.37.18-.74.26-1.08.16-.68.25-1.25.25-1.65,0-.4-.1-.61-.09-.61,0,0,.02.22-.08.58-.09.37-.31.87-.6,1.49-.14.31-.31.65-.47,1.05-.04.1-.08.21-.11.33-.03.11-.06.29-.06.39-.02.24-.01.49.02.75.06.53.29,1.06.53,1.49l.17.33.16.31c.06.12.11.23.17.35.21.49.44,1.07.65,1.58v-.03c.23-.52.46-1.14.68-1.61l.49-.97c.23-.46.43-.97.5-1.49.07-.52.04-1.02-.12-1.47-.16-.43-.36-.76-.53-1.06-.35-.59-.6-1.07-.68-1.44-.08-.36-.03-.59-.03-.59,0,0-.12.19-.14.6-.03.41.11,1,.34,1.65.11.33.23.68.3,1.03.06.33.03.72-.07,1.09-.1.38-.28.76-.52,1.17l-.18.32-.02.04s0,0,0,0Z"/><path class="cls-17" d="m12.36,13.51c-.07-.76-.4-1.83-.9-3.07-.24-.62-.54-1.3-.79-2.02-.06-.18-.11-.36-.15-.53-.02-.08-.03-.18-.03-.23v-.28c.03-.39.09-.78.2-1.16.22-.76.72-1.46,1.3-2.22.29-.38.59-.78.88-1.2l.21-.32.1-.16s0,0,0,0c0,0,0,0,0,0,0,0,0,0,0,0h0s.04.07.04.07l.11.16.22.32.86,1.19c.55.77,1.02,1.51,1.25,2.28.12.38.18.77.19,1.15,0,.18,0,.39-.02.56-.02.17-.06.35-.11.52-.22.69-.58,1.34-.88,1.93-.31.6-.59,1.15-.79,1.66-.2.51-.31.98-.33,1.37-.01.23,0,.43.04.6.03-.01.06-.03.09-.05,0-.15.01-.33.05-.53.07-.36.23-.78.48-1.24.25-.46.58-.96.95-1.52.37-.56.8-1.17,1.12-1.97.08-.2.15-.41.19-.64.04-.24.07-.44.08-.68.02-.46-.03-.94-.14-1.41-.23-.95-.74-1.83-1.28-2.64l-.84-1.21-.2-.3-.26-.4c-.26-.42-.51-.93-.77-1.41l-.06-.11c-.25.46-.5.95-.75,1.39l-.19.32-.1.16-.2.3c-.26.4-.55.79-.83,1.18-.28.39-.56.8-.8,1.23-.24.43-.44.9-.55,1.38-.11.48-.15.95-.14,1.4,0,.11,0,.22.02.34.02.15.04.26.07.37.06.22.14.42.22.61.33.75.69,1.38.99,1.98.62,1.18,1.06,2.15,1.23,2.87.03.13.05.25.07.36.04.03.08.06.12.09,0-.14,0-.29-.02-.47Z"/><path class="cls-21" d="m13.94,9.02c.1.37.13.76.07,1.09-.06.35-.19.71-.3,1.03-.23.65-.37,1.24-.34,1.65.02.41.15.6.14.6,0,0-.05-.22.03-.58.08-.37.33-.84.68-1.44.17-.3.37-.63.53-1.06.16-.46.19-.96.12-1.47-.07-.52-.27-1.03-.5-1.49l-.49-.97c-.22-.47-.45-1.09-.67-1.61v-.03c-.22.51-.45,1.09-.66,1.58-.05.12-.11.24-.17.35l-.16.31-.17.33c-.24.44-.47.97-.53,1.49-.03.26-.04.51-.02.75,0,.11.03.28.06.39.03.12.07.23.11.33.16.4.32.74.47,1.05.29.62.51,1.12.6,1.49.1.37.08.58.08.58,0,0,.09-.2.09-.61,0-.4-.08-.97-.25-1.65-.08-.34-.18-.71-.26-1.08-.02-.09-.04-.19-.04-.27-.01-.09,0-.13,0-.24.01-.19.04-.39.09-.57.09-.38.28-.72.53-1.14l.19-.32s.02-.03.02-.03h0s0,0,0,0c0,0,0,0,0,0,0,0,0,0,0,0h0s0,0,0,0c0,0,0,0,0,0l.02.04.18.32c.24.41.42.79.52,1.17Z"/><path class="cls-12" d="m25.51,21.4l-.22-.43-.16-.33-.63-1.33c-.43-.88-.94-1.76-1.65-2.43-.35-.34-.74-.62-1.15-.83-.21-.11-.4-.19-.63-.27-.22-.08-.44-.12-.65-.15-.85-.11-1.59-.04-2.26-.01-.67.04-1.27.08-1.79.06-.52-.02-.97-.09-1.31-.21-.07-.02-.14-.05-.2-.08-.06.02-.11.04-.16.07.09.06.18.12.29.17.35.18.81.32,1.35.4.54.09,1.16.12,1.83.15.67.03,1.41.04,2.12.2.18.04.35.09.51.16.15.07.34.16.49.26.33.2.63.45.9.74.55.59.96,1.37,1.35,2.23l.6,1.34.16.35.09.18.03.07h0s0,0,0,0c0,0,0,0,0,0,0,0,0,0,0,0h-.19s-.39.03-.39.03c-.51.04-1.01.1-1.48.16-.95.13-1.8.21-2.58.02-.39-.09-.75-.23-1.1-.41l-.25-.13s-.12-.09-.19-.14c-.13-.11-.26-.25-.39-.39-.5-.57-.94-1.17-1.35-1.69-.83-1.06-1.59-1.87-2.21-2.32-.14-.1-.28-.19-.4-.25,0,.05,0,.1.01.15.09.07.18.15.27.24.54.51,1.16,1.38,1.87,2.5.36.56.73,1.19,1.22,1.85.12.16.26.33.42.5.08.08.16.16.29.25.1.07.19.13.29.18.38.23.81.44,1.28.58.47.14.97.21,1.47.21.5,0,.99-.03,1.47-.08.48-.05.96-.1,1.44-.12l.36-.02h.19s.38-.01.38-.01c.51,0,1.06.03,1.58.05l-.07-.1c-.28-.46-.6-.93-.83-1.37Z"/><path class="cls-7" d="m13.78,16.54s0,.07,0,.1c.04.03.09.07.14.11,0-.05,0-.1-.01-.15-.04-.02-.08-.04-.12-.06Z"/><path class="cls-13" d="m19.92,19.14s.01,0-.03,0h-.38c-.49.02-.88,0-1.25-.1-.19-.05-.37-.13-.54-.21-.1-.05-.13-.06-.21-.12-.07-.05-.14-.11-.21-.17-.28-.25-.55-.53-.81-.77-.5-.48-.96-.85-1.31-1.04-.35-.2-.57-.22-.57-.22,0,0,.2.09.46.36.27.27.6.7.99,1.26.2.28.41.59.68.93.07.08.14.17.23.26.08.08.22.19.31.25.2.13.42.26.66.36.49.21,1.06.27,1.56.29h.37s.34.03.34.03c.13,0,.25.02.39.03.53.06,1.15.16,1.69.23l-.02-.02c-.34-.45-.76-.96-1.06-1.38l-.6-.92c-.29-.43-.63-.85-1.04-1.18-.41-.32-.86-.54-1.34-.63-.45-.08-.84-.07-1.18-.08-.69,0-1.22-.01-1.58-.13-.36-.11-.52-.27-.52-.26,0,0,.1.2.45.42.34.23.92.4,1.6.53.34.07.71.14,1.04.26.31.11.63.33.91.6.28.28.51.63.75,1.04l.18.32.02.04s0,0,0,0h0s0,0,0,0c0,0,0,0,0,0,0,0,0,0,0,0h0s0,0,0,0Z"/><path class="cls-22" d="m11.28,15.11c-.69-.32-1.78-.57-3.11-.76-.66-.1-1.4-.18-2.14-.33-.18-.04-.37-.08-.53-.14-.08-.03-.17-.06-.21-.09l-.24-.15c-.33-.21-.64-.46-.91-.75-.55-.57-.91-1.35-1.27-2.24-.18-.44-.38-.9-.6-1.37l-.17-.35-.09-.17h0s0,0,0,0c0,0,0,0,0,0h0s.08,0,.08,0h.19s.38-.04.38-.04l1.46-.15c.94-.09,1.82-.12,2.61.06.39.09.76.23,1.09.41.16.09.34.2.47.3.14.1.27.23.39.36.49.54.87,1.17,1.23,1.73.36.57.7,1.09,1.04,1.51.34.43.69.76,1.02.97.1.07.2.12.3.17,0-.05-.01-.11-.02-.17-.06-.04-.11-.08-.17-.13-.28-.24-.56-.59-.84-1.03-.28-.44-.55-.98-.84-1.58-.31-.6-.62-1.28-1.14-1.95-.13-.17-.28-.33-.46-.49-.18-.16-.35-.28-.55-.41-.39-.25-.83-.45-1.29-.58-.94-.27-1.95-.28-2.93-.21l-1.47.12-.36.02-.48.02c-.5.02-1.07-.02-1.6-.04h-.12c.27.44.57.9.83,1.34l.18.33.09.16.17.32c.22.43.41.87.61,1.31.2.44.41.89.67,1.31.26.43.56.83.92,1.16.35.34.75.61,1.14.82.1.05.2.1.3.16.14.06.25.09.36.12.22.06.43.09.64.11.81.09,1.54.1,2.21.13,1.33.05,2.4.15,3.1.37.13.04.24.08.35.12.05-.02.09-.04.13-.06-.12-.07-.26-.15-.42-.22Z"/><path class="cls-15" d="m12.37,14.11s0-.08,0-.13c-.04-.03-.08-.05-.12-.09,0,.06.02.12.02.17.03.02.06.03.09.04Z"/><path class="cls-9" d="m6.54,11.36h.37c.48,0,.9.03,1.27.14.37.1.73.27.98.49.27.23.52.52.75.77.45.52.89.94,1.26,1.12.36.19.59.17.59.18,0,0-.22-.07-.49-.32-.28-.25-.57-.7-.9-1.3-.18-.3-.36-.64-.66-.99-.31-.37-.73-.64-1.22-.84-.49-.2-1.02-.28-1.54-.31l-1.09-.06c-.52-.05-1.17-.16-1.73-.23h-.03c.33.43.72.92,1.04,1.35.08.11.15.21.22.32l.19.29.2.31c.26.42.6.89,1.03,1.2.21.16.42.29.64.39.1.05.26.12.37.14.12.03.23.05.34.07.42.07.8.09,1.14.12.68.06,1.22.12,1.59.22.37.1.55.22.55.22,0,0-.13-.18-.48-.38-.34-.21-.88-.42-1.55-.61-.33-.1-.7-.2-1.07-.32-.09-.03-.18-.06-.26-.1-.09-.04-.12-.06-.21-.12-.16-.11-.31-.23-.45-.37-.28-.27-.49-.6-.72-1.03l-.18-.33s-.01-.03-.02-.03h0s0,0,0,0c0,0,0,0,0,0,0,0,0,0,0,0h0s0,0,0,0c0,0,0,0,0,0h.05Z"/><path class="cls-8" d="m14.43,13.9c.33-.21.68-.54,1.02-.97.34-.42.68-.94,1.04-1.51.36-.56.74-1.2,1.23-1.73.12-.13.25-.25.39-.36.14-.1.31-.21.47-.3.34-.18.7-.32,1.09-.41.79-.18,1.67-.15,2.61-.06l1.46.15.38.03h.19s.08.02.08.02h0s0,0,0,0c0,0,0,0,0,0,0,0,0,0,0,0l-.09.17-.17.35c-.22.46-.41.93-.6,1.37-.36.89-.72,1.67-1.27,2.24-.27.29-.58.54-.91.75l-.24.15s-.14.06-.21.09c-.17.06-.35.1-.53.14-.74.15-1.48.23-2.14.33-1.33.19-2.42.44-3.11.76-.16.07-.3.15-.42.22.04.02.09.04.13.06.1-.04.22-.08.34-.12.71-.21,1.77-.32,3.1-.37.67-.03,1.4-.04,2.21-.13.2-.03.41-.06.64-.11.12-.03.22-.06.36-.12.11-.05.21-.1.3-.16.39-.21.78-.48,1.14-.82.36-.33.66-.74.92-1.16.26-.43.46-.87.67-1.31.2-.44.4-.88.61-1.31l.17-.32.09-.16.18-.33c.25-.44.56-.9.83-1.34h-.12c-.54.02-1.1.06-1.6.04l-.48-.02-.36-.02-1.47-.12c-.98-.07-1.99-.06-2.93.21-.47.13-.91.33-1.29.58-.2.13-.37.25-.55.41-.18.15-.33.32-.46.49-.52.68-.83,1.36-1.14,1.95-.3.6-.57,1.14-.84,1.58-.27.44-.56.79-.84,1.03-.15.13-.3.23-.43.31,0,.04,0,.07,0,.1.16-.06.34-.14.53-.27Z"/><path class="cls-23" d="m13.81,14.19s.05-.02.08-.03c0-.03,0-.07,0-.1-.03.02-.06.03-.09.05,0,.03,0,.06.01.08Z"/><path class="cls-24" d="m14.61,15.4s.05.04.08.06c.05-.02.1-.04.16-.07-.05-.02-.09-.04-.13-.06-.04.02-.08.05-.11.07Z"/><path class="cls-5" d="m16.5,12.76c.23-.26.47-.54.75-.77.25-.22.61-.38.98-.49.38-.1.8-.13,1.27-.13h.37s.05,0,.05,0c.02,0,0,0,0,0h0s0,0,0,0c0,0,0,0,0,0,0,0,0,0,0,0h0s0,0,0,0c0,0,0-.01-.02.03l-.18.33c-.23.43-.44.76-.72,1.03-.14.13-.29.26-.45.37-.09.06-.12.08-.21.12-.08.03-.17.07-.26.1-.36.12-.73.22-1.07.32-.67.2-1.21.41-1.55.61-.35.2-.48.39-.48.38,0,0,.18-.13.55-.22.37-.1.91-.17,1.59-.22.34-.03.72-.06,1.14-.12.11-.02.22-.04.34-.07.11-.03.28-.09.37-.14.21-.1.43-.23.64-.39.43-.31.77-.78,1.03-1.2l.2-.31.19-.29c.07-.11.14-.21.22-.32.32-.43.71-.92,1.04-1.36h-.03c-.56.07-1.21.18-1.73.23l-1.09.06c-.51.03-1.05.12-1.54.31-.48.2-.9.47-1.22.84-.29.35-.48.69-.66.99-.34.6-.62,1.05-.9,1.3-.27.26-.49.32-.49.32,0,0,.23.01.59-.18.37-.18.8-.6,1.26-1.12Z"/><path class="cls-3" d="m12.23,16.77s-.07.05-.11.08c-.63.44-1.38,1.26-2.21,2.32-.42.52-.86,1.12-1.35,1.69-.12.14-.25.28-.39.39-.06.06-.14.11-.19.14l-.25.13c-.35.18-.71.32-1.1.41-.77.19-1.63.11-2.58-.02-.47-.06-.97-.13-1.48-.16l-.39-.02h-.19s0,0,0,0c0,0,0,0,0,0,0,0,0,0,0,0h0s.04-.07.04-.07l.09-.18.16-.35.6-1.34c.39-.86.8-1.64,1.35-2.23.27-.3.57-.54.9-.74.16-.1.34-.19.49-.26.16-.07.33-.12.51-.16.71-.16,1.45-.17,2.12-.2.67-.03,1.29-.06,1.83-.15.54-.08,1-.22,1.35-.4.11-.06.21-.11.29-.17-.05-.02-.1-.04-.16-.07-.06.03-.13.05-.2.08-.35.12-.79.19-1.31.21-.52.02-1.12-.02-1.79-.06-.67-.03-1.41-.1-2.26.01-.21.03-.43.08-.65.15-.23.08-.42.16-.63.27-.41.21-.8.49-1.15.83-.71.68-1.21,1.55-1.65,2.43l-.63,1.33-.16.33-.22.43c-.24.44-.55.91-.83,1.37l-.07.1c.52-.01,1.07-.04,1.58-.05h.38s.19.01.19.01l.36.02c.48.03.96.08,1.44.12.48.05.97.09,1.47.08.5,0,1-.07,1.47-.21.47-.14.9-.34,1.28-.58.1-.06.19-.12.29-.18.12-.09.2-.17.29-.25.16-.17.29-.33.42-.5.49-.66.86-1.29,1.22-1.85.68-1.08,1.28-1.92,1.8-2.44,0-.03.02-.06.02-.09.02-.07.03-.13.04-.19Z"/><path class="cls-10" d="m12.37,16.86c0-.06,0-.12,0-.18-.05.03-.1.06-.15.1-.01.06-.02.12-.04.19,0,.03-.02.06-.02.09.02-.02.04-.05.07-.07.05-.05.09-.09.14-.13Z"/><path class="cls-2" d="m11.81,15.4s-.07-.05-.11-.07c-.04.02-.09.04-.13.06.06.02.11.04.16.07.03-.02.06-.04.08-.06Z"/><path class="cls-4" d="m9.92,17.77c-.25.24-.52.51-.81.77-.07.06-.14.12-.21.17-.08.06-.11.07-.21.12-.17.08-.36.16-.54.21-.37.11-.76.12-1.25.11h-.38s-.03,0-.03,0h0s0,0,0,0c0,0,0,0,0,0,0,0,0,0,0,0h0s0,0,0,0c0,0,0,0,0,0l.02-.04.18-.32c.24-.41.48-.76.75-1.04.28-.27.6-.49.91-.6.34-.12.71-.19,1.04-.26.68-.13,1.26-.3,1.6-.53.34-.22.44-.43.45-.42,0,0-.17.15-.52.26-.36.12-.89.14-1.58.13-.35,0-.73,0-1.18.08-.47.09-.92.31-1.34.63-.41.32-.75.75-1.04,1.18l-.6.92c-.3.42-.72.94-1.06,1.38l-.02.02c.54-.07,1.16-.16,1.69-.23.14-.02.26-.02.39-.03l.34-.02h.37c.5-.03,1.07-.09,1.56-.3.24-.1.46-.22.66-.36.09-.06.23-.17.31-.25.09-.09.16-.17.23-.26.27-.33.48-.65.68-.93.39-.56.72-1,.99-1.26.27-.27.47-.36.46-.36,0,0-.22.02-.57.22-.35.19-.8.56-1.31,1.04Z"/></g><path class="cls-20" d="m13.1,20.53c-.58,0-.58.9,0,.9s.58-.9,0-.9Z"/><path class="cls-6" d="m8.26,17.62c-.58,0-.58.9,0,.9s.58-.9,0-.9Z"/><path class="cls-11" d="m8.18,11.98c-.58,0-.58.9,0,.9s.58-.9,0-.9Z"/><path class="cls-16" d="m13.14,9.21c-.58,0-.58.9,0,.9s.58-.9,0-.9Z"/><path class="cls-19" d="m17.93,12.03h-.04c-.24,0-.45.2-.45.45s.2.45.45.45h.04c.24,0,.45-.2.45-.45s-.2-.45-.45-.45Z"/><path class="cls-14" d="m17.84,17.49c-.58,0-.58.9,0,.9s.58-.9,0-.9Z"/></svg>