<?xml version="1.0" encoding="UTF-8"?><svg id="Layer_1" xmlns="http://www.w3.org/2000/svg" viewBox="0 0 29.55 29.59"><defs><style>.cls-1{fill:#ff587a;}</style></defs><g id="instagram-original"><path id="Path_64" class="cls-1" d="m29.53,8.68c-.03-1.24-.26-2.46-.67-3.63-.33-1-.91-1.9-1.67-2.62-.73-.73-1.61-1.3-2.58-1.67-1.16-.44-2.39-.67-3.63-.66-1.67-.1-2.15-.1-6.2-.1s-4.48,0-6.11.05c-1.24.03-2.46.25-3.63.67-1,.35-1.9.94-2.63,1.72-.76.73-1.33,1.63-1.67,2.62C.32,6.21.09,7.44.1,8.68c-.05,1.62-.1,2.05-.1,6.11s0,4.49.05,6.11c.03,1.24.25,2.46.67,3.63.34,1,.91,1.9,1.67,2.62.73.75,1.63,1.32,2.62,1.67,1.16.42,2.39.65,3.63.67,1.62.1,2.05.1,6.11.1s4.49,0,6.11-.05c1.24-.03,2.46-.25,3.63-.67,1-.34,1.9-.91,2.62-1.67.75-.73,1.32-1.63,1.67-2.62.42-1.16.65-2.39.67-3.63.05-1.53.05-2,.05-6.06s.1-4.58.05-6.21Zm-2.67,12.07c-.02.95-.2,1.88-.52,2.77-.25.64-.64,1.21-1.15,1.67-.48.48-1.05.86-1.67,1.15-.88.34-1.82.52-2.77.52h-5.92c-3.91,0-4.44,0-5.96-.05-.95-.02-1.88-.2-2.77-.52-.64-.25-1.21-.64-1.67-1.15-.48-.48-.86-1.05-1.14-1.67-.34-.88-.52-1.82-.53-2.77v-5.92c0-3.96,0-4.44.05-5.96.02-.95.2-1.88.52-2.77.25-.62.63-1.19,1.1-1.67.47-.48,1.04-.85,1.67-1.1.88-.34,1.82-.52,2.77-.53,1.53-.05,2-.05,5.96-.05s4.44,0,5.96.05c.95.02,1.88.2,2.77.53.62.25,1.19.63,1.67,1.1.48.48.86,1.05,1.15,1.67.34.88.52,1.82.52,2.77.05,1.53.05,2,.05,5.96s-.05,4.44-.1,5.96Z"/><path id="Path_65" class="cls-1" d="m14.79,7.2c-4.19.03-7.57,3.44-7.54,7.63.03,4.19,3.44,7.57,7.63,7.54,4.17-.03,7.54-3.42,7.54-7.59,0-4.18-3.38-7.58-7.56-7.59-.02,0-.05,0-.07,0Zm0,12.55c-2.74,0-4.96-2.22-4.96-4.96s2.22-4.96,4.96-4.96,4.96,2.22,4.96,4.96c0,2.74-2.22,4.96-4.95,4.96,0,0,0,0,0,0Z"/><circle id="Ellipse_4" class="cls-1" cx="22.76" cy="6.87" r="1.76"/></g></svg>