<svg xmlns="http://www.w3.org/2000/svg" width="29.548" height="29.582" viewBox="0 0 29.548 29.582">
  <g id="instagram-original" opacity="0.95">
    <path id="Path_64" data-name="Path 64" d="M30.534,9.684a12,12,0,0,0-.668-3.626A6.478,6.478,0,0,0,28.2,3.433a7.248,7.248,0,0,0-2.577-1.67A10.021,10.021,0,0,0,21.994,1.1c-1.67-.1-2.147-.1-6.2-.1s-4.485,0-6.107.048a11.432,11.432,0,0,0-3.626.668A6.6,6.6,0,0,0,3.433,3.433a6.478,6.478,0,0,0-1.67,2.624A10.021,10.021,0,0,0,1.1,9.684c-.048,1.622-.1,2.052-.1,6.107s0,4.485.048,6.107a11.432,11.432,0,0,0,.668,3.626,6.478,6.478,0,0,0,1.67,2.624,6.811,6.811,0,0,0,2.624,1.67,11.165,11.165,0,0,0,3.626.668c1.622.1,2.052.1,6.107.1s4.485,0,6.107-.048a11.432,11.432,0,0,0,3.626-.668A6.478,6.478,0,0,0,28.1,28.2a6.81,6.81,0,0,0,1.67-2.624,11.165,11.165,0,0,0,.668-3.626c.048-1.527.048-2,.048-6.06S30.582,11.306,30.534,9.684ZM27.863,21.755a8.441,8.441,0,0,1-.525,2.767,4.542,4.542,0,0,1-1.145,1.67,5.778,5.778,0,0,1-1.67,1.145,7.883,7.883,0,0,1-2.767.525H15.839c-3.912,0-4.437,0-5.964-.048a8.441,8.441,0,0,1-2.767-.525,4.542,4.542,0,0,1-1.67-1.145,5.778,5.778,0,0,1-1.145-1.67,7.883,7.883,0,0,1-.525-2.767V15.791c0-3.96,0-4.437.048-5.964A8.441,8.441,0,0,1,4.34,7.06a5.083,5.083,0,0,1,1.1-1.67,4.84,4.84,0,0,1,1.67-1.1,7.883,7.883,0,0,1,2.767-.525c1.527-.048,2-.048,5.964-.048s4.437,0,5.964.048a8.441,8.441,0,0,1,2.767.525,5.083,5.083,0,0,1,1.67,1.1,5.779,5.779,0,0,1,1.145,1.67,7.883,7.883,0,0,1,.525,2.767c.048,1.527.048,2,.048,5.964S27.91,20.228,27.863,21.755Z" transform="translate(-1 -1)" fill="#292a38"/>
    <path id="Path_65" data-name="Path 65" d="M23.686,16.1a7.587,7.587,0,1,0,7.634,7.586A7.575,7.575,0,0,0,23.686,16.1Zm0,12.549a4.962,4.962,0,1,1,4.962-4.962A4.958,4.958,0,0,1,23.686,28.649Z" transform="translate(-8.895 -8.895)" fill="#292a38"/>
    <ellipse id="Ellipse_4" data-name="Ellipse 4" cx="1.765" cy="1.765" rx="1.765" ry="1.765" transform="translate(20.994 5.105)" fill="#292a38"/>
  </g>
</svg>
