<?xml version="1.0" encoding="UTF-8"?><svg id="Layer_1" xmlns="http://www.w3.org/2000/svg" viewBox="0 0 27.41 27.41"><defs><style>.cls-1{fill:#ff587a;}</style></defs><path class="cls-1" d="m13.7,0C6.14,0,0,6.14,0,13.7c0,2.53.69,4.9,1.89,6.94L.13,27.21l6.89-1.54c1.98,1.11,4.25,1.74,6.68,1.74,7.57,0,13.7-6.14,13.7-13.7S21.27,0,13.7,0Zm0,2.49c6.19,0,11.21,5.02,11.21,11.21s-5.02,11.21-11.21,11.21c-2.32,0-4.48-.71-6.27-1.92l-3.82.86.97-3.65c-1.31-1.84-2.09-4.08-2.09-6.5C2.49,7.51,7.51,2.49,13.7,2.49Zm-4.69,4.82c-.23,0-.6.08-.91.42-.31.34-1.18,1.16-1.18,2.83s1.21,3.28,1.38,3.51c.17.23,2.35,3.77,5.8,5.13,2.86,1.13,3.45.9,4.07.85.62-.05,2.01-.82,2.29-1.61.28-.79.28-1.47.19-1.61-.09-.14-.31-.22-.65-.39-.34-.17-2.01-.99-2.32-1.1-.31-.11-.54-.17-.76.17-.23.34-.88,1.11-1.08,1.33-.2.23-.39.26-.73.09s-1.43-.53-2.73-1.68c-1.01-.9-1.69-2.01-1.89-2.35-.2-.34-.02-.52.15-.69.15-.15.34-.39.51-.59.16-.2.22-.34.33-.57.12-.22.06-.42-.03-.59-.08-.17-.74-1.85-1.05-2.52-.25-.56-.52-.58-.76-.59-.2,0-.43,0-.65,0Z"/></svg>