<?xml version="1.0" encoding="UTF-8"?><svg id="Layer_1" xmlns="http://www.w3.org/2000/svg" viewBox="0 0 42.44 30.61"><defs><style>.cls-1{fill:#ff587a;isolation:isolate;}</style></defs><path id="youtube" class="cls-1" d="m21.22,0c1.28,0,12.61.02,15.78.88,2.24.58,3.98,2.33,4.57,4.57.87,3.27.88,9.59.88,9.86s0,6.65-.88,9.86c-.58,2.24-2.33,3.98-4.57,4.57-3.17.85-14.5.88-15.78.88s-12.61-.03-15.78-.88c-2.23-.58-3.98-2.33-4.56-4.57C0,21.96,0,15.57,0,15.3s0-6.59.88-9.86C1.46,3.21,3.2,1.46,5.44.88,8.61.02,19.94,0,21.22,0Zm0,27.61c3.38,0,12.66-.14,15-.78h.02c1.19-.31,2.11-1.24,2.42-2.42v-.02c.77-2.83.78-9.02.78-9.09s0-6.2-.78-9.09h0c-.31-1.2-1.24-2.12-2.42-2.43h-.02c-2.35-.64-11.63-.77-15-.77s-12.66.14-15,.77h-.02c-1.19.31-2.11,1.23-2.42,2.42h0c-.77,2.9-.78,9.04-.78,9.1s0,6.26.77,9.09v.02c.31,1.19,1.23,2.12,2.42,2.43h.02c2.35.64,11.63.78,15.01.78ZM15.78,6.79l14.74,8.51-14.74,8.51V6.79Zm8.74,8.51l-5.74-3.32v6.64l5.74-3.32Z"/></svg>