<svg xmlns="http://www.w3.org/2000/svg" width="42.443" height="30.61" viewBox="0 0 42.443 30.61">
  <path id="youtube" d="M20.721,8.8c1.283,0,12.614.025,15.78.877a6.383,6.383,0,0,1,4.566,4.569c.866,3.27.876,9.591.876,9.858s-.01,6.651-.877,9.863A6.384,6.384,0,0,1,36.5,38.533c-3.166.853-14.5.877-15.78.877s-12.614-.025-15.78-.877A6.384,6.384,0,0,1,.377,33.968C-.49,30.756-.5,24.375-.5,24.105s.01-6.588.876-9.858A6.383,6.383,0,0,1,4.941,9.677C8.107,8.825,19.439,8.8,20.721,8.8Zm0,27.61c3.378,0,12.657-.139,15-.775l.016,0a3.382,3.382,0,0,0,2.423-2.423l0-.016c.766-2.828.775-9.025.775-9.087s-.01-6.2-.777-9.094l0-.008a3.382,3.382,0,0,0-2.423-2.423l-.016,0c-2.347-.636-11.626-.775-15-.775s-12.657.139-15,.775l-.016,0A3.382,3.382,0,0,0,3.279,15l0,.008c-.768,2.895-.777,9.033-.777,9.094s.01,6.262.775,9.087l0,.016A3.382,3.382,0,0,0,5.7,35.631l.016,0C8.065,36.271,17.344,36.41,20.721,36.41ZM15.277,15.59l14.741,8.515L15.277,32.62Zm8.744,8.515-5.744-3.318v6.635Z" transform="translate(0.5 -8.8)" fill="#7a7a7a" opacity="0.3"/>
</svg>
